<svg width="41" height="43" viewBox="0 0 41 43" fill="none" xmlns="http://www.w3.org/2000/svg">
<g clip-path="url(#clip0_2_1348)">
<g clip-path="url(#clip1_2_1348)">
<path d="M11.2134 13.01L14.9152 13.4471L18.6599 13.8881L25.2282 14.6609L28.6021 11.8762C28.6021 11.8762 28.1572 10.9962 26.9669 10.0537C26.1141 9.37848 24.8789 8.67209 23.15 8.23498C19.8483 7.40173 14.1288 6.69533 11.151 3.63949C10.3939 2.86284 9.8143 1.93399 9.49625 0.811951C9.49625 0.811951 9.2094 1.13588 8.86205 1.71544C8.47763 2.35353 8.0171 3.30581 7.78099 4.47077C7.32435 6.74021 7.72439 9.82143 11.2134 13.01Z" fill="url(#paint0_linear_2_1348)"/>
<path d="M11.2134 13.01L14.9152 13.4471L18.6599 13.8881C20.5234 12.9729 24.6642 10.922 24.6642 10.922C16.365 11.9972 10.1226 6.8046 7.78291 4.47272C7.32435 6.74021 7.72436 9.82142 11.2134 13.01Z" fill="url(#paint1_linear_2_1348)"/>
<path d="M11.2134 13.01L14.9152 13.4471L15.3718 13.1817C9.34402 9.68289 10.6241 4.984 11.151 3.63949C10.3939 2.86284 9.81431 1.93399 9.49622 0.811951C9.49622 0.811951 4.31143 6.70509 11.2134 13.01Z" fill="url(#paint2_linear_2_1348)"/>
<path d="M11.9296 36.249C12.714 37.6187 14.3356 37.3397 14.3356 37.3397C14.3356 37.3397 13.5239 39.4745 15.7348 40.0287C17.9457 40.5849 18.896 39.1779 18.896 39.1779L17.9515 36.0304L16.7924 32.1667C16.7924 32.1667 15.0303 32.0437 13.7951 29.9012C13.6488 29.6493 13.5102 29.3683 13.3834 29.0562C13.2702 28.7789 12.917 28.6933 12.6848 28.8826C11.7715 29.622 10.1187 31.4915 12.1813 34.2117C12.1833 34.2096 11.2583 35.0741 11.9296 36.249Z" fill="url(#paint3_linear_2_1348)"/>
<path d="M3.21874 13.6481C3.28509 14.5867 3.48803 15.7946 4.03051 16.9264C4.49884 17.906 5.22085 18.8309 6.32727 19.4788C8.12058 20.5306 9.88074 20.7647 11.6311 20.4311C13.52 20.072 15.3973 19.0495 17.294 17.6738C17.8716 17.2542 18.4141 16.8113 18.9156 16.3605C21.5909 13.9642 23.1501 11.3825 23.1501 11.3825C23.1501 11.3825 22.0729 10.6039 19.9342 10.4947C18.5585 10.4244 16.7437 10.6313 14.4957 11.4996C11.1647 12.7856 8.30013 13.3261 6.25312 13.211C4.77009 13.129 3.71634 12.7017 3.23045 11.964C3.23045 11.964 3.14849 12.6587 3.21874 13.6481Z" fill="url(#paint4_linear_2_1348)"/>
<path d="M4.03047 16.9264C4.4988 17.906 5.22081 18.8309 6.32723 19.4788C8.12054 20.5306 9.88068 20.7647 11.6311 20.431C13.52 20.072 15.3972 19.0495 17.294 17.6737C17.8716 17.2542 18.414 16.8112 18.9156 16.3605L19.3273 13.7164C19.3273 13.7144 11.9686 19.7266 4.03047 16.9264Z" fill="url(#paint5_linear_2_1348)"/>
<path d="M13.1063 33.4507C13.7112 35.0253 15.044 35.1287 15.044 35.1287C15.044 35.1287 14.6166 35.7026 15.044 36.8206C15.4713 37.9388 17.5125 37.8294 17.5125 37.8294L17.9535 36.0283L16.7944 32.1647C16.7944 32.1647 15.0323 32.0416 13.7971 29.8992C13.399 30.5079 12.5599 32.0338 13.1063 33.4507Z" fill="url(#paint6_linear_2_1348)"/>
<path d="M15.1475 23.5474C15.0538 25.6627 18.5331 26.3165 18.5331 26.3165C14.5328 32.3812 16.7945 38.0482 16.7945 38.0482L18.057 38.5417L29.4297 34.0322L32.6279 26.9038C32.6279 26.9038 33.8417 25.7154 34.0426 24.008C34.1285 23.2879 34.033 22.4742 33.588 21.6175C33.4788 21.4048 33.3459 21.1882 33.19 20.9716C31.9957 19.3071 31.982 17.5762 32.0192 17.0962C32.0268 16.9986 32.0308 16.903 32.025 16.8035C31.9742 15.9917 31.7048 15.1956 31.2659 14.4618C30.4852 13.1505 29.1701 12.0343 27.6226 11.3787C27.4802 11.3162 27.3338 11.2596 27.1855 11.2069C25.5386 10.6176 23.6711 10.5474 21.9149 11.2948C21.8973 11.3026 21.8797 11.3084 21.8622 11.3162C21.7295 11.3728 21.6007 11.4333 21.4758 11.4938C20.6113 11.9114 19.905 12.4031 19.3273 12.9378C18.2677 13.9174 17.6433 15.0395 17.2823 16.1127C16.8881 17.2835 16.8101 18.3978 16.8237 19.1998C16.8393 19.955 16.9388 20.435 16.9388 20.435C16.9388 20.435 15.0636 18.6729 14.728 20.435C14.4762 21.7619 16.0237 22.9913 16.7223 23.4694C16.1642 23.1415 15.1885 22.6127 15.1475 23.5474Z" fill="url(#paint7_linear_2_1348)"/>
<path d="M20.6308 26.8101C20.6308 26.8101 22.8261 28.2267 25.1502 27.7428L23.2593 30.5956C23.2613 30.5956 20.8552 28.0238 20.6308 26.8101Z" fill="url(#paint8_linear_2_1348)"/>
<path d="M23.9324 33.3102C23.9324 33.3102 20.6775 32.0242 18.41 35.6323L22.1567 36.5337L24.7032 33.8136L23.9324 33.3102Z" fill="url(#paint9_linear_2_1348)"/>
<path d="M19.979 31.7354C19.979 31.7354 21.7197 33.5306 23.6593 33.2827L23.911 32.2135L20.5547 31.5441L19.979 31.7354Z" fill="url(#paint10_linear_2_1348)"/>
<path d="M23.3413 31.3803C23.3413 35.2166 26.4518 38.3272 30.2881 38.3272C34.1245 38.3272 37.2351 35.2166 37.2351 31.3803C37.2351 27.7135 34.3939 24.7104 30.7935 24.4529C30.6922 24.4451 30.5886 24.4392 30.4852 24.4373C30.3839 24.5114 30.2649 24.5719 30.1302 24.5953C29.9487 24.6265 29.7612 24.5856 29.5682 24.4704C29.3612 24.4919 29.1583 24.5212 28.9574 24.5621C28.8012 24.728 28.5495 24.9153 28.2061 24.9153H28.1963C28.0695 24.9153 27.9602 24.8958 27.8665 24.8685C27.7709 24.9036 27.6753 24.9407 27.5797 24.9817C25.0878 26.0354 23.3413 28.504 23.3413 31.3803Z" fill="url(#paint11_linear_2_1348)"/>
<path d="M35.9609 32.3813C35.9609 32.3813 36.0448 32.2329 36.0448 32.075C36.0448 31.917 36.0486 31.8564 36.0448 31.7353C36.0408 31.6145 36.0915 31.5013 36.0466 31.3295C36.0018 31.1579 36.0036 31.236 36.0135 31.0641C36.0213 30.8926 35.9745 30.7091 35.9237 30.6211C35.873 30.5335 35.8126 30.5001 35.7365 30.514C35.6602 30.5276 35.6096 30.6778 35.5179 30.746C35.4241 30.8162 35.3734 30.9277 35.2798 30.91C35.1861 30.8905 35.0554 30.9373 35.0613 30.8632C35.065 30.7889 35.2192 30.4202 35.2563 30.2484C35.2935 30.0768 35.2328 30.067 35.2798 29.8698C35.3266 29.6748 35.4282 29.5441 35.4378 29.4231C35.4476 29.302 35.5315 29.068 35.4476 28.9293C35.3637 28.7908 35.0514 28.4024 35.0084 28.2502C34.9655 28.0981 34.9149 28.1742 34.784 27.944C34.6534 27.7137 34.7411 27.7196 34.6534 27.5439C34.5654 27.3663 34.7196 27.3799 34.3686 27.222C34.0173 27.0638 33.8356 27.0307 33.7773 26.8902C33.7186 26.7497 33.6446 26.6248 33.5137 26.5819C33.383 26.5389 32.8796 26.3165 32.8053 26.2501C32.7313 26.1856 32.5635 26.0257 32.3858 26.0179C32.2082 26.0081 31.7986 25.9301 31.6775 25.854C31.5565 25.7799 31.4902 25.7603 31.3283 25.7194C31.1643 25.6764 30.86 25.6159 30.6803 25.5554C30.4989 25.495 30.417 25.4715 30.2843 25.491C30.1534 25.5106 29.9017 25.7155 29.691 25.6959C29.4802 25.6764 29.412 25.5691 29.2909 25.6393C29.1699 25.7096 29.0256 25.7837 28.8012 25.7837C28.5768 25.7837 28.1807 25.9106 28.087 26.0218C27.9933 26.1331 27.765 26.4004 27.4118 26.4881C27.0567 26.5761 27.0684 26.7555 26.9962 26.8472C26.8284 27.062 26.6742 27.058 26.483 27.1497C26.2917 27.2414 26.0439 27.6571 26.0439 27.6571C26.0439 27.6571 25.9639 27.7878 25.8156 27.8287C25.6673 27.8717 25.6673 28.2151 25.5502 28.2816C25.4331 28.346 25.0741 28.7577 25.0799 28.8787C25.0858 28.9995 25.0097 29.1537 24.9394 29.2338C24.8692 29.3139 24.9258 29.9714 24.8516 30.2504C24.7775 30.5294 24.8614 30.5294 24.8516 30.7442C24.8419 30.9588 24.836 31.2067 24.8204 31.3393C24.8048 31.472 24.8731 31.708 24.8731 31.8056C24.8731 31.9031 24.8614 32.1766 24.8184 32.2741C24.7755 32.3717 24.8731 32.5336 24.8516 32.6448C24.8302 32.756 24.795 33.2458 24.957 33.3999C25.117 33.5541 25.3687 33.7843 25.4741 33.8957C25.5795 34.0069 25.5092 34.1474 25.6009 34.2801C25.6927 34.4128 25.7278 34.3776 25.839 34.6293C25.9502 34.881 25.9854 35.1054 26.1532 35.1815C26.321 35.2576 26.4186 35.2576 26.4537 35.3142C26.4888 35.3708 26.5162 35.5035 26.684 35.6285C26.8518 35.7534 27.2577 36.0266 27.447 36.1319C27.6362 36.2373 27.6635 36.2646 27.9094 36.3622C28.1533 36.4597 28.483 36.5378 28.573 36.5651C28.6647 36.5924 28.811 36.6002 28.971 36.5651C29.131 36.53 29.1037 36.5027 29.2149 36.3836C29.3261 36.2646 29.3124 36.1456 29.4314 36.1183C29.5505 36.091 29.5232 36.2237 29.6344 36.048C29.7456 35.8724 29.6831 35.806 29.8295 35.8431C29.976 35.8802 30.1517 35.8724 30.1789 35.9641C30.2062 36.0559 30.1789 36.2158 30.1223 36.3212C30.0657 36.4266 30.0521 36.5085 30.1009 36.5904C30.1496 36.6725 30.3349 36.7485 30.4306 36.7544C30.5262 36.7622 30.8618 36.8949 31.1213 36.8168C31.3808 36.7407 31.3379 36.6899 31.6676 36.6139C31.9974 36.5378 32.0326 36.6002 32.2064 36.5085C32.38 36.4188 34.0876 35.4645 34.1988 35.3902C34.31 35.3162 34.5831 35.2636 34.6456 35.0898C34.708 34.9162 34.7509 34.762 34.7997 34.6488C34.8485 34.5376 34.8348 34.5649 35.0105 34.4108C35.1861 34.2566 35.1861 34.2215 35.2407 34.0966C35.2953 33.9718 35.4067 33.921 35.5333 33.6693C35.6602 33.4176 35.6602 33.2908 35.6817 33.1032C35.7031 32.916 35.8007 32.8437 35.8573 32.6837C35.9197 32.5276 35.787 32.6271 35.9609 32.3813Z" fill="url(#paint12_linear_2_1348)"/>
<path d="M36.0077 32.2349L35.0514 32.2953C34.9228 32.3032 34.8116 32.3911 34.7765 32.516L34.7568 32.5804C34.7178 32.7073 34.7666 32.8457 34.8758 32.9218L35.4436 33.314C35.5063 33.357 35.5823 33.3764 35.6584 33.3668L35.787 33.3512C35.8848 33.3393 35.9705 33.2809 36.0175 33.195L36.2965 32.6936C36.3374 32.6173 36.3473 32.5296 36.32 32.4477C36.277 32.313 36.1482 32.2251 36.0077 32.2349Z" fill="url(#paint13_linear_2_1348)"/>
<path d="M35.7949 32.3833L35.389 32.4086C35.3344 32.4126 35.2877 32.4495 35.272 32.5023L35.2642 32.5296C35.2485 32.5842 35.268 32.6428 35.315 32.6739L35.5548 32.8399C35.5824 32.8574 35.6134 32.8652 35.6465 32.8614L35.7014 32.8536C35.7423 32.8478 35.7792 32.8243 35.7989 32.7871L35.9179 32.5746C35.9354 32.5433 35.9394 32.5043 35.9276 32.471C35.9081 32.4164 35.8535 32.3793 35.7949 32.3833Z" fill="url(#paint14_linear_2_1348)"/>
<path d="M34.8369 32.7032L35.4047 33.0954C35.4671 33.1384 35.5432 33.1579 35.6192 33.1483L35.7481 33.1326C35.8457 33.121 35.9316 33.0623 35.9783 32.9764L36.2573 32.475C36.273 32.4457 36.2829 32.4144 36.2887 32.3813C36.3003 32.4007 36.3122 32.4222 36.32 32.4457C36.3473 32.5276 36.3374 32.6173 36.2965 32.6916L36.0175 33.193C35.9705 33.2789 35.8848 33.3375 35.787 33.3492L35.6584 33.3648C35.5823 33.3744 35.5063 33.355 35.4436 33.312L34.8758 32.9198C34.7744 32.8496 34.7277 32.7267 34.7489 32.6095C34.7724 32.6446 34.8017 32.678 34.8369 32.7032Z" fill="url(#paint15_linear_2_1348)"/>
<path d="M30.2414 30.4493L29.2851 30.51C29.1562 30.5178 29.0451 30.6055 29.0099 30.7303L28.9905 30.7948C28.9516 30.9216 29.0003 31.0601 29.1095 31.1364L29.6773 31.5286C29.7398 31.5716 29.8158 31.5911 29.8919 31.5812L30.0208 31.5655C30.1183 31.5539 30.2042 31.4953 30.251 31.4096L30.5302 30.908C30.5712 30.8319 30.5808 30.744 30.5535 30.6621C30.5087 30.5274 30.3799 30.4417 30.2414 30.4493Z" fill="url(#paint16_linear_2_1348)"/>
<path d="M30.0384 30.6154L29.5876 30.6447C29.5272 30.6485 29.4744 30.6894 29.457 30.748L29.4471 30.7794C29.4297 30.8398 29.4512 30.9042 29.5037 30.9413L29.7711 31.1266C29.8004 31.146 29.8373 31.1559 29.8724 31.1519L29.9331 31.1443C29.9798 31.1382 30.019 31.1109 30.0422 31.07L30.1731 30.8339C30.1926 30.7988 30.1964 30.7559 30.1848 30.7187C30.1653 30.6525 30.1047 30.6116 30.0384 30.6154Z" fill="url(#paint17_linear_2_1348)"/>
<path d="M29.0706 30.9178L29.6384 31.31C29.7008 31.3528 29.7769 31.3725 29.853 31.3626L29.9818 31.3469C30.0794 31.3353 30.1653 31.2767 30.2121 31.191L30.491 30.6894C30.5067 30.6601 30.5163 30.629 30.5224 30.5956C30.534 30.6154 30.5456 30.6368 30.5535 30.6601C30.5808 30.7422 30.5712 30.8319 30.5302 30.906L30.251 31.4076C30.2042 31.4933 30.1183 31.5519 30.0208 31.5635L29.8919 31.5792C29.8158 31.589 29.7397 31.5696 29.6773 31.5266L29.1095 31.1344C29.0079 31.0642 28.9612 30.9411 28.9826 30.8241C29.0041 30.8612 29.0334 30.8923 29.0706 30.9178Z" fill="url(#paint18_linear_2_1348)"/>
<path d="M27.0314 26.4451L26.0752 26.5058C25.9465 26.5134 25.8352 26.6013 25.8001 26.7261L25.7806 26.7906C25.7416 26.9174 25.7903 27.0559 25.8996 27.132L26.4675 27.5242C26.5299 27.5672 26.606 27.5866 26.6821 27.577L26.8109 27.5613C26.9085 27.5497 26.9943 27.4911 27.0412 27.4052L27.3202 26.9038C27.3612 26.8277 27.3709 26.7398 27.3436 26.6579C27.3007 26.5232 27.1719 26.4373 27.0314 26.4451Z" fill="url(#paint19_linear_2_1348)"/>
<path d="M26.8149 26.5935L26.3017 26.6269C26.2334 26.6307 26.1729 26.6774 26.1534 26.7439L26.1436 26.779C26.1241 26.8472 26.1495 26.9215 26.208 26.9625L26.5124 27.1732C26.5456 27.1965 26.5866 27.2063 26.6276 27.2005L26.6978 27.1907C26.7505 27.1848 26.7954 27.1535 26.8207 27.1068L26.971 26.8376C26.9925 26.7964 26.9983 26.7497 26.9827 26.7047C26.9593 26.6344 26.891 26.5877 26.8149 26.5935Z" fill="url(#paint20_linear_2_1348)"/>
<path d="M25.8606 26.9134L26.4284 27.3056C26.4909 27.3486 26.567 27.3681 26.6431 27.3585L26.7719 27.3428C26.8694 27.3312 26.9553 27.2725 27.0021 27.1866L27.2812 26.6852C27.2968 26.6559 27.3065 26.6246 27.3124 26.5915C27.3241 26.611 27.3358 26.6324 27.3436 26.6559C27.3709 26.7378 27.3612 26.8275 27.3202 26.9018L27.0412 27.4032C26.9943 27.4891 26.9085 27.5477 26.8109 27.5594L26.6821 27.575C26.606 27.5849 26.5299 27.5652 26.4675 27.5222L25.8996 27.13C25.7981 27.0598 25.7513 26.9369 25.7728 26.8199C25.7962 26.8568 25.8255 26.8882 25.8606 26.9134Z" fill="url(#paint21_linear_2_1348)"/>
<path d="M33.1917 28.5917L33.2541 29.5871C33.262 29.7215 33.3537 29.8368 33.4826 29.8739L33.5508 29.8934C33.6835 29.9323 33.8278 29.8818 33.9059 29.7685L34.3158 29.1772C34.3608 29.1128 34.3802 29.0327 34.3704 28.9528L34.3529 28.8181C34.3393 28.7168 34.2786 28.6268 34.1909 28.578L33.6678 28.2874C33.5897 28.2445 33.4962 28.2346 33.4123 28.2639C33.2718 28.3107 33.1821 28.4454 33.1917 28.5917Z" fill="url(#paint22_linear_2_1348)"/>
<path d="M33.2933 28.787L33.3264 29.3275C33.3302 29.3996 33.381 29.4622 33.4513 29.4835L33.4884 29.4953C33.5607 29.5168 33.6388 29.4895 33.6815 29.4271L33.9041 29.1069C33.9294 29.0718 33.9392 29.0288 33.9334 28.9859L33.9236 28.9139C33.9157 28.859 33.8847 28.8102 33.8356 28.783L33.5528 28.625C33.5099 28.6015 33.4591 28.5957 33.4144 28.6114C33.338 28.6346 33.2875 28.7069 33.2933 28.787Z" fill="url(#paint23_linear_2_1348)"/>
<path d="M33.6777 29.8112L34.0873 29.2201C34.1323 29.1557 34.1518 29.0756 34.1422 28.9957L34.1245 28.861C34.1108 28.7595 34.0504 28.6697 33.9625 28.621L33.4396 28.3301C33.4083 28.3127 33.3772 28.3028 33.3421 28.297C33.3636 28.2833 33.3851 28.2717 33.4103 28.2639C33.4963 28.2366 33.588 28.2444 33.6658 28.2874L34.1889 28.578C34.2786 28.6268 34.3393 28.7165 34.3509 28.8181L34.3683 28.9528C34.3782 29.0309 34.3587 29.1107 34.3138 29.1772L33.9041 29.7683C33.8318 29.8736 33.703 29.9244 33.5802 29.9009C33.6191 29.8777 33.6522 29.8484 33.6777 29.8112Z" fill="url(#paint24_linear_2_1348)"/>
<path d="M24.2194 31.5072L24.2818 32.5023C24.2896 32.637 24.3813 32.7522 24.5101 32.7891L24.5784 32.8089C24.7111 32.8478 24.8555 32.797 24.9336 32.6838L25.3434 32.0927C25.3882 32.0282 25.4078 31.9481 25.398 31.8683L25.3804 31.7336C25.3668 31.632 25.3063 31.5423 25.2185 31.4935L24.6955 31.2026C24.6174 31.1599 24.5238 31.1501 24.4399 31.1794C24.3013 31.2261 24.2116 31.3608 24.2194 31.5072Z" fill="url(#paint25_linear_2_1348)"/>
<path d="M24.3735 31.6398L24.4008 32.073C24.4047 32.1316 24.4438 32.1824 24.5004 32.1978L24.5296 32.2056C24.5882 32.2233 24.6506 32.2018 24.6838 32.1511L24.8614 31.8935C24.8809 31.8642 24.8887 31.8311 24.8848 31.796L24.877 31.7374C24.8711 31.6924 24.8458 31.6555 24.8067 31.632L24.5804 31.5051C24.5472 31.4857 24.5062 31.4816 24.4692 31.4955C24.4087 31.5188 24.3696 31.5774 24.3735 31.6398Z" fill="url(#paint26_linear_2_1348)"/>
<path d="M24.7072 32.7267L25.117 32.1354C25.1619 32.0709 25.1814 31.9911 25.1716 31.911L25.1541 31.7763C25.1404 31.6749 25.0799 31.5852 24.9921 31.5364L24.4692 31.2456C24.4379 31.2281 24.4067 31.2183 24.3716 31.2125C24.393 31.1988 24.4145 31.1869 24.4399 31.1794C24.5257 31.1518 24.6174 31.1597 24.6955 31.2026L25.2185 31.4935C25.3082 31.5423 25.3687 31.632 25.3804 31.7336L25.398 31.868C25.4078 31.9461 25.3883 32.0262 25.3434 32.0924L24.9336 32.6837C24.8614 32.7891 24.7326 32.8399 24.6096 32.8164C24.6487 32.7949 24.6818 32.7638 24.7072 32.7267Z" fill="url(#paint27_linear_2_1348)"/>
<path d="M30.4521 29.3255C30.0124 29.3255 29.6559 29.0344 29.6559 28.6755C29.6559 28.3167 30.0124 28.0258 30.4521 28.0258C30.8916 28.0258 31.2482 28.3167 31.2482 28.6755C31.2482 29.0344 30.8916 29.3255 30.4521 29.3255Z" fill="url(#paint28_linear_2_1348)"/>
<path d="M30.4521 28.0258C30.4716 28.0258 30.491 28.0278 30.5125 28.0278C30.1671 28.0531 29.8959 28.2891 29.8959 28.578C29.8959 28.8825 30.1984 29.1302 30.5729 29.1302C30.9262 29.1302 31.2151 28.9098 31.2461 28.6268C31.2482 28.6424 31.2502 28.6599 31.2502 28.6755C31.2502 29.0346 30.8931 29.3255 30.4539 29.3255C30.0149 29.3255 29.6579 29.0346 29.6579 28.6755C29.6579 28.3164 30.0129 28.0258 30.4521 28.0258Z" fill="url(#paint29_linear_2_1348)"/>
<path d="M30.296 34.112C30.5906 34.317 31.0316 34.1921 31.2835 33.833C31.5352 33.4722 31.5019 33.0135 31.2072 32.8086C30.9126 32.6036 30.4716 32.7287 30.2199 33.0876C29.9682 33.4467 30.0013 33.9053 30.296 34.112Z" fill="url(#paint30_linear_2_1348)"/>
<path d="M30.2199 33.0878C30.2315 33.0722 30.2434 33.0565 30.257 33.0408C30.0794 33.3375 30.1186 33.6966 30.3546 33.8604C30.6043 34.036 30.981 33.9289 31.1936 33.6223C31.3965 33.3337 31.3811 32.9688 31.1663 32.7813C31.1799 32.7891 31.1936 32.797 31.2072 32.8068C31.5019 33.0115 31.5352 33.4702 31.2835 33.8313C31.0316 34.1922 30.5888 34.317 30.296 34.1103C30.0013 33.9054 29.9682 33.4467 30.2199 33.0878Z" fill="url(#paint31_linear_2_1348)"/>
<path d="M26.7875 31.0662C26.604 31.3745 26.7601 31.8056 27.1368 32.032C27.5134 32.2585 27.9681 32.192 28.1534 31.8837C28.3369 31.5754 28.1807 31.144 27.8041 30.9179C27.4275 30.6935 26.9728 30.7597 26.7875 31.0662Z" fill="url(#paint32_linear_2_1348)"/>
<path d="M27.8041 30.9179C27.8217 30.9275 27.8373 30.9393 27.8549 30.951C27.5466 30.7948 27.1914 30.8592 27.0431 31.1051C26.887 31.3667 27.0197 31.7333 27.3397 31.9267C27.6422 32.1081 28.0051 32.0672 28.1749 31.8407C28.1671 31.8544 28.1613 31.8701 28.1534 31.8837C27.97 32.192 27.5134 32.2585 27.1368 32.032C26.7602 31.8056 26.604 31.3745 26.7875 31.0662C26.9728 30.7597 27.4275 30.6935 27.8041 30.9179Z" fill="url(#paint33_linear_2_1348)"/>
<path d="M34.0272 31.1539L34.2281 32.0085C34.267 32.1783 34.2165 32.354 34.0934 32.477C33.9822 32.5882 33.824 32.6388 33.6699 32.6175L32.0134 32.3775C31.8514 32.354 31.7109 32.2526 31.6386 32.1081L31.5878 32.0085C31.5196 31.872 31.5158 31.7101 31.582 31.5716L32.0679 30.5372C32.189 30.2815 32.4953 30.1761 32.747 30.305L33.7676 30.8241C33.8983 30.8905 33.9938 31.0113 34.0272 31.1539Z" fill="url(#paint34_linear_2_1348)"/>
<path d="M31.58 31.5716L32.0659 30.5372C32.1283 30.4066 32.2395 30.3149 32.3684 30.2739C32.3429 30.305 32.3196 30.3401 32.2999 30.3793L31.8142 31.4134C31.7478 31.5519 31.7518 31.7139 31.82 31.8506L31.8708 31.9501C31.9449 32.0965 32.0834 32.196 32.2453 32.2193L33.9021 32.4593C33.9782 32.471 34.0525 32.4634 34.1227 32.4419C34.1129 32.4535 34.103 32.4652 34.0914 32.477C33.9802 32.5882 33.822 32.6388 33.6678 32.6175L32.0113 32.3775C31.8494 32.354 31.7088 32.2526 31.6366 32.1081L31.5858 32.0085C31.5176 31.872 31.5155 31.7101 31.58 31.5716Z" fill="url(#paint35_linear_2_1348)"/>
<path d="M31.7634 35.7044C31.7849 35.8118 31.8395 35.9114 31.9234 35.9912L32.3861 36.4246C32.4854 36.5181 32.6181 36.5709 32.7548 36.5709H33.028C33.1647 36.5709 33.2953 36.5181 33.3967 36.4246L34.1462 35.7259C34.195 35.6811 34.2339 35.6263 34.2612 35.5699C34.3004 35.4919 34.3198 35.4059 34.3178 35.32C34.3178 35.3104 34.3178 35.3026 34.3178 35.2927C34.314 35.2556 34.3082 35.2187 34.2983 35.1815C34.2943 35.1659 34.2885 35.1522 34.2827 35.1366C34.2417 35.0294 34.1657 34.9357 34.0661 34.8732C33.7012 34.643 32.864 34.1629 32.5147 34.3736C32.2337 34.5435 31.9664 35.0254 31.8064 35.3668C31.7986 35.3824 31.7927 35.3981 31.7869 35.4138C31.7791 35.4332 31.7733 35.4527 31.7692 35.4722C31.7675 35.48 31.7655 35.4898 31.7634 35.4997C31.7634 35.5035 31.7617 35.5073 31.7617 35.5113C31.7498 35.5758 31.7518 35.6402 31.7634 35.7044Z" fill="url(#paint36_linear_2_1348)"/>
<path d="M32.8875 35.041C32.6699 35.041 32.4933 34.9546 32.4933 34.8479C32.4933 34.741 32.6699 34.6546 32.8875 34.6546C33.1053 34.6546 33.2817 34.741 33.2817 34.8479C33.2817 34.9546 33.1053 35.041 32.8875 35.041Z" fill="url(#paint37_linear_2_1348)"/>
<path d="M31.7634 35.7043C31.7849 35.8117 31.8395 35.9113 31.9234 35.9914L32.3858 36.4246C32.4854 36.5181 32.6181 36.5709 32.7548 36.5709H33.028C33.1644 36.5709 33.2953 36.5181 33.3967 36.4246L34.146 35.7258C34.1947 35.6811 34.2339 35.6265 34.2612 35.5699C34.2983 35.4918 34.3178 35.4059 34.3178 35.32C34.3178 35.3104 34.3178 35.3025 34.3178 35.2927C34.3178 35.2459 34.31 35.1989 34.2983 35.1542C34.2943 35.1443 34.2905 35.1347 34.2865 35.1249C34.2847 35.1289 34.2847 35.1327 34.2827 35.1365C34.2534 35.2186 34.2084 35.2947 34.146 35.3551L33.3967 36.1006C33.2971 36.2001 33.1644 36.2568 33.028 36.2568H32.7548C32.6181 36.2568 32.4854 36.2001 32.3858 36.1006L31.9234 35.6381C31.859 35.5737 31.8122 35.4956 31.7849 35.4117V35.4097C31.7771 35.4294 31.7733 35.4509 31.7692 35.4703C31.7672 35.4782 31.7655 35.4878 31.7634 35.4976C31.7634 35.5014 31.7614 35.5055 31.7614 35.5092C31.7518 35.5757 31.7518 35.6401 31.7634 35.7043Z" fill="url(#paint38_linear_2_1348)"/>
<path d="M32.4601 30.6545C32.423 30.7538 32.5557 30.8984 32.7606 30.9745C32.9656 31.0505 33.1607 31.0331 33.1978 30.9335C33.2347 30.8339 33.102 30.6897 32.8971 30.6133C32.6924 30.5373 32.4991 30.555 32.4601 30.6545Z" fill="url(#paint39_linear_2_1348)"/>
<path d="M30.4248 28.2718C30.3973 28.342 30.4931 28.4433 30.6353 28.4962C30.7779 28.5487 30.9163 28.5371 30.9419 28.4668C30.9692 28.3966 30.8736 28.295 30.7311 28.2424C30.5886 28.1896 30.4501 28.2015 30.4248 28.2718Z" fill="url(#paint40_linear_2_1348)"/>
<path d="M27.5076 31.1228C27.4646 31.1852 27.531 31.3042 27.6558 31.3919C27.7807 31.4799 27.9173 31.5014 27.9603 31.4389C28.0032 31.3763 27.9369 31.2572 27.812 31.1696C27.6871 31.0816 27.5505 31.0622 27.5076 31.1228Z" fill="url(#paint41_linear_2_1348)"/>
<path d="M30.4852 33.359C30.5476 33.402 30.6667 33.3355 30.7546 33.2107C30.8423 33.0858 30.8638 32.9491 30.8014 32.9064C30.7389 32.8634 30.6199 32.9297 30.5322 33.0545C30.4463 33.1796 30.4248 33.316 30.4852 33.359Z" fill="url(#paint42_linear_2_1348)"/>
<path d="M28.4382 26.6324C28.733 26.8374 29.1739 26.7125 29.4256 26.3535C29.6773 25.9925 29.6442 25.5339 29.3496 25.329C29.0549 25.1241 28.6139 25.249 28.3621 25.6081C28.1104 25.9671 28.1436 26.4277 28.4382 26.6324Z" fill="url(#paint43_linear_2_1348)"/>
<path d="M28.3621 25.6081C28.3738 25.5924 28.3855 25.5768 28.3992 25.5612C28.2216 25.8578 28.2607 26.217 28.4967 26.3807C28.7466 26.5563 29.1231 26.4492 29.3359 26.1427C29.5388 25.8539 29.5232 25.489 29.3086 25.3017C29.3223 25.3095 29.3359 25.3173 29.3496 25.3271C29.6442 25.532 29.6773 25.9905 29.4256 26.3516C29.1739 26.7125 28.7309 26.8374 28.4382 26.6306C28.1436 26.4277 28.1104 25.9691 28.3621 25.6081Z" fill="url(#paint44_linear_2_1348)"/>
<path d="M28.6293 25.8793C28.692 25.9223 28.811 25.8559 28.8987 25.7311C28.9867 25.6062 29.0079 25.4696 28.9455 25.4266C28.8831 25.3837 28.764 25.45 28.6764 25.5749C28.5884 25.6998 28.5669 25.8364 28.6293 25.8793Z" fill="url(#paint45_linear_2_1348)"/>
<path d="M32.6375 25.6802L33.1859 26.3302C33.3714 26.5485 33.3557 26.8725 33.1528 27.0736L32.6338 27.5849C32.5301 27.6862 32.3937 27.7428 32.2494 27.7428H31.9722C31.861 27.7428 31.7536 27.7097 31.6618 27.6473L30.9828 27.1808C30.8266 27.0736 30.7369 26.8919 30.7448 26.7009L30.7799 26.0061C30.7956 25.7153 31.0356 25.4851 31.3283 25.4851H32.2201C32.38 25.4851 32.5342 25.5554 32.6375 25.6802Z" fill="url(#paint46_linear_2_1348)"/>
<path d="M32.4639 25.9008L32.7606 26.2501C32.8602 26.3673 32.8523 26.5427 32.7429 26.6501L32.4639 26.9253C32.4094 26.9799 32.3351 27.0112 32.257 27.0112H32.1089C32.0482 27.0112 31.9916 26.9936 31.9411 26.9584L31.5741 26.7067C31.4903 26.6481 31.4415 26.5506 31.4473 26.4492L31.4667 26.0745C31.4746 25.9165 31.6052 25.7935 31.7614 25.7935H32.2416C32.3255 25.7955 32.4073 25.8345 32.4639 25.9008Z" fill="url(#paint47_linear_2_1348)"/>
<path d="M30.7819 26.0062C30.7935 25.7662 30.9596 25.5691 31.1799 25.5067C31.0824 25.6003 31.0179 25.7291 31.0101 25.8755L30.975 26.5703C30.9654 26.7596 31.0551 26.9428 31.2133 27.0502L31.8923 27.5167C31.984 27.5791 32.0912 27.6122 32.2026 27.6122H32.4796C32.5304 27.6122 32.5812 27.6044 32.63 27.5907C32.5284 27.6883 32.3919 27.7428 32.2514 27.7428H31.9742C31.863 27.7428 31.7556 27.7097 31.6639 27.6473L30.9848 27.1808C30.8287 27.0737 30.7389 26.8922 30.7468 26.7009L30.7819 26.0062Z" fill="url(#paint48_linear_2_1348)"/>
<path d="M28.1222 27.7858C28.4559 27.8229 28.735 28.0569 28.8267 28.3809C28.8697 28.5272 28.8987 28.6854 28.8929 28.8259C28.8735 29.226 28.7057 29.507 28.5379 29.6005C28.37 29.6942 27.5212 29.9459 27.326 30.1041C27.1309 30.2621 27.1114 30.3831 26.9065 30.3831C26.7016 30.3831 26.5611 30.3558 26.4967 30.2153C26.4323 30.0748 26.0772 28.6387 26.7484 28.0804C27.1387 27.7547 27.7124 27.7411 28.1222 27.7858Z" fill="url(#paint49_linear_2_1348)"/>
<path d="M27.9407 28.02C28.0988 28.0572 28.2198 28.1878 28.2471 28.3498C28.2588 28.4218 28.2646 28.5019 28.2529 28.5684C28.2198 28.7615 28.1222 28.8863 28.0344 28.9214C27.9485 28.9566 27.5211 29.0268 27.4177 29.0933C27.3143 29.1577 27.2967 29.2161 27.1972 29.2045C27.0977 29.1928 27.0314 29.1714 27.008 29.0991C26.9845 29.0268 26.8987 28.3106 27.2577 28.0804C27.4665 27.9457 27.7436 27.973 27.9407 28.02Z" fill="url(#paint50_linear_2_1348)"/>
<path d="M26.7815 30.0768C26.9923 30.0768 27.0118 29.9557 27.2128 29.7978C27.4138 29.6396 28.2841 29.3879 28.4558 29.2942C28.6276 29.2007 28.7992 28.9214 28.8189 28.5196C28.8227 28.4572 28.8169 28.3907 28.807 28.3245C28.8148 28.344 28.8227 28.3614 28.8285 28.3809C28.8714 28.5274 28.9008 28.6854 28.8949 28.8259C28.8752 29.2259 28.7074 29.5069 28.5396 29.6007C28.3719 29.6942 27.523 29.9459 27.3279 30.1041C27.1328 30.262 27.1133 30.3831 26.9084 30.3831C26.7035 30.3831 26.563 30.3558 26.4986 30.2153C26.4849 30.188 26.4615 30.1119 26.4381 30.0025C26.5142 30.0611 26.6293 30.0768 26.7815 30.0768Z" fill="url(#paint51_linear_2_1348)"/>
<path d="M28.7544 34.0165L28.7448 34.1141C28.7251 34.2975 28.6374 34.4653 28.4989 34.5864C28.2959 34.762 27.9817 35.0175 27.6675 35.1931C27.3729 35.3571 27.006 35.2967 26.7797 35.0468C26.5104 34.7504 26.1787 34.3248 26.1864 34.0243C26.2001 33.521 26.3894 33.4234 26.4167 33.2907C26.444 33.1581 26.444 32.7932 26.6411 32.7833C26.8363 32.7734 27.7105 32.7949 28.0324 32.8925C28.2432 32.9569 28.4969 33.316 28.6491 33.5579C28.733 33.6925 28.7721 33.8545 28.7544 34.0165Z" fill="url(#paint52_linear_2_1348)"/>
<path d="M28.37 33.714L28.3661 33.7492C28.3603 33.8156 28.3271 33.876 28.2783 33.919C28.2061 33.9834 28.091 34.0751 27.9778 34.1376C27.8724 34.1962 27.7397 34.1747 27.6578 34.0847C27.5602 33.9776 27.4412 33.8252 27.4431 33.716C27.449 33.5346 27.5153 33.4995 27.527 33.4507C27.5368 33.4019 27.5368 33.271 27.607 33.2672C27.6773 33.2635 27.9934 33.271 28.1085 33.3062C28.1846 33.3297 28.2764 33.4585 28.331 33.5462C28.3622 33.599 28.3759 33.6574 28.37 33.714Z" fill="url(#paint53_linear_2_1348)"/>
<path d="M26.4147 33.2888C26.442 33.1561 26.442 32.7912 26.6391 32.7813C26.6723 32.7793 26.725 32.7793 26.7894 32.7793C26.7211 32.8983 26.7133 33.1053 26.6938 33.199C26.6665 33.3317 26.4771 33.4293 26.4635 33.9327C26.4557 34.2331 26.7874 34.6605 27.0567 34.9551C27.2167 35.1307 27.447 35.2129 27.6733 35.1873C27.6714 35.1894 27.6694 35.1894 27.6656 35.1914C27.3709 35.3551 27.004 35.2947 26.7777 35.0451C26.5084 34.7484 26.1767 34.3228 26.1845 34.0224C26.1981 33.521 26.3874 33.4234 26.4147 33.2888Z" fill="url(#paint54_linear_2_1348)"/>
<path d="M27.1737 24.5817C27.1815 24.5953 27.2888 24.8217 27.5757 24.9778C27.5757 24.9778 27.5777 24.9778 27.5796 24.9797C27.7299 25.0617 27.9308 25.1261 28.1923 25.1281H28.204C28.7759 25.1281 29.1252 24.7241 29.2636 24.5212C29.5641 24.7612 29.8686 24.8568 30.165 24.8061C30.4306 24.7593 30.6414 24.6051 30.7915 24.4529C30.7915 24.4529 30.7935 24.4509 30.7956 24.449C30.9593 24.2812 31.051 24.1153 31.0569 24.1036C31.0862 24.0509 31.0647 23.9865 31.0139 23.9592C30.9613 23.9299 30.8969 23.9494 30.8676 24.0021C30.8658 24.006 30.7271 24.2578 30.4873 24.4353C30.4852 24.4353 30.4852 24.4373 30.4832 24.4392C30.3819 24.5134 30.2628 24.5739 30.1282 24.5973C29.9467 24.6285 29.7592 24.5875 29.5661 24.4724C29.5641 24.4724 29.5621 24.4704 29.5603 24.4704C29.4782 24.4217 29.3943 24.3592 29.3104 24.2831C29.2851 24.2616 29.252 24.2519 29.2187 24.2578C29.1856 24.2636 29.1583 24.2851 29.1426 24.3143C29.1406 24.3163 29.0782 24.4314 28.9591 24.5622C28.9574 24.5641 28.9574 24.5641 28.9553 24.5661C28.7992 24.7319 28.5475 24.9193 28.204 24.9193H28.1943C28.0674 24.9193 27.9582 24.8997 27.8645 24.8724C27.8626 24.8724 27.8626 24.8705 27.8606 24.8705C27.5015 24.7631 27.3728 24.5075 27.3669 24.4939C27.3415 24.4412 27.2771 24.4177 27.2244 24.4431C27.1718 24.4646 27.1484 24.527 27.1737 24.5817Z" fill="url(#paint55_linear_2_1348)"/>
<path d="M26.9298 41.5078H31.0667C31.0667 41.5078 31.4804 42.3332 33.0356 42.0815C34.4426 41.8533 38.3199 39.4354 37.7521 37.1367C37.7384 37.0781 37.721 37.0197 37.6995 36.9611C37.6351 36.7776 37.5413 36.5962 37.4165 36.4168C37.3834 36.3698 37.35 36.327 37.3131 36.2859C37.274 36.2411 37.233 36.1982 37.1883 36.159C36.9755 35.9659 36.7218 35.8507 36.4428 35.8019C36.3511 35.7845 36.2573 35.7746 36.1638 35.7729C35.0319 35.7357 33.6191 36.6156 32.94 37.7864L32.9441 37.7963C32.6219 37.929 32.2863 38.0402 31.9428 38.1241C31.4122 38.2529 30.86 38.3232 30.2881 38.3232C29.7301 38.3232 29.1856 38.255 28.6665 38.1301L26.9298 41.5078Z" fill="url(#paint56_linear_2_1348)"/>
<path d="M32.1147 39.5778C32.3098 38.7661 32.9441 37.7983 32.9441 37.7983C32.6219 37.931 32.2863 38.0421 31.9429 38.126C32.1556 38.5574 32.1147 39.5778 32.1147 39.5778Z" fill="url(#paint57_linear_2_1348)"/>
<path d="M31.0667 41.5078C31.0667 41.5078 30.7096 40.9966 30.8092 40.3896C30.8092 40.3896 30.1729 41.2073 28.4168 41.5078H31.0667Z" fill="url(#paint58_linear_2_1348)"/>
<path d="M33.8066 38.4753C33.0631 39.1758 32.8152 40.1204 33.2542 40.5887C33.6934 41.0549 34.6514 40.8657 35.3969 40.1652C36.1403 39.4646 36.3882 38.5203 35.949 38.052C35.5101 37.5835 34.55 37.7768 33.8066 38.4753Z" fill="url(#paint59_linear_2_1348)"/>
<path d="M35.3675 36.9262C35.3774 36.93 35.387 36.932 35.3969 36.932C35.432 36.932 35.4651 36.9105 35.477 36.8754C35.6758 36.3174 36.156 35.9699 36.4428 35.8021C36.3511 35.7844 36.2573 35.7748 36.1638 35.7728C35.8631 35.9798 35.4924 36.3192 35.315 36.8168C35.2993 36.8617 35.3228 36.9105 35.3675 36.9262Z" fill="#F87C38"/>
<path d="M36.2652 37.3027C36.2788 37.3103 36.2907 37.3124 36.3043 37.3124C36.3354 37.3124 36.3647 37.2967 36.3804 37.2656C36.6536 36.7347 37.0536 36.4342 37.3131 36.2841C37.2742 36.2391 37.233 36.1961 37.1883 36.1572C36.9093 36.323 36.5093 36.6391 36.2283 37.1855C36.2068 37.2305 36.2225 37.2813 36.2652 37.3027Z" fill="#F87C38"/>
<path d="M36.8838 38.0384C36.8974 38.0462 36.9093 38.0482 36.923 38.0482C36.954 38.0482 36.9834 38.0305 36.999 38.0012C37.2156 37.5817 37.5103 37.3065 37.7503 37.1367C37.7367 37.0783 37.719 37.0197 37.6975 36.9611C37.4301 37.1428 37.0925 37.445 36.8449 37.9231C36.8254 37.9643 36.8429 38.0169 36.8838 38.0384Z" fill="#F87C38"/>
<path d="M16.7944 38.048C18.4434 41.6718 21.4992 41.9098 22.8476 41.8219C23.2633 41.7946 23.515 41.7362 23.515 41.7362C23.6711 43.1041 25.2263 43.0278 26.1981 42.1302C27.1231 41.2718 28.171 40.5146 28.171 40.5146C29.4784 39.7125 30.1673 38.5086 29.7809 37.6674C29.7281 37.5504 29.6541 37.4392 29.5565 37.3396C29.459 37.2363 29.3359 37.1425 29.1916 37.0606C29.1661 37.047 29.1408 37.0313 29.1153 37.0197C29.0218 36.9709 28.926 36.93 28.8305 36.8966C28.6491 36.8322 28.4676 36.7933 28.29 36.7738C28.2041 36.766 28.1183 36.7602 28.0344 36.7602C27.1641 36.7561 26.4694 37.1817 26.4694 37.1817C26.4694 37.1817 26.643 35.9874 25.4586 34.8262C25.0605 34.436 24.5434 33.9579 23.7452 33.714C19.3995 32.3812 16.7944 38.048 16.7944 38.048Z" fill="url(#paint60_linear_2_1348)"/>
<path d="M25.679 39.2716C25.0117 39.8998 24.7892 40.7466 25.1834 41.1664C25.5776 41.5838 26.4381 41.414 27.1055 40.7878C27.7729 40.1614 27.9953 39.3125 27.6011 38.893C27.207 38.4733 26.3464 38.6431 25.679 39.2716Z" fill="url(#paint61_linear_2_1348)"/>
<path d="M23.5169 41.7362C23.5169 41.7362 23.3744 40.9321 24.1179 40.0542C24.0827 40.0737 23.0544 40.6862 22.8475 41.8221C23.2632 41.7928 23.5169 41.7362 23.5169 41.7362Z" fill="url(#paint62_linear_2_1348)"/>
<path d="M25.1501 38.2451C25.515 37.6735 26.4673 37.1797 26.4673 37.1797C26.4673 37.1797 26.641 35.9857 25.4565 34.8245C26.1395 36.2821 25.195 38.1594 25.1501 38.2451Z" fill="url(#paint63_linear_2_1348)"/>
<path d="M28.3095 37.7496C28.2997 37.7963 28.3309 37.8413 28.3778 37.8489C28.3836 37.8509 28.3895 37.8509 28.3934 37.8509C28.4344 37.8509 28.4694 37.8236 28.4772 37.7827C28.528 37.5251 28.528 37.0781 28.29 36.7718C28.2041 36.764 28.1182 36.7582 28.0343 36.7582C28.4422 37.0586 28.3173 37.7182 28.3095 37.7496ZM28.8325 36.8946C28.928 36.928 29.0218 36.9689 29.1173 37.0177C29.2462 37.3007 29.2384 37.6363 29.1974 37.8471C29.1896 37.888 29.1545 37.9173 29.1135 37.9173C29.1075 37.9173 29.1017 37.9173 29.0958 37.9153C29.0491 37.9055 29.0198 37.8607 29.0296 37.8137C29.0334 37.7847 29.1408 37.2168 28.8325 36.8946ZM29.4413 38.2471C29.4549 38.2216 29.7281 37.7359 29.5583 37.3376C29.6558 37.4372 29.7301 37.5484 29.7827 37.6657C29.7749 37.9252 29.6814 38.1749 29.5896 38.3331C29.574 38.3603 29.5446 38.3758 29.5153 38.3758C29.5017 38.3758 29.486 38.372 29.4724 38.3641C29.4314 38.3406 29.4178 38.2901 29.4413 38.2471Z" fill="#F87C38"/>
<path d="M16.8236 19.2056C18.1486 21.0223 20.2795 20.9501 20.6132 20.3569C20.7654 20.0857 20.7342 19.8125 20.6522 19.592C20.5527 19.3246 20.3537 19.1041 20.1097 18.9597C18.3476 17.9138 17.5554 16.6513 17.2822 16.1185C16.888 17.2913 16.808 18.4036 16.8236 19.2056Z" fill="url(#paint64_linear_2_1348)"/>
<path d="M24.5257 21.756C23.947 21.756 23.4778 21.2353 23.4778 20.593C23.4778 19.9507 23.947 19.43 24.5257 19.43C25.1044 19.43 25.5736 19.9507 25.5736 20.593C25.5736 21.2353 25.1044 21.756 24.5257 21.756Z" fill="url(#paint65_linear_2_1348)"/>
<path d="M24.9452 21.0887C24.79 21.0887 24.6642 20.9489 24.6642 20.7765C24.6642 20.604 24.79 20.4642 24.9452 20.4642C25.1004 20.4642 25.2262 20.604 25.2262 20.7765C25.2262 20.9489 25.1004 21.0887 24.9452 21.0887Z" fill="white"/>
<path d="M30.8522 21.6155C30.2735 21.6155 29.8042 21.0948 29.8042 20.4524C29.8042 19.8101 30.2735 19.2894 30.8522 19.2894C31.4309 19.2894 31.8999 19.8101 31.8999 20.4524C31.8999 21.0948 31.4309 21.6155 30.8522 21.6155Z" fill="url(#paint66_linear_2_1348)"/>
<path d="M31.2737 20.9501C31.1183 20.9501 30.9927 20.8103 30.9927 20.6378C30.9927 20.4654 31.1183 20.3256 31.2737 20.3256C31.4288 20.3256 31.5547 20.4654 31.5547 20.6378C31.5547 20.8103 31.4288 20.9501 31.2737 20.9501Z" fill="white"/>
<path d="M32.9966 19.4768C33.102 19.4768 33.2074 19.4456 33.2991 19.3792C33.5293 19.2134 33.5822 18.8894 33.4144 18.6572C33.3674 18.5928 32.2357 17.0649 29.6207 17.4415C29.3397 17.4825 29.1426 17.744 29.1838 18.025C29.2247 18.306 29.486 18.5011 29.767 18.4621C31.7361 18.1792 32.5458 19.2192 32.5792 19.2641C32.6825 19.4046 32.8387 19.4768 32.9966 19.4768Z" fill="#F87C38"/>
<path d="M22.0377 19.4749C22.1957 19.4749 22.3518 19.4027 22.4533 19.2641C22.4943 19.2114 23.3061 18.1811 25.2653 18.4621C25.5462 18.5031 25.8077 18.3079 25.8487 18.025C25.8897 17.744 25.6946 17.4825 25.4116 17.4415C22.7968 17.0649 21.665 18.5928 21.6181 18.6572C21.4523 18.8875 21.5049 19.2095 21.7352 19.3773C21.8289 19.4436 21.9342 19.4749 22.0377 19.4749Z" fill="#F87C38"/>
<path d="M28.411 21.8966H28.928H29.4451C29.736 21.8966 29.9702 22.1191 29.9702 22.3942V22.4566C29.9702 22.6479 29.853 22.8235 29.6695 22.9055L29.1487 23.1396C29.0082 23.2021 28.8441 23.2021 28.7036 23.1396L28.1827 22.9055C27.9992 22.8235 27.8821 22.6479 27.8821 22.4566V22.3942C27.8861 22.1191 28.1222 21.8966 28.411 21.8966Z" fill="#F87C38"/>
<path opacity="0.6" d="M23.5832 24.6011C22.3772 24.6011 21.3996 24.0551 21.3996 23.3815C21.3996 22.708 22.3772 22.1619 23.5832 22.1619C24.7892 22.1619 25.7668 22.708 25.7668 23.3815C25.7668 24.0551 24.7892 24.6011 23.5832 24.6011Z" fill="#FFCA83"/>
<path opacity="0.6" d="M31.2737 22.8351C31.2737 23.5084 32.2512 24.0548 33.4571 24.0548C33.66 24.0548 33.8571 24.0391 34.0446 24.0099C34.1303 23.2898 34.0348 22.4761 33.5897 21.6194C33.547 21.6175 33.5021 21.6175 33.4571 21.6175C32.2491 21.6175 31.2737 22.1619 31.2737 22.8351Z" fill="#FFCA83"/>
<path d="M19.3272 12.9437C19.9146 13.1447 20.8396 13.7028 21.7294 15.2443C22.0201 15.7478 22.6133 15.9917 23.1695 15.8278L23.2007 15.818C23.9579 15.5956 24.3188 14.7389 23.9579 14.0384C23.4973 13.1486 22.7148 12.0577 21.4738 11.4997C20.6112 11.9173 19.9049 12.409 19.3272 12.9437ZM31.2659 14.4638C31.049 14.7721 30.6902 14.977 30.2765 14.979H30.2452C29.6794 14.9809 29.1914 14.5926 29.0567 14.0423C28.6938 12.5593 28.0967 11.7826 27.6225 11.3826C29.1699 12.0363 30.4852 13.1525 31.2659 14.4638ZM27.1854 11.2109C27.9796 12.2197 28.4656 13.3808 28.7115 14.3467C28.9789 15.3965 28.4519 16.4698 27.3825 16.6474L27.3376 16.6552C26.5493 16.7859 25.7824 16.3547 25.4702 15.619C24.4047 13.1037 22.8222 11.8489 21.9148 11.2986C23.671 10.5513 25.5385 10.6215 27.1854 11.2109Z" fill="url(#paint67_linear_2_1348)"/>
<path d="M19.979 31.7353C21.4191 32.7598 23.1754 32.6936 24.4496 32.43C24.8575 32.3461 25.2087 32.1394 25.4721 31.8564C25.5248 31.7998 25.5736 31.7411 25.6185 31.6787C25.7551 31.4915 25.8566 31.2807 25.919 31.0543C25.9346 30.9959 25.9483 30.9373 25.958 30.8766C25.9776 30.7695 25.9873 30.6621 25.9873 30.5529C25.9873 30.467 25.9815 30.3811 25.9698 30.2934C25.9698 30.2855 25.9678 30.2777 25.9658 30.2699C25.958 30.2112 25.9463 30.1546 25.9327 30.098C25.7571 29.3682 25.1697 28.7986 24.4204 28.6639C22.0455 28.2366 20.6308 26.8141 20.6308 26.8141L19.979 31.7353Z" fill="url(#paint68_linear_2_1348)"/>
<path d="M6.32722 19.4769C8.12053 20.5287 9.88066 20.7629 11.631 20.4292C7.08825 19.0281 6.35062 15.0063 6.25305 13.211C4.77002 13.1291 3.71627 12.7017 3.23038 11.9641C3.23038 11.9641 2.59618 17.2914 6.32722 19.4769Z" fill="url(#paint69_linear_2_1348)"/>
<path opacity="0.3" d="M3.21874 13.6481C5.29695 15.0414 8.72941 15.1721 12.7805 12.9358C15.5202 11.4235 18.1955 10.7737 19.9362 10.4947C18.5604 10.4244 16.7457 10.6313 14.4977 11.4996C11.1667 12.7856 8.30206 13.3261 6.25508 13.211C4.77203 13.129 3.71829 12.7017 3.2324 11.964C3.23044 11.964 3.14849 12.6587 3.21874 13.6481Z" fill="#FFCA83"/>
<path d="M24.0477 29.9323C24.5102 30.2112 25.117 30.2797 25.5932 30.2797C25.7298 30.2797 25.8566 30.2737 25.9659 30.2658C25.9581 30.2075 25.9464 30.1508 25.9327 30.0942C25.4644 30.1236 24.6799 30.1137 24.1374 29.7839C24.0965 29.7586 24.0438 29.7723 24.0184 29.8132C23.995 29.8542 24.0087 29.907 24.0477 29.9323ZM23.9521 30.6017C23.9774 30.5605 24.0301 30.5489 24.0711 30.5724C24.6507 30.9236 25.5073 30.9138 25.96 30.8749C25.9503 30.9353 25.9366 30.9939 25.921 31.0523C25.8078 31.0601 25.6751 31.0659 25.5288 31.0659C25.0527 31.0659 24.4458 30.9977 23.9833 30.7187C23.9404 30.6952 23.9267 30.6406 23.9521 30.6017ZM23.8838 31.3881C23.9072 31.3469 23.9618 31.3353 24.0009 31.3588C24.4789 31.6494 25.1463 31.6924 25.6185 31.6767C25.5737 31.7391 25.5249 31.7977 25.4722 31.8543H25.4585C24.9824 31.8543 24.3755 31.7861 23.913 31.5051C23.8721 31.4816 23.8584 31.429 23.8838 31.3881Z" fill="#F87C38"/>
<path d="M30.134 15.658L30.1241 15.8784C30.1241 15.8784 30.1319 15.8004 30.134 15.658Z" fill="url(#paint70_linear_2_1348)"/>
<path opacity="0.3" d="M8.86403 1.71543C9.41041 3.20043 11.7403 7.57346 20.3888 8.16083C23.4291 8.36767 25.5229 9.10725 26.965 10.0517C26.1122 9.37653 24.877 8.67014 23.1481 8.23303C19.8464 7.39978 14.1269 6.69338 11.1491 3.63754C10.3919 2.86089 9.81239 1.93204 9.49433 0.809998C9.49628 0.811949 9.21138 1.13588 8.86403 1.71543Z" fill="#FFCA83"/>
</g>
</g>
<defs>
<linearGradient id="paint0_linear_2_1348" x1="19.5247" y1="19.1048" x2="15.664" y2="-8.00378" gradientUnits="userSpaceOnUse">
<stop stop-color="#FF2A64"/>
<stop offset="0.0754063" stop-color="#FF465E"/>
<stop offset="0.1805" stop-color="#FF6657"/>
<stop offset="0.2947" stop-color="#FF8152"/>
<stop offset="0.4191" stop-color="#FF954D"/>
<stop offset="0.5591" stop-color="#FFA44A"/>
<stop offset="0.7273" stop-color="#FFAC49"/>
<stop offset="1" stop-color="#FFAF48"/>
</linearGradient>
<linearGradient id="paint1_linear_2_1348" x1="16.0874" y1="15.8521" x2="16.2553" y2="-5.38152" gradientUnits="userSpaceOnUse">
<stop stop-color="#FF2A64"/>
<stop offset="0.0754063" stop-color="#FF465E"/>
<stop offset="0.1805" stop-color="#FF6657"/>
<stop offset="0.2947" stop-color="#FF8152"/>
<stop offset="0.4191" stop-color="#FF954D"/>
<stop offset="0.5591" stop-color="#FFA44A"/>
<stop offset="0.7273" stop-color="#FFAC49"/>
<stop offset="1" stop-color="#FFAF48"/>
</linearGradient>
<linearGradient id="paint2_linear_2_1348" x1="12.2938" y1="16.4356" x2="8.34918" y2="-16.464" gradientUnits="userSpaceOnUse">
<stop stop-color="#FF2A64"/>
<stop offset="0.0754063" stop-color="#FF465E"/>
<stop offset="0.1805" stop-color="#FF6657"/>
<stop offset="0.2947" stop-color="#FF8152"/>
<stop offset="0.4191" stop-color="#FF954D"/>
<stop offset="0.5591" stop-color="#FFA44A"/>
<stop offset="0.7273" stop-color="#FFAC49"/>
<stop offset="1" stop-color="#FFAF48"/>
</linearGradient>
<linearGradient id="paint3_linear_2_1348" x1="18.0352" y1="49.3334" x2="10.8175" y2="17.8606" gradientUnits="userSpaceOnUse">
<stop stop-color="#FF2A64"/>
<stop offset="0.0754063" stop-color="#FF465E"/>
<stop offset="0.1805" stop-color="#FF6657"/>
<stop offset="0.2947" stop-color="#FF8152"/>
<stop offset="0.4191" stop-color="#FF954D"/>
<stop offset="0.5591" stop-color="#FFA44A"/>
<stop offset="0.7273" stop-color="#FFAC49"/>
<stop offset="1" stop-color="#FFAF48"/>
</linearGradient>
<linearGradient id="paint4_linear_2_1348" x1="34.6266" y1="28.9121" x2="-11.7013" y2="-2.47673" gradientUnits="userSpaceOnUse">
<stop stop-color="#FF2A64"/>
<stop offset="0.0754063" stop-color="#FF465E"/>
<stop offset="0.1805" stop-color="#FF6657"/>
<stop offset="0.2947" stop-color="#FF8152"/>
<stop offset="0.4191" stop-color="#FF954D"/>
<stop offset="0.5591" stop-color="#FFA44A"/>
<stop offset="0.7273" stop-color="#FFAC49"/>
<stop offset="1" stop-color="#FFAF48"/>
</linearGradient>
<linearGradient id="paint5_linear_2_1348" x1="23.5115" y1="23.7319" x2="-5.41554" y2="4.42861" gradientUnits="userSpaceOnUse">
<stop stop-color="#FF2A64"/>
<stop offset="0.0754063" stop-color="#FF465E"/>
<stop offset="0.1805" stop-color="#FF6657"/>
<stop offset="0.2947" stop-color="#FF8152"/>
<stop offset="0.4191" stop-color="#FF954D"/>
<stop offset="0.5591" stop-color="#FFA44A"/>
<stop offset="0.7273" stop-color="#FFAC49"/>
<stop offset="1" stop-color="#FFAF48"/>
</linearGradient>
<linearGradient id="paint6_linear_2_1348" x1="17.6614" y1="44.094" x2="10.4437" y2="12.6213" gradientUnits="userSpaceOnUse">
<stop stop-color="#FF2A64"/>
<stop offset="0.0754063" stop-color="#FF465E"/>
<stop offset="0.1805" stop-color="#FF6657"/>
<stop offset="0.2947" stop-color="#FF8152"/>
<stop offset="0.4191" stop-color="#FF954D"/>
<stop offset="0.5591" stop-color="#FFA44A"/>
<stop offset="0.7273" stop-color="#FFAC49"/>
<stop offset="1" stop-color="#FFAF48"/>
</linearGradient>
<linearGradient id="paint7_linear_2_1348" x1="24.3855" y1="59.8089" x2="24.3855" y2="9.72184" gradientUnits="userSpaceOnUse">
<stop stop-color="#FF2A64"/>
<stop offset="0.0754063" stop-color="#FF465E"/>
<stop offset="0.1805" stop-color="#FF6657"/>
<stop offset="0.2947" stop-color="#FF8152"/>
<stop offset="0.4191" stop-color="#FF954D"/>
<stop offset="0.5591" stop-color="#FFA44A"/>
<stop offset="0.7273" stop-color="#FFAC49"/>
<stop offset="1" stop-color="#FFAF48"/>
</linearGradient>
<linearGradient id="paint8_linear_2_1348" x1="23.2695" y1="31.8513" x2="22.3743" y2="21.0248" gradientUnits="userSpaceOnUse">
<stop stop-color="#FF2A64"/>
<stop offset="0.0754063" stop-color="#FF465E"/>
<stop offset="0.1805" stop-color="#FF6657"/>
<stop offset="0.2947" stop-color="#FF8152"/>
<stop offset="0.4191" stop-color="#FF954D"/>
<stop offset="0.5591" stop-color="#FFA44A"/>
<stop offset="0.7273" stop-color="#FFAC49"/>
<stop offset="1" stop-color="#FFAF48"/>
</linearGradient>
<linearGradient id="paint9_linear_2_1348" x1="23.4288" y1="42.6013" x2="16.8825" y2="15.073" gradientUnits="userSpaceOnUse">
<stop stop-color="#FF2A64"/>
<stop offset="0.0754063" stop-color="#FF465E"/>
<stop offset="0.1805" stop-color="#FF6657"/>
<stop offset="0.2947" stop-color="#FF8152"/>
<stop offset="0.4191" stop-color="#FF954D"/>
<stop offset="0.5591" stop-color="#FFA44A"/>
<stop offset="0.7273" stop-color="#FFAC49"/>
<stop offset="1" stop-color="#FFAF48"/>
</linearGradient>
<linearGradient id="paint10_linear_2_1348" x1="24.416" y1="42.3665" x2="17.8697" y2="14.8383" gradientUnits="userSpaceOnUse">
<stop stop-color="#FF2A64"/>
<stop offset="0.0754063" stop-color="#FF465E"/>
<stop offset="0.1805" stop-color="#FF6657"/>
<stop offset="0.2947" stop-color="#FF8152"/>
<stop offset="0.4191" stop-color="#FF954D"/>
<stop offset="0.5591" stop-color="#FFA44A"/>
<stop offset="0.7273" stop-color="#FFAC49"/>
<stop offset="1" stop-color="#FFAF48"/>
</linearGradient>
<linearGradient id="paint11_linear_2_1348" x1="28.8442" y1="49.7228" x2="31.1382" y2="20.572" gradientUnits="userSpaceOnUse">
<stop stop-color="#44262A"/>
<stop offset="0.1067" stop-color="#4A282B"/>
<stop offset="0.2486" stop-color="#5B302C"/>
<stop offset="0.4095" stop-color="#763B2E"/>
<stop offset="0.5" stop-color="#894330"/>
<stop offset="1" stop-color="#EE7D61"/>
</linearGradient>
<linearGradient id="paint12_linear_2_1348" x1="30.4382" y1="52.9628" x2="30.4382" y2="23.9304" gradientUnits="userSpaceOnUse">
<stop stop-color="#44262A"/>
<stop offset="0.1067" stop-color="#4A282B"/>
<stop offset="0.2486" stop-color="#5B302C"/>
<stop offset="0.4095" stop-color="#763B2E"/>
<stop offset="0.5" stop-color="#894330"/>
<stop offset="1" stop-color="#EE7D61"/>
</linearGradient>
<linearGradient id="paint13_linear_2_1348" x1="35.5255" y1="33.7176" x2="35.5629" y2="30.9014" gradientUnits="userSpaceOnUse">
<stop stop-color="#44262A"/>
<stop offset="0.1067" stop-color="#4A282B"/>
<stop offset="0.2486" stop-color="#5B302C"/>
<stop offset="0.4095" stop-color="#763B2E"/>
<stop offset="0.5" stop-color="#894330"/>
<stop offset="1" stop-color="#EE7D61"/>
</linearGradient>
<linearGradient id="paint14_linear_2_1348" x1="35.6127" y1="33.6453" x2="35.5801" y2="31.449" gradientUnits="userSpaceOnUse">
<stop stop-color="#44262A"/>
<stop offset="0.1067" stop-color="#4A282B"/>
<stop offset="0.2486" stop-color="#5B302C"/>
<stop offset="0.4095" stop-color="#763B2E"/>
<stop offset="0.5" stop-color="#894330"/>
<stop offset="1" stop-color="#EE7D61"/>
</linearGradient>
<linearGradient id="paint15_linear_2_1348" x1="35.5437" y1="33.4606" x2="35.5343" y2="30.7655" gradientUnits="userSpaceOnUse">
<stop stop-color="#44262A"/>
<stop offset="0.1067" stop-color="#4A282B"/>
<stop offset="0.2486" stop-color="#5B302C"/>
<stop offset="0.4095" stop-color="#763B2E"/>
<stop offset="0.5" stop-color="#894330"/>
<stop offset="1" stop-color="#EE7D61"/>
</linearGradient>
<linearGradient id="paint16_linear_2_1348" x1="29.7721" y1="31.9648" x2="29.7721" y2="29.0662" gradientUnits="userSpaceOnUse">
<stop stop-color="#44262A"/>
<stop offset="0.1067" stop-color="#4A282B"/>
<stop offset="0.2486" stop-color="#5B302C"/>
<stop offset="0.4095" stop-color="#763B2E"/>
<stop offset="0.5" stop-color="#894330"/>
<stop offset="1" stop-color="#EE7D61"/>
</linearGradient>
<linearGradient id="paint17_linear_2_1348" x1="29.8176" y1="31.4875" x2="29.8176" y2="30.12" gradientUnits="userSpaceOnUse">
<stop stop-color="#44262A"/>
<stop offset="0.1067" stop-color="#4A282B"/>
<stop offset="0.2486" stop-color="#5B302C"/>
<stop offset="0.4095" stop-color="#763B2E"/>
<stop offset="0.5" stop-color="#894330"/>
<stop offset="1" stop-color="#EE7D61"/>
</linearGradient>
<linearGradient id="paint18_linear_2_1348" x1="29.7726" y1="31.6777" x2="29.7726" y2="28.8103" gradientUnits="userSpaceOnUse">
<stop stop-color="#44262A"/>
<stop offset="0.1067" stop-color="#4A282B"/>
<stop offset="0.2486" stop-color="#5B302C"/>
<stop offset="0.4095" stop-color="#763B2E"/>
<stop offset="0.5" stop-color="#894330"/>
<stop offset="1" stop-color="#EE7D61"/>
</linearGradient>
<linearGradient id="paint19_linear_2_1348" x1="26.564" y1="27.6346" x2="26.564" y2="24.7362" gradientUnits="userSpaceOnUse">
<stop stop-color="#44262A"/>
<stop offset="0.1067" stop-color="#4A282B"/>
<stop offset="0.2486" stop-color="#5B302C"/>
<stop offset="0.4095" stop-color="#763B2E"/>
<stop offset="0.5" stop-color="#894330"/>
<stop offset="1" stop-color="#EE7D61"/>
</linearGradient>
<linearGradient id="paint20_linear_2_1348" x1="26.6154" y1="27.4194" x2="26.4685" y2="25.622" gradientUnits="userSpaceOnUse">
<stop stop-color="#44262A"/>
<stop offset="0.1067" stop-color="#4A282B"/>
<stop offset="0.2486" stop-color="#5B302C"/>
<stop offset="0.4095" stop-color="#763B2E"/>
<stop offset="0.5" stop-color="#894330"/>
<stop offset="1" stop-color="#EE7D61"/>
</linearGradient>
<linearGradient id="paint21_linear_2_1348" x1="26.6769" y1="27.4419" x2="26.1454" y2="24.4858" gradientUnits="userSpaceOnUse">
<stop stop-color="#44262A"/>
<stop offset="0.1067" stop-color="#4A282B"/>
<stop offset="0.2486" stop-color="#5B302C"/>
<stop offset="0.4095" stop-color="#763B2E"/>
<stop offset="0.5" stop-color="#894330"/>
<stop offset="1" stop-color="#EE7D61"/>
</linearGradient>
<linearGradient id="paint22_linear_2_1348" x1="33.5026" y1="31.188" x2="34.1553" y2="25.5556" gradientUnits="userSpaceOnUse">
<stop stop-color="#44262A"/>
<stop offset="0.1067" stop-color="#4A282B"/>
<stop offset="0.2486" stop-color="#5B302C"/>
<stop offset="0.4095" stop-color="#763B2E"/>
<stop offset="0.5" stop-color="#894330"/>
<stop offset="1" stop-color="#EE7D61"/>
</linearGradient>
<linearGradient id="paint23_linear_2_1348" x1="33.452" y1="30.2797" x2="33.8058" y2="27.228" gradientUnits="userSpaceOnUse">
<stop stop-color="#44262A"/>
<stop offset="0.1067" stop-color="#4A282B"/>
<stop offset="0.2486" stop-color="#5B302C"/>
<stop offset="0.4095" stop-color="#763B2E"/>
<stop offset="0.5" stop-color="#894330"/>
<stop offset="1" stop-color="#EE7D61"/>
</linearGradient>
<linearGradient id="paint24_linear_2_1348" x1="34.1194" y1="29.8332" x2="32.842" y2="25.8048" gradientUnits="userSpaceOnUse">
<stop stop-color="#44262A"/>
<stop offset="0.1067" stop-color="#4A282B"/>
<stop offset="0.2486" stop-color="#5B302C"/>
<stop offset="0.4095" stop-color="#763B2E"/>
<stop offset="0.5" stop-color="#894330"/>
<stop offset="1" stop-color="#EE7D61"/>
</linearGradient>
<linearGradient id="paint25_linear_2_1348" x1="24.9331" y1="34.0661" x2="24.7163" y2="29.8767" gradientUnits="userSpaceOnUse">
<stop stop-color="#44262A"/>
<stop offset="0.1067" stop-color="#4A282B"/>
<stop offset="0.2486" stop-color="#5B302C"/>
<stop offset="0.4095" stop-color="#763B2E"/>
<stop offset="0.5" stop-color="#894330"/>
<stop offset="1" stop-color="#EE7D61"/>
</linearGradient>
<linearGradient id="paint26_linear_2_1348" x1="24.6973" y1="33.0201" x2="24.6029" y2="31.1973" gradientUnits="userSpaceOnUse">
<stop stop-color="#44262A"/>
<stop offset="0.1067" stop-color="#4A282B"/>
<stop offset="0.2486" stop-color="#5B302C"/>
<stop offset="0.4095" stop-color="#763B2E"/>
<stop offset="0.5" stop-color="#894330"/>
<stop offset="1" stop-color="#EE7D61"/>
</linearGradient>
<linearGradient id="paint27_linear_2_1348" x1="25.2174" y1="33.6599" x2="24.5739" y2="29.6315" gradientUnits="userSpaceOnUse">
<stop stop-color="#44262A"/>
<stop offset="0.1067" stop-color="#4A282B"/>
<stop offset="0.2486" stop-color="#5B302C"/>
<stop offset="0.4095" stop-color="#763B2E"/>
<stop offset="0.5" stop-color="#894330"/>
<stop offset="1" stop-color="#EE7D61"/>
</linearGradient>
<linearGradient id="paint28_linear_2_1348" x1="30.2431" y1="30.0341" x2="30.7281" y2="26.8914" gradientUnits="userSpaceOnUse">
<stop stop-color="#44262A"/>
<stop offset="0.1067" stop-color="#4A282B"/>
<stop offset="0.2486" stop-color="#5B302C"/>
<stop offset="0.4095" stop-color="#763B2E"/>
<stop offset="0.5" stop-color="#894330"/>
<stop offset="1" stop-color="#EE7D61"/>
</linearGradient>
<linearGradient id="paint29_linear_2_1348" x1="30.2646" y1="29.6191" x2="30.8241" y2="26.8123" gradientUnits="userSpaceOnUse">
<stop stop-color="#44262A"/>
<stop offset="0.1067" stop-color="#4A282B"/>
<stop offset="0.2486" stop-color="#5B302C"/>
<stop offset="0.4095" stop-color="#763B2E"/>
<stop offset="0.5" stop-color="#894330"/>
<stop offset="1" stop-color="#EE7D61"/>
</linearGradient>
<linearGradient id="paint30_linear_2_1348" x1="30.7182" y1="34.5586" x2="30.8302" y2="30.8519" gradientUnits="userSpaceOnUse">
<stop stop-color="#44262A"/>
<stop offset="0.1067" stop-color="#4A282B"/>
<stop offset="0.2486" stop-color="#5B302C"/>
<stop offset="0.4095" stop-color="#763B2E"/>
<stop offset="0.5" stop-color="#894330"/>
<stop offset="1" stop-color="#EE7D61"/>
</linearGradient>
<linearGradient id="paint31_linear_2_1348" x1="30.7122" y1="34.2268" x2="30.9219" y2="30.1284" gradientUnits="userSpaceOnUse">
<stop stop-color="#44262A"/>
<stop offset="0.1067" stop-color="#4A282B"/>
<stop offset="0.2486" stop-color="#5B302C"/>
<stop offset="0.4095" stop-color="#763B2E"/>
<stop offset="0.5" stop-color="#894330"/>
<stop offset="1" stop-color="#EE7D61"/>
</linearGradient>
<linearGradient id="paint32_linear_2_1348" x1="26.6656" y1="32.9896" x2="28.2882" y2="29.9401" gradientUnits="userSpaceOnUse">
<stop stop-color="#44262A"/>
<stop offset="0.1067" stop-color="#4A282B"/>
<stop offset="0.2486" stop-color="#5B302C"/>
<stop offset="0.4095" stop-color="#763B2E"/>
<stop offset="0.5" stop-color="#894330"/>
<stop offset="1" stop-color="#EE7D61"/>
</linearGradient>
<linearGradient id="paint33_linear_2_1348" x1="27.2286" y1="32.4809" x2="28.0112" y2="29.1691" gradientUnits="userSpaceOnUse">
<stop stop-color="#44262A"/>
<stop offset="0.1067" stop-color="#4A282B"/>
<stop offset="0.2486" stop-color="#5B302C"/>
<stop offset="0.4095" stop-color="#763B2E"/>
<stop offset="0.5" stop-color="#894330"/>
<stop offset="1" stop-color="#EE7D61"/>
</linearGradient>
<linearGradient id="paint34_linear_2_1348" x1="32.8551" y1="32.4232" x2="33.079" y2="29.1034" gradientUnits="userSpaceOnUse">
<stop stop-color="#44262A"/>
<stop offset="0.1067" stop-color="#4A282B"/>
<stop offset="0.2486" stop-color="#5B302C"/>
<stop offset="0.4095" stop-color="#763B2E"/>
<stop offset="0.5" stop-color="#894330"/>
<stop offset="1" stop-color="#EE7D61"/>
</linearGradient>
<linearGradient id="paint35_linear_2_1348" x1="32.7124" y1="32.8068" x2="33.5377" y2="27.7433" gradientUnits="userSpaceOnUse">
<stop stop-color="#44262A"/>
<stop offset="0.1067" stop-color="#4A282B"/>
<stop offset="0.2486" stop-color="#5B302C"/>
<stop offset="0.4095" stop-color="#763B2E"/>
<stop offset="0.5" stop-color="#894330"/>
<stop offset="1" stop-color="#EE7D61"/>
</linearGradient>
<linearGradient id="paint36_linear_2_1348" x1="33.0232" y1="37.1089" x2="33.0606" y2="32.0361" gradientUnits="userSpaceOnUse">
<stop stop-color="#44262A"/>
<stop offset="0.1067" stop-color="#4A282B"/>
<stop offset="0.2486" stop-color="#5B302C"/>
<stop offset="0.4095" stop-color="#763B2E"/>
<stop offset="0.5" stop-color="#894330"/>
<stop offset="1" stop-color="#EE7D61"/>
</linearGradient>
<linearGradient id="paint37_linear_2_1348" x1="32.887" y1="36.2959" x2="32.887" y2="34.0009" gradientUnits="userSpaceOnUse">
<stop stop-color="#44262A"/>
<stop offset="0.1067" stop-color="#4A282B"/>
<stop offset="0.2486" stop-color="#5B302C"/>
<stop offset="0.4095" stop-color="#763B2E"/>
<stop offset="0.5" stop-color="#894330"/>
<stop offset="1" stop-color="#EE7D61"/>
</linearGradient>
<linearGradient id="paint38_linear_2_1348" x1="33.0358" y1="36.6308" x2="33.0358" y2="30.4612" gradientUnits="userSpaceOnUse">
<stop stop-color="#44262A"/>
<stop offset="0.1067" stop-color="#4A282B"/>
<stop offset="0.2486" stop-color="#5B302C"/>
<stop offset="0.4095" stop-color="#763B2E"/>
<stop offset="0.5" stop-color="#894330"/>
<stop offset="1" stop-color="#EE7D61"/>
</linearGradient>
<linearGradient id="paint39_linear_2_1348" x1="32.731" y1="32.1056" x2="32.8779" y2="30.1332" gradientUnits="userSpaceOnUse">
<stop stop-color="#44262A"/>
<stop offset="0.1067" stop-color="#4A282B"/>
<stop offset="0.2486" stop-color="#5B302C"/>
<stop offset="0.4095" stop-color="#763B2E"/>
<stop offset="0.5" stop-color="#894330"/>
<stop offset="1" stop-color="#EE7D61"/>
</linearGradient>
<linearGradient id="paint40_linear_2_1348" x1="30.2545" y1="29.9639" x2="30.9166" y2="27.502" gradientUnits="userSpaceOnUse">
<stop stop-color="#44262A"/>
<stop offset="0.1067" stop-color="#4A282B"/>
<stop offset="0.2486" stop-color="#5B302C"/>
<stop offset="0.4095" stop-color="#763B2E"/>
<stop offset="0.5" stop-color="#894330"/>
<stop offset="1" stop-color="#EE7D61"/>
</linearGradient>
<linearGradient id="paint41_linear_2_1348" x1="26.6331" y1="32.9337" x2="28.1158" y2="30.7096" gradientUnits="userSpaceOnUse">
<stop stop-color="#44262A"/>
<stop offset="0.1067" stop-color="#4A282B"/>
<stop offset="0.2486" stop-color="#5B302C"/>
<stop offset="0.4095" stop-color="#763B2E"/>
<stop offset="0.5" stop-color="#894330"/>
<stop offset="1" stop-color="#EE7D61"/>
</linearGradient>
<linearGradient id="paint42_linear_2_1348" x1="30.5557" y1="35.4911" x2="30.6957" y2="31.7702" gradientUnits="userSpaceOnUse">
<stop stop-color="#44262A"/>
<stop offset="0.1067" stop-color="#4A282B"/>
<stop offset="0.2486" stop-color="#5B302C"/>
<stop offset="0.4095" stop-color="#763B2E"/>
<stop offset="0.5" stop-color="#894330"/>
<stop offset="1" stop-color="#EE7D61"/>
</linearGradient>
<linearGradient id="paint43_linear_2_1348" x1="28.9366" y1="27.1093" x2="28.7757" y2="22.8429" gradientUnits="userSpaceOnUse">
<stop stop-color="#44262A"/>
<stop offset="0.1067" stop-color="#4A282B"/>
<stop offset="0.2486" stop-color="#5B302C"/>
<stop offset="0.4095" stop-color="#763B2E"/>
<stop offset="0.5" stop-color="#894330"/>
<stop offset="1" stop-color="#EE7D61"/>
</linearGradient>
<linearGradient id="paint44_linear_2_1348" x1="28.9316" y1="26.5761" x2="28.7496" y2="23.6877" gradientUnits="userSpaceOnUse">
<stop stop-color="#44262A"/>
<stop offset="0.1067" stop-color="#4A282B"/>
<stop offset="0.2486" stop-color="#5B302C"/>
<stop offset="0.4095" stop-color="#763B2E"/>
<stop offset="0.5" stop-color="#894330"/>
<stop offset="1" stop-color="#EE7D61"/>
</linearGradient>
<linearGradient id="paint45_linear_2_1348" x1="29.0231" y1="26.5786" x2="28.4426" y2="24.2985" gradientUnits="userSpaceOnUse">
<stop stop-color="#44262A"/>
<stop offset="0.1067" stop-color="#4A282B"/>
<stop offset="0.2486" stop-color="#5B302C"/>
<stop offset="0.4095" stop-color="#763B2E"/>
<stop offset="0.5" stop-color="#894330"/>
<stop offset="1" stop-color="#EE7D61"/>
</linearGradient>
<linearGradient id="paint46_linear_2_1348" x1="32.0308" y1="28.2596" x2="32.0308" y2="21.4307" gradientUnits="userSpaceOnUse">
<stop stop-color="#44262A"/>
<stop offset="0.1067" stop-color="#4A282B"/>
<stop offset="0.2486" stop-color="#5B302C"/>
<stop offset="0.4095" stop-color="#763B2E"/>
<stop offset="0.5" stop-color="#894330"/>
<stop offset="1" stop-color="#EE7D61"/>
</linearGradient>
<linearGradient id="paint47_linear_2_1348" x1="32.1362" y1="27.6834" x2="32.1362" y2="24.0045" gradientUnits="userSpaceOnUse">
<stop stop-color="#44262A"/>
<stop offset="0.1067" stop-color="#4A282B"/>
<stop offset="0.2486" stop-color="#5B302C"/>
<stop offset="0.4095" stop-color="#763B2E"/>
<stop offset="0.5" stop-color="#894330"/>
<stop offset="1" stop-color="#EE7D61"/>
</linearGradient>
<linearGradient id="paint48_linear_2_1348" x1="31.6863" y1="26.9713" x2="31.6863" y2="21.254" gradientUnits="userSpaceOnUse">
<stop stop-color="#44262A"/>
<stop offset="0.1067" stop-color="#4A282B"/>
<stop offset="0.2486" stop-color="#5B302C"/>
<stop offset="0.4095" stop-color="#763B2E"/>
<stop offset="0.5" stop-color="#894330"/>
<stop offset="1" stop-color="#EE7D61"/>
</linearGradient>
<linearGradient id="paint49_linear_2_1348" x1="27.9723" y1="30.6464" x2="26.8113" y2="25.6668" gradientUnits="userSpaceOnUse">
<stop stop-color="#44262A"/>
<stop offset="0.1067" stop-color="#4A282B"/>
<stop offset="0.2486" stop-color="#5B302C"/>
<stop offset="0.4095" stop-color="#763B2E"/>
<stop offset="0.5" stop-color="#894330"/>
<stop offset="1" stop-color="#EE7D61"/>
</linearGradient>
<linearGradient id="paint50_linear_2_1348" x1="27.7888" y1="30.1953" x2="27.3831" y2="26.5515" gradientUnits="userSpaceOnUse">
<stop stop-color="#44262A"/>
<stop offset="0.1067" stop-color="#4A282B"/>
<stop offset="0.2486" stop-color="#5B302C"/>
<stop offset="0.4095" stop-color="#763B2E"/>
<stop offset="0.5" stop-color="#894330"/>
<stop offset="1" stop-color="#EE7D61"/>
</linearGradient>
<linearGradient id="paint51_linear_2_1348" x1="27.6647" y1="30.2974" x2="27.6647" y2="25.0367" gradientUnits="userSpaceOnUse">
<stop stop-color="#44262A"/>
<stop offset="0.1067" stop-color="#4A282B"/>
<stop offset="0.2486" stop-color="#5B302C"/>
<stop offset="0.4095" stop-color="#763B2E"/>
<stop offset="0.5" stop-color="#894330"/>
<stop offset="1" stop-color="#EE7D61"/>
</linearGradient>
<linearGradient id="paint52_linear_2_1348" x1="26.8557" y1="36.3316" x2="28.4503" y2="30.233" gradientUnits="userSpaceOnUse">
<stop stop-color="#44262A"/>
<stop offset="0.1067" stop-color="#4A282B"/>
<stop offset="0.2486" stop-color="#5B302C"/>
<stop offset="0.4095" stop-color="#763B2E"/>
<stop offset="0.5" stop-color="#894330"/>
<stop offset="1" stop-color="#EE7D61"/>
</linearGradient>
<linearGradient id="paint53_linear_2_1348" x1="27.3362" y1="36.5294" x2="28.3993" y2="31.2698" gradientUnits="userSpaceOnUse">
<stop stop-color="#44262A"/>
<stop offset="0.1067" stop-color="#4A282B"/>
<stop offset="0.2486" stop-color="#5B302C"/>
<stop offset="0.4095" stop-color="#763B2E"/>
<stop offset="0.5" stop-color="#894330"/>
<stop offset="1" stop-color="#EE7D61"/>
</linearGradient>
<linearGradient id="paint54_linear_2_1348" x1="26.929" y1="35.018" x2="26.929" y2="28.6157" gradientUnits="userSpaceOnUse">
<stop stop-color="#44262A"/>
<stop offset="0.1067" stop-color="#4A282B"/>
<stop offset="0.2486" stop-color="#5B302C"/>
<stop offset="0.4095" stop-color="#763B2E"/>
<stop offset="0.5" stop-color="#894330"/>
<stop offset="1" stop-color="#EE7D61"/>
</linearGradient>
<linearGradient id="paint55_linear_2_1348" x1="29.1171" y1="27.1002" x2="29.1171" y2="22.8449" gradientUnits="userSpaceOnUse">
<stop stop-color="#03192E"/>
<stop offset="0.5" stop-color="#223C6A"/>
<stop offset="1" stop-color="#4A74A2"/>
</linearGradient>
<linearGradient id="paint56_linear_2_1348" x1="30.375" y1="45.6509" x2="36.2687" y2="28.1568" gradientUnits="userSpaceOnUse">
<stop stop-color="#FF2A64"/>
<stop offset="0.0754063" stop-color="#FF465E"/>
<stop offset="0.1805" stop-color="#FF6657"/>
<stop offset="0.2947" stop-color="#FF8152"/>
<stop offset="0.4191" stop-color="#FF954D"/>
<stop offset="0.5591" stop-color="#FFA44A"/>
<stop offset="0.7273" stop-color="#FFAC49"/>
<stop offset="1" stop-color="#FFAF48"/>
</linearGradient>
<linearGradient id="paint57_linear_2_1348" x1="30.5151" y1="44.1385" x2="36.3713" y2="25.376" gradientUnits="userSpaceOnUse">
<stop stop-color="#FF2A64"/>
<stop offset="0.0754063" stop-color="#FF465E"/>
<stop offset="0.1805" stop-color="#FF6657"/>
<stop offset="0.2947" stop-color="#FF8152"/>
<stop offset="0.4191" stop-color="#FF954D"/>
<stop offset="0.5591" stop-color="#FFA44A"/>
<stop offset="0.7273" stop-color="#FFAC49"/>
<stop offset="1" stop-color="#FFAF48"/>
</linearGradient>
<linearGradient id="paint58_linear_2_1348" x1="29.0612" y1="43.6846" x2="34.9177" y2="24.9222" gradientUnits="userSpaceOnUse">
<stop stop-color="#FF2A64"/>
<stop offset="0.0754063" stop-color="#FF465E"/>
<stop offset="0.1805" stop-color="#FF6657"/>
<stop offset="0.2947" stop-color="#FF8152"/>
<stop offset="0.4191" stop-color="#FF954D"/>
<stop offset="0.5591" stop-color="#FFA44A"/>
<stop offset="0.7273" stop-color="#FFAC49"/>
<stop offset="1" stop-color="#FFAF48"/>
</linearGradient>
<linearGradient id="paint59_linear_2_1348" x1="32.8678" y1="44.8728" x2="38.724" y2="26.1103" gradientUnits="userSpaceOnUse">
<stop stop-color="#FF2A64"/>
<stop offset="0.0754063" stop-color="#FF465E"/>
<stop offset="0.1805" stop-color="#FF6657"/>
<stop offset="0.2947" stop-color="#FF8152"/>
<stop offset="0.4191" stop-color="#FF954D"/>
<stop offset="0.5591" stop-color="#FFA44A"/>
<stop offset="0.7273" stop-color="#FFAC49"/>
<stop offset="1" stop-color="#FFAF48"/>
</linearGradient>
<linearGradient id="paint60_linear_2_1348" x1="23.3417" y1="59.8086" x2="23.3417" y2="9.72177" gradientUnits="userSpaceOnUse">
<stop stop-color="#FF2A64"/>
<stop offset="0.0754063" stop-color="#FF465E"/>
<stop offset="0.1805" stop-color="#FF6657"/>
<stop offset="0.2947" stop-color="#FF8152"/>
<stop offset="0.4191" stop-color="#FF954D"/>
<stop offset="0.5591" stop-color="#FFA44A"/>
<stop offset="0.7273" stop-color="#FFAC49"/>
<stop offset="1" stop-color="#FFAF48"/>
</linearGradient>
<linearGradient id="paint61_linear_2_1348" x1="23.323" y1="43.9333" x2="35.222" y2="28.789" gradientUnits="userSpaceOnUse">
<stop stop-color="#FF2A64"/>
<stop offset="0.0754063" stop-color="#FF465E"/>
<stop offset="0.1805" stop-color="#FF6657"/>
<stop offset="0.2947" stop-color="#FF8152"/>
<stop offset="0.4191" stop-color="#FF954D"/>
<stop offset="0.5591" stop-color="#FFA44A"/>
<stop offset="0.7273" stop-color="#FFAC49"/>
<stop offset="1" stop-color="#FFAF48"/>
</linearGradient>
<linearGradient id="paint62_linear_2_1348" x1="22.7928" y1="43.8466" x2="25.6277" y2="31.8728" gradientUnits="userSpaceOnUse">
<stop stop-color="#FF2A64"/>
<stop offset="0.0754063" stop-color="#FF465E"/>
<stop offset="0.1805" stop-color="#FF6657"/>
<stop offset="0.2947" stop-color="#FF8152"/>
<stop offset="0.4191" stop-color="#FF954D"/>
<stop offset="0.5591" stop-color="#FFA44A"/>
<stop offset="0.7273" stop-color="#FFAC49"/>
<stop offset="1" stop-color="#FFAF48"/>
</linearGradient>
<linearGradient id="paint63_linear_2_1348" x1="25.6227" y1="42.6349" x2="26.2195" y2="27.0805" gradientUnits="userSpaceOnUse">
<stop stop-color="#FF2A64"/>
<stop offset="0.0754063" stop-color="#FF465E"/>
<stop offset="0.1805" stop-color="#FF6657"/>
<stop offset="0.2947" stop-color="#FF8152"/>
<stop offset="0.4191" stop-color="#FF954D"/>
<stop offset="0.5591" stop-color="#FFA44A"/>
<stop offset="0.7273" stop-color="#FFAC49"/>
<stop offset="1" stop-color="#FFAF48"/>
</linearGradient>
<linearGradient id="paint64_linear_2_1348" x1="20.3967" y1="28.2348" x2="16.9277" y2="9.65879" gradientUnits="userSpaceOnUse">
<stop stop-color="#FF2A64"/>
<stop offset="0.0754063" stop-color="#FF465E"/>
<stop offset="0.1805" stop-color="#FF6657"/>
<stop offset="0.2947" stop-color="#FF8152"/>
<stop offset="0.4191" stop-color="#FF954D"/>
<stop offset="0.5591" stop-color="#FFA44A"/>
<stop offset="0.7273" stop-color="#FFAC49"/>
<stop offset="1" stop-color="#FFAF48"/>
</linearGradient>
<linearGradient id="paint65_linear_2_1348" x1="24.5258" y1="21.6217" x2="24.5258" y2="17.4532" gradientUnits="userSpaceOnUse">
<stop stop-color="#03192E"/>
<stop offset="0.5" stop-color="#223C6A"/>
<stop offset="1" stop-color="#4A74A2"/>
</linearGradient>
<linearGradient id="paint66_linear_2_1348" x1="30.8529" y1="21.6217" x2="30.8529" y2="17.4532" gradientUnits="userSpaceOnUse">
<stop stop-color="#03192E"/>
<stop offset="0.5" stop-color="#223C6A"/>
<stop offset="1" stop-color="#4A74A2"/>
</linearGradient>
<linearGradient id="paint67_linear_2_1348" x1="26.2826" y1="25.5901" x2="24.2683" y2="1.30708" gradientUnits="userSpaceOnUse">
<stop stop-color="#FF2A64"/>
<stop offset="0.0754063" stop-color="#FF465E"/>
<stop offset="0.1805" stop-color="#FF6657"/>
<stop offset="0.2947" stop-color="#FF8152"/>
<stop offset="0.4191" stop-color="#FF954D"/>
<stop offset="0.5591" stop-color="#FFA44A"/>
<stop offset="0.7273" stop-color="#FFAC49"/>
<stop offset="1" stop-color="#FFAF48"/>
</linearGradient>
<linearGradient id="paint68_linear_2_1348" x1="22.9824" y1="59.8086" x2="22.9824" y2="9.72178" gradientUnits="userSpaceOnUse">
<stop stop-color="#FF2A64"/>
<stop offset="0.0754063" stop-color="#FF465E"/>
<stop offset="0.1805" stop-color="#FF6657"/>
<stop offset="0.2947" stop-color="#FF8152"/>
<stop offset="0.4191" stop-color="#FF954D"/>
<stop offset="0.5591" stop-color="#FFA44A"/>
<stop offset="0.7273" stop-color="#FFAC49"/>
<stop offset="1" stop-color="#FFAF48"/>
</linearGradient>
<linearGradient id="paint69_linear_2_1348" x1="10.5282" y1="25.1568" x2="-0.326398" y2="-0.860703" gradientUnits="userSpaceOnUse">
<stop stop-color="#FF2A64"/>
<stop offset="0.0754063" stop-color="#FF465E"/>
<stop offset="0.1805" stop-color="#FF6657"/>
<stop offset="0.2947" stop-color="#FF8152"/>
<stop offset="0.4191" stop-color="#FF954D"/>
<stop offset="0.5591" stop-color="#FFA44A"/>
<stop offset="0.7273" stop-color="#FFAC49"/>
<stop offset="1" stop-color="#FFAF48"/>
</linearGradient>
<linearGradient id="paint70_linear_2_1348" x1="30.1193" y1="16.0372" x2="30.1403" y2="15.5218" gradientUnits="userSpaceOnUse">
<stop/>
<stop offset="1" stop-color="white"/>
</linearGradient>
<clipPath id="clip0_2_1348">
<rect width="40" height="42" fill="white" transform="translate(0.5 0.809998)"/>
</clipPath>
<clipPath id="clip1_2_1348">
<rect width="34.6209" height="42" fill="white" transform="translate(3.18953 0.809998)"/>
</clipPath>
</defs>
</svg>
