<svg width="390" height="681" viewBox="0 0 390 681" fill="none" xmlns="http://www.w3.org/2000/svg">
<g clip-path="url(#clip0_2_5)">
<g clip-path="url(#clip1_2_5)">
<mask id="mask0_2_5" style="mask-type:luminance" maskUnits="userSpaceOnUse" x="0" y="0" width="405" height="681">
<path d="M404.193 0H0V680.59H404.193V0Z" fill="white"/>
</mask>
<g mask="url(#mask0_2_5)">
<path d="M404.193 0H0V680.59H404.193V0Z" fill="white"/>
<mask id="mask1_2_5" style="mask-type:luminance" maskUnits="userSpaceOnUse" x="0" y="0" width="867" height="689">
<path d="M866.836 0H0V688.515H866.836V0Z" fill="white"/>
</mask>
<g mask="url(#mask1_2_5)">
<path d="M866.836 0H0V688.515H866.836V0Z" fill="url(#paint0_linear_2_5)"/>
<path d="M194.644 -18.4252C-183.297 -86.2857 -18.8452 77.1982 -18.8452 195.559C-18.8452 313.921 -136.932 904.383 -18.845 904.383C783.103 904.383 408.133 313.921 408.133 195.559C408.133 77.1982 587.94 -95.6975 194.644 -18.4252Z" fill="url(#paint1_linear_2_5)"/>
<path d="M106.069 143.219C108.689 143.219 110.813 141.095 110.813 138.475C110.813 135.855 108.689 133.731 106.069 133.731C103.45 133.731 101.326 135.855 101.326 138.475C101.326 141.095 103.45 143.219 106.069 143.219Z" fill="url(#paint2_linear_2_5)"/>
<path d="M373.842 413.71L366.999 418.309C365.972 418.95 364.709 419.121 363.602 418.699L355.935 415.632C353.086 414.503 350.2 417.134 351.037 420.047L353.3 428.001C353.61 429.162 353.349 430.418 352.584 431.347L347.322 437.679C345.405 440.032 346.948 443.549 350.018 443.664L358.246 443.977C359.469 444.048 360.548 444.65 361.188 445.678L365.579 452.673C367.215 455.217 371.043 454.834 372.112 451.977L374.947 444.21C375.369 443.104 376.315 442.203 377.475 441.892L385.462 439.821C388.425 439.054 389.205 435.286 386.852 433.37L380.372 428.268C379.442 427.504 378.882 426.365 379.011 425.151L379.575 416.901C379.732 413.961 376.335 412.004 373.842 413.71Z" fill="url(#paint3_linear_2_5)"/>
<path d="M75.8665 545.652C75.8665 552.994 74.4787 560.137 72.0995 566.587C71.0089 569.464 69.7202 572.241 68.1341 574.92C57.9233 592.78 38.6912 604.884 16.6834 604.884C14.0068 604.884 11.3302 604.686 8.75271 604.388C-0.764164 603.098 -9.58711 599.526 -17.1213 594.268C-30.4052 585.041 -39.7239 570.455 -42.004 553.688C-42.4006 551.009 -42.5988 548.331 -42.5988 545.652C-42.5988 536.226 -40.4178 527.296 -36.4525 519.458C-28.5218 503.484 -13.6516 491.479 4.29168 487.709C5.38216 487.51 6.47262 487.311 7.5631 487.113C9.14924 486.915 10.8345 486.716 12.4206 486.617C13.8086 486.518 15.1964 486.419 16.5843 486.419C24.8124 486.419 32.5449 488.106 39.6826 491.082C60.9964 500.111 75.8665 521.145 75.8665 545.652Z" fill="url(#paint4_linear_2_5)"/>
<path d="M64.9667 545.94C64.9667 551.885 63.8419 557.67 61.9138 562.892C61.03 565.221 59.9855 567.471 58.7001 569.641C50.4249 584.102 34.8386 593.903 17.0027 593.903C14.8335 593.903 12.6643 593.743 10.5754 593.502C2.8626 592.458 -4.28781 589.565 -10.3938 585.307C-21.1596 577.836 -28.7117 566.025 -30.5596 552.448C-30.8809 550.278 -31.0416 548.109 -31.0416 545.94C-31.0416 538.307 -29.2741 531.077 -26.0604 524.73C-19.6331 511.795 -7.58182 502.073 6.96003 499.02C7.84379 498.86 8.72754 498.699 9.6113 498.539C10.8968 498.378 12.2626 498.217 13.548 498.136C14.6728 498.056 15.7976 497.976 16.9224 497.976C23.5907 497.976 29.8574 499.342 35.642 501.752C52.9154 509.063 64.9667 526.095 64.9667 545.94Z" fill="url(#paint5_linear_2_5)"/>
<path d="M21.9837 577.435C21.5819 580.809 12.2623 581.933 11.9409 583.219C11.5392 584.424 12.5837 590.53 10.5751 593.502C2.86232 592.458 -4.28809 589.565 -10.3941 585.307C-21.1598 577.836 -28.712 566.026 -30.5599 552.448C-29.0334 551.484 -26.9444 550.359 -25.0966 550.439C-23.6505 550.52 -21.8829 550.6 -20.1958 551.162C-18.4282 551.725 -16.741 552.689 -15.4555 554.456C-12.8043 557.992 -13.206 565.704 -9.26929 566.668C-5.33254 567.552 -6.13594 569.4 -2.1992 567.713C1.73755 566.026 4.22812 562.571 8.8076 562.732C13.3871 562.893 17.9666 564.338 19.493 566.106C21.0999 568.034 22.3854 574.059 21.9837 577.435ZM35.7221 501.752C34.999 503.279 34.2759 505.609 34.3562 508.34C34.4366 509.625 34.6776 510.991 35.1597 512.438C37.811 519.909 40.3819 518.705 41.9887 524.971C42.8725 528.587 47.6127 528.988 45.6844 535.094C43.7562 541.2 36.7665 545.699 35.8827 551.323C34.999 556.866 34.6776 569.962 37.9717 574.542C41.2656 579.04 43.7562 577.996 45.2827 576.149C46.8896 574.221 49.2998 567.391 51.5494 565.865C52.7544 565.061 55.8075 564.017 59.1818 563.374C60.0656 563.213 61.0297 563.053 61.9135 562.973C63.922 557.67 64.9664 551.965 64.9664 546.02C64.9664 526.096 52.9152 509.063 35.7221 501.752ZM33.0707 547.145C36.2041 546.503 37.57 539.432 38.6144 535.818C39.6588 532.202 36.8469 529.872 35.5614 529.31C34.2759 528.667 31.3836 529.068 28.7324 532.684C26.0811 536.379 27.4469 545.217 27.6076 545.94C27.6879 545.94 30.0178 547.788 33.0707 547.145ZM18.7699 503.76C16.8418 502.556 15.1546 499.905 9.69136 498.539C8.8076 498.699 7.92385 498.86 7.0401 499.02C-7.5821 502.073 -19.6334 511.795 -26.0607 524.73C-25.8196 526.497 -25.2573 528.024 -23.9718 529.068C-22.7667 530.032 -20.6778 530.514 -18.4282 530.917C-15.7769 531.398 -12.8043 531.72 -10.7154 532.442C-6.93936 533.728 -5.49323 533.246 -4.93084 537.263C-4.44879 541.28 -8.46586 545.538 -7.66245 549.154C-6.85903 552.849 -2.19921 556.465 3.74608 554.938C5.43326 554.536 8.32555 552.528 8.48624 547.306C8.64692 542.164 7.44178 539.753 9.53067 536.379C11.6196 533.005 12.9051 532.684 14.9939 531.961C17.0828 531.157 19.5734 528.425 21.0195 526.176C22.4657 523.927 23.3495 523.846 23.5102 518.705C23.5905 513.562 20.9392 505.207 18.7699 503.76ZM31.3033 575.105C29.9374 575.345 28.5717 578.318 28.5717 580.086C28.5717 581.853 28.2502 584.344 29.4554 585.147C30.6605 585.95 36.3648 586.271 37.6503 585.147C38.9357 584.023 39.5784 581.371 38.7751 580.005C37.811 578.719 34.4367 574.622 31.3033 575.105Z" fill="url(#paint6_linear_2_5)"/>
<path d="M65.4075 263.85C68.776 263.85 71.5068 261.423 71.5068 258.428C71.5068 255.434 68.776 253.007 65.4075 253.007C62.0389 253.007 59.3081 255.434 59.3081 258.428C59.3081 261.423 62.0389 263.85 65.4075 263.85Z" fill="url(#paint7_linear_2_5)"/>
<path d="M123.061 242.992C123.92 237.854 127.441 234.512 127.441 234.512C123.302 231.533 123.27 225.873 123.27 225.873C123.27 225.873 123.103 231.522 118.88 234.395C118.891 234.406 122.328 237.832 123.061 242.992Z" fill="url(#paint8_linear_2_5)"/>
<path d="M281.167 69.3469C281.809 63.9548 285.313 60.2997 285.313 60.2997C280.855 57.4045 280.543 51.5148 280.543 51.5148C280.543 51.5148 280.641 57.4136 276.397 60.6163C276.406 60.6163 280.15 64.009 281.167 69.3469Z" fill="url(#paint9_linear_2_5)"/>
<path d="M174.734 327.675C177.132 327.675 179.074 325.732 179.074 323.335C179.074 320.938 177.132 318.996 174.734 318.996C172.338 318.996 170.395 320.938 170.395 323.335C170.395 325.732 172.338 327.675 174.734 327.675Z" fill="url(#paint10_linear_2_5)"/>
<path d="M77.2722 434.904C80.0079 434.904 82.2256 432.686 82.2256 429.951C82.2256 427.215 80.0079 424.997 77.2722 424.997C74.5366 424.997 72.3189 427.215 72.3189 429.951C72.3189 432.686 74.5366 434.904 77.2722 434.904Z" fill="url(#paint11_linear_2_5)"/>
<path d="M241.228 535.952C243.143 535.952 244.695 534.4 244.695 532.485C244.695 530.57 243.143 529.018 241.228 529.018C239.313 529.018 237.761 530.57 237.761 532.485C237.761 534.4 239.313 535.952 241.228 535.952Z" fill="url(#paint12_linear_2_5)"/>
<path d="M156.902 582.277C159.3 582.277 161.242 580.334 161.242 577.937C161.242 575.54 159.3 573.598 156.902 573.598C154.506 573.598 152.563 575.54 152.563 577.937C152.563 580.334 154.506 582.277 156.902 582.277Z" fill="url(#paint13_linear_2_5)"/>
<path d="M-45.6652 657.431L-0.206413 666.227L32.8335 650.973L32.1209 653.193C31.8805 653.949 32.7559 654.542 33.3615 654.094L44.6684 645.623L43.8063 648.616C43.6377 649.243 44.349 649.712 44.8549 649.291L62.7675 634.223C64.7454 632.53 65.546 629.855 64.7041 627.381C63.7874 624.563 61.07 622.764 58.1387 623.046L30.3303 625.4C29.8038 625.439 29.6719 626.121 30.1455 626.354L34.1724 628.454L21.6494 629.803C20.5878 629.928 20.2697 631.329 21.1995 631.886L24.0619 633.666L-45.6652 657.431Z" fill="url(#paint14_linear_2_5)"/>
<path d="M34.4945 643.608C34.4945 643.608 32.8098 647.196 30.7774 647.463C28.745 647.73 27.9749 645.129 29.1846 643.996C29.1846 643.996 24.356 647.258 22.9319 643.162C21.6648 639.475 26.9701 638.38 26.9701 638.38C26.9701 638.38 24.3775 637.641 24.6105 635.706C24.8435 633.77 29.3233 632.798 31.4424 634.765L34.4945 643.608Z" fill="url(#paint15_linear_2_5)"/>
<path d="M33.1497 642.027C33.1863 642.082 33.1687 642.173 33.1599 642.218L31.1335 644.891C31.0705 644.974 30.9795 644.956 30.9429 644.902C30.8608 644.839 30.8784 644.748 30.9414 644.665L32.9678 641.993C32.9766 641.947 33.0763 641.919 33.1497 642.027Z" fill="white"/>
<path d="M31.7023 640.002C31.7756 640.11 31.7126 640.192 31.6583 640.229L25.8795 642.554C25.8252 642.591 25.743 642.527 25.6609 642.465C25.6331 642.365 25.6506 642.274 25.7504 642.246L31.5293 639.922C31.5835 639.884 31.629 639.893 31.7023 640.002Z" fill="white"/>
<path d="M31.2719 636.618C31.3085 636.673 31.3085 636.673 31.2997 636.718C31.2821 636.808 31.2191 636.891 31.1281 636.874L27.7114 636.495C27.6205 636.477 27.5838 636.423 27.556 636.324C27.5736 636.233 27.6366 636.15 27.7276 636.168L31.1443 636.547C31.1897 636.555 31.2264 636.609 31.2719 636.618Z" fill="white"/>
<path d="M58.421 633.288L50.7461 637.367L49.5877 637.992L42.5463 641.723L41.3966 642.303L39.0344 643.543C37.3232 644.343 35.4345 644.355 33.814 643.712C33.2406 643.506 32.7303 643.219 32.283 642.849C32.2009 642.787 32.1188 642.724 32.0367 642.66C31.4251 642.165 30.8855 641.542 30.5086 640.809C30.4807 640.709 30.3986 640.646 30.3708 640.546C30.3062 640.393 30.205 640.184 30.1405 640.03C29.7899 639.16 29.6843 638.244 29.715 637.354C29.7327 637.263 29.7047 637.163 29.7224 637.072C29.7575 636.891 29.756 636.655 29.7912 636.473C29.888 635.972 30.0214 635.526 30.2546 635.053C30.756 633.924 31.6124 632.911 32.6886 632.223C33.0596 632.012 33.4305 631.801 33.8382 631.643C34.0376 631.588 34.2459 631.486 34.4453 631.431L40.321 630.068L41.5997 629.796L50.4317 627.78L51.7104 627.509L55.8089 626.557C57.595 626.1 59.3898 627.061 60.0542 628.745C60.8008 630.494 60.05 632.424 58.421 633.288Z" fill="url(#paint16_linear_2_5)"/>
<path d="M42.5462 641.723L41.3966 642.303L39.5912 638.228C39.4621 637.92 39.5868 637.52 39.8947 637.39C40.2027 637.261 40.603 637.386 40.732 637.694L42.5462 641.723Z" fill="url(#paint17_linear_2_5)"/>
<path d="M50.746 637.368L49.5876 637.992L48.0037 634.479C47.8746 634.171 47.9992 633.771 48.3071 633.642C48.6151 633.512 49.0155 633.637 49.1445 633.945L50.746 637.368Z" fill="url(#paint18_linear_2_5)"/>
<path d="M35.6247 637.036C35.5162 637.109 35.3711 637.128 35.2347 637.102C35.0528 637.067 34.8431 636.932 34.7874 636.732L32.7796 632.241C33.1506 632.029 33.5216 631.818 33.9292 631.662L35.9737 636.207C36.1027 636.515 35.9327 636.906 35.6247 637.036Z" fill="url(#paint19_linear_2_5)"/>
<path d="M42.9255 634.156C42.817 634.23 42.6806 634.204 42.5442 634.177C42.3624 634.142 42.1527 634.007 42.0969 633.808L40.4119 630.086L41.6906 629.814L43.2378 633.274C43.4035 633.636 43.2334 634.028 42.9255 634.156Z" fill="url(#paint20_linear_2_5)"/>
<path d="M52.9352 631.66C52.8266 631.733 52.6903 631.706 52.5538 631.681C52.3721 631.645 52.1623 631.51 52.1067 631.311L50.5227 627.797L51.8013 627.526L53.2841 630.832C53.4132 631.14 53.2885 631.54 52.9352 631.66Z" fill="url(#paint21_linear_2_5)"/>
<path d="M-4.95334 391.04C31.3471 346.633 148.732 246.753 327.868 202.489" stroke="url(#paint22_linear_2_5)" stroke-width="9.9067"/>
<path d="M296.518 218.498L298.554 215.715L279.468 219.271L291.211 214.334L268.222 219.762L295.979 207.689L292.676 206.427L300.3 205.429L301.117 207.522L303.938 214.729L296.518 218.498Z" fill="url(#paint23_linear_2_5)"/>
<path opacity="0.2" d="M279.467 219.271L291.211 214.334L268.222 219.761L301.117 207.522L302.383 213.965L279.467 219.271Z" fill="white"/>
<path d="M306.614 214.535L304.902 216.361L304.867 216.409C304.554 216.747 304.025 216.764 303.685 216.464C299.182 212.41 299.597 206.55 299.971 204.267C300.058 203.756 300.57 203.439 301.067 203.604L301.144 203.63L303.2 204.303L306.614 214.535Z" fill="url(#paint24_linear_2_5)"/>
<path d="M304.902 216.361L304.867 216.409C304.554 216.747 304.025 216.764 303.685 216.464C299.182 212.41 299.597 206.55 299.971 204.267C300.058 203.756 300.57 203.439 301.067 203.604L301.144 203.63C300.67 205.626 299.812 211.56 304.902 216.361Z" fill="url(#paint25_linear_2_5)"/>
<path d="M319.215 196.209L319.156 196.24L307.152 202.547L305.198 203.577L297.995 199.146L295.762 197.769C295.175 197.414 295.241 196.549 295.867 196.277C296.289 196.093 296.708 195.935 297.125 195.776C303.699 193.346 310.016 193.852 314.196 194.724C316.905 195.278 318.713 195.989 319.114 196.165C319.191 196.191 319.215 196.209 319.215 196.209Z" fill="url(#paint26_linear_2_5)"/>
<path d="M319.171 196.228L307.167 202.536L305.212 203.566L298.01 199.135C301.712 199.723 308.371 199.815 314.225 194.715C316.934 195.269 318.741 195.98 319.143 196.157L319.171 196.228Z" fill="url(#paint27_linear_2_5)"/>
<path d="M307.152 202.547L305.198 203.577L295.773 197.785C295.186 197.43 295.252 196.564 295.877 196.292C296.3 196.108 296.717 195.949 297.135 195.792C299.711 197.455 305.028 201.081 307.152 202.547Z" fill="url(#paint28_linear_2_5)"/>
<path d="M355.25 192.956L368.126 191.043C368.526 190.989 368.686 191.555 368.309 191.707L355.783 196.012L353.771 195.711L355.25 192.956Z" fill="url(#paint29_linear_2_5)"/>
<path d="M355.798 196.001C355.778 196.039 355.756 196.088 355.724 196.123C353.358 200.05 349.962 203.14 346.057 205.578C344.94 206.278 343.78 206.917 342.587 207.511C334.106 211.733 324.058 213.425 316.756 214.113C316.194 214.166 315.647 214.209 315.127 214.255C314.649 214.295 314.186 214.324 313.735 214.356C312.468 214.437 311.327 214.486 310.365 214.512C308.034 214.588 306.64 214.54 306.64 214.54C304.465 212.5 303.618 209.943 303.305 207.894C302.992 205.845 303.228 204.295 303.228 204.295C304.275 203.448 305.303 202.638 306.337 201.87C307.401 201.08 308.472 200.331 309.52 199.633C309.961 199.344 310.385 199.065 310.823 198.789C311.307 198.481 311.803 198.174 312.285 197.878C323.278 191.251 333.028 189.562 340.443 189.728C340.724 189.735 341.006 189.743 341.275 189.748C341.489 189.758 341.703 189.767 341.917 189.777C342.544 189.815 343.156 189.865 343.754 189.912C350.98 190.627 355.292 192.949 355.292 192.949C355.144 193.181 355.036 193.418 354.973 193.636C354.588 194.947 355.667 195.898 355.798 196.001Z" fill="url(#paint30_linear_2_5)"/>
<path d="M355.785 195.999L355.724 196.123C334.929 192.351 303.282 207.876 303.282 207.876C302.969 205.827 303.205 204.277 303.205 204.277C304.251 203.43 305.279 202.621 306.313 201.852C307.377 201.062 308.448 200.313 309.496 199.615C309.937 199.326 310.361 199.047 310.799 198.771C311.283 198.463 311.78 198.156 312.261 197.861C323.254 191.233 333.005 189.544 340.419 189.71C340.7 189.717 340.983 189.725 341.251 189.73C341.465 189.74 341.679 189.749 341.893 189.758C342.52 189.797 343.132 189.847 343.731 189.895C350.957 190.609 355.268 192.931 355.268 192.931C355.12 193.163 355.012 193.401 354.949 193.618C354.588 194.946 355.667 195.898 355.785 195.999Z" fill="url(#paint31_linear_2_5)"/>
<path opacity="0.5" d="M316.743 214.11C316.181 214.164 315.634 214.206 315.114 214.252C312.091 210.544 311.069 206.474 310.774 203.526C310.574 201.604 310.653 199.946 310.781 198.795C311.265 198.487 311.762 198.179 312.243 197.884C312.086 198.815 311.839 200.903 312.096 203.44C312.536 207.6 314.099 211.181 316.743 214.11Z" fill="#5BA8D3"/>
<path opacity="0.5" d="M313.724 214.34C312.457 214.422 311.316 214.47 310.355 214.496C307.001 210.664 306.192 205.027 306.99 201.361C308.054 200.57 308.448 200.313 309.496 199.615C308.125 207.377 312.072 212.563 313.724 214.34Z" fill="#5BA8D3"/>
<path d="M292.121 214.852L316.578 208.326C317.735 208.024 318.432 206.861 318.156 205.709C317.848 204.417 316.461 203.696 315.218 204.186L291.638 213.409C291.278 213.55 291.075 213.947 291.186 214.329C291.319 214.73 291.725 214.96 292.121 214.852Z" fill="url(#paint32_linear_2_5)"/>
<path opacity="0.5" d="M346.044 205.575C344.927 206.275 343.767 206.914 342.576 207.508C340.904 204.164 338.497 197.541 340.403 189.721C341.572 189.744 342.667 189.808 343.713 189.918C343.044 192.272 341.286 200.089 346.044 205.575Z" fill="#5BA8D3"/>
<path d="M323.238 210.71C327.255 211.392 331.063 208.689 331.746 204.672C332.427 200.655 329.724 196.847 325.706 196.165C321.69 195.483 317.881 198.186 317.2 202.204C316.518 206.22 319.221 210.029 323.238 210.71Z" fill="url(#paint33_linear_2_5)"/>
<path d="M323.614 208.495C326.408 208.97 329.057 207.09 329.531 204.296C330.005 201.502 328.125 198.853 325.331 198.38C322.537 197.905 319.889 199.785 319.415 202.579C318.94 205.373 320.82 208.022 323.614 208.495Z" fill="url(#paint34_linear_2_5)"/>
<path d="M324.702 204.474L323.292 205.313L321.261 202.502C320.868 201.963 321.024 201.194 321.607 200.861C322.179 200.514 322.921 200.747 323.212 201.336L324.702 204.474Z" fill="url(#paint35_linear_2_5)"/>
<path d="M325.137 204.292L326.738 203.916L326.243 200.475C326.153 199.813 325.512 199.38 324.853 199.525C324.208 199.671 323.824 200.348 324.039 200.991L325.137 204.292Z" fill="url(#paint36_linear_2_5)"/>
<path d="M321.931 207.131C322.102 207.551 322.338 207.915 322.62 208.233C323.823 208.693 325.195 208.71 326.473 208.172C327.751 207.633 328.691 206.621 329.201 205.44C329.173 205.058 329.089 204.679 328.936 204.303C328.16 202.365 325.958 201.438 324.019 202.214C322.082 202.991 321.155 205.193 321.931 207.131Z" fill="url(#paint37_linear_2_5)"/>
<path d="M324.025 205.681C324.129 205.94 324.056 206.212 323.868 206.287C323.68 206.363 323.434 206.227 323.33 205.967C323.226 205.707 323.298 205.436 323.486 205.36C323.675 205.284 323.921 205.42 324.025 205.681Z" fill="url(#paint38_linear_2_5)"/>
<path d="M326.939 204.557C327.043 204.818 326.97 205.088 326.782 205.165C326.594 205.241 326.347 205.104 326.243 204.844C326.139 204.584 326.213 204.313 326.4 204.237C326.602 204.163 326.835 204.298 326.939 204.557Z" fill="url(#paint39_linear_2_5)"/>
<path d="M312.99 202.459C313.171 202.49 313.343 202.368 313.374 202.188C313.404 202.006 313.282 201.835 313.101 201.804C312.921 201.774 312.749 201.895 312.719 202.077C312.688 202.257 312.81 202.428 312.99 202.459Z" fill="url(#paint40_linear_2_5)"/>
<path d="M314.241 201.998C314.423 202.028 314.594 201.906 314.625 201.726C314.655 201.545 314.534 201.373 314.353 201.343C314.172 201.312 314.001 201.434 313.97 201.614C313.939 201.795 314.061 201.967 314.241 201.998Z" fill="url(#paint41_linear_2_5)"/>
<path d="M316.678 201.063C316.859 201.094 317.031 200.972 317.062 200.792C317.093 200.611 316.971 200.439 316.789 200.409C316.608 200.378 316.437 200.5 316.406 200.68C316.375 200.861 316.497 201.033 316.678 201.063Z" fill="url(#paint42_linear_2_5)"/>
<path d="M315.442 201.514C315.623 201.545 315.795 201.423 315.825 201.243C315.856 201.061 315.734 200.89 315.554 200.859C315.373 200.829 315.201 200.95 315.171 201.132C315.14 201.312 315.262 201.483 315.442 201.514Z" fill="url(#paint43_linear_2_5)"/>
<path d="M325.169 183.722C325.169 183.722 325.423 187.073 327.976 187.363C330.53 187.653 330.052 188.795 330.052 188.795L336.056 186.573L325.169 183.722Z" fill="url(#paint44_linear_2_5)"/>
<path d="M328.139 186.255C326.766 185.799 326.841 184.572 326.906 184.172L325.169 183.722C325.169 183.722 325.423 187.073 327.976 187.363C329.781 187.566 330.071 188.194 330.084 188.551L330.471 187.851C330.373 187.368 329.785 186.803 328.139 186.255Z" fill="url(#paint45_linear_2_5)"/>
<path d="M332.015 192.527L335.237 190.575C335.237 190.575 338.548 191.827 340.307 188.549C340.405 188.361 340.405 188.136 340.315 187.945C340.237 187.782 340.091 187.663 339.92 187.606L337.52 186.832C336.557 186.523 335.528 186.488 334.547 186.727C332.565 187.218 328.696 187.906 324.372 187.237C324.372 187.237 324.447 187.924 325.21 188.759C325.21 188.759 321.472 187.663 319.47 191.03C319.47 191.03 317.109 190.225 316.026 188.974C316.026 188.974 314.216 193.177 317.927 193.636C317.927 193.636 318.152 195.111 320.039 194.368C320.039 194.368 320.191 195.047 321.144 195.645C321.4 195.806 321.538 196.1 321.481 196.391C321.468 196.463 321.448 196.547 321.422 196.632C321.334 196.921 321.419 197.234 321.66 197.424C322.547 198.129 324.525 199.853 325.074 201.7C325.137 201.903 325.28 202.077 325.475 202.158C325.685 202.245 325.978 202.244 326.288 201.903C326.914 201.22 326.374 198.387 324.068 196.605C324.068 196.605 325.671 196.123 325.997 194.978C325.997 194.978 327.767 194.699 328.979 193.955C328.979 193.955 330.078 199.042 333.161 199.417C333.344 199.439 333.537 199.415 333.697 199.328C333.987 199.17 334.292 198.784 333.848 197.866C333.147 196.391 331.522 195.843 332.015 192.527Z" fill="url(#paint46_linear_2_5)"/>
<path opacity="0.3" d="M330.268 190.032C330.268 190.032 331.343 189.774 331.841 189.406C332.338 189.039 333.082 189.21 333.489 188.98C333.896 188.751 334.353 188.326 334.951 188.581C334.951 188.581 334.484 188.183 333.931 188.538C333.378 188.894 332.726 188.903 332.366 188.942C331.733 189.005 331.249 189.552 330.515 189.708C330.014 189.815 329.11 189.862 328.369 189.706C328.369 189.706 329.595 190.12 330.268 190.032Z" fill="#F87C38"/>
<path d="M326.021 187.428C325.481 187.382 324.931 187.319 324.37 187.232C324.37 187.232 324.446 187.918 325.208 188.754C325.208 188.754 327.143 191.023 330.269 190.032C330.269 190.032 327.312 189.802 326.021 187.428Z" fill="url(#paint47_linear_2_5)"/>
<path d="M316.026 188.974C316.026 188.974 315.72 189.684 315.618 190.558C317.004 192.276 319.246 192.143 319.246 192.143C319.214 191.629 319.468 191.025 319.468 191.025C319.468 191.025 317.108 190.225 316.026 188.974Z" fill="url(#paint48_linear_2_5)"/>
<path opacity="0.3" d="M320.121 192.601C320.121 192.601 319.43 193.274 319.573 194.514C319.717 194.482 319.871 194.433 320.039 194.369C320.039 194.369 319.692 193.338 320.121 192.601Z" fill="#F87C38"/>
<path opacity="0.3" d="M328.946 192.619C328.397 192.932 326.991 193.244 326.53 193.34C326.316 192.318 325.747 191.772 325.747 191.772C326.766 193.447 325.996 194.979 325.996 194.979C325.996 194.979 326.086 194.966 326.239 194.931C326.244 194.93 326.244 194.93 326.249 194.929C326.334 194.912 326.429 194.893 326.547 194.864C326.547 194.864 326.547 194.864 326.546 194.859C327.161 194.707 328.204 194.388 328.977 193.95C328.978 193.955 328.766 193.225 328.946 192.619Z" fill="#F87C38"/>
<path opacity="0.3" d="M332.015 192.527L332.336 192.33C332.278 191.962 332.272 191.462 332.272 191.462C332.111 191.921 332.015 192.527 332.015 192.527Z" fill="#F87C38"/>
<path d="M323.037 196.727C323.037 196.727 324.938 197.414 326.335 199.835C326.012 198.777 325.288 197.539 324.07 196.594C324.066 196.6 323.543 196.744 323.037 196.727Z" fill="url(#paint49_linear_2_5)"/>
<path opacity="0.3" d="M335.231 190.576C335.231 190.576 334.283 190.138 333.892 189.902C333.892 189.902 334.052 190.61 334.624 190.946L335.231 190.576Z" fill="#F87C38"/>
<path d="M338.511 190.393C337.544 190.886 336.551 190.851 335.917 190.746C335.902 190.258 336.102 189.81 336.441 189.54C336.59 189.424 336.761 189.339 336.95 189.3C337.404 189.211 337.852 189.389 338.167 189.743C338.322 189.918 338.445 190.138 338.511 190.393Z" fill="url(#paint50_linear_2_5)"/>
<path d="M336.095 189.964C335.975 190.193 335.907 190.461 335.917 190.747C336.452 190.835 337.242 190.874 338.053 190.588C337.443 190.002 336.474 189.956 336.095 189.964Z" fill="url(#paint51_linear_2_5)"/>
<path d="M338.166 189.739C337.457 189.809 336.816 189.654 336.44 189.535C336.589 189.419 336.76 189.334 336.949 189.295C337.402 189.206 337.852 189.389 338.166 189.739Z" fill="url(#paint52_linear_2_5)"/>
<path d="M336.682 188.882C336.991 188.804 337.178 188.489 337.099 188.18C337.02 187.871 336.706 187.683 336.397 187.763C336.088 187.842 335.9 188.156 335.98 188.465C336.058 188.775 336.373 188.961 336.682 188.882Z" fill="url(#paint53_linear_2_5)"/>
<path d="M336.752 188.319C336.817 188.303 336.856 188.237 336.84 188.172C336.823 188.107 336.757 188.068 336.692 188.085C336.628 188.101 336.588 188.167 336.605 188.232C336.622 188.297 336.687 188.336 336.752 188.319Z" fill="white"/>
<path d="M335.426 187.425C335.624 187.301 335.849 187.217 336.073 187.192C336.301 187.164 336.528 187.191 336.736 187.268C336.817 187.3 336.855 187.389 336.824 187.47C336.795 187.541 336.726 187.579 336.655 187.571L336.65 187.572C336.318 187.521 335.982 187.655 335.771 187.876C335.659 187.987 335.481 187.991 335.368 187.879C335.256 187.766 335.253 187.589 335.365 187.476C335.382 187.461 335.4 187.447 335.418 187.437L335.426 187.425Z" fill="#F87C38"/>
<path opacity="0.5" d="M335.018 186.298L325.168 183.722C325.168 183.722 325.192 184.061 325.313 184.532L335.018 186.298Z" fill="#FFCA83"/>
<path opacity="0.5" d="M333.393 186.98C331.247 187.407 327.965 187.789 324.37 187.232C324.37 187.232 324.405 187.553 324.67 188.018C326.114 188.037 330.767 188.005 333.393 186.98Z" fill="#FFCA83"/>
<path d="M325.851 202.245C325.846 202.246 325.836 202.249 325.83 202.245C325.799 202.243 325.775 202.213 325.779 202.185C325.9 201.06 325.335 200.467 325.328 200.459C325.306 200.438 325.307 200.401 325.328 200.38C325.349 200.359 325.386 200.36 325.407 200.381C325.434 200.406 326.013 201.016 325.887 202.2C325.892 202.219 325.876 202.238 325.851 202.245Z" fill="#F87C38"/>
<path d="M326.436 201.729C326.432 201.73 326.427 201.732 326.422 201.733C326.39 201.731 326.367 201.705 326.365 201.675C326.376 200.61 325.813 200.026 325.812 200.021C325.792 200 325.793 199.964 325.813 199.942C325.834 199.921 325.871 199.922 325.892 199.943C325.914 199.969 326.488 200.56 326.48 201.677C326.477 201.703 326.461 201.723 326.436 201.729Z" fill="#F87C38"/>
<path d="M333.42 199.471C333.41 199.474 333.405 199.475 333.394 199.472C332.394 199.267 331.895 198.558 331.877 198.531C331.859 198.504 331.867 198.471 331.894 198.454C331.921 198.436 331.955 198.443 331.971 198.471C331.979 198.479 332.47 199.17 333.42 199.367C333.452 199.374 333.47 199.401 333.462 199.435C333.455 199.447 333.44 199.466 333.42 199.471Z" fill="#F87C38"/>
<path d="M334.005 199.082C333.995 199.084 333.99 199.085 333.979 199.083C333.041 198.893 332.447 198.119 332.423 198.088C332.405 198.062 332.408 198.03 332.434 198.007C332.461 197.99 332.492 197.992 332.515 198.018C332.522 198.027 333.115 198.791 334.008 198.971C334.042 198.978 334.059 199.005 334.052 199.038C334.047 199.06 334.03 199.075 334.005 199.082Z" fill="#F87C38"/>
<path d="M340.313 187.94C340.291 187.893 340.258 187.85 340.222 187.806C340.048 187.846 339.834 187.869 339.676 187.883C339.553 187.893 339.483 188.027 339.54 188.132C339.718 188.458 340.075 188.524 340.307 188.533C340.404 188.357 340.404 188.131 340.313 187.94Z" fill="#F87C38"/>
</g>
<path d="M430.49 613.647C430.576 615.745 430.574 617.844 430.398 619.952C428.554 651.79 402.837 677.608 370.254 678.944C369.38 678.98 368.419 679.02 367.542 678.968C362.028 678.932 356.66 678.19 351.529 676.824C345.073 675.165 339.007 672.351 333.525 668.813C330.199 666.674 327.125 664.263 324.3 661.491C316.01 653.519 309.818 643.36 306.896 631.842C305.759 627.601 305.143 623.251 304.957 618.709C304.824 615.476 304.958 612.321 305.265 609.158C306.474 598.083 310.604 587.851 316.815 579.284C321.537 572.79 327.52 567.207 334.344 562.902C338.524 560.281 343.075 558.169 347.822 556.574C353.261 554.776 358.991 553.666 365.018 553.419C367.726 553.308 370.354 553.375 372.902 553.621C389.232 554.963 403.899 562.675 414.352 574.321C417.287 577.614 419.974 581.265 422.144 585.114C425.347 590.671 427.698 596.787 429.018 603.383C429.945 606.757 430.346 610.153 430.49 613.647Z" fill="url(#paint54_linear_2_5)"/>
<g opacity="0.3">
<path d="M444.283 612.957C444.387 615.504 444.386 618.055 444.172 620.615C441.931 659.292 410.691 690.653 371.111 692.277C370.05 692.32 368.882 692.368 367.817 692.306C361.119 692.261 354.597 691.36 348.365 689.702C340.523 687.685 333.154 684.267 326.494 679.97C322.455 677.371 318.721 674.442 315.288 671.076C305.217 661.391 297.696 649.05 294.147 635.059C292.766 629.906 292.018 624.623 291.791 619.105C291.63 615.179 291.792 611.345 292.166 607.503C293.633 594.05 298.651 581.621 306.196 571.213C311.931 563.325 319.2 556.543 327.49 551.314C332.567 548.13 338.096 545.565 343.861 543.627C350.469 541.443 357.429 540.094 364.751 539.794C368.041 539.659 371.233 539.741 374.327 540.039C394.165 541.67 411.981 551.037 424.678 565.185C428.244 569.184 431.508 573.621 434.145 578.296C438.035 585.046 440.892 592.476 442.495 600.487C443.62 604.587 444.108 608.713 444.283 612.957Z" fill="url(#paint55_linear_2_5)" fill-opacity="0.5"/>
</g>
<path opacity="0.3" d="M348 556.654C346.136 558.13 343.944 560.145 341.501 562.434C337.545 566.271 333.2 571.262 329.243 577.199C324.048 584.937 319.623 594.394 317.628 605.501C316.559 611.408 316.208 617.809 316.837 624.609C318.077 637.771 323.06 652.616 333.703 668.893C330.378 666.754 327.304 664.343 324.478 661.571C316.188 653.598 309.996 643.44 307.074 631.922C305.938 627.681 305.321 623.331 305.135 618.789C305.003 615.557 305.136 612.401 305.444 609.238C306.652 598.163 310.783 587.932 316.994 579.364C321.715 572.871 327.699 567.287 334.522 562.983C338.703 560.36 343.166 558.252 348 556.654Z" fill="url(#paint56_linear_2_5)"/>
<path d="M414.526 574.314C406.076 577.373 397.009 578.182 386.873 572.123C378.709 567.208 374.765 558.532 373.076 553.614C389.498 555.04 404.076 562.755 414.526 574.314ZM422.322 585.194C406.902 595.365 394.361 592.554 385.518 590.291C375.703 587.807 368.756 569.891 352.491 563.733C349.645 562.625 345.609 562.353 341.5 562.434C339.141 562.53 336.699 562.718 334.522 562.983C327.611 567.291 321.715 572.871 316.993 579.364C320.193 578.445 324.27 577.578 329.242 577.199C332.383 576.983 335.882 576.927 339.826 577.115C360 578.3 361.219 597.325 383.844 607.073C402.19 614.896 422.333 606.807 429.368 603.368C427.876 596.867 425.525 590.751 422.322 585.194ZM379.736 632.792C365.383 630.581 363.218 611.944 339.607 605.912C331.561 603.879 323.962 604.192 317.54 605.504C312.594 606.495 308.367 607.981 305.356 609.242C305.045 612.317 304.915 615.56 305.048 618.792C305.234 623.335 305.849 627.684 306.987 631.925C309.251 629.558 312.547 626.709 316.837 624.609C320.696 622.7 325.282 621.463 330.629 621.681C348.07 622.365 352.488 640.472 354.584 657.449C355.877 667.634 362.471 674.802 367.63 678.964C368.503 678.929 369.467 678.977 370.341 678.941C402.837 677.608 428.554 651.79 430.486 619.948C414.791 619.191 403.075 636.473 379.736 632.792ZM336.56 657.489C330.926 656.669 326.67 659.556 324.394 661.662C331.953 668.877 341.27 674.183 351.619 676.909C347.732 671.73 349.761 659.309 336.56 657.489Z" fill="url(#paint57_linear_2_5)"/>
<path d="M339.539 599.964C344.315 599.769 348.028 595.738 347.832 590.962C347.637 586.186 343.606 582.472 338.83 582.668C334.053 582.864 330.34 586.895 330.536 591.671C330.732 596.447 334.762 600.16 339.539 599.964Z" fill="url(#paint58_linear_2_5)"/>
<path d="M429.354 628.657C429.07 630.244 428.693 631.747 428.231 633.254C428.081 633.872 427.844 634.494 427.694 635.113C427.071 636.976 426.448 638.839 425.732 640.618C430.21 645.248 432.125 649.282 430.94 652.393C429.519 656.126 423.723 657.764 415.057 657.682C401.31 657.458 380.286 652.632 357.879 643.926C334.405 634.826 315.046 623.632 305.123 614.239C299.569 608.955 296.925 604.25 298.275 600.87C299.383 598.025 302.991 596.389 308.568 595.81C309.191 593.947 309.902 592.081 310.791 590.293C311.028 589.671 311.353 589.046 311.677 588.42C312.402 586.902 313.218 585.469 314.038 584.123C287.158 579.451 267.809 581.294 264.163 590.544C260.051 601.213 278.19 618.932 308.29 635.985C321.279 643.327 336.361 650.496 352.899 656.906C368.815 663.078 384.324 667.868 398.375 671.229C432.833 679.354 458.883 678.723 463.164 667.872C466.627 658.454 453.069 643.61 429.354 628.657Z" fill="url(#paint59_linear_2_5)"/>
<path d="M428.227 633.166C428.077 633.785 427.84 634.407 427.691 635.025C434.158 641.236 437.717 646.952 437.908 651.582C437.954 652.717 437.826 653.86 437.429 654.839C435.132 660.708 425.19 663.654 410.192 662.781C410.105 662.785 410.105 662.785 410.016 662.789C394.491 661.85 375.134 657.131 355.663 649.617C336.101 642.019 318.644 632.41 306.512 622.495C306.06 622.163 305.697 621.828 305.333 621.493C294.461 612.401 289.563 603.94 291.78 598.248C293.599 593.536 300.396 590.719 310.792 590.293C311.029 589.671 311.353 589.045 311.678 588.42C300.318 588.798 292.479 591.832 290.179 597.614C287.404 604.64 293.484 614.191 305.612 624.019C317.289 633.515 334.575 643.219 355.116 651.215C374.056 658.575 392.798 663.232 408.247 664.436C408.949 664.495 409.565 664.557 410.176 664.532C413.157 664.672 415.872 664.735 418.493 664.628C424.17 664.396 428.772 663.507 432.296 661.962C435.82 660.418 438.093 658.225 439.208 655.554C441.326 649.604 437.506 641.798 428.227 633.166Z" fill="url(#paint60_linear_2_5)"/>
</g>
</g>
</g>
<defs>
<linearGradient id="paint0_linear_2_5" x1="480.775" y1="961.029" x2="408.339" y2="-402.318" gradientUnits="userSpaceOnUse">
<stop stop-color="#03192E"/>
<stop offset="0.5" stop-color="#223C6A"/>
<stop offset="1" stop-color="#4A74A2"/>
</linearGradient>
<linearGradient id="paint1_linear_2_5" x1="168.305" y1="532.828" x2="110.798" y2="-713.397" gradientUnits="userSpaceOnUse">
<stop stop-color="#03192E"/>
<stop offset="0.5" stop-color="#223C6A"/>
<stop offset="1" stop-color="#4A74A2"/>
</linearGradient>
<linearGradient id="paint2_linear_2_5" x1="106.118" y1="154.573" x2="106.118" y2="123.21" gradientUnits="userSpaceOnUse">
<stop stop-color="#386E9F"/>
<stop offset="1" stop-color="white"/>
</linearGradient>
<linearGradient id="paint3_linear_2_5" x1="346.773" y1="518.763" x2="370.627" y2="417.41" gradientUnits="userSpaceOnUse">
<stop stop-color="#FF2A64"/>
<stop offset="1" stop-color="#FFAF48"/>
</linearGradient>
<linearGradient id="paint4_linear_2_5" x1="108.967" y1="865.827" x2="237.508" y2="582.992" gradientUnits="userSpaceOnUse">
<stop stop-color="#03192E"/>
<stop offset="0.5" stop-color="#223C6A"/>
<stop offset="1" stop-color="#4A74A2"/>
</linearGradient>
<linearGradient id="paint5_linear_2_5" x1="27.6197" y1="601.984" x2="-4.57505" y2="432.373" gradientUnits="userSpaceOnUse">
<stop stop-color="#386E9F"/>
<stop offset="1" stop-color="white"/>
</linearGradient>
<linearGradient id="paint6_linear_2_5" x1="61.4894" y1="680.404" x2="-13.8935" y2="452.685" gradientUnits="userSpaceOnUse">
<stop stop-color="#386E9F"/>
<stop offset="1" stop-color="white"/>
</linearGradient>
<linearGradient id="paint7_linear_2_5" x1="65.4054" y1="308.033" x2="65.4054" y2="248.301" gradientUnits="userSpaceOnUse">
<stop stop-color="#03192E"/>
<stop offset="0.5" stop-color="#223C6A"/>
<stop offset="1" stop-color="#4A74A2"/>
</linearGradient>
<linearGradient id="paint8_linear_2_5" x1="137.753" y1="251.704" x2="137.753" y2="230.912" gradientUnits="userSpaceOnUse">
<stop stop-color="#FF2A64"/>
<stop offset="1" stop-color="#FFAF48"/>
</linearGradient>
<linearGradient id="paint9_linear_2_5" x1="280.861" y1="78.2075" x2="280.861" y2="58.4446" gradientUnits="userSpaceOnUse">
<stop stop-color="#FF2A64"/>
<stop offset="1" stop-color="#FFAF48"/>
</linearGradient>
<linearGradient id="paint10_linear_2_5" x1="174.779" y1="338.06" x2="174.779" y2="309.371" gradientUnits="userSpaceOnUse">
<stop stop-color="#386E9F"/>
<stop offset="1" stop-color="white"/>
</linearGradient>
<linearGradient id="paint11_linear_2_5" x1="77.2706" y1="475.271" x2="77.2706" y2="420.699" gradientUnits="userSpaceOnUse">
<stop stop-color="#03192E"/>
<stop offset="0.5" stop-color="#223C6A"/>
<stop offset="1" stop-color="#4A74A2"/>
</linearGradient>
<linearGradient id="paint12_linear_2_5" x1="241.227" y1="564.209" x2="241.227" y2="526.009" gradientUnits="userSpaceOnUse">
<stop stop-color="#03192E"/>
<stop offset="0.5" stop-color="#223C6A"/>
<stop offset="1" stop-color="#4A74A2"/>
</linearGradient>
<linearGradient id="paint13_linear_2_5" x1="156.947" y1="592.662" x2="156.947" y2="563.973" gradientUnits="userSpaceOnUse">
<stop stop-color="#386E9F"/>
<stop offset="1" stop-color="white"/>
</linearGradient>
<linearGradient id="paint14_linear_2_5" x1="-57.6618" y1="686.053" x2="79.1481" y2="607.891" gradientUnits="userSpaceOnUse">
<stop stop-color="#FF2A64" stop-opacity="0"/>
<stop offset="1" stop-color="#FFAF48"/>
</linearGradient>
<linearGradient id="paint15_linear_2_5" x1="66.0422" y1="623.78" x2="13.0402" y2="647.839" gradientUnits="userSpaceOnUse">
<stop stop-color="#03192E"/>
<stop offset="0.5" stop-color="#223C6A"/>
<stop offset="1" stop-color="#4A74A2"/>
</linearGradient>
<linearGradient id="paint16_linear_2_5" x1="-36.0647" y1="675.574" x2="56.9385" y2="626.888" gradientUnits="userSpaceOnUse">
<stop stop-color="#FF2A64"/>
<stop offset="1" stop-color="#FFAF48"/>
</linearGradient>
<linearGradient id="paint17_linear_2_5" x1="5.02435" y1="658.911" x2="83.3374" y2="617.061" gradientUnits="userSpaceOnUse">
<stop stop-color="#FF2A64"/>
<stop offset="1" stop-color="#FFAF48"/>
</linearGradient>
<linearGradient id="paint18_linear_2_5" x1="5.18103" y1="659.204" x2="83.494" y2="617.354" gradientUnits="userSpaceOnUse">
<stop stop-color="#FF2A64"/>
<stop offset="1" stop-color="#FFAF48"/>
</linearGradient>
<linearGradient id="paint19_linear_2_5" x1="1.40973" y1="652.147" x2="79.7228" y2="610.297" gradientUnits="userSpaceOnUse">
<stop stop-color="#FF2A64"/>
<stop offset="1" stop-color="#FFAF48"/>
</linearGradient>
<linearGradient id="paint20_linear_2_5" x1="2.03603" y1="653.319" x2="80.3495" y2="611.47" gradientUnits="userSpaceOnUse">
<stop stop-color="#FF2A64"/>
<stop offset="1" stop-color="#FFAF48"/>
</linearGradient>
<linearGradient id="paint21_linear_2_5" x1="3.27725" y1="655.64" x2="81.5904" y2="613.792" gradientUnits="userSpaceOnUse">
<stop stop-color="#FF2A64"/>
<stop offset="1" stop-color="#FFAF48"/>
</linearGradient>
<linearGradient id="paint22_linear_2_5" x1="781.566" y1="19.9804" x2="82.7342" y2="346.19" gradientUnits="userSpaceOnUse">
<stop stop-color="#1A98C6"/>
<stop offset="1" stop-color="#1A98C6" stop-opacity="0"/>
</linearGradient>
<linearGradient id="paint23_linear_2_5" x1="272.279" y1="221.785" x2="306.976" y2="207.295" gradientUnits="userSpaceOnUse">
<stop stop-color="#1481B4"/>
<stop offset="0.5" stop-color="#1B9CC9"/>
<stop offset="1" stop-color="#36C3C9"/>
</linearGradient>
<linearGradient id="paint24_linear_2_5" x1="305.339" y1="209.219" x2="284.408" y2="215.915" gradientUnits="userSpaceOnUse">
<stop stop-color="#386E9F"/>
<stop offset="1" stop-color="white"/>
</linearGradient>
<linearGradient id="paint25_linear_2_5" x1="308.778" y1="225.141" x2="296.103" y2="197.339" gradientUnits="userSpaceOnUse">
<stop stop-color="#386E9F"/>
<stop offset="1" stop-color="white"/>
</linearGradient>
<linearGradient id="paint26_linear_2_5" x1="350.357" y1="217.579" x2="297.465" y2="193.054" gradientUnits="userSpaceOnUse">
<stop stop-color="#FF2A64"/>
<stop offset="1" stop-color="#FFAF48"/>
</linearGradient>
<linearGradient id="paint27_linear_2_5" x1="331.429" y1="211.034" x2="292.2" y2="188.302" gradientUnits="userSpaceOnUse">
<stop stop-color="#FF2A64"/>
<stop offset="1" stop-color="#FFAF48"/>
</linearGradient>
<linearGradient id="paint28_linear_2_5" x1="313.366" y1="208.443" x2="290.32" y2="192.41" gradientUnits="userSpaceOnUse">
<stop stop-color="#03192E"/>
<stop offset="0.5" stop-color="#223C6A"/>
<stop offset="1" stop-color="#4A74A2"/>
</linearGradient>
<linearGradient id="paint29_linear_2_5" x1="349.165" y1="196.127" x2="380.684" y2="187.948" gradientUnits="userSpaceOnUse">
<stop stop-color="#386E9F"/>
<stop offset="1" stop-color="white"/>
</linearGradient>
<linearGradient id="paint30_linear_2_5" x1="377.413" y1="185.775" x2="305.984" y2="209.14" gradientUnits="userSpaceOnUse">
<stop stop-color="white"/>
<stop offset="1" stop-color="#B5E0F7"/>
</linearGradient>
<linearGradient id="paint31_linear_2_5" x1="323.971" y1="172.471" x2="329.88" y2="203.647" gradientUnits="userSpaceOnUse">
<stop stop-color="white"/>
<stop offset="1" stop-color="#B5E0F7"/>
</linearGradient>
<linearGradient id="paint32_linear_2_5" x1="347.511" y1="195.481" x2="284.852" y2="216.864" gradientUnits="userSpaceOnUse">
<stop stop-color="#03192E"/>
<stop offset="0.5" stop-color="#223C6A"/>
<stop offset="1" stop-color="#4A74A2"/>
</linearGradient>
<linearGradient id="paint33_linear_2_5" x1="325.111" y1="211.132" x2="322.792" y2="183.39" gradientUnits="userSpaceOnUse">
<stop stop-color="#386E9F"/>
<stop offset="1" stop-color="white"/>
</linearGradient>
<linearGradient id="paint34_linear_2_5" x1="326.331" y1="208.552" x2="319.457" y2="189.699" gradientUnits="userSpaceOnUse">
<stop stop-color="#03192E"/>
<stop offset="0.5" stop-color="#223C6A"/>
<stop offset="1" stop-color="#4A74A2"/>
</linearGradient>
<linearGradient id="paint35_linear_2_5" x1="328.297" y1="214.906" x2="320.09" y2="197.35" gradientUnits="userSpaceOnUse">
<stop stop-color="#386E9F"/>
<stop offset="1" stop-color="white"/>
</linearGradient>
<linearGradient id="paint36_linear_2_5" x1="330.987" y1="213.649" x2="322.781" y2="196.093" gradientUnits="userSpaceOnUse">
<stop stop-color="#386E9F"/>
<stop offset="1" stop-color="white"/>
</linearGradient>
<linearGradient id="paint37_linear_2_5" x1="329.092" y1="216.969" x2="324.437" y2="202.651" gradientUnits="userSpaceOnUse">
<stop stop-color="#386E9F"/>
<stop offset="1" stop-color="white"/>
</linearGradient>
<linearGradient id="paint38_linear_2_5" x1="324.733" y1="208.74" x2="322.379" y2="202.25" gradientUnits="userSpaceOnUse">
<stop stop-color="#03192E"/>
<stop offset="0.5" stop-color="#223C6A"/>
<stop offset="1" stop-color="#4A74A2"/>
</linearGradient>
<linearGradient id="paint39_linear_2_5" x1="327.671" y1="207.674" x2="325.317" y2="201.184" gradientUnits="userSpaceOnUse">
<stop stop-color="#03192E"/>
<stop offset="0.5" stop-color="#223C6A"/>
<stop offset="1" stop-color="#4A74A2"/>
</linearGradient>
<linearGradient id="paint40_linear_2_5" x1="311.944" y1="209.592" x2="313.433" y2="199.524" gradientUnits="userSpaceOnUse">
<stop stop-color="#03192E"/>
<stop offset="0.5" stop-color="#223C6A"/>
<stop offset="1" stop-color="#4A74A2"/>
</linearGradient>
<linearGradient id="paint41_linear_2_5" x1="313.104" y1="209.763" x2="314.593" y2="199.694" gradientUnits="userSpaceOnUse">
<stop stop-color="#03192E"/>
<stop offset="0.5" stop-color="#223C6A"/>
<stop offset="1" stop-color="#4A74A2"/>
</linearGradient>
<linearGradient id="paint42_linear_2_5" x1="315.354" y1="210.096" x2="316.843" y2="200.028" gradientUnits="userSpaceOnUse">
<stop stop-color="#03192E"/>
<stop offset="0.5" stop-color="#223C6A"/>
<stop offset="1" stop-color="#4A74A2"/>
</linearGradient>
<linearGradient id="paint43_linear_2_5" x1="314.201" y1="209.926" x2="315.69" y2="199.858" gradientUnits="userSpaceOnUse">
<stop stop-color="#03192E"/>
<stop offset="0.5" stop-color="#223C6A"/>
<stop offset="1" stop-color="#4A74A2"/>
</linearGradient>
<linearGradient id="paint44_linear_2_5" x1="342.205" y1="190.908" x2="312.149" y2="180.311" gradientUnits="userSpaceOnUse">
<stop stop-color="#FF2A64"/>
<stop offset="0.0308184" stop-color="#FF3462"/>
<stop offset="0.1688" stop-color="#FF595A"/>
<stop offset="0.3129" stop-color="#FF7854"/>
<stop offset="0.4626" stop-color="#FF904E"/>
<stop offset="0.6203" stop-color="#FFA24B"/>
<stop offset="0.7913" stop-color="#FFAC49"/>
<stop offset="1" stop-color="#FFAF48"/>
</linearGradient>
<linearGradient id="paint45_linear_2_5" x1="332.42" y1="190.959" x2="315.315" y2="174.442" gradientUnits="userSpaceOnUse">
<stop stop-color="#FF2A64"/>
<stop offset="0.0308184" stop-color="#FF3462"/>
<stop offset="0.1688" stop-color="#FF595A"/>
<stop offset="0.3129" stop-color="#FF7854"/>
<stop offset="0.4626" stop-color="#FF904E"/>
<stop offset="0.6203" stop-color="#FFA24B"/>
<stop offset="0.7913" stop-color="#FFAC49"/>
<stop offset="1" stop-color="#FFAF48"/>
</linearGradient>
<linearGradient id="paint46_linear_2_5" x1="305.625" y1="217.342" x2="339.933" y2="176.052" gradientUnits="userSpaceOnUse">
<stop stop-color="#FF2A64"/>
<stop offset="0.0308184" stop-color="#FF3462"/>
<stop offset="0.1688" stop-color="#FF595A"/>
<stop offset="0.3129" stop-color="#FF7854"/>
<stop offset="0.4626" stop-color="#FF904E"/>
<stop offset="0.6203" stop-color="#FFA24B"/>
<stop offset="0.7913" stop-color="#FFAC49"/>
<stop offset="1" stop-color="#FFAF48"/>
</linearGradient>
<linearGradient id="paint47_linear_2_5" x1="332.529" y1="194.025" x2="315.423" y2="177.507" gradientUnits="userSpaceOnUse">
<stop stop-color="#FF2A64"/>
<stop offset="0.0308184" stop-color="#FF3462"/>
<stop offset="0.1688" stop-color="#FF595A"/>
<stop offset="0.3129" stop-color="#FF7854"/>
<stop offset="0.4626" stop-color="#FF904E"/>
<stop offset="0.6203" stop-color="#FFA24B"/>
<stop offset="0.7913" stop-color="#FFAC49"/>
<stop offset="1" stop-color="#FFAF48"/>
</linearGradient>
<linearGradient id="paint48_linear_2_5" x1="324.261" y1="195.068" x2="306.82" y2="184.32" gradientUnits="userSpaceOnUse">
<stop stop-color="#FF2A64"/>
<stop offset="0.0308184" stop-color="#FF3462"/>
<stop offset="0.1688" stop-color="#FF595A"/>
<stop offset="0.3129" stop-color="#FF7854"/>
<stop offset="0.4626" stop-color="#FF904E"/>
<stop offset="0.6203" stop-color="#FFA24B"/>
<stop offset="0.7913" stop-color="#FFAC49"/>
<stop offset="1" stop-color="#FFAF48"/>
</linearGradient>
<linearGradient id="paint49_linear_2_5" x1="320.335" y1="192.822" x2="333.269" y2="207.859" gradientUnits="userSpaceOnUse">
<stop stop-color="#FF2A64"/>
<stop offset="0.0308184" stop-color="#FF3462"/>
<stop offset="0.1688" stop-color="#FF595A"/>
<stop offset="0.3129" stop-color="#FF7854"/>
<stop offset="0.4626" stop-color="#FF904E"/>
<stop offset="0.6203" stop-color="#FFA24B"/>
<stop offset="0.7913" stop-color="#FFAC49"/>
<stop offset="1" stop-color="#FFAF48"/>
</linearGradient>
<linearGradient id="paint50_linear_2_5" x1="337.207" y1="190.625" x2="337.449" y2="186.96" gradientUnits="userSpaceOnUse">
<stop stop-color="#03192E"/>
<stop offset="0.5" stop-color="#223C6A"/>
<stop offset="1" stop-color="#4A74A2"/>
</linearGradient>
<linearGradient id="paint51_linear_2_5" x1="336.83" y1="191.762" x2="337.465" y2="186.909" gradientUnits="userSpaceOnUse">
<stop stop-color="#FF2A64"/>
<stop offset="0.0308184" stop-color="#FF3462"/>
<stop offset="0.1688" stop-color="#FF595A"/>
<stop offset="0.3129" stop-color="#FF7854"/>
<stop offset="0.4626" stop-color="#FF904E"/>
<stop offset="0.6203" stop-color="#FFA24B"/>
<stop offset="0.7913" stop-color="#FFAC49"/>
<stop offset="1" stop-color="#FFAF48"/>
</linearGradient>
<linearGradient id="paint52_linear_2_5" x1="337.013" y1="190.856" x2="337.493" y2="188.825" gradientUnits="userSpaceOnUse">
<stop stop-color="white"/>
<stop offset="1" stop-color="#B5E0F7"/>
</linearGradient>
<linearGradient id="paint53_linear_2_5" x1="336.914" y1="189.788" x2="336.079" y2="186.514" gradientUnits="userSpaceOnUse">
<stop stop-color="#03192E"/>
<stop offset="0.5" stop-color="#223C6A"/>
<stop offset="1" stop-color="#4A74A2"/>
</linearGradient>
<linearGradient id="paint54_linear_2_5" x1="387.482" y1="830.021" x2="356.68" y2="496.037" gradientUnits="userSpaceOnUse">
<stop stop-color="#386E9F"/>
<stop offset="1" stop-color="white"/>
</linearGradient>
<linearGradient id="paint55_linear_2_5" x1="360.971" y1="855.282" x2="371.055" y2="511.15" gradientUnits="userSpaceOnUse">
<stop stop-color="#386E9F"/>
<stop offset="1" stop-color="white"/>
</linearGradient>
<linearGradient id="paint56_linear_2_5" x1="320.173" y1="519.927" x2="345.701" y2="794.832" gradientUnits="userSpaceOnUse">
<stop stop-color="white"/>
<stop offset="1" stop-color="#B5E0F7"/>
</linearGradient>
<linearGradient id="paint57_linear_2_5" x1="400.718" y1="727.855" x2="316.619" y2="442.809" gradientUnits="userSpaceOnUse">
<stop stop-color="#386E9F"/>
<stop offset="1" stop-color="white"/>
</linearGradient>
<linearGradient id="paint58_linear_2_5" x1="336.372" y1="684.844" x2="345.246" y2="386.864" gradientUnits="userSpaceOnUse">
<stop stop-color="#386E9F"/>
<stop offset="1" stop-color="white"/>
</linearGradient>
<linearGradient id="paint59_linear_2_5" x1="436.895" y1="707.192" x2="67.5801" y2="314.398" gradientUnits="userSpaceOnUse">
<stop stop-color="white"/>
<stop offset="1" stop-color="#B5E0F7"/>
</linearGradient>
<linearGradient id="paint60_linear_2_5" x1="528.149" y1="825" x2="249.154" y2="486.657" gradientUnits="userSpaceOnUse">
<stop stop-color="#386E9F"/>
<stop offset="1" stop-color="white"/>
</linearGradient>
<clipPath id="clip0_2_5">
<rect width="390" height="680.59" fill="white"/>
</clipPath>
<clipPath id="clip1_2_5">
<rect width="404.193" height="680.59" fill="white"/>
</clipPath>
</defs>
</svg>
