<svg width="300" height="241" viewBox="0 0 300 241" fill="none" xmlns="http://www.w3.org/2000/svg">
<g clip-path="url(#clip0_2_690)">
<path d="M239.253 111.159V219.795H60.7466V111.159C60.7466 103.765 66.7432 97.7729 74.1429 97.7729H225.858C233.256 97.7729 239.253 103.774 239.253 111.159Z" fill="url(#paint0_linear_2_690)"/>
<path d="M239.253 154.551V212.758C233.587 214.91 227.323 217.275 220.685 219.803H60.7466V155.165C65.157 153.323 78.1957 149.392 95.9656 157.528C118.036 167.635 208.445 158.793 208.445 158.793C208.445 158.793 221.675 147.862 239.253 154.551Z" fill="url(#paint1_linear_2_690)"/>
<path d="M77.1595 172.573C76.9302 172.573 76.7102 172.454 76.591 172.253C76.4077 171.941 76.5085 171.528 76.8203 171.346C77.2421 171.088 87.5208 165.216 111.801 168.661C112.168 168.715 112.415 169.045 112.36 169.411C112.305 169.778 111.975 170.026 111.608 169.971C87.7867 166.59 77.5906 172.426 77.4896 172.49C77.3888 172.536 77.2696 172.573 77.1595 172.573Z" fill="url(#paint2_linear_2_690)"/>
<path d="M87.9517 184.658C87.7683 184.658 87.5757 184.576 87.4474 184.429C87.209 184.154 87.2365 183.733 87.5208 183.494C87.64 183.394 99.5875 173.325 116.936 174.589C117.302 174.616 117.577 174.936 117.55 175.294C117.522 175.661 117.211 175.936 116.844 175.907C100.064 174.69 88.5019 184.402 88.3918 184.502C88.2635 184.603 88.1075 184.658 87.9517 184.658Z" fill="url(#paint3_linear_2_690)"/>
<path d="M226.298 179.179C226.16 179.179 226.022 179.133 225.902 179.051C216.403 172.115 197.818 171.712 197.634 171.703C197.267 171.693 196.974 171.391 196.982 171.024C196.992 170.658 197.294 170.375 197.661 170.375C197.707 170.375 202.494 170.466 208.418 171.447C216.403 172.757 222.557 174.955 226.691 177.979C226.984 178.199 227.05 178.611 226.838 178.904C226.701 179.079 226.499 179.179 226.298 179.179Z" fill="url(#paint4_linear_2_690)"/>
<path d="M228.03 167.781C227.902 167.781 227.773 167.744 227.664 167.67C219.109 162 206.886 165.509 206.766 165.546C206.418 165.647 206.051 165.445 205.941 165.096C205.84 164.749 206.042 164.383 206.39 164.272C206.914 164.117 219.32 160.552 228.397 166.571C228.699 166.773 228.782 167.186 228.581 167.488C228.451 167.68 228.242 167.781 228.03 167.781Z" fill="url(#paint5_linear_2_690)"/>
<path d="M239.253 175.238V219.795H60.7466V175.238C60.7466 185.518 69.0814 193.856 79.3693 193.856H220.63C230.918 193.856 239.253 185.518 239.253 175.238Z" fill="url(#paint6_linear_2_690)"/>
<path d="M117.44 66.7957H73.4003C70.136 66.7957 67.4954 64.1479 67.4954 60.8954V45.6495C67.4954 42.3877 70.1453 39.749 73.4003 39.749H117.44C120.704 39.749 123.345 42.397 123.345 45.6495V60.8861C123.345 64.1479 120.695 66.7957 117.44 66.7957Z" fill="url(#paint7_linear_2_690)"/>
<path d="M97.8546 69.2329H92.9856V102.125H97.8546V69.2329Z" fill="url(#paint8_linear_2_690)"/>
<path d="M117.44 62.3796H73.4003C70.136 62.3796 67.4954 59.7317 67.4954 56.4793V45.6495C67.4954 42.3877 70.1453 39.749 73.4003 39.749H117.44C120.704 39.749 123.345 42.397 123.345 45.6495V56.47C123.345 59.7317 120.695 62.3796 117.44 62.3796Z" fill="url(#paint9_linear_2_690)"/>
<path d="M81.3592 59.768C86.1701 59.768 90.0699 55.8711 90.0699 51.064C90.0699 46.2568 86.1701 42.3599 81.3592 42.3599C76.5483 42.3599 72.6485 46.2568 72.6485 51.064C72.6485 55.8711 76.5483 59.768 81.3592 59.768Z" fill="url(#paint10_linear_2_690)"/>
<path d="M81.3592 57.8623C85.1166 57.8623 88.1627 54.8186 88.1627 51.064C88.1627 47.3093 85.1166 44.2656 81.3592 44.2656C77.6018 44.2656 74.5557 47.3093 74.5557 51.064C74.5557 54.8186 77.6018 57.8623 81.3592 57.8623Z" fill="url(#paint11_linear_2_690)"/>
<path d="M85.6779 48.8194C85.7696 48.6637 85.8246 48.4805 85.8246 48.2789C85.8246 47.665 85.3294 47.1703 84.715 47.1703C84.5867 47.1703 84.4675 47.1978 84.3574 47.2344C83.5323 46.5839 82.487 46.1899 81.3592 46.1899C78.6726 46.1899 76.4902 48.3704 76.4902 51.0551C76.4902 53.7395 78.6726 55.92 81.3592 55.92C84.0458 55.92 86.228 53.7395 86.228 51.0551C86.228 50.2487 86.0262 49.4882 85.6779 48.8194ZM81.3592 55.1138C79.1219 55.1138 77.2973 53.2906 77.2973 51.0551C77.2973 48.8194 79.1219 46.9962 81.3592 46.9962C82.2486 46.9962 83.0646 47.2893 83.7341 47.7658C83.6606 47.9123 83.6149 48.0864 83.6149 48.2605C83.6149 48.8744 84.1099 49.3691 84.7243 49.3691C84.8342 49.3691 84.9352 49.3509 85.036 49.3234C85.2837 49.8456 85.4302 50.432 85.4302 51.0458C85.412 53.2997 83.5965 55.1138 81.3592 55.1138Z" fill="url(#paint12_linear_2_690)"/>
<path d="M81.3592 52.741C82.2859 52.741 83.0371 51.9903 83.0371 51.0643C83.0371 50.1383 82.2859 49.3877 81.3592 49.3877C80.4325 49.3877 79.6813 50.1383 79.6813 51.0643C79.6813 51.9903 80.4325 52.741 81.3592 52.741Z" fill="url(#paint13_linear_2_690)"/>
<path d="M117.073 55.4622H95.1587C93.8384 55.4622 92.7656 54.3902 92.7656 53.0708V48.1599C92.7656 46.8406 93.8384 45.7686 95.1587 45.7686H117.064C118.384 45.7686 119.457 46.8406 119.457 48.1599V53.0801C119.457 54.3994 118.384 55.4622 117.073 55.4622Z" fill="url(#paint14_linear_2_690)"/>
<path d="M114.992 49.9832H97.2403C96.791 49.9832 96.4334 49.626 96.4334 49.177C96.4334 48.728 96.791 48.3706 97.2403 48.3706H114.992C115.441 48.3706 115.799 48.728 115.799 49.177C115.799 49.626 115.432 49.9832 114.992 49.9832ZM109.197 52.0631C109.197 51.6141 108.839 51.2567 108.39 51.2567H97.2403C96.791 51.2567 96.4334 51.6141 96.4334 52.0631C96.4334 52.512 96.791 52.8693 97.2403 52.8693H108.39C108.839 52.8693 109.197 52.5028 109.197 52.0631Z" fill="url(#paint15_linear_2_690)"/>
<path d="M106.565 70.9004H84.2658C83.1746 70.9004 82.2944 70.0209 82.2944 68.9306V66.7866H108.528V68.9306C108.537 70.0209 107.656 70.9004 106.565 70.9004Z" fill="url(#paint16_linear_2_690)"/>
<path d="M176.765 147.716C175.656 148.137 174.968 148.357 174.968 148.357L154.099 155.815L130.672 148.412C130.672 148.412 130.653 148.403 130.616 148.394L130.506 148.357V148.348C128.498 147.505 107.941 139.204 98.2766 146.204L151.641 175.002V176.293L152.843 175.642L154.044 176.293V175.002L207.408 146.204C198.955 140.093 182.203 145.654 176.765 147.716Z" fill="url(#paint17_linear_2_690)"/>
<path d="M139.043 179.545C128.471 179.993 113.745 176.696 103.017 171.648C95.6541 168.174 90.235 161.835 92.4998 154.019C94.5078 147.12 101.293 143.015 108.097 144.06C109.454 144.271 110.774 144.72 112.012 145.315L144.627 160.955L139.043 179.545Z" fill="url(#paint18_linear_2_690)"/>
<path d="M103.017 171.648C95.8557 168.267 90.5283 162.174 92.3346 154.643C93.1507 159.81 96.5616 168.944 110.16 172.838C129.644 178.418 143.288 162.706 143.288 162.706L142.949 166.554L139.043 179.546C128.471 179.994 113.736 176.706 103.017 171.648Z" fill="url(#paint19_linear_2_690)"/>
<path d="M148.184 163.933L156.51 168.385L158.243 167.333C160.82 165.757 164.084 165.875 166.541 167.625L184.036 180.086C185.036 180.8 185.237 182.211 184.476 183.173C184.018 183.76 183.284 184.062 182.541 183.979L140.987 179.197L148.184 163.933Z" fill="url(#paint20_linear_2_690)"/>
<path d="M147.946 160.735L145.645 159.755C144.691 159.352 143.591 159.59 142.894 160.351C140.382 163.082 135.164 170.173 137.484 180.123C137.686 180.994 138.346 181.69 139.208 181.928L141.069 182.44C142.6 182.862 144.113 181.744 144.15 180.158C144.26 176.118 145.04 169.101 148.854 164.52C149.908 163.274 149.441 161.376 147.946 160.735Z" fill="url(#paint21_linear_2_690)"/>
<path d="M167.348 180.333C177.92 180.581 192.59 177.008 203.218 171.749C210.507 168.137 215.816 161.688 213.397 153.928C211.259 147.074 204.392 143.089 197.606 144.262C196.25 144.5 194.947 144.976 193.718 145.59L161.407 161.853L167.348 180.333Z" fill="url(#paint22_linear_2_690)"/>
<path d="M203.218 171.749C210.315 168.238 215.523 162.037 213.57 154.551C212.846 159.727 209.618 168.936 196.094 173.086C176.719 179.032 162.782 163.576 162.782 163.576L163.195 167.414L167.348 180.333C177.92 180.581 192.59 177.008 203.218 171.749Z" fill="url(#paint23_linear_2_690)"/>
<path d="M157.904 164.904L149.67 169.521L147.919 168.496C145.315 166.974 142.05 167.149 139.63 168.944L122.392 181.744C121.401 182.477 121.227 183.888 122.016 184.841C122.492 185.417 123.226 185.712 123.969 185.611L165.423 180.003L157.904 164.904Z" fill="url(#paint24_linear_2_690)"/>
<path d="M158.087 161.688L160.37 160.662C161.315 160.241 162.415 160.451 163.13 161.203C165.689 163.878 171.053 170.878 168.916 180.873C168.733 181.753 168.082 182.459 167.22 182.715L165.368 183.265C163.846 183.713 162.314 182.624 162.241 181.038C162.058 177.008 161.141 169.998 157.244 165.499C156.18 164.272 156.602 162.357 158.087 161.688Z" fill="url(#paint25_linear_2_690)"/>
<path d="M127.609 143.263L126.059 145.407C125.335 146.406 125.527 147.789 126.49 148.55C130.497 151.72 141.243 158.94 154.419 157.281C166.028 155.824 173.116 151.885 176.38 149.604C177.563 148.779 177.7 147.093 176.673 146.085L175.298 144.738L127.609 143.263Z" fill="url(#paint26_linear_2_690)"/>
<path d="M174.069 129.676L175.298 144.738C175.298 144.738 169.998 149.447 159.105 151.243C156.96 151.601 154.594 151.839 152.008 151.912C136.31 152.334 127.609 143.272 127.609 143.272L128.031 134.247L128.242 129.694L128.929 114.824L129.067 111.782L120.879 109.647L120.182 105.891L117.477 91.2862L137.264 90.2051L140.657 90.0217L162.177 88.6016C162.938 89.2246 164.011 89.9668 165.267 90.7731C167.834 92.4222 171.19 94.3464 174.289 96.0505C179.91 99.1382 184.1 104.324 185.971 110.453L186.365 111.736L174.665 118.095L173.171 118.901L174.069 129.676Z" fill="url(#paint27_linear_2_690)"/>
<path d="M173.189 118.91L174.069 129.675H128.242L128.929 114.805H174.299L174.675 118.104L173.189 118.91Z" fill="url(#paint28_linear_2_690)"/>
<path d="M144.187 108.291C144.187 108.291 146.286 104.416 149.927 106.239C149.927 106.239 151.98 103.921 154.713 105.753C154.713 105.753 156.372 103.591 158.509 104.535C160.645 105.488 160.214 107.934 160.214 107.934L153.172 112.359L143.673 111.489L144.187 108.291Z" fill="url(#paint29_linear_2_690)"/>
<path d="M138.135 116.116C138.135 116.116 137.145 112.753 140.308 111.571C140.308 111.571 139.95 107.576 144.663 107.576C144.663 107.576 146.992 107.448 147.313 110.82C147.313 110.82 149.019 109.711 150.119 110.783L150.834 113.907L139.162 118.259L138.135 116.116Z" fill="url(#paint30_linear_2_690)"/>
<path d="M136.429 119.038C136.429 119.038 136.512 115.639 139.675 115.043C139.675 115.043 139.795 112.707 142.362 112.396C144.929 112.075 145.048 113.779 145.048 113.779C145.048 113.779 146.864 112.194 148.331 114.567C149.807 116.949 136.429 119.038 136.429 119.038Z" fill="url(#paint31_linear_2_690)"/>
<path d="M145.736 115.703C145.736 115.703 145.819 112.304 148.982 111.709C148.982 111.709 149.101 109.372 151.669 109.061C154.236 108.74 154.355 110.444 154.355 110.444C154.355 110.444 156.171 108.859 157.638 111.232C159.105 113.605 145.736 115.703 145.736 115.703Z" fill="url(#paint32_linear_2_690)"/>
<path d="M153.172 113.184C153.172 113.184 153.255 109.785 156.418 109.189C156.418 109.189 156.538 106.853 159.105 106.541C161.672 106.221 161.792 107.925 161.792 107.925C161.792 107.925 163.607 106.34 165.074 108.713C166.541 111.086 153.172 113.184 153.172 113.184Z" fill="url(#paint33_linear_2_690)"/>
<path d="M170.777 141.147C170.099 141.962 169.347 142.668 168.522 143.282C168.237 143.501 167.935 143.712 167.641 143.895C166.862 144.408 166.037 144.839 165.184 145.206C164.891 145.343 164.579 145.462 164.276 145.581C163.442 145.893 162.598 146.159 161.746 146.369C161.434 146.443 161.113 146.516 160.801 146.58C159.912 146.772 159.022 146.919 158.17 147.02C157.83 147.056 157.5 147.093 157.179 147.12C156.198 147.212 155.263 147.249 154.41 147.267C154.044 147.276 153.695 147.276 153.365 147.267C152.842 147.267 152.356 147.249 151.925 147.23C150.513 147.166 149.257 146.342 148.634 145.077L147.249 142.255C147.24 142.255 147.24 142.255 147.24 142.255L137.255 121.97L142.985 120.065L144.26 119.634L147.772 118.461L149.056 118.031L152.586 116.849L153.879 116.418L157.427 115.236L158.729 114.806L162.296 113.615L163.607 113.175L166.908 112.075L171.135 135.365L171.603 137.958C171.832 139.094 171.52 140.258 170.777 141.147Z" fill="url(#paint34_linear_2_690)"/>
<path d="M144.278 119.625L143.004 120.055L153.374 147.267C153.704 147.276 154.053 147.276 154.42 147.267L144.278 119.625ZM149.074 118.03L147.79 118.461L157.188 147.12C157.509 147.093 157.84 147.056 158.179 147.019L149.074 118.03ZM153.906 116.427L152.613 116.858L160.81 146.589C161.122 146.525 161.443 146.451 161.755 146.378L153.906 116.427ZM158.747 114.805L157.445 115.236L164.276 145.581C164.579 145.462 164.891 145.343 165.184 145.205L158.747 114.805ZM163.635 113.184L162.323 113.623L167.651 143.904C167.953 143.712 168.247 143.51 168.531 143.29L163.635 113.184Z" fill="url(#paint35_linear_2_690)"/>
<path d="M170.777 141.147C165.817 147.13 156.318 147.441 151.935 147.221C150.523 147.157 149.267 146.332 148.643 145.068L147.258 142.246C151.559 142.567 164.882 142.887 171.163 135.365L171.63 137.958C171.832 139.094 171.52 140.258 170.777 141.147Z" fill="url(#paint36_linear_2_690)"/>
<path d="M136.292 117.664L165.588 108.694C167.082 108.236 168.659 109.116 169.054 110.637C169.42 112.057 168.604 113.504 167.211 113.944L137.961 123.042C136.521 123.491 134.99 122.694 134.531 121.265L134.486 121.127C134.009 119.67 134.825 118.113 136.292 117.664Z" fill="url(#paint37_linear_2_690)"/>
<path d="M165.276 90.7731L159.591 97.5531C155.557 102.363 148.184 102.473 144.012 97.782L137.273 90.2142L140.666 90.0308L162.186 88.6108C162.947 89.2246 164.02 89.9668 165.276 90.7731Z" fill="url(#paint38_linear_2_690)"/>
<path d="M144.15 82.1973L140.666 90.0217L146.836 95.0334C149.532 97.2232 153.448 97.0584 155.942 94.6395L162.186 88.6016L158.289 82.1973H144.15Z" fill="url(#paint39_linear_2_690)"/>
<path d="M149.257 50.5237L140.583 52.7501C140.152 52.86 139.703 52.6952 139.455 52.3195C134.916 45.5486 133.239 39.1718 133.128 33.5096C132.973 25.2086 136.209 18.4745 138.841 14.4156C139.492 13.3986 140.116 12.5466 140.629 11.8869C141.179 11.1722 142.316 11.4471 142.481 12.3358L143.545 18.0713L147.919 41.6089L148.643 45.5029C148.652 45.5577 148.67 45.6128 148.689 45.6678L149.963 49.1494C150.183 49.7358 149.853 50.3771 149.257 50.5237Z" fill="url(#paint40_linear_2_690)"/>
<path d="M143.554 18.0713C138.208 21.6995 134.779 29.1209 133.128 33.5187C132.936 23.1381 138.043 15.2219 140.629 11.8869C141.179 11.1722 142.316 11.4471 142.481 12.3358L143.554 18.0713Z" fill="url(#paint41_linear_2_690)"/>
<path opacity="0.5" d="M147.928 41.6089L138.841 14.4156C139.492 13.3986 140.116 12.5466 140.629 11.8869C141.179 11.1722 142.316 11.4471 142.481 12.3358L143.545 18.0713L147.928 41.6089Z" fill="#FFCA83"/>
<path d="M153.906 50.5237L162.58 52.7501C163.011 52.86 163.46 52.6952 163.708 52.3195C168.247 45.5486 169.925 39.1718 170.035 33.5096C170.191 25.2086 166.954 18.4745 164.322 14.4156C163.671 13.3986 163.048 12.5466 162.534 11.8869C161.984 11.1722 160.847 11.4471 160.682 12.3358L159.619 18.0713L155.245 41.6089L154.52 45.5029C154.511 45.5577 154.493 45.6128 154.475 45.6678L153.2 49.1494C152.98 49.7358 153.31 50.3771 153.906 50.5237Z" fill="url(#paint42_linear_2_690)"/>
<path d="M159.609 18.0713C164.955 21.6995 168.384 29.1209 170.035 33.5187C170.227 23.1381 165.12 15.2219 162.534 11.8869C161.984 11.1722 160.847 11.4471 160.682 12.3358L159.609 18.0713Z" fill="url(#paint43_linear_2_690)"/>
<path opacity="0.5" d="M155.236 41.6089L164.322 14.4156C163.671 13.3986 163.048 12.5466 162.534 11.8869C161.984 11.1722 160.847 11.4471 160.682 12.3358L159.619 18.0713L155.236 41.6089Z" fill="#FFCA83"/>
<path d="M165.423 76.8923C166.569 78.3674 168.458 78.2757 168.458 78.2757C164.405 83.2416 160.545 81.6291 160.545 81.6291C159.728 83.0126 158.665 84.0296 157.555 84.7808C153.961 87.2088 149.184 87.2088 145.599 84.7808C144.489 84.0296 143.416 83.0126 142.6 81.6291C142.6 81.6291 138.74 83.2416 134.687 78.2757C134.687 78.2757 136.576 78.3674 137.722 76.8923C137.722 76.8923 133.77 77.4878 132.523 74.6842C132.523 74.6842 137.218 75.1422 137.172 66.9605C137.163 64.7982 137.154 62.2786 137.154 59.7224V59.7133C137.154 54.784 139.63 50.4411 143.398 47.839C144.581 47.0237 145.892 46.3731 147.304 45.9426C147.754 45.8051 148.221 45.6859 148.689 45.5851C149.624 45.3928 150.596 45.292 151.586 45.292C152.576 45.292 153.548 45.3928 154.484 45.5851C154.951 45.6768 155.41 45.7958 155.859 45.9426C157.262 46.3731 158.582 47.0144 159.765 47.839C163.543 50.4411 166.009 54.7931 166.009 59.7224C166.009 62.2694 166 64.7982 165.991 66.9605C165.945 75.1422 170.64 74.6842 170.64 74.6842C169.375 77.497 165.423 76.8923 165.423 76.8923Z" fill="url(#paint44_linear_2_690)"/>
<path d="M141.693 60.4282C143.252 60.3549 144.728 60.7763 145.956 61.4635C147.194 62.1507 148.212 63.0853 149.001 64.148C149.184 64.3954 149.129 64.7344 148.891 64.9176C148.68 65.0734 148.405 65.055 148.212 64.8994L148.203 64.8901C147.286 64.148 146.241 63.6075 145.168 63.3326C144.104 63.0578 143.032 63.0578 142.115 63.36C141.326 63.6166 140.483 63.1859 140.226 62.3981C139.969 61.6101 140.4 60.7672 141.188 60.5107C141.317 60.4739 141.445 60.4466 141.574 60.4373L141.693 60.4282Z" fill="#F87C38"/>
<path d="M162.324 60.4282C160.765 60.3549 159.289 60.7763 158.06 61.4635C156.822 62.1507 155.804 63.0853 155.016 64.148C154.832 64.3954 154.887 64.7344 155.126 64.9176C155.337 65.0734 155.612 65.055 155.804 64.8994L155.813 64.8901C156.73 64.148 157.776 63.6075 158.848 63.3326C159.912 63.0578 160.985 63.0578 161.902 63.36C162.69 63.6166 163.534 63.1859 163.791 62.3981C164.047 61.6101 163.616 60.7672 162.828 60.5107C162.7 60.4739 162.571 60.4466 162.443 60.4373L162.324 60.4282Z" fill="#F87C38"/>
<path opacity="0.6" d="M154.466 45.7134V54.3075C154.466 55.9109 153.164 57.2027 151.568 57.2027C149.964 57.2027 148.671 55.9109 148.671 54.3075V45.7134C148.671 45.6677 148.671 45.631 148.671 45.5851C149.606 45.3928 150.578 45.292 151.568 45.292C152.558 45.292 153.53 45.3928 154.466 45.5851C154.466 45.6402 154.466 45.6768 154.466 45.7134Z" fill="#FFCA83"/>
<g opacity="0.6">
<path opacity="0.6" d="M147.286 45.9521V52.7779C147.286 53.7491 146.497 54.5371 145.525 54.5371H145.14C144.168 54.5371 143.38 53.7491 143.38 52.7779V47.8486C144.572 47.0241 145.883 46.3827 147.286 45.9521Z" fill="#FFCA83"/>
<path opacity="0.6" d="M159.747 47.8394V52.7686C159.747 53.7398 158.958 54.5277 157.986 54.5277H157.601C156.629 54.5277 155.841 53.7398 155.841 52.7686V45.9429C157.253 46.3826 158.564 47.024 159.747 47.8394Z" fill="#FFCA83"/>
</g>
<path d="M152.659 71.7891H151.568H150.477C149.863 71.7891 149.377 72.2838 149.377 72.8886V73.0259C149.377 73.4566 149.624 73.8414 150.009 74.0246L151.1 74.5468C151.394 74.6843 151.742 74.6843 152.036 74.5468L153.127 74.0246C153.512 73.8414 153.76 73.4566 153.76 73.0259V72.8886C153.76 72.2838 153.264 71.7891 152.659 71.7891Z" fill="#F87C38"/>
<path d="M157.886 76.5259V77.1123C157.886 77.5521 157.84 77.9736 157.748 78.3859C157.537 79.3478 157.088 80.2182 156.474 80.9329C155.392 82.1881 153.796 82.9852 152.017 82.9852C150.174 82.9852 148.524 82.1331 147.451 80.8046C146.892 80.1174 146.488 79.2929 146.287 78.3859C146.195 77.9736 146.149 77.5521 146.149 77.1123V76.5259H157.886Z" fill="url(#paint45_linear_2_690)"/>
<path d="M157.885 76.5259V77.1123C157.885 77.5521 157.84 77.9736 157.748 78.3859H146.277C146.186 77.9736 146.14 77.5521 146.14 77.1123V76.5259H157.885Z" fill="url(#paint46_linear_2_690)"/>
<path d="M156.464 80.9326C155.382 82.1878 153.787 82.985 152.008 82.985C150.165 82.985 148.515 82.1328 147.442 80.8043C148.377 79.8056 150.018 79.1368 151.898 79.1368C153.851 79.1277 155.557 79.8515 156.464 80.9326Z" fill="url(#paint47_linear_2_690)"/>
<path d="M112.59 106.899C112.59 106.899 103.897 106.734 94.6546 106.385C84.2658 106.001 73.1894 105.378 72.9051 104.516C72.5566 103.426 76.1786 101.227 76.1786 101.227H67.2661C66.239 101.227 65.7347 99.9627 66.4958 99.2572C73.932 92.4681 110.994 91.4419 110.994 91.4419L111.278 94.2272L112.59 106.899Z" fill="url(#paint48_linear_2_690)"/>
<path d="M112.59 106.898C112.59 106.898 103.897 106.733 94.6547 106.385C110.206 103.939 110.05 99.4037 111.279 94.2271L112.59 106.898Z" fill="url(#paint49_linear_2_690)"/>
<path d="M144.994 70.9C146.098 70.9 146.992 69.7104 146.992 68.2431C146.992 66.7755 146.098 65.5859 144.994 65.5859C143.89 65.5859 142.995 66.7755 142.995 68.2431C142.995 69.7104 143.89 70.9 144.994 70.9Z" fill="url(#paint50_linear_2_690)"/>
<path d="M145.48 67.8676C145.814 67.8676 146.085 67.5969 146.085 67.263C146.085 66.9289 145.814 66.6582 145.48 66.6582C145.145 66.6582 144.874 66.9289 144.874 67.263C144.874 67.5969 145.145 67.8676 145.48 67.8676Z" fill="white"/>
<path d="M157.794 70.9C158.898 70.9 159.793 69.7104 159.793 68.2431C159.793 66.7755 158.898 65.5859 157.794 65.5859C156.69 65.5859 155.795 66.7755 155.795 68.2431C155.795 69.7104 156.69 70.9 157.794 70.9Z" fill="url(#paint51_linear_2_690)"/>
<path d="M158.289 67.8676C158.623 67.8676 158.894 67.5969 158.894 67.263C158.894 66.9289 158.623 66.6582 158.289 66.6582C157.955 66.6582 157.684 66.9289 157.684 67.263C157.684 67.5969 157.955 67.8676 158.289 67.8676Z" fill="white"/>
<path d="M173.189 118.91L171.914 108.786C171.914 108.786 174.995 114.787 178.525 116.005L173.189 118.91Z" fill="url(#paint52_linear_2_690)"/>
<path d="M186.374 111.736C186.374 111.736 188.694 111.846 190.474 116.198C191.032 117.554 190.482 119.112 189.226 119.863C185.778 121.915 178.7 125.791 173.785 126.194L173.189 118.901L186.374 111.736Z" fill="url(#paint53_linear_2_690)"/>
<path d="M129.433 104.571L129.076 111.764L120.888 109.629L120.191 105.872C127.086 108.502 129.433 104.571 129.433 104.571Z" fill="url(#paint54_linear_2_690)"/>
<path d="M115.001 89.3804H112.828C110.82 89.3804 109.325 91.222 109.729 93.1826L112.59 106.889C112.966 108.703 114.359 110.142 116.166 110.582L119.146 111.315C120.127 111.553 121.035 110.701 120.851 109.711L117.55 91.5151C117.33 90.2783 116.248 89.3804 115.001 89.3804Z" fill="url(#paint55_linear_2_690)"/>
<path d="M188.318 120.395C184.65 122.52 178.305 125.828 173.776 126.194L173.886 127.55L155.089 124.756C155.089 124.756 152.292 121.228 150.284 122.016C148.276 122.804 151.394 125.443 151.394 125.443C151.394 125.443 144.664 123.345 142.82 125.782C138.768 131.133 145.434 133.982 152.971 135.769C160.517 137.564 181.616 143.144 188.364 137.454C193.728 132.947 190.069 123.94 188.318 120.395Z" fill="url(#paint56_linear_2_690)"/>
<path d="M173.895 127.559L174.289 131.087L165.872 126.368L173.895 127.559Z" fill="url(#paint57_linear_2_690)"/>
<path opacity="0.5" d="M142.802 75.078C144.64 75.078 146.131 74.4177 146.131 73.603C146.131 72.7882 144.64 72.1279 142.802 72.1279C140.964 72.1279 139.474 72.7882 139.474 73.603C139.474 74.4177 140.964 75.078 142.802 75.078Z" fill="#FFCA83"/>
<path opacity="0.5" d="M159.38 75.078C161.218 75.078 162.708 74.4177 162.708 73.603C162.708 72.7882 161.218 72.1279 159.38 72.1279C157.542 72.1279 156.052 72.7882 156.052 73.603C156.052 74.4177 157.542 75.078 159.38 75.078Z" fill="#FFCA83"/>
<path d="M159.105 151.243C156.96 151.601 154.594 151.839 152.008 151.912C136.31 152.334 127.609 143.272 127.609 143.272L128.031 134.248C131.643 139.094 140.675 148.165 159.105 151.243Z" fill="url(#paint58_linear_2_690)"/>
<path d="M39.1165 219.795H60.7467V131.911H39.1165C34.5227 131.911 30.8 135.631 30.8 140.221V211.494C30.8 216.075 34.5227 219.795 39.1165 219.795Z" fill="url(#paint59_linear_2_690)"/>
<path d="M46.0301 161.641C51.7422 161.641 56.373 157.015 56.373 151.307C56.373 145.599 51.7422 140.972 46.0301 140.972C40.3179 140.972 35.6872 145.599 35.6872 151.307C35.6872 157.015 40.3179 161.641 46.0301 161.641Z" fill="url(#paint60_linear_2_690)"/>
<path d="M46.0302 158.381C49.9397 158.381 53.1088 155.214 53.1088 151.308C53.1088 147.401 49.9397 144.234 46.0302 144.234C42.1208 144.234 38.9516 147.401 38.9516 151.308C38.9516 155.214 42.1208 158.381 46.0302 158.381Z" fill="url(#paint61_linear_2_690)"/>
<path d="M233.386 36.6245H187.924C184.265 36.6245 181.295 39.593 181.295 43.2487V76.3607L177.26 79.6317C175.885 80.7495 176.673 82.9759 178.452 82.9759H187.924H233.386C237.043 82.9759 240.014 80.0072 240.014 76.3516V43.2487C240.014 39.593 237.053 36.6245 233.386 36.6245Z" fill="url(#paint62_linear_2_690)"/>
<path d="M260.883 219.795H239.253V131.911H260.883C265.477 131.911 269.2 135.631 269.2 140.221V211.494C269.2 216.075 265.477 219.795 260.883 219.795Z" fill="url(#paint63_linear_2_690)"/>
<path d="M253.97 161.641C259.682 161.641 264.312 157.015 264.312 151.307C264.312 145.599 259.682 140.972 253.97 140.972C248.258 140.972 243.627 145.599 243.627 151.307C243.627 157.015 248.258 161.641 253.97 161.641Z" fill="url(#paint64_linear_2_690)"/>
<path d="M253.97 158.381C257.88 158.381 261.048 155.214 261.048 151.308C261.048 147.401 257.88 144.234 253.97 144.234C250.061 144.234 246.891 147.401 246.891 151.308C246.891 155.214 250.061 158.381 253.97 158.381Z" fill="url(#paint65_linear_2_690)"/>
<path d="M221.254 74.4829H201.165C199.11 74.4829 197.451 72.8153 197.451 70.7723V58.3667H224.976V70.763C224.968 72.8153 223.307 74.4829 221.254 74.4829Z" fill="url(#paint66_linear_2_690)"/>
<path d="M219.118 43.7618L219.714 44.6413L198.688 58.7144L196.606 55.6085L215.405 43.0288C215.523 42.9463 215.643 42.8821 215.762 42.8272C216.046 42.6898 216.339 42.6165 216.642 42.589C217.586 42.4973 218.549 42.9189 219.118 43.7618Z" fill="url(#paint67_linear_2_690)"/>
<path d="M200.541 52.9793L200.779 57.3222L199.926 57.8902L199.688 53.5473L200.541 52.9793ZM202.898 51.3942L203.136 55.737L203.989 55.169L203.75 50.8262L202.898 51.3942ZM206.115 49.241L206.354 53.5839L207.206 53.0159L206.968 48.673L206.115 49.241ZM209.334 47.0879L209.573 51.4308L210.426 50.8628L210.187 46.5199L209.334 47.0879ZM212.552 44.935L212.79 49.2777L213.643 48.7097L213.405 44.3668L212.552 44.935ZM215.762 42.8276L216 47.1247L216.853 46.5566L216.634 42.5894C216.339 42.6169 216.046 42.6902 215.762 42.8276Z" fill="#FFCA83"/>
<path d="M224.968 56.4976H199.67V60.2358H224.968V56.4976Z" fill="url(#paint68_linear_2_690)"/>
<path d="M197.442 61.9671C199.432 61.9671 201.045 60.3551 201.045 58.3664C201.045 56.3778 199.432 54.7656 197.442 54.7656C195.451 54.7656 193.838 56.3778 193.838 58.3664C193.838 60.3551 195.451 61.9671 197.442 61.9671Z" fill="url(#paint69_linear_2_690)"/>
<path d="M197.442 60.2358C198.475 60.2358 199.312 59.3988 199.312 58.3667C199.312 57.3344 198.475 56.4976 197.442 56.4976C196.408 56.4976 195.571 57.3344 195.571 58.3667C195.571 59.3988 196.408 60.2358 197.442 60.2358Z" fill="url(#paint70_linear_2_690)"/>
<path d="M204.402 56.4976L202.182 60.2358H201.155L203.374 56.4976H204.402ZM207.243 56.4976L205.024 60.2358H206.051L208.27 56.4976H207.243ZM211.112 56.4976L208.894 60.2358H209.92L212.139 56.4976H211.112ZM214.982 56.4976L212.763 60.2358H213.79L216.01 56.4976H214.982ZM218.861 56.4976L216.642 60.2358H217.669L219.888 56.4976H218.861ZM222.722 56.4976L220.502 60.2358H221.53L223.749 56.4976H222.722Z" fill="#FFCA83"/>
<path d="M224.968 64.001H197.442V69.828H224.968V64.001Z" fill="url(#paint71_linear_2_690)"/>
</g>
<defs>
<linearGradient id="paint0_linear_2_690" x1="150" y1="167.598" x2="150" y2="71.7901" gradientUnits="userSpaceOnUse">
<stop stop-color="#03192E"/>
<stop offset="0.5" stop-color="#223C6A"/>
<stop offset="1" stop-color="#4A74A2"/>
</linearGradient>
<linearGradient id="paint1_linear_2_690" x1="150" y1="262.539" x2="150" y2="155.459" gradientUnits="userSpaceOnUse">
<stop stop-color="#03192E"/>
<stop offset="0.5" stop-color="#223C6A"/>
<stop offset="1" stop-color="#4A74A2"/>
</linearGradient>
<linearGradient id="paint2_linear_2_690" x1="94.4309" y1="201.259" x2="94.4309" y2="111.773" gradientUnits="userSpaceOnUse">
<stop stop-color="#03192E"/>
<stop offset="0.5" stop-color="#223C6A"/>
<stop offset="1" stop-color="#4A74A2"/>
</linearGradient>
<linearGradient id="paint3_linear_2_690" x1="102.421" y1="201.259" x2="102.421" y2="111.773" gradientUnits="userSpaceOnUse">
<stop stop-color="#03192E"/>
<stop offset="0.5" stop-color="#223C6A"/>
<stop offset="1" stop-color="#4A74A2"/>
</linearGradient>
<linearGradient id="paint4_linear_2_690" x1="211.976" y1="201.259" x2="211.976" y2="111.773" gradientUnits="userSpaceOnUse">
<stop stop-color="#03192E"/>
<stop offset="0.5" stop-color="#223C6A"/>
<stop offset="1" stop-color="#4A74A2"/>
</linearGradient>
<linearGradient id="paint5_linear_2_690" x1="217.302" y1="201.259" x2="217.302" y2="111.773" gradientUnits="userSpaceOnUse">
<stop stop-color="#03192E"/>
<stop offset="0.5" stop-color="#223C6A"/>
<stop offset="1" stop-color="#4A74A2"/>
</linearGradient>
<linearGradient id="paint6_linear_2_690" x1="150" y1="169.899" x2="150" y2="274.912" gradientUnits="userSpaceOnUse">
<stop stop-color="#03192E"/>
<stop offset="0.5" stop-color="#223C6A"/>
<stop offset="1" stop-color="#4A74A2"/>
</linearGradient>
<linearGradient id="paint7_linear_2_690" x1="95.4163" y1="73.8484" x2="95.4163" y2="-5.91113" gradientUnits="userSpaceOnUse">
<stop stop-color="#03192E"/>
<stop offset="0.5" stop-color="#223C6A"/>
<stop offset="1" stop-color="#4A74A2"/>
</linearGradient>
<linearGradient id="paint8_linear_2_690" x1="95.4163" y1="69.9064" x2="95.4163" y2="105.778" gradientUnits="userSpaceOnUse">
<stop stop-color="#03192E"/>
<stop offset="0.5" stop-color="#223C6A"/>
<stop offset="1" stop-color="#4A74A2"/>
</linearGradient>
<linearGradient id="paint9_linear_2_690" x1="95.4163" y1="78.0407" x2="95.4163" y2="11.3014" gradientUnits="userSpaceOnUse">
<stop stop-color="#386E9F"/>
<stop offset="1" stop-color="white"/>
</linearGradient>
<linearGradient id="paint10_linear_2_690" x1="81.357" y1="77.5477" x2="81.357" y2="43.0895" gradientUnits="userSpaceOnUse">
<stop stop-color="#03192E"/>
<stop offset="0.5" stop-color="#223C6A"/>
<stop offset="1" stop-color="#4A74A2"/>
</linearGradient>
<linearGradient id="paint11_linear_2_690" x1="81.357" y1="58.9431" x2="81.357" y2="40.6199" gradientUnits="userSpaceOnUse">
<stop stop-color="#386E9F"/>
<stop offset="1" stop-color="white"/>
</linearGradient>
<linearGradient id="paint12_linear_2_690" x1="81.357" y1="75.8216" x2="81.357" y2="45.8035" gradientUnits="userSpaceOnUse">
<stop stop-color="#386E9F"/>
<stop offset="1" stop-color="white"/>
</linearGradient>
<linearGradient id="paint13_linear_2_690" x1="81.3571" y1="75.8218" x2="81.3571" y2="45.8037" gradientUnits="userSpaceOnUse">
<stop stop-color="#386E9F"/>
<stop offset="1" stop-color="white"/>
</linearGradient>
<linearGradient id="paint14_linear_2_690" x1="106.115" y1="57.9914" x2="106.115" y2="29.4242" gradientUnits="userSpaceOnUse">
<stop stop-color="#03192E"/>
<stop offset="0.5" stop-color="#223C6A"/>
<stop offset="1" stop-color="#4A74A2"/>
</linearGradient>
<linearGradient id="paint15_linear_2_690" x1="106.116" y1="64.7933" x2="106.116" y2="48.4832" gradientUnits="userSpaceOnUse">
<stop stop-color="#386E9F"/>
<stop offset="1" stop-color="white"/>
</linearGradient>
<linearGradient id="paint16_linear_2_690" x1="95.4163" y1="80.9724" x2="95.4163" y2="60.4292" gradientUnits="userSpaceOnUse">
<stop stop-color="#03192E"/>
<stop offset="0.5" stop-color="#223C6A"/>
<stop offset="1" stop-color="#4A74A2"/>
</linearGradient>
<linearGradient id="paint17_linear_2_690" x1="152.842" y1="168.461" x2="152.842" y2="123.964" gradientUnits="userSpaceOnUse">
<stop stop-color="#03192E"/>
<stop offset="0.5" stop-color="#223C6A"/>
<stop offset="1" stop-color="#4A74A2"/>
</linearGradient>
<linearGradient id="paint18_linear_2_690" x1="118.304" y1="210.465" x2="118.304" y2="143.904" gradientUnits="userSpaceOnUse">
<stop stop-color="#03192E"/>
<stop offset="0.5" stop-color="#223C6A"/>
<stop offset="1" stop-color="#4A74A2"/>
</linearGradient>
<linearGradient id="paint19_linear_2_690" x1="117.636" y1="215.837" x2="117.636" y2="144.857" gradientUnits="userSpaceOnUse">
<stop stop-color="#03192E"/>
<stop offset="0.5" stop-color="#223C6A"/>
<stop offset="1" stop-color="#4A74A2"/>
</linearGradient>
<linearGradient id="paint20_linear_2_690" x1="86.052" y1="148.522" x2="190.773" y2="186.854" gradientUnits="userSpaceOnUse">
<stop stop-color="#FF2A64"/>
<stop offset="1" stop-color="#FFAF48"/>
</linearGradient>
<linearGradient id="paint21_linear_2_690" x1="143.162" y1="183.805" x2="143.162" y2="146.009" gradientUnits="userSpaceOnUse">
<stop stop-color="#386E9F"/>
<stop offset="1" stop-color="white"/>
</linearGradient>
<linearGradient id="paint22_linear_2_690" x1="187.696" y1="210.465" x2="187.696" y2="143.904" gradientUnits="userSpaceOnUse">
<stop stop-color="#03192E"/>
<stop offset="0.5" stop-color="#223C6A"/>
<stop offset="1" stop-color="#4A74A2"/>
</linearGradient>
<linearGradient id="paint23_linear_2_690" x1="188.38" y1="215.837" x2="188.38" y2="144.857" gradientUnits="userSpaceOnUse">
<stop stop-color="#03192E"/>
<stop offset="0.5" stop-color="#223C6A"/>
<stop offset="1" stop-color="#4A74A2"/>
</linearGradient>
<linearGradient id="paint24_linear_2_690" x1="235.506" y1="142.133" x2="131.566" y2="182.536" gradientUnits="userSpaceOnUse">
<stop stop-color="#FF2A64"/>
<stop offset="1" stop-color="#FFAF48"/>
</linearGradient>
<linearGradient id="paint25_linear_2_690" x1="163.029" y1="183.805" x2="163.029" y2="146.009" gradientUnits="userSpaceOnUse">
<stop stop-color="#386E9F"/>
<stop offset="1" stop-color="white"/>
</linearGradient>
<linearGradient id="paint26_linear_2_690" x1="151.489" y1="179.538" x2="151.489" y2="144.29" gradientUnits="userSpaceOnUse">
<stop stop-color="#386E9F"/>
<stop offset="1" stop-color="white"/>
</linearGradient>
<linearGradient id="paint27_linear_2_690" x1="151.928" y1="173.928" x2="151.928" y2="92.6489" gradientUnits="userSpaceOnUse">
<stop stop-color="#03192E"/>
<stop offset="0.5" stop-color="#223C6A"/>
<stop offset="1" stop-color="#4A74A2"/>
</linearGradient>
<linearGradient id="paint28_linear_2_690" x1="151.459" y1="164.365" x2="151.459" y2="115.63" gradientUnits="userSpaceOnUse">
<stop stop-color="#03192E"/>
<stop offset="0.5" stop-color="#223C6A"/>
<stop offset="1" stop-color="#4A74A2"/>
</linearGradient>
<linearGradient id="paint29_linear_2_690" x1="150.115" y1="103.4" x2="152.81" y2="111.817" gradientUnits="userSpaceOnUse">
<stop stop-color="white"/>
<stop offset="1" stop-color="#F9E4CE"/>
</linearGradient>
<linearGradient id="paint30_linear_2_690" x1="141.702" y1="106.658" x2="144.433" y2="114.319" gradientUnits="userSpaceOnUse">
<stop stop-color="white"/>
<stop offset="1" stop-color="#F9E4CE"/>
</linearGradient>
<linearGradient id="paint31_linear_2_690" x1="141.097" y1="112.124" x2="142.271" y2="116.344" gradientUnits="userSpaceOnUse">
<stop stop-color="white"/>
<stop offset="1" stop-color="#F9E4CE"/>
</linearGradient>
<linearGradient id="paint32_linear_2_690" x1="149.813" y1="107.199" x2="152.137" y2="114.92" gradientUnits="userSpaceOnUse">
<stop stop-color="white"/>
<stop offset="1" stop-color="#F9E4CE"/>
</linearGradient>
<linearGradient id="paint33_linear_2_690" x1="157.828" y1="106.46" x2="159.577" y2="112.454" gradientUnits="userSpaceOnUse">
<stop stop-color="white"/>
<stop offset="1" stop-color="#F9E4CE"/>
</linearGradient>
<linearGradient id="paint34_linear_2_690" x1="163.766" y1="161.338" x2="151.404" y2="114.294" gradientUnits="userSpaceOnUse">
<stop stop-color="#386E9F"/>
<stop offset="1" stop-color="white"/>
</linearGradient>
<linearGradient id="paint35_linear_2_690" x1="160.189" y1="147.15" x2="149.552" y2="99.8193" gradientUnits="userSpaceOnUse">
<stop stop-color="#386E9F"/>
<stop offset="1" stop-color="white"/>
</linearGradient>
<linearGradient id="paint36_linear_2_690" x1="159.584" y1="140.31" x2="165.047" y2="162.178" gradientUnits="userSpaceOnUse">
<stop stop-color="#386E9F"/>
<stop offset="1" stop-color="white"/>
</linearGradient>
<linearGradient id="paint37_linear_2_690" x1="147.882" y1="149.427" x2="151.907" y2="114.327" gradientUnits="userSpaceOnUse">
<stop stop-color="#FF2A64"/>
<stop offset="1" stop-color="#FFAF48"/>
</linearGradient>
<linearGradient id="paint38_linear_2_690" x1="151.272" y1="119.073" x2="151.272" y2="81.3664" gradientUnits="userSpaceOnUse">
<stop stop-color="#03192E"/>
<stop offset="0.5" stop-color="#223C6A"/>
<stop offset="1" stop-color="#4A74A2"/>
</linearGradient>
<linearGradient id="paint39_linear_2_690" x1="151.425" y1="68.7253" x2="151.425" y2="105.361" gradientUnits="userSpaceOnUse">
<stop stop-color="#FF2A64"/>
<stop offset="1" stop-color="#FFAF48"/>
</linearGradient>
<linearGradient id="paint40_linear_2_690" x1="141.581" y1="76.9726" x2="141.581" y2="27.7587" gradientUnits="userSpaceOnUse">
<stop stop-color="#FF2A64"/>
<stop offset="1" stop-color="#FFAF48"/>
</linearGradient>
<linearGradient id="paint41_linear_2_690" x1="138.34" y1="51.7989" x2="138.34" y2="10.6272" gradientUnits="userSpaceOnUse">
<stop stop-color="#FF2A64"/>
<stop offset="1" stop-color="#FFAF48"/>
</linearGradient>
<linearGradient id="paint42_linear_2_690" x1="161.581" y1="76.9726" x2="161.581" y2="27.7587" gradientUnits="userSpaceOnUse">
<stop stop-color="#FF2A64"/>
<stop offset="1" stop-color="#FFAF48"/>
</linearGradient>
<linearGradient id="paint43_linear_2_690" x1="164.822" y1="51.7989" x2="164.822" y2="10.6272" gradientUnits="userSpaceOnUse">
<stop stop-color="#FF2A64"/>
<stop offset="1" stop-color="#FFAF48"/>
</linearGradient>
<linearGradient id="paint44_linear_2_690" x1="151.567" y1="152.371" x2="151.567" y2="61.1657" gradientUnits="userSpaceOnUse">
<stop stop-color="#FF2A64"/>
<stop offset="1" stop-color="#FFAF48"/>
</linearGradient>
<linearGradient id="paint45_linear_2_690" x1="152.007" y1="80.1732" x2="152.007" y2="74.4856" gradientUnits="userSpaceOnUse">
<stop stop-color="#03192E"/>
<stop offset="0.5" stop-color="#223C6A"/>
<stop offset="1" stop-color="#4A74A2"/>
</linearGradient>
<linearGradient id="paint46_linear_2_690" x1="152.006" y1="82.6907" x2="152.006" y2="76.6078" gradientUnits="userSpaceOnUse">
<stop stop-color="#386E9F"/>
<stop offset="1" stop-color="white"/>
</linearGradient>
<linearGradient id="paint47_linear_2_690" x1="151.952" y1="85.2482" x2="151.952" y2="76.0042" gradientUnits="userSpaceOnUse">
<stop stop-color="#FF2A64"/>
<stop offset="1" stop-color="#FFAF48"/>
</linearGradient>
<linearGradient id="paint48_linear_2_690" x1="180.622" y1="97.2902" x2="75.4341" y2="100.172" gradientUnits="userSpaceOnUse">
<stop stop-color="#FF2A64"/>
<stop offset="1" stop-color="#FFAF48"/>
</linearGradient>
<linearGradient id="paint49_linear_2_690" x1="149.276" y1="99.5573" x2="78.2549" y2="101.478" gradientUnits="userSpaceOnUse">
<stop stop-color="#FF2A64"/>
<stop offset="1" stop-color="#FFAF48"/>
</linearGradient>
<linearGradient id="paint50_linear_2_690" x1="144.989" y1="71.9855" x2="144.989" y2="65.5573" gradientUnits="userSpaceOnUse">
<stop stop-color="#03192E"/>
<stop offset="0.5" stop-color="#223C6A"/>
<stop offset="1" stop-color="#4A74A2"/>
</linearGradient>
<linearGradient id="paint51_linear_2_690" x1="157.794" y1="71.9855" x2="157.794" y2="65.5573" gradientUnits="userSpaceOnUse">
<stop stop-color="#03192E"/>
<stop offset="0.5" stop-color="#223C6A"/>
<stop offset="1" stop-color="#4A74A2"/>
</linearGradient>
<linearGradient id="paint52_linear_2_690" x1="175.222" y1="119.408" x2="175.222" y2="88.464" gradientUnits="userSpaceOnUse">
<stop stop-color="#03192E"/>
<stop offset="0.5" stop-color="#223C6A"/>
<stop offset="1" stop-color="#4A74A2"/>
</linearGradient>
<linearGradient id="paint53_linear_2_690" x1="168.66" y1="126.418" x2="197.73" y2="110.144" gradientUnits="userSpaceOnUse">
<stop stop-color="#386E9F"/>
<stop offset="1" stop-color="white"/>
</linearGradient>
<linearGradient id="paint54_linear_2_690" x1="124.809" y1="119.408" x2="124.809" y2="88.4642" gradientUnits="userSpaceOnUse">
<stop stop-color="#03192E"/>
<stop offset="0.5" stop-color="#223C6A"/>
<stop offset="1" stop-color="#4A74A2"/>
</linearGradient>
<linearGradient id="paint55_linear_2_690" x1="117.356" y1="119.682" x2="113.044" y2="81.7049" gradientUnits="userSpaceOnUse">
<stop stop-color="#386E9F"/>
<stop offset="1" stop-color="white"/>
</linearGradient>
<linearGradient id="paint56_linear_2_690" x1="221.859" y1="155.601" x2="161.031" y2="123.724" gradientUnits="userSpaceOnUse">
<stop stop-color="#FF2A64"/>
<stop offset="1" stop-color="#FFAF48"/>
</linearGradient>
<linearGradient id="paint57_linear_2_690" x1="196.462" y1="150.542" x2="155.414" y2="114.068" gradientUnits="userSpaceOnUse">
<stop stop-color="#FF2A64"/>
<stop offset="1" stop-color="#FFAF48"/>
</linearGradient>
<linearGradient id="paint58_linear_2_690" x1="143.357" y1="188.218" x2="143.357" y2="119.59" gradientUnits="userSpaceOnUse">
<stop stop-color="#03192E"/>
<stop offset="0.5" stop-color="#223C6A"/>
<stop offset="1" stop-color="#4A74A2"/>
</linearGradient>
<linearGradient id="paint59_linear_2_690" x1="45.772" y1="228.016" x2="45.772" y2="86.8323" gradientUnits="userSpaceOnUse">
<stop stop-color="#386E9F"/>
<stop offset="1" stop-color="white"/>
</linearGradient>
<linearGradient id="paint60_linear_2_690" x1="46.0312" y1="206.726" x2="46.0312" y2="133.753" gradientUnits="userSpaceOnUse">
<stop stop-color="#386E9F"/>
<stop offset="1" stop-color="white"/>
</linearGradient>
<linearGradient id="paint61_linear_2_690" x1="46.0312" y1="160.943" x2="46.0312" y2="133.609" gradientUnits="userSpaceOnUse">
<stop stop-color="#386E9F"/>
<stop offset="1" stop-color="white"/>
</linearGradient>
<linearGradient id="paint62_linear_2_690" x1="208.291" y1="120.415" x2="208.291" y2="34.385" gradientUnits="userSpaceOnUse">
<stop stop-color="#386E9F"/>
<stop offset="1" stop-color="white"/>
</linearGradient>
<linearGradient id="paint63_linear_2_690" x1="254.227" y1="228.016" x2="254.227" y2="86.8323" gradientUnits="userSpaceOnUse">
<stop stop-color="#386E9F"/>
<stop offset="1" stop-color="white"/>
</linearGradient>
<linearGradient id="paint64_linear_2_690" x1="253.968" y1="206.726" x2="253.968" y2="133.753" gradientUnits="userSpaceOnUse">
<stop stop-color="#386E9F"/>
<stop offset="1" stop-color="white"/>
</linearGradient>
<linearGradient id="paint65_linear_2_690" x1="253.968" y1="160.943" x2="253.968" y2="133.609" gradientUnits="userSpaceOnUse">
<stop stop-color="#386E9F"/>
<stop offset="1" stop-color="white"/>
</linearGradient>
<linearGradient id="paint66_linear_2_690" x1="211.206" y1="59.1353" x2="211.206" y2="90.123" gradientUnits="userSpaceOnUse">
<stop stop-color="#03192E"/>
<stop offset="0.5" stop-color="#223C6A"/>
<stop offset="1" stop-color="#4A74A2"/>
</linearGradient>
<linearGradient id="paint67_linear_2_690" x1="185.011" y1="65.5831" x2="226.355" y2="37.9345" gradientUnits="userSpaceOnUse">
<stop stop-color="#FF2A64"/>
<stop offset="1" stop-color="#FFAF48"/>
</linearGradient>
<linearGradient id="paint68_linear_2_690" x1="157.09" y1="92.1791" x2="220.502" y2="53.296" gradientUnits="userSpaceOnUse">
<stop stop-color="#FF2A64"/>
<stop offset="1" stop-color="#FFAF48"/>
</linearGradient>
<linearGradient id="paint69_linear_2_690" x1="197.445" y1="77.5479" x2="197.445" y2="54.2424" gradientUnits="userSpaceOnUse">
<stop stop-color="#03192E"/>
<stop offset="0.5" stop-color="#223C6A"/>
<stop offset="1" stop-color="#4A74A2"/>
</linearGradient>
<linearGradient id="paint70_linear_2_690" x1="197.445" y1="62.1075" x2="197.445" y2="51.0785" gradientUnits="userSpaceOnUse">
<stop stop-color="#03192E"/>
<stop offset="0.5" stop-color="#223C6A"/>
<stop offset="1" stop-color="#4A74A2"/>
</linearGradient>
<linearGradient id="paint71_linear_2_690" x1="211.206" y1="84.5483" x2="211.206" y2="60.5458" gradientUnits="userSpaceOnUse">
<stop stop-color="#03192E"/>
<stop offset="0.5" stop-color="#223C6A"/>
<stop offset="1" stop-color="#4A74A2"/>
</linearGradient>
<clipPath id="clip0_2_690">
<rect width="300" height="240" fill="white" transform="translate(0 0.919922)"/>
</clipPath>
</defs>
</svg>
