<svg width="51" height="53" viewBox="0 0 51 53" fill="none" xmlns="http://www.w3.org/2000/svg">
<g clip-path="url(#clip0_2_544)">
<g clip-path="url(#clip1_2_544)">
<path d="M25.32 30.8542V32.7954M25.32 51.5322C14.0948 49.0002 6.0768 38.9566 6.0768 27.3938V15.1558C6.0768 13.8054 6.8364 12.6238 8.018 12.1174L23.8852 4.85898C24.8136 4.43698 25.8264 4.43698 26.6704 4.85898L42.5376 12.1174C43.7192 12.6238 44.4788 13.8898 44.4788 15.1558V27.3938C44.5632 38.9566 36.5452 49.0002 25.32 51.5322ZM25.32 45.5398C16.9644 43.5986 10.972 36.1714 10.972 27.5626V18.4474C10.972 17.4346 11.5628 16.5906 12.4068 16.1686L24.2228 10.767C24.898 10.4294 25.6576 10.4294 26.3328 10.767L38.1488 16.1686C39.0772 16.5906 39.5836 17.4346 39.5836 18.4474V27.5626C39.668 36.1714 33.6756 43.5986 25.32 45.5398ZM29.8776 22.583C29.8776 20.051 27.852 17.941 25.2356 17.941C22.7036 17.941 20.5936 19.9666 20.5936 22.583V25.1994H29.7932V22.583H29.8776ZM32.8316 32.289V28.5754C32.8316 26.7186 31.3124 25.1994 29.4556 25.1994H21.1C19.2432 25.1994 17.724 26.7186 17.724 28.5754V32.289C17.724 34.1458 19.2432 35.665 21.1 35.665H29.4556C31.3124 35.665 32.8316 34.1458 32.8316 32.289ZM25.32 27.7314C24.476 27.7314 23.7164 28.4066 23.7164 29.335C23.7164 30.2634 24.3916 30.9386 25.32 30.9386C26.2484 30.9386 26.9236 30.2634 26.9236 29.335C26.9236 28.4066 26.164 27.7314 25.32 27.7314Z" stroke="url(#paint0_linear_2_544)" stroke-width="1.3504" stroke-miterlimit="10" stroke-linecap="round" stroke-linejoin="round"/>
</g>
</g>
<defs>
<linearGradient id="paint0_linear_2_544" x1="25.2943" y1="52.3749" x2="25.2943" y2="3.75537" gradientUnits="userSpaceOnUse">
<stop stop-color="#F2AD5C"/>
<stop offset="1" stop-color="#ED7F5E"/>
</linearGradient>
<clipPath id="clip0_2_544">
<rect width="50.64" height="52" fill="white" transform="translate(0 0.549805)"/>
</clipPath>
<clipPath id="clip1_2_544">
<rect width="50.64" height="51.9904" fill="white" transform="translate(0 0.554688)"/>
</clipPath>
</defs>
</svg>
