<svg width="52" height="53" viewBox="0 0 52 53" fill="none" xmlns="http://www.w3.org/2000/svg">
<path d="M25.8267 31.8365L33.1933 27.8499M23.0533 18.2299C26.78 18.2299 29.8133 15.1965 29.8133 11.4699C29.8133 7.7432 26.78 4.70988 23.0533 4.70988C19.3267 4.70988 16.2933 7.7432 16.2933 11.4699C16.2933 15.1965 19.3267 18.2299 23.0533 18.2299ZM23.0533 18.2299V29.9299M23.0533 29.9299C21.4067 29.9299 20.02 31.3165 20.02 32.9632C20.02 34.6099 21.4067 35.9965 23.0533 35.9965C24.7 35.9965 26.0867 34.6099 26.0867 32.9632C26.0867 31.3165 24.7 29.9299 23.0533 29.9299ZM12.22 47.6965C12.22 49.3432 10.8333 50.7299 9.18667 50.7299C7.54 50.7299 6.15332 49.3432 6.15332 47.6965C6.15332 46.0499 7.54 44.6632 9.18667 44.6632C10.92 44.6632 12.22 46.0499 12.22 47.6965ZM12.22 47.6965H42.0333M16.2067 11.4699H9.36M35.9667 6.1832L29.2933 8.95654M45.0667 11.4699L40.6467 7.04987M27.4733 16.5832L33.8867 24.0365M12.22 24.0365L18.6333 16.5832M43.94 44.9232L37.0067 28.9765M20.9733 35.2165L11.5267 45.3565M38.1333 42.5832L25.1333 35.1299M38.1333 24.3832L40.9933 21.5232M3.81334 39.1165L8.49334 28.9765M4.59334 42.5832L7.10667 45.5299M23.0533 8.43654C21.4067 8.43654 20.02 9.8232 20.02 11.4699C20.02 13.1165 21.4067 14.5032 23.0533 14.5032C24.7 14.5032 26.0867 13.1165 26.0867 11.4699C26.0867 9.8232 24.7 8.43654 23.0533 8.43654ZM45.1533 44.6632C43.5067 44.6632 42.12 46.0499 42.12 47.6965C42.12 49.3432 43.5067 50.7299 45.1533 50.7299C46.8 50.7299 48.1867 49.3432 48.1867 47.6965C48.1867 46.0499 46.8 44.6632 45.1533 44.6632ZM10.14 23.3432C8.49334 23.3432 7.10667 24.7299 7.10667 26.3765C7.10667 28.0232 8.49334 29.4099 10.14 29.4099C11.7867 29.4099 13.1733 28.0232 13.1733 26.3765C13.1733 24.7299 11.8733 23.3432 10.14 23.3432ZM35.88 23.3432C34.2333 23.3432 32.8467 24.7299 32.8467 26.3765C32.8467 28.0232 34.2333 29.4099 35.88 29.4099C37.5267 29.4099 38.9133 28.0232 38.9133 26.3765C38.9133 24.7299 37.5267 23.3432 35.88 23.3432ZM43.42 16.0632C41.7733 16.0632 40.3867 17.4499 40.3867 19.0965C40.3867 20.7432 41.7733 22.1299 43.42 22.1299C45.0667 22.1299 46.4533 20.7432 46.4533 19.0965C46.54 17.4499 45.1533 16.0632 43.42 16.0632ZM38.5667 2.2832C37.0067 2.2832 35.7067 3.58322 35.7067 5.14322C35.7067 6.70322 37.0067 8.0032 38.5667 8.0032C40.1267 8.0032 41.4267 6.70322 41.4267 5.14322C41.4267 3.58322 40.1267 2.2832 38.5667 2.2832ZM6.58666 8.69654C5.02666 8.69654 3.72667 9.99654 3.72667 11.5565C3.72667 13.1165 5.02666 14.4165 6.58666 14.4165C8.14667 14.4165 9.44667 13.1165 9.44667 11.5565C9.44667 9.99654 8.14667 8.69654 6.58666 8.69654Z" stroke="url(#paint0_linear_2_517)" stroke-width="1.38667" stroke-miterlimit="10" stroke-linecap="round" stroke-linejoin="round"/>
<defs>
<linearGradient id="paint0_linear_2_517" x1="25.9737" y1="51.6439" x2="25.9737" y2="1.37719" gradientUnits="userSpaceOnUse">
<stop stop-color="#F2AD5C"/>
<stop offset="1" stop-color="#ED7F5E"/>
</linearGradient>
</defs>
</svg>
