<svg width="44" height="53" viewBox="0 0 44 53" fill="none" xmlns="http://www.w3.org/2000/svg">
<g clip-path="url(#clip0_2_530)">
<g clip-path="url(#clip1_2_530)">
<path d="M33.2027 47.978H4.39013C2.30621 47.978 0.675308 46.2565 0.675308 44.2632V4.94041C0.675308 2.85649 2.39681 1.22559 4.39013 1.22559H30.3939C32.4778 1.22559 34.1087 2.94709 34.1087 4.94041V28.1354M11.2762 42.3604V47.978M15.3534 42.3604V47.978M19.4306 42.3604V47.978M23.5079 42.3604V47.978M29.9409 30.3099V18.8937C29.9409 17.897 29.1254 17.0815 28.1287 17.0815H6.65527C5.65862 17.0815 4.84316 17.897 4.84316 18.8937V30.3099C4.84316 31.3066 5.65862 32.122 6.65527 32.122H28.1287C29.1254 32.122 29.9409 31.3066 29.9409 30.3099ZM25.0481 42.3604H9.82647C8.82977 42.3604 8.01433 43.1759 8.01433 44.1726V47.978H26.8603V44.1726C26.8603 43.1759 26.0448 42.3604 25.0481 42.3604ZM10.0983 26.3233C10.0983 27.3199 10.9137 28.1354 11.9104 28.1354C12.907 28.1354 13.7225 27.3199 13.7225 26.3233C13.7225 25.3266 12.907 24.5112 11.9104 24.5112C10.9137 24.5112 10.0983 23.6957 10.0983 22.6991C10.0983 21.7024 10.9137 20.887 11.9104 20.887C12.907 20.887 13.7225 21.7024 13.7225 22.6991L10.0983 26.3233ZM16.0782 26.3233C16.0782 27.3199 16.8937 28.1354 17.8903 28.1354C18.887 28.1354 19.7024 27.3199 19.7024 26.3233C19.7024 25.3266 18.887 24.5112 17.8903 24.5112C16.8937 24.5112 16.0782 23.6957 16.0782 22.6991C16.0782 21.7024 16.8937 20.887 17.8903 20.887C18.887 20.887 19.7024 21.7024 19.7024 22.6991L16.0782 26.3233ZM21.9676 21.0682H23.8703C24.7763 21.0682 25.5918 21.793 25.5918 22.7897V26.5045C25.5918 27.4106 24.867 28.226 23.8703 28.226H21.9676V21.0682ZM6.65527 5.30283C5.65862 5.30283 4.84316 6.11828 4.84316 7.11494C4.84316 8.11161 5.65862 8.92705 6.65527 8.92705C7.65196 8.92705 8.4674 8.11161 8.4674 7.11494C8.4674 6.11828 7.65196 5.30283 6.65527 5.30283ZM28.1287 5.30283C27.1321 5.30283 26.3167 6.11828 26.3167 7.11494C26.3167 8.11161 27.1321 8.92705 28.1287 8.92705C29.1254 8.92705 29.9409 8.11161 29.9409 7.11494C29.9409 6.11828 29.1254 5.30283 28.1287 5.30283ZM34.6524 34.5684H42.4444L32.3872 51.874L34.4711 40.2765H26.7697L36.9175 23.8769L34.6524 34.5684Z" stroke="url(#paint0_linear_2_530)" stroke-width="1.35063" stroke-miterlimit="10" stroke-linecap="round" stroke-linejoin="round"/>
</g>
</g>
<defs>
<linearGradient id="paint0_linear_2_530" x1="21.5776" y1="52.7887" x2="21.5776" y2="0.237533" gradientUnits="userSpaceOnUse">
<stop stop-color="#F2AD5C"/>
<stop offset="1" stop-color="#ED7F5E"/>
</linearGradient>
<clipPath id="clip0_2_530">
<rect width="43.22" height="52" fill="white" transform="translate(0 0.549805)"/>
</clipPath>
<clipPath id="clip1_2_530">
<rect width="43.22" height="51.9991" fill="white" transform="translate(0 0.550293)"/>
</clipPath>
</defs>
</svg>
