<svg width="52" height="53" viewBox="0 0 52 53" fill="none" xmlns="http://www.w3.org/2000/svg">
<path d="M32.5867 29.5834L18.5467 17.1901M22.1 44.4901L35.36 34.2634M11.0067 13.2034C9.1 13.6368 7.8 14.4168 7.8 15.2834C7.8 16.6701 10.7467 17.7101 14.3867 17.7101C18.0267 17.7101 20.9733 16.5834 20.9733 15.2834C20.9733 14.4168 19.6733 13.6368 17.7667 13.2034M13.1733 4.62346V4.27679M13.1733 10.1701V9.82345M15.6867 7.3968V7.05011M15.6867 12.9434V12.5968M35.88 28.3701C33.1067 28.9768 31.2 30.1034 31.2 31.4034C31.2 33.3101 35.4467 34.8701 40.7333 34.8701C46.02 34.8701 50.2667 33.3101 50.2667 31.4034C50.2667 30.1034 48.4467 28.9768 45.5867 28.3701M42.9 31.2301H36.14V18.2301H42.9V31.2301ZM42.9 31.2301V23.4301H45.5867V31.2301H42.9ZM38.22 20.6568V20.2234M38.22 26.2034V25.8568M40.7333 23.4301V23.0834M40.7333 28.8901V28.5434M6.58666 43.3634C3.64 44.1434 1.73334 45.3568 1.73334 46.7434C1.73334 48.9968 6.76 50.8168 12.8267 50.8168C18.98 50.8168 23.92 48.9968 23.92 46.7434C23.92 45.3568 22.0133 44.0568 19.0667 43.3634M16.2067 46.9168V39.1168H18.8933V46.9168H16.2067ZM16.2067 46.9168H9.44667M16.2067 46.9168V33.9168H9.44667V46.9168M9.44667 46.9168H6.76V39.1168H9.44667V46.9168ZM11.6133 36.3434V35.9968M11.6133 41.8901V41.5434M14.1267 39.1168V38.7701M14.1267 44.6634V44.3168M17.7667 2.28345H11.0067V15.2834H17.7667V2.28345Z" stroke="url(#paint0_linear_2_502)" stroke-width="1.38667" stroke-miterlimit="10" stroke-linecap="round" stroke-linejoin="round"/>
<defs>
<linearGradient id="paint0_linear_2_502" x1="25.9737" y1="51.6821" x2="25.9737" y2="1.41548" gradientUnits="userSpaceOnUse">
<stop stop-color="#F2AD5C"/>
<stop offset="1" stop-color="#ED7F5E"/>
</linearGradient>
</defs>
</svg>
