<svg width="40" height="45" viewBox="0 0 40 45" fill="none" xmlns="http://www.w3.org/2000/svg">
<g clip-path="url(#clip0_2_252)">
<g clip-path="url(#clip1_2_252)">
<mask id="mask0_2_252" style="mask-type:luminance" maskUnits="userSpaceOnUse" x="0" y="0" width="40" height="45">
<path d="M39.9793 0.449951H0.00265503V44.79H39.9793V0.449951Z" fill="white"/>
</mask>
<g mask="url(#mask0_2_252)">
<path d="M37.2299 15.9551H9.91438V40.6688H37.2299V15.9551Z" fill="url(#paint0_linear_2_252)"/>
<path d="M39.0791 8.69617H7.69108C7.1939 8.69617 6.79085 9.09922 6.79085 9.5964V17.883C6.79085 18.3802 7.1939 18.7833 7.69108 18.7833H39.0791C39.5762 18.7833 39.9793 18.3802 39.9793 17.883V9.5964C39.9793 9.09922 39.5762 8.69617 39.0791 8.69617Z" fill="url(#paint1_linear_2_252)"/>
<path d="M39.0791 8.69617H7.69108C7.1939 8.69617 6.79085 9.09922 6.79085 9.5964V17.883C6.79085 18.3802 7.1939 18.7833 7.69108 18.7833H39.0791C39.5762 18.7833 39.9793 18.3802 39.9793 17.883V9.5964C39.9793 9.09922 39.5762 8.69617 39.0791 8.69617Z" fill="url(#paint2_linear_2_252)"/>
<path d="M35.8866 11.5249H23.888C23.6102 11.5249 23.3851 11.7501 23.3851 12.0279V12.6673C23.3851 12.9451 23.6102 13.1703 23.888 13.1703H35.8866C36.1644 13.1703 36.3896 12.9451 36.3896 12.6673V12.0279C36.3896 11.7501 36.1644 11.5249 35.8866 11.5249Z" fill="url(#paint3_linear_2_252)"/>
<path d="M35.8866 14.3097H23.888C23.6102 14.3097 23.3851 14.5349 23.3851 14.8127V15.4521C23.3851 15.7299 23.6102 15.955 23.888 15.955H35.8866C36.1644 15.955 36.3896 15.7299 36.3896 15.4521V14.8127C36.3896 14.5349 36.1644 14.3097 35.8866 14.3097Z" fill="url(#paint4_linear_2_252)"/>
<path d="M11.9195 15.3329C12.7437 15.3329 13.4119 14.6647 13.4119 13.8404C13.4119 13.0162 12.7437 12.348 11.9195 12.348C11.0952 12.348 10.4271 13.0162 10.4271 13.8404C10.4271 14.6647 11.0952 15.3329 11.9195 15.3329Z" fill="url(#paint5_linear_2_252)"/>
<path d="M16.6703 15.3329C17.4945 15.3329 18.1627 14.6647 18.1627 13.8404C18.1627 13.0162 17.4945 12.348 16.6703 12.348C15.846 12.348 15.1778 13.0162 15.1778 13.8404C15.1778 14.6647 15.846 15.3329 16.6703 15.3329Z" fill="url(#paint6_linear_2_252)"/>
<path d="M35.8866 11.5249H23.888C23.6102 11.5249 23.3851 11.7501 23.3851 12.0279V12.6673C23.3851 12.9451 23.6102 13.1703 23.888 13.1703H35.8866C36.1644 13.1703 36.3896 12.9451 36.3896 12.6673V12.0279C36.3896 11.7501 36.1644 11.5249 35.8866 11.5249Z" fill="url(#paint7_linear_2_252)"/>
<path d="M35.8866 14.3097H23.888C23.6102 14.3097 23.3851 14.5349 23.3851 14.8127V15.4521C23.3851 15.7299 23.6102 15.955 23.888 15.955H35.8866C36.1644 15.955 36.3896 15.7299 36.3896 15.4521V14.8127C36.3896 14.5349 36.1644 14.3097 35.8866 14.3097Z" fill="url(#paint8_linear_2_252)"/>
<path d="M11.9195 15.3329C12.7437 15.3329 13.4119 14.6647 13.4119 13.8404C13.4119 13.0162 12.7437 12.348 11.9195 12.348C11.0952 12.348 10.4271 13.0162 10.4271 13.8404C10.4271 14.6647 11.0952 15.3329 11.9195 15.3329Z" fill="url(#paint9_linear_2_252)"/>
<path d="M16.6703 15.3329C17.4945 15.3329 18.1627 14.6647 18.1627 13.8404C18.1627 13.0162 17.4945 12.348 16.6703 12.348C15.846 12.348 15.1778 13.0162 15.1778 13.8404C15.1778 14.6647 15.846 15.3329 16.6703 15.3329Z" fill="url(#paint10_linear_2_252)"/>
<path d="M39.0791 21.7H7.69108C7.1939 21.7 6.79085 22.103 6.79085 22.6002V30.8868C6.79085 31.384 7.1939 31.7871 7.69108 31.7871H39.0791C39.5762 31.7871 39.9793 31.384 39.9793 30.8868V22.6002C39.9793 22.103 39.5762 21.7 39.0791 21.7Z" fill="url(#paint11_linear_2_252)"/>
<path d="M35.8866 24.528H23.888C23.6102 24.528 23.3851 24.7532 23.3851 25.0309V25.6703C23.3851 25.9481 23.6102 26.1733 23.888 26.1733H35.8866C36.1644 26.1733 36.3896 25.9481 36.3896 25.6703V25.0309C36.3896 24.7532 36.1644 24.528 35.8866 24.528Z" fill="url(#paint12_linear_2_252)"/>
<path d="M35.8866 27.3127H23.888C23.6102 27.3127 23.3851 27.5379 23.3851 27.8157V28.4551C23.3851 28.7329 23.6102 28.9581 23.888 28.9581H35.8866C36.1644 28.9581 36.3896 28.7329 36.3896 28.4551V27.8157C36.3896 27.5379 36.1644 27.3127 35.8866 27.3127Z" fill="url(#paint13_linear_2_252)"/>
<path d="M11.9195 28.3359C12.7437 28.3359 13.4119 27.6677 13.4119 26.8435C13.4119 26.0192 12.7437 25.3511 11.9195 25.3511C11.0952 25.3511 10.4271 26.0192 10.4271 26.8435C10.4271 27.6677 11.0952 28.3359 11.9195 28.3359Z" fill="url(#paint14_linear_2_252)"/>
<path d="M16.6703 28.3359C17.4945 28.3359 18.1627 27.6677 18.1627 26.8435C18.1627 26.0192 17.4945 25.3511 16.6703 25.3511C15.846 25.3511 15.1778 26.0192 15.1778 26.8435C15.1778 27.6677 15.846 28.3359 16.6703 28.3359Z" fill="url(#paint15_linear_2_252)"/>
<path d="M39.0791 34.703H7.69108C7.1939 34.703 6.79085 35.1061 6.79085 35.6032V43.8899C6.79085 44.3871 7.1939 44.79 7.69108 44.79H39.0791C39.5762 44.79 39.9793 44.3871 39.9793 43.8899V35.6032C39.9793 35.1061 39.5762 34.703 39.0791 34.703Z" fill="url(#paint16_linear_2_252)"/>
<path d="M35.8866 37.531H23.888C23.6102 37.531 23.3851 37.7562 23.3851 38.034V38.6734C23.3851 38.9512 23.6102 39.1763 23.888 39.1763H35.8866C36.1644 39.1763 36.3896 38.9512 36.3896 38.6734V38.034C36.3896 37.7562 36.1644 37.531 35.8866 37.531Z" fill="url(#paint17_linear_2_252)"/>
<path d="M35.8866 40.3164H23.888C23.6102 40.3164 23.3851 40.5416 23.3851 40.8194V41.4588C23.3851 41.7366 23.6102 41.9618 23.888 41.9618H35.8866C36.1644 41.9618 36.3896 41.7366 36.3896 41.4588V40.8194C36.3896 40.5416 36.1644 40.3164 35.8866 40.3164Z" fill="url(#paint18_linear_2_252)"/>
<path d="M11.9195 41.3389C12.7437 41.3389 13.4119 40.6708 13.4119 39.8465C13.4119 39.0223 12.7437 38.3541 11.9195 38.3541C11.0952 38.3541 10.4271 39.0223 10.4271 39.8465C10.4271 40.6708 11.0952 41.3389 11.9195 41.3389Z" fill="url(#paint19_linear_2_252)"/>
<path d="M16.6703 41.3389C17.4945 41.3389 18.1627 40.6708 18.1627 39.8465C18.1627 39.0223 17.4945 38.3541 16.6703 38.3541C15.846 38.3541 15.1778 39.0223 15.1778 39.8465C15.1778 40.6708 15.846 41.3389 16.6703 41.3389Z" fill="url(#paint20_linear_2_252)"/>
<path d="M3.10971 14.9546C5.8809 17.7258 10.3747 17.7258 13.1459 14.9546C15.9171 12.1834 15.9171 7.69038 13.1459 4.91917C10.3747 2.14722 5.8809 2.14722 3.10971 4.91917C0.338511 7.69038 0.338511 12.1834 3.10971 14.9546Z" fill="url(#paint21_linear_2_252)"/>
<path d="M13.3931 4.31784L11.4322 2.35693L8.35812 5.43095L10.3191 7.39188L13.3931 4.31784Z" fill="url(#paint22_linear_2_252)"/>
<path d="M15.5392 10.5719V9.26465H11.8662V10.5719H15.5392Z" fill="url(#paint23_linear_2_252)"/>
<path d="M13.7642 4.68901L11.0612 1.98602C10.7097 1.63522 10.7097 1.06553 11.0612 0.713983C11.4128 0.362429 11.9817 0.362429 12.3333 0.713983L15.0362 3.41697C15.3878 3.76853 15.3878 4.33821 15.0362 4.68901C14.6855 5.04058 14.1158 5.04058 13.7642 4.68901Z" fill="url(#paint24_linear_2_252)"/>
<path d="M13.1817 4.10567L11.6451 2.56903C11.2935 2.21748 11.2935 1.6478 11.6451 1.29699C11.9959 0.945437 12.5656 0.945437 12.9171 1.29699L14.4538 2.83363C14.8053 3.18519 14.8053 3.75487 14.4538 4.10567C14.103 4.45723 13.5333 4.45723 13.1817 4.10567Z" fill="url(#paint25_linear_2_252)"/>
<path d="M15.5385 10.7638V9.07273C15.5385 8.60796 15.8278 8.23169 16.1838 8.23169H16.3922C16.749 8.23169 17.0376 8.60796 17.0376 9.07273V10.7638C17.0376 11.2285 16.749 11.6048 16.3922 11.6048H16.1838C15.8278 11.6048 15.5385 11.2285 15.5385 10.7638Z" fill="url(#paint26_linear_2_252)"/>
<path d="M12.4134 3.33757C12.0768 3.00101 12.0768 2.45531 12.4134 2.11875L12.4666 2.06553C12.8032 1.72897 13.3489 1.72897 13.6854 2.06553C14.022 2.40209 14.022 2.94779 13.6854 3.2851L13.6322 3.33757C13.2957 3.67413 12.75 3.67413 12.4134 3.33757Z" fill="url(#paint27_linear_2_252)"/>
<path d="M2.07747 13.8856C4.84419 16.6516 9.32891 16.6516 12.0956 13.8856C14.8616 11.1189 14.8616 6.63414 12.0956 3.86744C9.32891 1.10148 4.84419 1.10148 2.07747 3.86744C-0.688483 6.63414 -0.688483 11.1189 2.07747 13.8856Z" fill="url(#paint28_linear_2_252)"/>
<path d="M3.11045 12.9053C5.30599 15.1008 8.86574 15.1008 11.0613 12.9053C13.2568 10.7098 13.2568 7.15005 11.0613 4.95451C8.86574 2.75898 5.30599 2.75898 3.11045 4.95451C0.914925 7.15005 0.914925 10.7098 3.11045 12.9053Z" fill="url(#paint29_linear_2_252)"/>
<path d="M10.2666 12.1099C12.0229 10.3536 12.0229 7.50594 10.2666 5.74963L7.08615 8.92939L10.2666 12.1099Z" fill="url(#paint30_linear_2_252)"/>
<path d="M6.18449 9.83054C6.68221 10.3283 7.48951 10.3283 7.98722 9.83054C8.48418 9.33358 8.48418 8.52628 7.98722 8.02856C7.48951 7.53084 6.68221 7.53084 6.18449 8.02856C5.68677 8.52628 5.68677 9.33358 6.18449 9.83054Z" fill="url(#paint31_linear_2_252)"/>
<path d="M23.3004 7.83095L28.4298 3.6108C28.5588 3.50511 28.7387 3.65728 28.6547 3.80194L26.801 7.01314C26.759 7.08435 26.7838 7.17654 26.8557 7.21777L28.8833 8.38862C28.9718 8.43961 28.9845 8.56181 28.9081 8.63L23.3199 13.6275C23.1925 13.7406 23.0043 13.5877 23.0898 13.4408L25.3955 9.44706C25.4367 9.37585 25.412 9.28362 25.34 9.24243L23.3207 8.07606C23.23 8.02432 23.2195 7.89764 23.3004 7.83095Z" fill="url(#paint32_linear_2_252)"/>
<path d="M4.07444 26.2447L3.84881 21.3154C3.84132 21.1482 4.07069 21.0958 4.13665 21.2495L5.18605 23.7013C5.21904 23.7778 5.30674 23.813 5.38318 23.78L6.9843 23.0949C7.07799 23.0544 7.1837 23.1182 7.1927 23.2201L7.67618 28.776C7.69117 28.9461 7.45581 29.0046 7.38908 28.848L6.0728 25.7724C6.04057 25.6967 5.95216 25.6615 5.87567 25.6937L4.28282 26.3758C4.18687 26.4171 4.07894 26.3496 4.07444 26.2447Z" fill="url(#paint33_linear_2_252)"/>
</g>
</g>
</g>
<defs>
<linearGradient id="paint0_linear_2_252" x1="24.1954" y1="80.1559" x2="23.2015" y2="-2.54536" gradientUnits="userSpaceOnUse">
<stop stop-color="#0A1A2C"/>
<stop offset="0.5" stop-color="#203E6A"/>
<stop offset="1" stop-color="#4A7499"/>
</linearGradient>
<linearGradient id="paint1_linear_2_252" x1="23.4398" y1="39.9575" x2="23.3641" y2="3.64247" gradientUnits="userSpaceOnUse">
<stop stop-color="#0A1A2C"/>
<stop offset="0.5" stop-color="#203E6A"/>
<stop offset="1" stop-color="#4A7499"/>
</linearGradient>
<linearGradient id="paint2_linear_2_252" x1="23.8671" y1="28.3299" x2="22.6925" y2="-7.23098" gradientUnits="userSpaceOnUse">
<stop stop-color="#386E9C"/>
<stop offset="1" stop-color="white"/>
</linearGradient>
<linearGradient id="paint3_linear_2_252" x1="30.0826" y1="35.5048" x2="29.8562" y2="8.59181" gradientUnits="userSpaceOnUse">
<stop stop-color="#386E9C"/>
<stop offset="1" stop-color="white"/>
</linearGradient>
<linearGradient id="paint4_linear_2_252" x1="30.0586" y1="35.4966" x2="29.833" y2="8.58363" gradientUnits="userSpaceOnUse">
<stop stop-color="#386E9C"/>
<stop offset="1" stop-color="white"/>
</linearGradient>
<linearGradient id="paint5_linear_2_252" x1="11.936" y1="21.5484" x2="11.9135" y2="10.8713" gradientUnits="userSpaceOnUse">
<stop stop-color="#386E9C"/>
<stop offset="1" stop-color="white"/>
</linearGradient>
<linearGradient id="paint6_linear_2_252" x1="16.6867" y1="21.5484" x2="16.6643" y2="10.8713" gradientUnits="userSpaceOnUse">
<stop stop-color="#FF2A64"/>
<stop offset="1" stop-color="#FFAF48"/>
</linearGradient>
<linearGradient id="paint7_linear_2_252" x1="30.0826" y1="35.5048" x2="29.8562" y2="8.59181" gradientUnits="userSpaceOnUse">
<stop stop-color="#386E9C"/>
<stop offset="1" stop-color="white"/>
</linearGradient>
<linearGradient id="paint8_linear_2_252" x1="30.0586" y1="35.4966" x2="29.833" y2="8.58363" gradientUnits="userSpaceOnUse">
<stop stop-color="#386E9C"/>
<stop offset="1" stop-color="white"/>
</linearGradient>
<linearGradient id="paint9_linear_2_252" x1="11.936" y1="21.5484" x2="11.9135" y2="10.8713" gradientUnits="userSpaceOnUse">
<stop stop-color="#FF2A64"/>
<stop offset="1" stop-color="#FFAF48"/>
</linearGradient>
<linearGradient id="paint10_linear_2_252" x1="16.6867" y1="21.5484" x2="16.6643" y2="10.8713" gradientUnits="userSpaceOnUse">
<stop stop-color="#0A1A2C"/>
<stop offset="0.5" stop-color="#203E6A"/>
<stop offset="1" stop-color="#4A7499"/>
</linearGradient>
<linearGradient id="paint11_linear_2_252" x1="23.3851" y1="21.7" x2="23.3851" y2="35.6338" gradientUnits="userSpaceOnUse">
<stop stop-color="#FFAA49"/>
<stop offset="1" stop-color="#FF7754"/>
</linearGradient>
<linearGradient id="paint12_linear_2_252" x1="30.0826" y1="48.5079" x2="29.8562" y2="21.5956" gradientUnits="userSpaceOnUse">
<stop stop-color="#386E9C"/>
<stop offset="1" stop-color="white"/>
</linearGradient>
<linearGradient id="paint13_linear_2_252" x1="30.0586" y1="48.4995" x2="29.833" y2="21.5867" gradientUnits="userSpaceOnUse">
<stop stop-color="#386E9C"/>
<stop offset="1" stop-color="white"/>
</linearGradient>
<linearGradient id="paint14_linear_2_252" x1="11.936" y1="34.5514" x2="11.9135" y2="23.8744" gradientUnits="userSpaceOnUse">
<stop stop-color="#386E9C"/>
<stop offset="1" stop-color="white"/>
</linearGradient>
<linearGradient id="paint15_linear_2_252" x1="16.6867" y1="34.5514" x2="16.6643" y2="23.8744" gradientUnits="userSpaceOnUse">
<stop stop-color="#0A1A2C"/>
<stop offset="0.5" stop-color="#203E6A"/>
<stop offset="1" stop-color="#4A7499"/>
</linearGradient>
<linearGradient id="paint16_linear_2_252" x1="23.3851" y1="55.44" x2="23.3851" y2="15.2918" gradientUnits="userSpaceOnUse">
<stop stop-color="#386E9C"/>
<stop offset="1" stop-color="white"/>
</linearGradient>
<linearGradient id="paint17_linear_2_252" x1="29.4679" y1="50.1511" x2="30.4266" y2="23.202" gradientUnits="userSpaceOnUse">
<stop stop-color="#0A1A2C"/>
<stop offset="0.5" stop-color="#203E6A"/>
<stop offset="1" stop-color="#4A7499"/>
</linearGradient>
<linearGradient id="paint18_linear_2_252" x1="29.5684" y1="50.124" x2="30.5264" y2="23.175" gradientUnits="userSpaceOnUse">
<stop stop-color="#0A1A2C"/>
<stop offset="0.5" stop-color="#203E6A"/>
<stop offset="1" stop-color="#4A7499"/>
</linearGradient>
<linearGradient id="paint19_linear_2_252" x1="11.936" y1="47.555" x2="11.9135" y2="36.8774" gradientUnits="userSpaceOnUse">
<stop stop-color="#FF2A64"/>
<stop offset="1" stop-color="#FFAF48"/>
</linearGradient>
<linearGradient id="paint20_linear_2_252" x1="16.6867" y1="47.555" x2="16.6643" y2="36.8774" gradientUnits="userSpaceOnUse">
<stop stop-color="#386E9C"/>
<stop offset="1" stop-color="white"/>
</linearGradient>
<linearGradient id="paint21_linear_2_252" x1="-0.581224" y1="17.8577" x2="20.0293" y2="-0.887084" gradientUnits="userSpaceOnUse">
<stop stop-color="#0A1A2C"/>
<stop offset="0.5" stop-color="#203E6A"/>
<stop offset="1" stop-color="#4A7499"/>
</linearGradient>
<linearGradient id="paint22_linear_2_252" x1="10.2786" y1="5.60414" x2="17.7399" y2="-3.51079" gradientUnits="userSpaceOnUse">
<stop stop-color="#0A1A2C"/>
<stop offset="0.5" stop-color="#203E6A"/>
<stop offset="1" stop-color="#4A7499"/>
</linearGradient>
<linearGradient id="paint23_linear_2_252" x1="13.501" y1="9.97298" x2="21.4728" y2="7.81344" gradientUnits="userSpaceOnUse">
<stop stop-color="#386E9C"/>
<stop offset="1" stop-color="white"/>
</linearGradient>
<linearGradient id="paint24_linear_2_252" x1="9.27496" y1="7.35078" x2="13.6525" y2="1.95754" gradientUnits="userSpaceOnUse">
<stop stop-color="#0A1A2C"/>
<stop offset="0.5" stop-color="#203E6A"/>
<stop offset="1" stop-color="#4A7499"/>
</linearGradient>
<linearGradient id="paint25_linear_2_252" x1="9.82361" y1="6.04786" x2="14.7866" y2="0.898217" gradientUnits="userSpaceOnUse">
<stop stop-color="#0A1A2C"/>
<stop offset="0.5" stop-color="#203E6A"/>
<stop offset="1" stop-color="#4A7499"/>
</linearGradient>
<linearGradient id="paint26_linear_2_252" x1="11.9974" y1="14.0559" x2="19.389" y2="6.92818" gradientUnits="userSpaceOnUse">
<stop stop-color="#386E9C"/>
<stop offset="1" stop-color="white"/>
</linearGradient>
<linearGradient id="paint27_linear_2_252" x1="11.1286" y1="4.83898" x2="16.8119" y2="-1.48524" gradientUnits="userSpaceOnUse">
<stop stop-color="#0A1A2C"/>
<stop offset="0.5" stop-color="#203E6A"/>
<stop offset="1" stop-color="#4A7499"/>
</linearGradient>
<linearGradient id="paint28_linear_2_252" x1="-9.17674" y1="28.2213" x2="15.2064" y2="-0.782217" gradientUnits="userSpaceOnUse">
<stop stop-color="#386E9C"/>
<stop offset="1" stop-color="white"/>
</linearGradient>
<linearGradient id="paint29_linear_2_252" x1="-4.96554" y1="23.6791" x2="18.8187" y2="-5.42868" gradientUnits="userSpaceOnUse">
<stop stop-color="#0A1A2C"/>
<stop offset="0.5" stop-color="#203E6A"/>
<stop offset="1" stop-color="#4A7499"/>
</linearGradient>
<linearGradient id="paint30_linear_2_252" x1="-4.2138" y1="19.6484" x2="18.4041" y2="2.90574" gradientUnits="userSpaceOnUse">
<stop stop-color="#FF2A64"/>
<stop offset="1" stop-color="#FFAF48"/>
</linearGradient>
<linearGradient id="paint31_linear_2_252" x1="-3.8644" y1="16.6307" x2="14.8504" y2="3.4696" gradientUnits="userSpaceOnUse">
<stop stop-color="#386E9C"/>
<stop offset="1" stop-color="white"/>
</linearGradient>
<linearGradient id="paint32_linear_2_252" x1="21.398" y1="21.5191" x2="28.6225" y2="1.11544" gradientUnits="userSpaceOnUse">
<stop stop-color="#FF2A64"/>
<stop offset="1" stop-color="#FFAF48"/>
</linearGradient>
<linearGradient id="paint33_linear_2_252" x1="14.735" y1="48.6151" x2="-0.961999" y2="7.42864" gradientUnits="userSpaceOnUse">
<stop stop-color="#FF2A64"/>
<stop offset="1" stop-color="#FFAF48"/>
</linearGradient>
<clipPath id="clip0_2_252">
<rect width="40" height="44.34" fill="white" transform="translate(0 0.449951)"/>
</clipPath>
<clipPath id="clip1_2_252">
<rect width="39.9947" height="44.34" fill="white" transform="translate(0.00265503 0.449951)"/>
</clipPath>
</defs>
</svg>
