<svg width="40" height="46" viewBox="0 0 40 46" fill="none" xmlns="http://www.w3.org/2000/svg">
<g clip-path="url(#clip0_2_182)">
<g clip-path="url(#clip1_2_182)">
<mask id="mask0_2_182" style="mask-type:luminance" maskUnits="userSpaceOnUse" x="0" y="0" width="40" height="46">
<path d="M39.9942 0.670044H0.00569153V45.4H39.9942V0.670044Z" fill="white"/>
</mask>
<g mask="url(#mask0_2_182)">
<path d="M39.0568 26.2404C39.0568 36.8216 30.4785 45.3998 19.8973 45.3998C9.3161 45.3998 0.738708 36.8216 0.738708 26.2404C0.738708 15.6592 9.3161 7.08179 19.8973 7.08179C30.4785 7.08179 39.0568 15.6601 39.0568 26.2413V26.2404Z" fill="url(#paint0_linear_2_182)"/>
<path d="M13.38 44.3118C13.3264 44.3118 13.2828 44.2682 13.2828 44.2146C13.2828 44.161 13.3264 44.1174 13.38 44.1174C20.0789 44.1174 25.529 36.0977 25.529 26.2414C25.529 16.3851 20.0789 8.36542 13.38 8.36542C13.3264 8.36542 13.2828 8.3218 13.2828 8.26822C13.2828 8.21463 13.3264 8.17102 13.38 8.17102C20.1862 8.17102 25.7233 16.2779 25.7233 26.2423C25.7233 36.2068 20.1862 44.3137 13.38 44.3137V44.3118Z" fill="url(#paint1_linear_2_182)"/>
<path d="M12.5779 33.9268C11.3816 33.9268 10.2145 33.8224 9.09357 33.6126C5.00695 32.8441 2.03218 30.7522 0.716 27.7202C0.694199 27.6711 0.716908 27.6139 0.766867 27.5921C0.815914 27.5712 0.873141 27.593 0.894943 27.643C2.18386 30.6132 5.10871 32.6651 9.12989 33.4209C13.1647 34.1793 17.8172 33.5417 22.2299 31.626C26.6426 29.7104 30.2859 26.7474 32.4877 23.2821C34.6822 19.8286 35.18 16.2906 33.8911 13.3213C33.8693 13.2722 33.892 13.215 33.9419 13.1932C33.991 13.1723 34.0482 13.1941 34.07 13.2441C35.3853 16.2752 34.8821 19.8767 32.6521 23.3865C30.4294 26.8845 26.7561 29.8739 22.308 31.804C19.0843 33.2038 15.7307 33.9259 12.5788 33.9259L12.5779 33.9268Z" fill="url(#paint2_linear_2_182)"/>
<path d="M0.897671 28.0498C0.847716 28.0498 0.805021 28.0116 0.800481 27.9607C0.545239 24.9742 2.3283 21.9921 5.82086 19.566C9.2843 17.1597 13.9967 15.5947 19.0889 15.1596C24.1683 14.7254 29.0433 15.4739 32.8165 17.2679C36.607 19.07 38.8361 21.7114 39.0922 24.7062C39.0968 24.7598 39.0568 24.807 39.0032 24.8116C38.9496 24.8161 38.9024 24.7761 38.8978 24.7226C38.3801 18.6676 29.5002 14.4638 19.1043 15.3531C14.0458 15.7855 9.36696 17.3378 5.93076 19.7249C2.49816 22.1102 0.744166 25.0287 0.993048 27.9435C0.997588 27.9971 0.957622 28.0443 0.904031 28.0489C0.901307 28.0489 0.898583 28.0489 0.895855 28.0489L0.897671 28.0498Z" fill="url(#paint3_linear_2_182)"/>
<path d="M22.2054 41.5487C19.6312 41.5487 16.9725 41.0609 14.3828 40.029C9.63405 38.1379 5.81992 34.7252 3.64357 30.417C1.46538 26.1051 1.18743 21.4145 2.86149 17.2089C2.88147 17.1589 2.93779 17.1344 2.98775 17.1544C3.03771 17.1744 3.06223 17.2307 3.04225 17.2807C1.38908 21.4345 1.6634 26.0679 3.81706 30.3289C5.97254 34.5935 9.7503 37.9743 14.4555 39.8473C24.1637 43.7123 34.8403 39.8782 38.2566 31.2999C38.2765 31.2499 38.3329 31.2254 38.3828 31.2454C38.4327 31.2654 38.4573 31.3217 38.4373 31.3716C35.8949 37.7581 29.3794 41.5477 22.2072 41.5477L22.2054 41.5487Z" fill="url(#paint4_linear_2_182)"/>
<path d="M28.4156 30.3253C25.5217 30.3253 22.3462 29.8439 19.1652 28.9056C14.5254 27.5367 10.4252 25.3567 7.61936 22.768C4.79622 20.1629 3.61812 17.4515 4.3021 15.1325C4.31754 15.0808 4.37113 15.0517 4.42291 15.0671C4.47468 15.0826 4.50373 15.1361 4.4883 15.1879C3.82613 17.4315 4.98516 20.0729 7.75104 22.6254C10.5351 25.1941 14.6081 27.3578 19.2197 28.7194C23.8313 30.0801 28.4265 30.4743 32.1589 29.8285C35.8676 29.1872 38.2747 27.5976 38.9369 25.354C38.9523 25.3022 39.0059 25.2732 39.0577 25.2886C39.1095 25.304 39.1385 25.3576 39.1231 25.4094C38.4391 27.7284 35.9775 29.3661 32.1916 30.0201C31.0089 30.2245 29.7409 30.3253 28.4138 30.3262L28.4156 30.3253Z" fill="url(#paint5_linear_2_182)"/>
<path d="M8.70116 15.5167C11.665 15.5167 14.0676 13.1141 14.0676 10.1503C14.0676 7.18645 11.665 4.78381 8.70116 4.78381C5.73735 4.78381 3.33473 7.18645 3.33473 10.1503C3.33473 13.1141 5.73735 15.5167 8.70116 15.5167Z" fill="url(#paint6_linear_2_182)"/>
<path d="M17.6129 9.47362C17.6129 4.61221 13.6716 0.670044 8.80927 0.670044C3.94695 0.670044 0.00569153 4.61221 0.00569153 9.47362C0.00569153 10.8643 0.329059 12.1796 0.903127 13.3495C3.46644 19.3917 8.3333 23.7526 8.77657 24.1423V24.1705C8.77657 24.1705 8.78203 24.1659 8.7929 24.1559C8.80381 24.165 8.80927 24.1705 8.80927 24.1705V24.1423C9.24347 23.7608 13.915 19.5734 16.5174 13.7291C17.215 12.4675 17.6129 11.0178 17.6129 9.47362ZM8.80927 5.55416C10.9747 5.55416 12.7296 7.30905 12.7296 9.47362C12.7296 11.6382 10.9747 13.394 8.80927 13.394C6.6438 13.394 4.88891 11.6391 4.88891 9.47362C4.88891 7.30815 6.6438 5.55416 8.80927 5.55416Z" fill="url(#paint7_linear_2_182)"/>
<path d="M34.7867 25.2497C36.5184 25.2497 37.9223 23.8459 37.9223 22.1141C37.9223 20.3824 36.5184 18.9785 34.7867 18.9785C33.055 18.9785 31.6511 20.3824 31.6511 22.1141C31.6511 23.8459 33.055 25.2497 34.7867 25.2497Z" fill="url(#paint8_linear_2_182)"/>
<path d="M39.9942 21.718C39.9942 18.8768 37.6907 16.5732 34.8494 16.5732C32.0081 16.5732 29.7046 18.8768 29.7046 21.718C29.7046 22.531 29.8935 23.2995 30.2287 23.9825C31.7265 27.5132 34.5705 30.062 34.8294 30.29V30.3063C34.8294 30.3063 34.833 30.3036 34.8394 30.2982C34.8458 30.3036 34.8494 30.3063 34.8494 30.3063V30.29C35.1028 30.0674 37.8333 27.6204 39.3538 24.2051C39.7617 23.4684 39.9942 22.62 39.9942 21.718ZM34.8494 19.4272C36.1147 19.4272 37.1402 20.4527 37.1402 21.718C37.1402 22.9834 36.1147 24.0089 34.8494 24.0089C33.5841 24.0089 32.5586 22.9834 32.5586 21.718C32.5586 20.4527 33.5841 19.4272 34.8494 19.4272Z" fill="url(#paint9_linear_2_182)"/>
<path d="M14.0195 37.9934C15.3072 37.9934 16.3511 36.9494 16.3511 35.6616C16.3511 34.3739 15.3072 33.33 14.0195 33.33C12.7317 33.33 11.6877 34.3739 11.6877 35.6616C11.6877 36.9494 12.7317 37.9934 14.0195 37.9934Z" fill="url(#paint10_linear_2_182)"/>
<path d="M17.8917 35.3675C17.8917 33.2556 16.1795 31.5425 14.0667 31.5425C11.9539 31.5425 10.2417 33.2556 10.2417 35.3675C10.2417 35.9715 10.3825 36.5438 10.6314 37.0516C11.745 39.6766 13.8596 41.5714 14.0522 41.7413V41.754C14.0522 41.754 14.0549 41.7521 14.0594 41.7476C14.064 41.7513 14.0667 41.754 14.0667 41.754V41.7413C14.2556 41.576 16.2858 39.7566 17.4157 37.2168C17.7191 36.6691 17.8917 36.0387 17.8917 35.3684V35.3675ZM14.0667 33.6644C15.0077 33.6644 15.7698 34.4273 15.7698 35.3675C15.7698 36.3076 15.0068 37.0706 14.0667 37.0706C13.1266 37.0706 12.3636 36.3076 12.3636 35.3675C12.3636 34.4273 13.1266 33.6644 14.0667 33.6644Z" fill="url(#paint11_linear_2_182)"/>
</g>
</g>
</g>
<defs>
<linearGradient id="paint0_linear_2_182" x1="19.771" y1="75.0779" x2="19.9699" y2="-1.67275" gradientUnits="userSpaceOnUse">
<stop stop-color="#0A1A2C"/>
<stop offset="0.5" stop-color="#203E6A"/>
<stop offset="1" stop-color="#4A7499"/>
</linearGradient>
<linearGradient id="paint1_linear_2_182" x1="20.306" y1="47.4348" x2="16.3821" y2="-14.3012" gradientUnits="userSpaceOnUse">
<stop stop-color="#386E9C"/>
<stop offset="1" stop-color="white"/>
</linearGradient>
<linearGradient id="paint2_linear_2_182" x1="19.3632" y1="47.4947" x2="15.4392" y2="-14.2412" gradientUnits="userSpaceOnUse">
<stop stop-color="#386E9C"/>
<stop offset="1" stop-color="white"/>
</linearGradient>
<linearGradient id="paint3_linear_2_182" x1="21.2834" y1="47.3717" x2="17.3594" y2="-14.3631" gradientUnits="userSpaceOnUse">
<stop stop-color="#386E9C"/>
<stop offset="1" stop-color="white"/>
</linearGradient>
<linearGradient id="paint4_linear_2_182" x1="21.3842" y1="47.3655" x2="17.4602" y2="-14.3693" gradientUnits="userSpaceOnUse">
<stop stop-color="#386E9C"/>
<stop offset="1" stop-color="white"/>
</linearGradient>
<linearGradient id="paint5_linear_2_182" x1="23.2881" y1="47.2447" x2="19.3641" y2="-14.4901" gradientUnits="userSpaceOnUse">
<stop stop-color="#386E9C"/>
<stop offset="1" stop-color="white"/>
</linearGradient>
<linearGradient id="paint6_linear_2_182" x1="9.22709" y1="33.697" x2="8.58128" y2="4.82196" gradientUnits="userSpaceOnUse">
<stop stop-color="#386E9C"/>
<stop offset="1" stop-color="white"/>
</linearGradient>
<linearGradient id="paint7_linear_2_182" x1="12.5915" y1="68.9902" x2="6.7546" y2="-22.8522" gradientUnits="userSpaceOnUse">
<stop stop-color="#FF2A64"/>
<stop offset="1" stop-color="#FFAF48"/>
</linearGradient>
<linearGradient id="paint8_linear_2_182" x1="35.0946" y1="35.8736" x2="34.7168" y2="18.9994" gradientUnits="userSpaceOnUse">
<stop stop-color="#386E9C"/>
<stop offset="1" stop-color="white"/>
</linearGradient>
<linearGradient id="paint9_linear_2_182" x1="37.0602" y1="56.4979" x2="33.6494" y2="2.82743" gradientUnits="userSpaceOnUse">
<stop stop-color="#FF2A64"/>
<stop offset="1" stop-color="#FFAF48"/>
</linearGradient>
<linearGradient id="paint10_linear_2_182" x1="14.2483" y1="45.8921" x2="13.9677" y2="33.3463" gradientUnits="userSpaceOnUse">
<stop stop-color="#386E9C"/>
<stop offset="1" stop-color="white"/>
</linearGradient>
<linearGradient id="paint11_linear_2_182" x1="15.7108" y1="61.2278" x2="13.1738" y2="21.3228" gradientUnits="userSpaceOnUse">
<stop stop-color="#FF2A64"/>
<stop offset="1" stop-color="#FFAF48"/>
</linearGradient>
<clipPath id="clip0_2_182">
<rect width="40" height="44.73" fill="white" transform="translate(0 0.670044)"/>
</clipPath>
<clipPath id="clip1_2_182">
<rect width="39.9886" height="44.73" fill="white" transform="translate(0.00569153 0.670044)"/>
</clipPath>
</defs>
</svg>
