<svg width="40" height="41" viewBox="0 0 40 41" fill="none" xmlns="http://www.w3.org/2000/svg">
<g clip-path="url(#clip0_2_207)">
<g clip-path="url(#clip1_2_207)">
<mask id="mask0_2_207" style="mask-type:luminance" maskUnits="userSpaceOnUse" x="0" y="0" width="40" height="40">
<path d="M39.9884 0.429077H0.00326538V39.6413H39.9884V0.429077Z" fill="white"/>
</mask>
<g mask="url(#mask0_2_207)">
<path d="M33.6783 28.1358H1.94105C0.869839 28.1358 0.00326538 27.2692 0.00326538 26.198V2.36686C0.00326538 1.29565 0.869839 0.429077 1.94105 0.429077H33.6783C34.7495 0.429077 35.6161 1.29565 35.6161 2.36686V26.198C35.6161 27.2692 34.7495 28.1358 33.6783 28.1358Z" fill="url(#paint0_linear_2_207)"/>
<path d="M25.5515 6.86292H10.1006C9.76119 6.86292 9.48666 7.13744 9.48666 7.47598C9.48666 7.81451 9.76119 8.08908 10.1006 8.08908H25.5515C25.8909 8.08908 26.1654 7.81451 26.1654 7.47598C26.1654 7.13744 25.8909 6.86292 25.5515 6.86292Z" fill="url(#paint1_linear_2_207)"/>
<path d="M20.9736 9.31519H14.6786C14.34 9.31519 14.0655 9.58971 14.0655 9.92825C14.0655 10.2668 14.34 10.5422 14.6786 10.5422H20.9736C21.3122 10.5422 21.5867 10.2677 21.5867 9.92825C21.5867 9.58888 21.3122 9.31519 20.9736 9.31519Z" fill="url(#paint2_linear_2_207)"/>
<path d="M20.5813 13.1581H3.46205C2.99695 13.1581 2.6199 13.5351 2.6199 14.0002V24.5793C2.6199 25.0444 2.99695 25.4214 3.46205 25.4214H20.5813C21.0464 25.4214 21.4234 25.0444 21.4234 24.5793V14.0002C21.4234 13.5351 21.0464 13.1581 20.5813 13.1581Z" fill="url(#paint3_linear_2_207)"/>
<path d="M21.4235 22.4476V24.5799C21.4235 25.0448 21.0462 25.4221 20.5814 25.4221H8.44681L13.6184 20.2218L15.8173 18.0103C16.1466 17.6793 16.6822 17.6793 17.0115 18.0103L21.4235 22.4476Z" fill="url(#paint4_linear_2_207)"/>
<path d="M18.8111 25.4217H3.46205C2.99719 25.4217 2.6199 25.0444 2.6199 24.5796V22.0144L8.4181 16.2078C8.7474 15.8785 9.28131 15.8785 9.60974 16.2078L13.6184 20.2214L18.8111 25.4217Z" fill="url(#paint5_linear_2_207)"/>
<path d="M35.6161 4.23896V2.36686C35.6161 1.29565 34.7495 0.429077 33.6783 0.429077H1.94105C0.869839 0.429077 0.00326538 1.29565 0.00326538 2.36686V4.23896H35.6161Z" fill="url(#paint6_linear_2_207)"/>
<path d="M2.1204 3.08581C2.48168 3.08581 2.77475 2.79275 2.77475 2.43146C2.77475 2.07018 2.48168 1.77795 2.1204 1.77795C1.75911 1.77795 1.46689 2.07018 1.46689 2.43146C1.46689 2.79275 1.75911 3.08581 2.1204 3.08581Z" fill="url(#paint7_linear_2_207)"/>
<path d="M4.44309 3.08581C4.80434 3.08581 5.09658 2.79275 5.09658 2.43146C5.09658 2.07018 4.80434 1.77795 4.44309 1.77795C4.0818 1.77795 3.78873 2.07018 3.78873 2.43146C3.78873 2.79275 4.0818 3.08581 4.44309 3.08581Z" fill="url(#paint8_linear_2_207)"/>
<path d="M6.76493 3.08581C7.12622 3.08581 7.41842 2.79275 7.41842 2.43146C7.41842 2.07018 7.12622 1.77795 6.76493 1.77795C6.40364 1.77795 6.11057 2.07018 6.11057 2.43146C6.11057 2.79275 6.40364 3.08581 6.76493 3.08581Z" fill="url(#paint9_linear_2_207)"/>
<path d="M30.3519 20.717C33.2194 22.4316 36.7219 21.7074 38.1754 19.1009C39.629 16.4936 38.4828 12.9911 35.6162 11.2773C32.7486 9.56356 29.2461 10.287 27.7926 12.8943C26.339 15.5007 27.4852 19.0032 30.3519 20.717Z" fill="url(#paint10_linear_2_207)"/>
<path d="M35.915 10.6274L33.8577 9.39868L32.2222 12.3277L34.2804 13.5564L35.915 10.6274Z" fill="url(#paint11_linear_2_207)"/>
<path d="M38.8938 15.0556L38.567 13.9254L35.7576 14.5815L36.0852 15.7116L38.8938 15.0556Z" fill="url(#paint12_linear_2_207)"/>
<path d="M38.8744 15.0871L38.4736 13.727C38.365 13.3582 38.5182 13.0036 38.8163 12.9354C39.1144 12.8672 39.4438 13.1106 39.5524 13.4794L39.9531 14.8395C40.0617 15.2084 39.9087 15.5621 39.6105 15.6311C39.3124 15.6993 38.9831 15.4551 38.8744 15.0871Z" fill="url(#paint13_linear_2_207)"/>
<path d="M36.2754 10.9253L33.4062 9.22579C33.0921 9.04049 32.9835 8.63124 33.1629 8.31288C33.3422 7.99373 33.7422 7.88591 34.0564 8.07205L36.9256 9.77064C37.2389 9.95677 37.3484 10.3652 37.1681 10.6844C36.9887 11.0027 36.5895 11.1105 36.2754 10.9253Z" fill="url(#paint14_linear_2_207)"/>
<path d="M35.6902 10.5884L33.9874 9.57524C33.6707 9.38744 33.5612 8.97395 33.7415 8.65138C33.9225 8.32969 34.3251 8.22105 34.6417 8.40885L36.3445 9.42113C36.6603 9.60976 36.7706 10.0233 36.5904 10.3458C36.4094 10.6675 36.0068 10.7762 35.6902 10.5884Z" fill="url(#paint15_linear_2_207)"/>
<path d="M34.8767 10.1239L34.7874 10.07C34.4632 9.87632 34.3503 9.45102 34.5348 9.12005C34.7192 8.78996 35.131 8.67878 35.4552 8.87248L35.5445 8.92552C35.8687 9.11922 35.9816 9.54452 35.7971 9.87549C35.6127 10.2065 35.2009 10.3176 34.8767 10.1239Z" fill="url(#paint16_linear_2_207)"/>
<path d="M29.3235 20.1002C32.1852 21.8114 35.6818 21.0888 37.1328 18.4866C38.5838 15.8843 37.4393 12.3886 34.5777 10.6774C31.7161 8.96695 28.2195 9.68948 26.7684 12.2909C25.3174 14.8932 26.4611 18.3897 29.3235 20.1002Z" fill="url(#paint17_linear_2_207)"/>
<path d="M29.8768 19.1694C32.1481 20.527 34.923 19.9535 36.0742 17.8885C37.2263 15.8236 36.3184 13.0487 34.0463 11.6912C31.775 10.3328 29.0001 10.9063 27.8489 12.9721C26.6977 15.037 27.6056 17.8119 29.8768 19.1694Z" fill="url(#paint18_linear_2_207)"/>
<path d="M35.2514 17.2452C36.1727 15.5929 35.4467 13.373 33.6294 12.2866L31.9619 15.2779L35.2514 17.2452Z" fill="url(#paint19_linear_2_207)"/>
<path d="M31.4887 16.2778C32.0041 16.5861 32.6333 16.4555 32.8935 15.9881C33.1545 15.5199 32.949 14.8908 32.4345 14.5826C31.9191 14.2752 31.29 14.4049 31.0298 14.8731C30.7687 15.3414 30.9742 15.9704 31.4887 16.2778Z" fill="url(#paint20_linear_2_207)"/>
<path d="M26.1731 22.5143C26.4224 22.0823 26.9748 21.9341 27.4069 22.1834L32.6872 25.232C32.8876 25.3482 33.0366 25.536 33.1015 25.7592L34.3521 30.0053C34.4228 30.2419 34.3917 30.4971 34.2679 30.7119L29.6066 38.7855C29.3573 39.2175 28.8057 39.3658 28.3728 39.1165L20.3168 34.4653C19.8848 34.216 19.7366 33.6636 19.9858 33.2316L26.1723 22.5152L26.1731 22.5143Z" fill="url(#paint21_linear_2_207)"/>
<path d="M26.7153 22.7853C26.9646 22.3533 27.5171 22.2051 27.9491 22.4544L33.2294 25.503C33.4298 25.6183 33.5789 25.807 33.6437 26.0293L34.8943 30.2754C34.9651 30.5129 34.9339 30.7689 34.8101 30.9829L30.1488 39.0565C29.8995 39.4885 29.3479 39.6368 28.915 39.3875L20.859 34.7363C20.427 34.4862 20.2788 33.9346 20.528 33.5026L26.7145 22.7862L26.7153 22.7853Z" fill="url(#paint22_linear_2_207)"/>
<path d="M23.8706 27.7128L31.8492 32.3193C32.0647 32.444 32.1389 32.7202 32.0143 32.9366L29.6663 37.0034C29.5417 37.2198 29.2654 37.2931 29.049 37.1684L21.0705 32.5619L23.8706 27.7128Z" fill="url(#paint23_linear_2_207)"/>
<path d="M24.9132 33.0508C24.7969 32.9842 24.6942 32.9051 24.6067 32.8158C24.5191 32.7265 24.4525 32.6289 24.4045 32.5236C24.3582 32.4158 24.3355 32.3046 24.3388 32.1893C24.3431 32.0755 24.3776 31.9593 24.4407 31.8397C24.4517 31.8204 24.4669 31.8094 24.4871 31.8036C24.5081 31.796 24.5283 31.7985 24.5494 31.8111L24.9065 32.0174C24.9334 32.0326 24.9511 32.0528 24.9561 32.0755C24.9654 32.1 24.9654 32.1278 24.9578 32.1598C24.93 32.2331 24.9199 32.2996 24.93 32.3602C24.9393 32.4217 24.9629 32.4764 25.0008 32.5261C25.042 32.575 25.0959 32.6179 25.1599 32.6558C25.2795 32.7249 25.3924 32.7383 25.4993 32.6962C25.6088 32.6567 25.7031 32.5665 25.7856 32.4242L26.3381 31.4667L25.2955 30.8654C25.2745 30.8527 25.261 30.8359 25.2559 30.8123C25.25 30.7896 25.2526 30.7677 25.2643 30.7466L25.416 30.4839C25.4294 30.4612 25.4479 30.4468 25.4707 30.441C25.4934 30.4351 25.5153 30.4384 25.5355 30.4502L27.0093 31.3008C27.032 31.3142 27.0472 31.3328 27.0522 31.3547C27.0581 31.3782 27.0548 31.401 27.0421 31.4238L26.2867 32.7316C26.1832 32.911 26.0577 33.0424 25.9103 33.1232C25.7638 33.2024 25.6063 33.2369 25.4353 33.2243C25.2635 33.2116 25.09 33.1543 24.9123 33.0516L24.9132 33.0508Z" fill="url(#paint24_linear_2_207)"/>
<path d="M27.0388 34.2776C26.8383 34.1622 26.6876 34.0359 26.5857 33.8995C26.4863 33.7639 26.4282 33.6292 26.4139 33.4961C26.3996 33.363 26.4206 33.2417 26.4779 33.1323C26.4872 33.1163 26.5023 33.1053 26.5225 33.0994C26.5436 33.0918 26.5629 33.0927 26.5823 33.1036L26.9167 33.2974C26.9436 33.3133 26.9613 33.3319 26.968 33.3521C26.9773 33.3714 26.9823 33.3925 26.9857 33.4161C26.979 33.4607 26.9823 33.5079 26.995 33.5601C27.0085 33.6123 27.0371 33.667 27.0809 33.7218C27.1255 33.7748 27.1886 33.8254 27.272 33.8742C27.4076 33.9517 27.5213 33.9887 27.6131 33.9837C27.7074 33.9803 27.7756 33.9407 27.8194 33.8658C27.8514 33.8119 27.8573 33.7563 27.8396 33.7016C27.8237 33.6477 27.7832 33.5845 27.7192 33.5121C27.6577 33.4396 27.571 33.3512 27.4598 33.2459C27.3226 33.1222 27.2139 33.0017 27.1339 32.8864C27.0565 32.7693 27.0135 32.6523 27.0059 32.5369C27.0017 32.4207 27.0345 32.2994 27.107 32.1739C27.1794 32.0493 27.2779 31.9583 27.4017 31.9019C27.5272 31.8429 27.6678 31.8236 27.8253 31.8413C27.9828 31.8573 28.1479 31.9154 28.3213 32.0156C28.4611 32.0956 28.5732 32.1857 28.6582 32.2851C28.7449 32.3853 28.8064 32.4855 28.8426 32.5874C28.8805 32.6893 28.8991 32.7862 28.8957 32.8763C28.894 32.9672 28.8746 33.0455 28.8401 33.1112C28.83 33.1281 28.8149 33.1398 28.7938 33.1474C28.7736 33.1525 28.755 33.1499 28.7357 33.139L28.3854 32.9369C28.3643 32.9251 28.3483 32.9099 28.3365 32.8914C28.3247 32.8737 28.3197 32.851 28.3213 32.8249C28.3407 32.7634 28.3298 32.6952 28.2894 32.6186C28.2531 32.5419 28.1866 32.4746 28.0881 32.4181C27.9862 32.3592 27.8935 32.3314 27.8118 32.3339C27.7319 32.3373 27.6695 32.3785 27.6249 32.4552C27.5963 32.5057 27.5862 32.5562 27.5946 32.6085C27.6072 32.6598 27.6409 32.7196 27.6956 32.7878C27.7546 32.8544 27.8338 32.9386 27.9348 33.038C28.0965 33.182 28.2194 33.3125 28.3045 33.4312C28.3896 33.5491 28.4342 33.6662 28.4409 33.7807C28.4485 33.8936 28.4157 34.0132 28.3433 34.1378C28.2616 34.2776 28.1538 34.3753 28.0165 34.4292C27.8818 34.4839 27.7293 34.4999 27.56 34.4746C27.395 34.4486 27.2215 34.3837 27.0396 34.2784L27.0388 34.2776Z" fill="url(#paint25_linear_2_207)"/>
<path d="M4.41364 30.4287C4.15255 29.9765 4.30753 29.3979 4.75975 29.136L8.85426 26.7729C9.06398 26.6508 9.31325 26.6146 9.54988 26.6727L12.9235 27.4871C13.1753 27.5486 13.3909 27.7094 13.5206 27.9334L17.2075 34.3194C17.4686 34.7717 17.3137 35.3502 16.8614 35.6122L10.59 39.2325C10.1377 39.4936 9.55916 39.3386 9.29724 38.8864L4.41364 30.4287Z" fill="url(#paint26_linear_2_207)"/>
<path d="M3.98661 30.7106C3.72555 30.2583 3.8805 29.6798 4.33275 29.4179L8.42727 27.0548C8.63695 26.9327 8.88622 26.8965 9.12289 26.9546L12.4957 27.769C12.7483 27.8304 12.9639 27.9913 13.0936 28.2153L16.7797 34.6013C17.0416 35.0536 16.8867 35.6321 16.4336 35.894L10.1629 39.5144C9.70987 39.7755 9.13129 39.6214 8.87025 39.1683L3.98661 30.7106Z" fill="url(#paint27_linear_2_207)"/>
<path d="M6.22421 34.5851L12.6961 30.8493C12.9227 30.7187 13.2107 30.7962 13.3421 31.0227L15.1712 34.191C15.3017 34.4175 15.2243 34.7055 14.9977 34.8369L8.5258 38.5726L6.22421 34.5851Z" fill="url(#paint28_linear_2_207)"/>
<path d="M9.69469 36.3721C9.54058 36.4613 9.39487 36.511 9.25761 36.5228C9.12035 36.5321 8.99486 36.5051 8.87948 36.4403C8.76243 36.3738 8.65969 36.2719 8.57126 36.1329C8.53083 36.0664 8.48791 35.9956 8.44328 35.9181C8.39864 35.8415 8.35734 35.7666 8.31862 35.6958C8.24366 35.551 8.2066 35.4128 8.20997 35.2807C8.21251 35.1451 8.25294 35.0204 8.33126 34.9059C8.40875 34.7905 8.52326 34.6894 8.674 34.6019C8.78348 34.5387 8.89129 34.4949 8.99823 34.4714C9.10434 34.4469 9.20541 34.4419 9.30058 34.4562C9.39575 34.4713 9.48247 34.5033 9.55913 34.553C9.63658 34.6035 9.70142 34.6701 9.75533 34.7552C9.76373 34.7695 9.76461 34.7854 9.7587 34.8015C9.75533 34.8166 9.74522 34.8292 9.73008 34.8377L9.44961 34.9994C9.42944 35.0103 9.41172 35.0145 9.39487 35.012C9.37803 35.0095 9.35869 34.9977 9.3393 34.9791C9.25932 34.8958 9.17929 34.8537 9.10184 34.8503C9.02352 34.8478 8.94183 34.8714 8.85677 34.9202C8.75486 34.9791 8.69001 35.0524 8.66389 35.1425C8.63781 35.2327 8.65803 35.343 8.72791 35.4752C8.80116 35.6125 8.88035 35.7497 8.96624 35.8878C9.0454 36.015 9.13212 36.0891 9.22226 36.111C9.31318 36.1321 9.40922 36.1135 9.51196 36.0554C9.59702 36.0066 9.65763 35.9468 9.69469 35.8777C9.73175 35.8061 9.73428 35.716 9.70226 35.6083C9.69469 35.5796 9.69469 35.5577 9.70142 35.5425C9.70733 35.5266 9.7191 35.5122 9.73932 35.5013L10.0197 35.3396C10.0349 35.3312 10.0501 35.3295 10.0652 35.3329C10.0821 35.3362 10.0956 35.3455 10.104 35.3606C10.1503 35.4499 10.1773 35.5392 10.1806 35.6301C10.1857 35.7219 10.1705 35.8129 10.1351 35.903C10.0998 35.9931 10.045 36.0782 9.97175 36.1582C9.89679 36.2373 9.80503 36.3097 9.69552 36.3729L9.69469 36.3721Z" fill="url(#paint29_linear_2_207)"/>
<path d="M11.3352 35.4255C11.1786 35.5165 11.0329 35.5695 10.8998 35.5855C10.7684 35.5998 10.6548 35.5863 10.5571 35.5442C10.4602 35.5013 10.3869 35.439 10.3347 35.3581C10.3272 35.3447 10.3263 35.3303 10.3297 35.3143C10.3322 35.2975 10.3423 35.2849 10.3558 35.2765L10.6185 35.124C10.6404 35.1114 10.659 35.1072 10.6766 35.1105C10.6935 35.1114 10.7095 35.1164 10.728 35.124C10.7558 35.1451 10.7887 35.1619 10.8282 35.1745C10.8695 35.1847 10.9184 35.1872 10.9731 35.1796C11.0261 35.1712 11.0859 35.1476 11.1516 35.1097C11.2577 35.0482 11.3276 34.985 11.3596 34.9202C11.3933 34.8537 11.3933 34.7922 11.3596 34.7332C11.3352 34.6903 11.3007 34.665 11.2569 34.6558C11.2131 34.6457 11.155 34.6482 11.08 34.6625C11.0068 34.6768 10.9124 34.7004 10.7971 34.7341C10.659 34.7787 10.5352 34.8057 10.424 34.8158C10.3145 34.8217 10.2185 34.8057 10.1368 34.7653C10.0551 34.7223 9.9861 34.6516 9.92965 34.553C9.87325 34.4545 9.84967 34.3526 9.85978 34.2457C9.86988 34.1379 9.91198 34.0334 9.98523 33.934C10.0568 33.833 10.1621 33.7429 10.2985 33.6645C10.408 33.6014 10.5133 33.5601 10.6135 33.5416C10.7154 33.5214 10.808 33.5197 10.8914 33.5349C10.9765 33.55 11.0497 33.5753 11.1095 33.6123C11.1702 33.6494 11.2156 33.6923 11.2468 33.7429C11.2544 33.7563 11.2561 33.7715 11.2535 33.7884C11.2502 33.8035 11.24 33.8162 11.2249 33.8246L10.9495 33.9837C10.9335 33.993 10.9166 33.9981 10.899 33.9989C10.8821 33.9998 10.8653 33.9955 10.8476 33.9829C10.8122 33.9458 10.7617 33.9265 10.6952 33.9239C10.6278 33.9181 10.5562 33.9383 10.4796 33.9829C10.3996 34.0292 10.344 34.0806 10.3128 34.137C10.2842 34.1934 10.2876 34.2515 10.3221 34.3122C10.3448 34.3518 10.376 34.3787 10.4147 34.3939C10.4543 34.4048 10.5082 34.4065 10.5764 34.3955C10.6447 34.3812 10.7331 34.3602 10.84 34.3316C11.0017 34.2776 11.139 34.2457 11.2527 34.2338C11.3672 34.2229 11.4641 34.2372 11.5441 34.2785C11.6232 34.3181 11.6914 34.3871 11.7487 34.4857C11.8119 34.5951 11.8354 34.7072 11.8186 34.8217C11.8034 34.9354 11.7546 35.0449 11.6712 35.1501C11.5879 35.252 11.475 35.3446 11.3327 35.4272L11.3352 35.4255Z" fill="url(#paint30_linear_2_207)"/>
<path d="M12.9387 34.4994C12.7804 34.5904 12.6363 34.6435 12.5024 34.6586C12.3719 34.6737 12.2574 34.6594 12.1605 34.6173C12.0637 34.5752 11.9896 34.5129 11.9382 34.4312C11.9306 34.4178 11.9289 34.4034 11.9331 34.3883C11.9357 34.3714 11.9441 34.358 11.9592 34.3496L12.222 34.1979C12.2439 34.1853 12.2624 34.1811 12.2801 34.1836C12.2961 34.1853 12.313 34.1904 12.3306 34.1979C12.3584 34.219 12.3921 34.2358 12.4317 34.2468C12.4729 34.2578 12.521 34.2603 12.5757 34.2527C12.6296 34.2434 12.6894 34.2198 12.7542 34.1819C12.8612 34.1205 12.9302 34.0581 12.9631 33.9925C12.9968 33.9268 12.9968 33.8644 12.9631 33.8063C12.9387 33.7634 12.9033 33.7373 12.8586 33.7289C12.8157 33.7188 12.7576 33.7204 12.6827 33.7356C12.6094 33.7491 12.5151 33.7735 12.3997 33.8072C12.2616 33.8518 12.1369 33.8779 12.0266 33.8872C11.9163 33.8939 11.8203 33.8771 11.7378 33.8367C11.6561 33.7937 11.587 33.7238 11.5306 33.6253C11.4742 33.5267 11.4514 33.424 11.4615 33.3179C11.4708 33.2092 11.5129 33.1057 11.5862 33.0063C11.6594 32.9052 11.763 32.8151 11.8994 32.7368C12.0089 32.6737 12.1142 32.6324 12.2153 32.6139C12.3172 32.5936 12.4098 32.592 12.4932 32.6071C12.5774 32.6214 12.6498 32.6467 12.7104 32.6838C12.7711 32.7217 12.8174 32.7638 12.8486 32.8143C12.8561 32.8278 12.8578 32.8429 12.8553 32.8598C12.8502 32.8758 12.841 32.8876 12.8267 32.896L12.5513 33.0551C12.5345 33.0644 12.5184 33.0703 12.5008 33.0711C12.4839 33.072 12.4671 33.0661 12.4485 33.0551C12.4148 33.0181 12.3635 32.9987 12.2961 32.9954C12.2296 32.9895 12.158 33.0097 12.0814 33.0543C12.0013 33.1006 11.9449 33.1528 11.9146 33.2092C11.8851 33.2649 11.8894 33.3238 11.9239 33.3844C11.9466 33.4232 11.9769 33.4509 12.0165 33.4644C12.0561 33.4771 12.11 33.4779 12.1774 33.4661C12.2464 33.4527 12.334 33.4307 12.4427 33.4021C12.6035 33.3482 12.7416 33.3162 12.8553 33.3044C12.969 33.2943 13.0667 33.3095 13.1467 33.3499C13.2258 33.3886 13.2941 33.4577 13.3513 33.5562C13.4145 33.6657 13.4381 33.7785 13.4212 33.8931C13.4061 34.0068 13.3555 34.1163 13.273 34.2215C13.1905 34.3234 13.0768 34.4161 12.9353 34.4986L12.9387 34.4994Z" fill="url(#paint31_linear_2_207)"/>
</g>
</g>
</g>
<defs>
<linearGradient id="paint0_linear_2_207" x1="19.0342" y1="65.4415" x2="17.2269" y2="-10.0751" gradientUnits="userSpaceOnUse">
<stop stop-color="#0A1A2C"/>
<stop offset="0.5" stop-color="#203E6A"/>
<stop offset="1" stop-color="#4A7499"/>
</linearGradient>
<linearGradient id="paint1_linear_2_207" x1="17.7237" y1="33.8176" x2="17.834" y2="5.49779" gradientUnits="userSpaceOnUse">
<stop stop-color="#386E9C"/>
<stop offset="1" stop-color="white"/>
</linearGradient>
<linearGradient id="paint2_linear_2_207" x1="17.7339" y1="33.8175" x2="17.8434" y2="5.49773" gradientUnits="userSpaceOnUse">
<stop stop-color="#386E9C"/>
<stop offset="1" stop-color="white"/>
</linearGradient>
<linearGradient id="paint3_linear_2_207" x1="12.6297" y1="47.5725" x2="11.8263" y2="10.2164" gradientUnits="userSpaceOnUse">
<stop stop-color="#386E9C"/>
<stop offset="1" stop-color="white"/>
</linearGradient>
<linearGradient id="paint4_linear_2_207" x1="14.9352" y1="17.7621" x2="14.9352" y2="28.3432" gradientUnits="userSpaceOnUse">
<stop stop-color="#FFAA49"/>
<stop offset="1" stop-color="#FF7754"/>
</linearGradient>
<linearGradient id="paint5_linear_2_207" x1="-6.00705" y1="41.9187" x2="4.81786" y2="4.4362" gradientUnits="userSpaceOnUse">
<stop stop-color="#FF2A64"/>
<stop offset="0.0745029" stop-color="#FF3562"/>
<stop offset="0.711" stop-color="#FF8C4F"/>
<stop offset="1" stop-color="#FFAE48"/>
</linearGradient>
<linearGradient id="paint6_linear_2_207" x1="18.0918" y1="27.3804" x2="17.6438" y2="-10.8507" gradientUnits="userSpaceOnUse">
<stop stop-color="#FF2A64"/>
<stop offset="1" stop-color="#FFAF48"/>
</linearGradient>
<linearGradient id="paint7_linear_2_207" x1="1.76922" y1="13.0998" x2="2.24335" y2="-1.29421" gradientUnits="userSpaceOnUse">
<stop stop-color="#386E9C"/>
<stop offset="1" stop-color="white"/>
</linearGradient>
<linearGradient id="paint8_linear_2_207" x1="4.08854" y1="13.1765" x2="4.56268" y2="-1.21841" gradientUnits="userSpaceOnUse">
<stop stop-color="#386E9C"/>
<stop offset="1" stop-color="white"/>
</linearGradient>
<linearGradient id="paint9_linear_2_207" x1="6.40784" y1="13.2531" x2="6.88198" y2="-1.14178" gradientUnits="userSpaceOnUse">
<stop stop-color="#386E9C"/>
<stop offset="1" stop-color="white"/>
</linearGradient>
<linearGradient id="paint10_linear_2_207" x1="22.3666" y1="29.0863" x2="41.5533" y2="5.43365" gradientUnits="userSpaceOnUse">
<stop stop-color="#0A1A2C"/>
<stop offset="0.5" stop-color="#203E6A"/>
<stop offset="1" stop-color="#4A7499"/>
</linearGradient>
<linearGradient id="paint11_linear_2_207" x1="33.7802" y1="12.0203" x2="37.7147" y2="4.62705" gradientUnits="userSpaceOnUse">
<stop stop-color="#0A1A2C"/>
<stop offset="0.5" stop-color="#203E6A"/>
<stop offset="1" stop-color="#4A7499"/>
</linearGradient>
<linearGradient id="paint12_linear_2_207" x1="35.5968" y1="15.4834" x2="41.8589" y2="13.0749" gradientUnits="userSpaceOnUse">
<stop stop-color="#386E9C"/>
<stop offset="1" stop-color="white"/>
</linearGradient>
<linearGradient id="paint13_linear_2_207" x1="34.2746" y1="15.9528" x2="41.7875" y2="13.4129" gradientUnits="userSpaceOnUse">
<stop stop-color="#386E9C"/>
<stop offset="1" stop-color="white"/>
</linearGradient>
<linearGradient id="paint14_linear_2_207" x1="32.5624" y1="14.6063" x2="35.9133" y2="8.03245" gradientUnits="userSpaceOnUse">
<stop stop-color="#0A1A2C"/>
<stop offset="0.5" stop-color="#203E6A"/>
<stop offset="1" stop-color="#4A7499"/>
</linearGradient>
<linearGradient id="paint15_linear_2_207" x1="33.3524" y1="12.7291" x2="37.1159" y2="6.02727" gradientUnits="userSpaceOnUse">
<stop stop-color="#0A1A2C"/>
<stop offset="0.5" stop-color="#203E6A"/>
<stop offset="1" stop-color="#4A7499"/>
</linearGradient>
<linearGradient id="paint16_linear_2_207" x1="34.5171" y1="10.6721" x2="36.5281" y2="7.03742" gradientUnits="userSpaceOnUse">
<stop stop-color="#0A1A2C"/>
<stop offset="0.5" stop-color="#203E6A"/>
<stop offset="1" stop-color="#4A7499"/>
</linearGradient>
<linearGradient id="paint17_linear_2_207" x1="16.2247" y1="42.9317" x2="35.2388" y2="9.63055" gradientUnits="userSpaceOnUse">
<stop stop-color="#386E9C"/>
<stop offset="1" stop-color="white"/>
</linearGradient>
<linearGradient id="paint18_linear_2_207" x1="19.7896" y1="31.2981" x2="44.6263" y2="-1.08089" gradientUnits="userSpaceOnUse">
<stop stop-color="#0A1A2C"/>
<stop offset="0.5" stop-color="#203E6A"/>
<stop offset="1" stop-color="#4A7499"/>
</linearGradient>
<linearGradient id="paint19_linear_2_207" x1="26.3078" y1="22.9592" x2="40.552" y2="8.6081" gradientUnits="userSpaceOnUse">
<stop stop-color="#FF2A64"/>
<stop offset="1" stop-color="#FFAF48"/>
</linearGradient>
<linearGradient id="paint20_linear_2_207" x1="18.8161" y1="32.1389" x2="34.5306" y2="12.1656" gradientUnits="userSpaceOnUse">
<stop stop-color="#386E9C"/>
<stop offset="1" stop-color="white"/>
</linearGradient>
<linearGradient id="paint21_linear_2_207" x1="22.0036" y1="44.1459" x2="34.1373" y2="15.3157" gradientUnits="userSpaceOnUse">
<stop stop-color="#0A1A2C"/>
<stop offset="0.5" stop-color="#203E6A"/>
<stop offset="1" stop-color="#4A7499"/>
</linearGradient>
<linearGradient id="paint22_linear_2_207" x1="16.3973" y1="59.3256" x2="32.1287" y2="21.528" gradientUnits="userSpaceOnUse">
<stop stop-color="#386E9C"/>
<stop offset="1" stop-color="white"/>
</linearGradient>
<linearGradient id="paint23_linear_2_207" x1="20.7867" y1="47.2656" x2="28.1496" y2="28.7031" gradientUnits="userSpaceOnUse">
<stop stop-color="#FF2A64"/>
<stop offset="1" stop-color="#FFAF48"/>
</linearGradient>
<linearGradient id="paint24_linear_2_207" x1="23.4596" y1="36.6644" x2="27.4708" y2="27.8143" gradientUnits="userSpaceOnUse">
<stop stop-color="#0A1A2C"/>
<stop offset="0.5" stop-color="#203E6A"/>
<stop offset="1" stop-color="#4A7499"/>
</linearGradient>
<linearGradient id="paint25_linear_2_207" x1="25.6096" y1="37.6394" x2="29.6216" y2="28.7885" gradientUnits="userSpaceOnUse">
<stop stop-color="#0A1A2C"/>
<stop offset="0.5" stop-color="#203E6A"/>
<stop offset="1" stop-color="#4A7499"/>
</linearGradient>
<linearGradient id="paint26_linear_2_207" x1="16.2399" y1="42.4343" x2="5.58252" y2="22.6885" gradientUnits="userSpaceOnUse">
<stop stop-color="#0A1A2C"/>
<stop offset="0.5" stop-color="#203E6A"/>
<stop offset="1" stop-color="#4A7499"/>
</linearGradient>
<linearGradient id="paint27_linear_2_207" x1="18.5945" y1="50.479" x2="3.58827" y2="17.9074" gradientUnits="userSpaceOnUse">
<stop stop-color="#386E9C"/>
<stop offset="1" stop-color="white"/>
</linearGradient>
<linearGradient id="paint28_linear_2_207" x1="19.0636" y1="52.4082" x2="8.4711" y2="29.5894" gradientUnits="userSpaceOnUse">
<stop stop-color="#FF2A64"/>
<stop offset="1" stop-color="#FFAF48"/>
</linearGradient>
<linearGradient id="paint29_linear_2_207" x1="12.873" y1="42.5854" x2="5.88481" y2="29.1186" gradientUnits="userSpaceOnUse">
<stop stop-color="#0A1A2C"/>
<stop offset="0.5" stop-color="#203E6A"/>
<stop offset="1" stop-color="#4A7499"/>
</linearGradient>
<linearGradient id="paint30_linear_2_207" x1="14.5657" y1="41.707" x2="7.57671" y2="28.2403" gradientUnits="userSpaceOnUse">
<stop stop-color="#0A1A2C"/>
<stop offset="0.5" stop-color="#203E6A"/>
<stop offset="1" stop-color="#4A7499"/>
</linearGradient>
<linearGradient id="paint31_linear_2_207" x1="16.207" y1="40.8544" x2="9.21889" y2="27.3875" gradientUnits="userSpaceOnUse">
<stop stop-color="#0A1A2C"/>
<stop offset="0.5" stop-color="#203E6A"/>
<stop offset="1" stop-color="#4A7499"/>
</linearGradient>
<clipPath id="clip0_2_207">
<rect width="40" height="39.28" fill="white" transform="translate(0 0.390015)"/>
</clipPath>
<clipPath id="clip1_2_207">
<rect width="39.9935" height="39.28" fill="white" transform="translate(0.00326538 0.390015)"/>
</clipPath>
</defs>
</svg>
