<svg width="40" height="44" viewBox="0 0 40 44" fill="none" xmlns="http://www.w3.org/2000/svg">
<g clip-path="url(#clip0_2_333)">
<g clip-path="url(#clip1_2_333)">
<mask id="mask0_2_333" style="mask-type:luminance" maskUnits="userSpaceOnUse" x="0" y="0" width="40" height="44">
<path d="M39.9891 0.25H0.00460815V43.3554H39.9891V0.25Z" fill="white"/>
</mask>
<g mask="url(#mask0_2_333)">
<path d="M37.8136 31.3582H2.18007C0.977599 31.3582 0.00460815 30.3852 0.00460815 29.1827V2.42546C0.00460815 1.22299 0.977599 0.25 2.18007 0.25H37.8136C39.0161 0.25 39.9891 1.22299 39.9891 2.42546V29.1827C39.9891 30.3852 39.0161 31.3582 37.8136 31.3582Z" fill="url(#paint0_linear_2_333)"/>
<path d="M35.8125 28.1549H4.18112C3.59365 28.1549 3.12552 27.6775 3.12552 27.0992V8.83274C3.12552 8.24525 3.60283 7.7771 4.18112 7.7771H35.8125C36.4 7.7771 36.8682 8.25444 36.8682 8.83274V27.0901C36.8682 27.6775 36.3908 28.1549 35.8125 28.1549Z" fill="url(#paint1_linear_2_333)"/>
<path d="M39.9891 4.52749V2.42546C39.9891 1.22299 39.0161 0.25 37.8136 0.25H2.18007C0.977599 0.25 0.00460815 1.22299 0.00460815 2.42546V4.52749H39.9891Z" fill="url(#paint2_linear_2_333)"/>
<path d="M2.38202 3.23356C2.78775 3.23356 3.11636 2.90494 3.11636 2.49923C3.11636 2.0935 2.78775 1.76489 2.38202 1.76489C1.97631 1.76489 1.64769 2.0935 1.64769 2.49923C1.64769 2.90494 1.97631 3.23356 2.38202 3.23356Z" fill="url(#paint3_linear_2_333)"/>
<path d="M4.98891 3.23356C5.39459 3.23356 5.72321 2.90494 5.72321 2.49923C5.72321 2.0935 5.39459 1.76489 4.98891 1.76489C4.58317 1.76489 4.25456 2.0935 4.25456 2.49923C4.25456 2.90494 4.58317 3.23356 4.98891 3.23356Z" fill="url(#paint4_linear_2_333)"/>
<path d="M7.59577 3.23356C8.00145 3.23356 8.33007 2.90494 8.33007 2.49923C8.33007 2.0935 8.00145 1.76489 7.59577 1.76489C7.19004 1.76489 6.86142 2.0935 6.86142 2.49923C6.86142 2.90494 7.19004 3.23356 7.59577 3.23356Z" fill="url(#paint5_linear_2_333)"/>
<path d="M19.9969 22.5374C22.5212 22.5374 24.5681 20.4914 24.5681 17.9663C24.5681 15.4411 22.5212 13.395 19.9969 13.395C17.4726 13.395 15.4256 15.442 15.4256 17.9663C15.4256 20.4905 17.4726 22.5374 19.9969 22.5374Z" fill="url(#paint6_linear_2_333)"/>
<path d="M18.877 16.5983V19.3337C18.877 19.5723 19.1432 19.7284 19.3451 19.5999L21.6124 18.2322C21.8143 18.1128 21.8143 17.8191 21.6124 17.6998L19.3451 16.3321C19.1432 16.2036 18.877 16.3596 18.877 16.5983Z" fill="url(#paint7_linear_2_333)"/>
<path d="M10.9829 43.1352L9.29393 42.4008V27.604L10.9829 28.3292V43.1352Z" fill="url(#paint8_linear_2_333)"/>
<path d="M10.9829 43.1348L30.6997 39.353V24.5562L10.9829 28.3288V43.1348Z" fill="url(#paint9_linear_2_333)"/>
<path d="M10.9829 31.2019L30.6997 27.4201V24.5562L10.9829 28.3288V31.2019Z" fill="url(#paint10_linear_2_333)"/>
<path d="M13.9954 27.6918C13.9523 27.6652 13.8954 27.679 13.8688 27.7221L11.8677 30.9715C11.8411 31.0147 11.8549 31.0716 11.898 31.0982C11.9127 31.1074 11.9292 31.112 11.9458 31.112C11.977 31.112 12.0063 31.0964 12.0238 31.0679L14.0248 27.8185C14.0514 27.7753 14.0376 27.7184 13.9945 27.6918H13.9954Z" fill="url(#paint11_linear_2_333)"/>
<path d="M16.6482 27.1776C16.605 27.151 16.5482 27.1648 16.5224 27.2079L14.5306 30.4665C14.5039 30.5097 14.5177 30.5666 14.5609 30.5923C14.5755 30.6015 14.5921 30.6061 14.6086 30.6061C14.6398 30.6061 14.6701 30.5905 14.6866 30.562L16.6785 27.3034C16.7051 27.2603 16.6913 27.2034 16.6482 27.1776Z" fill="url(#paint12_linear_2_333)"/>
<path d="M19.3102 26.6728C19.267 26.6461 19.2102 26.6599 19.1835 26.7031L17.1825 29.9525C17.1558 29.9956 17.1696 30.0525 17.2128 30.0792C17.2275 30.0883 17.244 30.0929 17.2605 30.0929C17.2917 30.0929 17.3211 30.0773 17.3385 30.0489L19.3396 26.7994C19.3662 26.7563 19.3524 26.6994 19.3092 26.6728H19.3102Z" fill="url(#paint13_linear_2_333)"/>
<path d="M21.963 26.1677C21.9198 26.141 21.8629 26.1548 21.8363 26.1979L19.8444 29.4474C19.8178 29.4905 19.8315 29.5474 19.8747 29.574C19.8894 29.5832 19.9059 29.5878 19.9224 29.5878C19.9536 29.5878 19.9839 29.5722 20.0005 29.5437L21.9923 26.2943C22.0189 26.2512 22.0052 26.1943 21.9621 26.1677H21.963Z" fill="url(#paint14_linear_2_333)"/>
<path d="M24.6249 25.663C24.5818 25.6364 24.5249 25.6501 24.4983 25.6933L22.4972 28.9427C22.4706 28.9858 22.4843 29.0427 22.5275 29.0694C22.5422 29.0786 22.5587 29.0831 22.5752 29.0831C22.6064 29.0831 22.6358 29.0675 22.6532 29.0391L24.6543 25.7897C24.6809 25.7465 24.6671 25.6896 24.624 25.663H24.6249Z" fill="url(#paint15_linear_2_333)"/>
<path d="M27.2777 25.1584C27.2346 25.1317 27.1777 25.1455 27.151 25.1886L25.1591 28.438C25.1325 28.4812 25.1463 28.5381 25.1894 28.5648C25.2041 28.5739 25.2207 28.5785 25.2372 28.5785C25.2684 28.5785 25.2987 28.5629 25.3152 28.5345L27.3071 25.285C27.3337 25.2419 27.3199 25.185 27.2768 25.1584H27.2777Z" fill="url(#paint16_linear_2_333)"/>
<path d="M29.9397 24.6439C29.8966 24.6173 29.8396 24.6311 29.8139 24.6742L27.822 27.9328C27.7954 27.976 27.8092 28.0329 27.8523 28.0586C27.867 28.0678 27.8836 28.0724 27.9001 28.0724C27.9313 28.0724 27.9616 28.0568 27.9781 28.0283L29.97 24.7697C29.9966 24.7266 29.9828 24.6697 29.9397 24.6439Z" fill="url(#paint17_linear_2_333)"/>
<path d="M10.9829 28.3288L30.6997 24.5561L29.0016 23.8218L9.29393 27.6036L10.9829 28.3288Z" fill="url(#paint18_linear_2_333)"/>
<path d="M19.2625 33.4697V37.7747C19.2625 38.1511 19.6755 38.3163 20.006 38.0684L23.5675 35.3239C23.8796 35.0852 23.8796 34.6262 23.5675 34.4886L20.006 32.9281C19.6755 32.7904 19.2625 33.0933 19.2625 33.4697Z" fill="url(#paint19_linear_2_333)"/>
<path d="M31.6911 43.3553C34.3172 43.3553 36.4459 41.2267 36.4459 38.6005C36.4459 35.9743 34.3172 33.8457 31.6911 33.8457C29.0649 33.8457 26.9362 35.9743 26.9362 38.6005C26.9362 41.2267 29.0649 43.3553 31.6911 43.3553Z" fill="url(#paint20_linear_2_333)"/>
<path d="M32.5539 38.6006C32.5539 39.0779 32.1684 39.4542 31.7003 39.4542C31.2321 39.4542 30.8466 39.0687 30.8466 38.6006C30.8466 38.1324 31.2321 37.7469 31.7003 37.7469C32.1684 37.7469 32.5539 38.1324 32.5539 38.6006ZM33.9767 38.0314H33.8115C33.6921 38.0314 33.582 37.958 33.5453 37.8387C33.4902 37.7285 33.5177 37.6 33.6004 37.5174L33.7197 37.3981C33.8298 37.2879 33.8298 37.1043 33.7197 36.9942L33.3158 36.5903C33.2056 36.4802 33.0221 36.4802 32.9119 36.5903L32.7926 36.7097C32.71 36.7922 32.5723 36.8198 32.4713 36.7647C32.352 36.728 32.2786 36.6178 32.2786 36.4893V36.3241C32.2786 36.1681 32.1501 36.0396 31.994 36.0396H31.4249C31.2688 36.0396 31.1404 36.1681 31.1404 36.3241V36.4893C31.1404 36.6087 31.0669 36.7188 30.9476 36.7555C30.8375 36.8106 30.7089 36.7831 30.6263 36.7005L30.507 36.5811C30.3968 36.471 30.2133 36.471 30.1031 36.5811L29.6992 36.985C29.589 37.0952 29.589 37.2788 29.6992 37.3889L29.8185 37.5082C29.9012 37.5908 29.9287 37.7285 29.8736 37.8295C29.8369 37.9396 29.7268 38.0223 29.6074 38.0223H29.433C29.277 38.0223 29.1485 38.1508 29.1485 38.3068V38.8759C29.1485 39.032 29.277 39.1605 29.433 39.1605H29.5982C29.7176 39.1605 29.8277 39.2339 29.8644 39.3532C29.9195 39.4634 29.892 39.5919 29.8094 39.6745L29.69 39.7939C29.5799 39.904 29.5799 40.0876 29.69 40.1977L30.0939 40.6016C30.2041 40.7117 30.3876 40.7117 30.4978 40.6016L30.6171 40.4823C30.6997 40.3997 30.8375 40.3721 30.9384 40.4272C31.0486 40.4639 31.1312 40.5741 31.1312 40.6934V40.877C31.1312 41.033 31.2597 41.1616 31.4157 41.1616H31.9848C32.1409 41.1616 32.2694 41.033 32.2694 40.877V40.7117C32.2694 40.5925 32.3428 40.4823 32.4622 40.4455C32.5723 40.3905 32.7008 40.418 32.7834 40.5006L32.9027 40.62C33.0129 40.7301 33.1965 40.7301 33.3066 40.62L33.7105 40.2161C33.8207 40.1059 33.8207 39.9223 33.7105 39.8122L33.5912 39.6929C33.5086 39.6102 33.481 39.4726 33.5361 39.3716C33.5728 39.2615 33.683 39.1789 33.8023 39.1789H33.9859C34.1419 39.1789 34.2704 39.0503 34.2704 38.8943V38.316C34.2704 38.16 34.1419 38.0314 33.9767 38.0314Z" fill="url(#paint21_linear_2_333)"/>
</g>
</g>
</g>
<defs>
<linearGradient id="paint0_linear_2_333" x1="19.9968" y1="42.9056" x2="19.9968" y2="-35.6387" gradientUnits="userSpaceOnUse">
<stop stop-color="#0A1A2C"/>
<stop offset="0.5" stop-color="#203E6A"/>
<stop offset="1" stop-color="#4A7499"/>
</linearGradient>
<linearGradient id="paint1_linear_2_333" x1="20.834" y1="58.39" x2="19.6058" y2="-0.927493" gradientUnits="userSpaceOnUse">
<stop stop-color="#0A1A2C"/>
<stop offset="0.5" stop-color="#203E6A"/>
<stop offset="1" stop-color="#4A7499"/>
</linearGradient>
<linearGradient id="paint2_linear_2_333" x1="20.1299" y1="27.7031" x2="19.9409" y2="-6.69862" gradientUnits="userSpaceOnUse">
<stop stop-color="#FF2A64"/>
<stop offset="1" stop-color="#FFAF48"/>
</linearGradient>
<linearGradient id="paint3_linear_2_333" x1="2.31043" y1="20.2802" x2="2.38937" y2="0.723058" gradientUnits="userSpaceOnUse">
<stop stop-color="#386E9C"/>
<stop offset="1" stop-color="white"/>
</linearGradient>
<linearGradient id="paint4_linear_2_333" x1="4.9173" y1="20.2912" x2="4.99623" y2="0.733153" gradientUnits="userSpaceOnUse">
<stop stop-color="#386E9C"/>
<stop offset="1" stop-color="white"/>
</linearGradient>
<linearGradient id="paint5_linear_2_333" x1="7.52325" y1="20.3013" x2="7.60309" y2="0.744168" gradientUnits="userSpaceOnUse">
<stop stop-color="#386E9C"/>
<stop offset="1" stop-color="white"/>
</linearGradient>
<linearGradient id="paint6_linear_2_333" x1="19.9032" y1="41.2685" x2="20.0125" y2="14.1633" gradientUnits="userSpaceOnUse">
<stop stop-color="#386E9C"/>
<stop offset="1" stop-color="white"/>
</linearGradient>
<linearGradient id="paint7_linear_2_333" x1="20.4494" y1="28.153" x2="20.2328" y2="12.2152" gradientUnits="userSpaceOnUse">
<stop stop-color="#0A1A2C"/>
<stop offset="0.5" stop-color="#203E6A"/>
<stop offset="1" stop-color="#4A7499"/>
</linearGradient>
<linearGradient id="paint8_linear_2_333" x1="9.88046" y1="60.3509" x2="10.4569" y2="4.50188" gradientUnits="userSpaceOnUse">
<stop stop-color="#FF2A64"/>
<stop offset="1" stop-color="#FFAF48"/>
</linearGradient>
<linearGradient id="paint9_linear_2_333" x1="20.9414" y1="64.0247" x2="20.7908" y2="18.6374" gradientUnits="userSpaceOnUse">
<stop stop-color="#FF2A64"/>
<stop offset="1" stop-color="#FFAF48"/>
</linearGradient>
<linearGradient id="paint10_linear_2_333" x1="21.0552" y1="50.6184" x2="20.7587" y2="19.1046" gradientUnits="userSpaceOnUse">
<stop stop-color="#386E9C"/>
<stop offset="1" stop-color="white"/>
</linearGradient>
<linearGradient id="paint11_linear_2_333" x1="13.7256" y1="33.2452" x2="8.38698" y2="6.84867" gradientUnits="userSpaceOnUse">
<stop stop-color="#386E9C"/>
<stop offset="1" stop-color="white"/>
</linearGradient>
<linearGradient id="paint12_linear_2_333" x1="16.3783" y1="32.709" x2="11.0388" y2="6.31155" gradientUnits="userSpaceOnUse">
<stop stop-color="#386E9C"/>
<stop offset="1" stop-color="white"/>
</linearGradient>
<linearGradient id="paint13_linear_2_333" x1="19.0302" y1="32.172" x2="13.6907" y2="5.77545" gradientUnits="userSpaceOnUse">
<stop stop-color="#386E9C"/>
<stop offset="1" stop-color="white"/>
</linearGradient>
<linearGradient id="paint14_linear_2_333" x1="21.6812" y1="31.6357" x2="16.3426" y2="5.23915" gradientUnits="userSpaceOnUse">
<stop stop-color="#386E9C"/>
<stop offset="1" stop-color="white"/>
</linearGradient>
<linearGradient id="paint15_linear_2_333" x1="24.3321" y1="31.0998" x2="18.9935" y2="4.70328" gradientUnits="userSpaceOnUse">
<stop stop-color="#386E9C"/>
<stop offset="1" stop-color="white"/>
</linearGradient>
<linearGradient id="paint16_linear_2_333" x1="26.9831" y1="30.564" x2="21.6445" y2="4.16744" gradientUnits="userSpaceOnUse">
<stop stop-color="#386E9C"/>
<stop offset="1" stop-color="white"/>
</linearGradient>
<linearGradient id="paint17_linear_2_333" x1="29.6396" y1="30.0266" x2="24.3009" y2="3.63009" gradientUnits="userSpaceOnUse">
<stop stop-color="#386E9C"/>
<stop offset="1" stop-color="white"/>
</linearGradient>
<linearGradient id="paint18_linear_2_333" x1="20.3594" y1="48.668" x2="19.9656" y2="24.1247" gradientUnits="userSpaceOnUse">
<stop stop-color="#386E9C"/>
<stop offset="1" stop-color="white"/>
</linearGradient>
<linearGradient id="paint19_linear_2_333" x1="21.6316" y1="51.8768" x2="21.5004" y2="31.3493" gradientUnits="userSpaceOnUse">
<stop stop-color="#386E9C"/>
<stop offset="1" stop-color="white"/>
</linearGradient>
<linearGradient id="paint20_linear_2_333" x1="31.6911" y1="58.813" x2="31.6911" y2="34.2707" gradientUnits="userSpaceOnUse">
<stop stop-color="#386E9C"/>
<stop offset="1" stop-color="white"/>
</linearGradient>
<linearGradient id="paint21_linear_2_333" x1="31.7095" y1="41.1307" x2="31.7095" y2="35.6675" gradientUnits="userSpaceOnUse">
<stop stop-color="#223C6A"/>
<stop offset="1" stop-color="#5BA8D3"/>
</linearGradient>
<clipPath id="clip0_2_333">
<rect width="40" height="43.13" fill="white" transform="translate(0 0.25)"/>
</clipPath>
<clipPath id="clip1_2_333">
<rect width="39.9908" height="43.13" fill="white" transform="translate(0.00460815 0.25)"/>
</clipPath>
</defs>
</svg>
