<svg width="40" height="41" viewBox="0 0 40 41" fill="none" xmlns="http://www.w3.org/2000/svg">
<g clip-path="url(#clip0_2_299)">
<g clip-path="url(#clip1_2_299)">
<mask id="mask0_2_299" style="mask-type:luminance" maskUnits="userSpaceOnUse" x="0" y="0" width="40" height="40">
<path d="M39.9948 0.909912H0.00517273V39.5372H39.9948V0.909912Z" fill="white"/>
</mask>
<g mask="url(#mask0_2_299)">
<path d="M39.3938 36.8925H0.606221C0.274271 36.8925 0.00517273 37.1615 0.00517273 37.4935C0.00517273 37.8255 0.274271 38.0945 0.606221 38.0945H39.3938C39.7257 38.0945 39.9948 37.8255 39.9948 37.4935C39.9948 37.1615 39.7257 36.8925 39.3938 36.8925Z" fill="url(#paint0_linear_2_299)"/>
<path d="M20.6011 32.4849H19.399V36.8926H20.6011V32.4849Z" fill="url(#paint1_linear_2_299)"/>
<path d="M19.96 39.5373C21.0664 39.5373 21.9635 38.6403 21.9635 37.5338C21.9635 36.4273 21.0664 35.5303 19.96 35.5303C18.8535 35.5303 17.9565 36.4273 17.9565 37.5338C17.9565 38.6403 18.8535 39.5373 19.96 39.5373Z" fill="url(#paint2_linear_2_299)"/>
<path d="M35.7474 16.6974C35.7474 25.4166 28.6791 32.4849 19.96 32.4849C11.2407 32.4849 4.17245 25.4166 4.17245 16.6974C4.17245 7.97824 11.2407 0.909912 19.96 0.909912C28.6791 0.909912 35.7474 7.97824 35.7474 16.6974Z" fill="url(#paint3_linear_2_299)"/>
<path d="M14.589 31.588C14.5449 31.588 14.5089 31.5519 14.5089 31.5078C14.5089 31.4638 14.5449 31.4277 14.589 31.4277C20.109 31.4277 24.6 24.8194 24.6 16.6973C24.6 8.57509 20.109 1.9668 14.589 1.9668C14.5449 1.9668 14.5089 1.93073 14.5089 1.88666C14.5089 1.84258 14.5449 1.80652 14.589 1.80652C20.1972 1.80652 24.7603 8.48615 24.7603 16.6973C24.7603 24.9083 20.1972 31.588 14.589 31.588Z" fill="url(#paint4_linear_2_299)"/>
<path d="M13.9278 23.0308C12.9421 23.0308 11.9804 22.9451 11.0564 22.7712C7.68895 22.1381 5.23751 20.4143 4.15323 17.9163C4.13559 17.8754 4.15403 17.8282 4.1949 17.8105C4.23577 17.7929 4.28303 17.8113 4.30067 17.8522C5.36331 20.2997 7.77313 21.9906 11.0861 22.6133C14.4111 23.2384 18.2441 22.7127 21.8801 21.1347C25.516 19.5568 28.518 17.1149 30.3324 14.2595C32.1403 11.4138 32.5515 8.49911 31.4888 6.05166C31.4712 6.01079 31.4896 5.96353 31.5305 5.94589C31.5714 5.92825 31.6186 5.94669 31.6363 5.98756C32.7206 8.48551 32.3055 11.4531 30.4679 14.3453C28.6366 17.2279 25.6098 19.6906 21.9442 21.2814C19.2875 22.4346 16.5251 23.03 13.9278 23.03V23.0308Z" fill="url(#paint5_linear_2_299)"/>
<path d="M4.30381 18.1877C4.26295 18.1877 4.22767 18.1565 4.22368 18.114C4.01373 15.6529 5.48267 13.1958 8.36048 11.1964C11.2143 9.21368 15.097 7.92425 19.2931 7.56602C23.478 7.20859 27.4954 7.82487 30.6048 9.30345C33.7287 10.7884 35.5647 12.965 35.7762 15.4325C35.7802 15.4766 35.7474 15.5151 35.7033 15.5191C35.6592 15.5231 35.6207 15.4902 35.6167 15.4461C35.1904 10.4567 27.8737 6.99301 19.3068 7.7255C15.1379 8.08133 11.2832 9.36116 8.45186 11.3278C5.62291 13.2928 4.17801 15.6986 4.38315 18.0996C4.38715 18.1436 4.35432 18.1821 4.31025 18.1861C4.30781 18.1861 4.30541 18.1861 4.30301 18.1861L4.30381 18.1877Z" fill="url(#paint6_linear_2_299)"/>
<path d="M21.8616 29.3114C19.7403 29.3114 17.5501 28.9092 15.4152 28.0597C11.502 26.5017 8.35893 23.6889 6.56539 20.1395C4.77026 16.5869 4.54108 12.7217 5.92108 9.25572C5.93711 9.21485 5.98438 9.19481 6.02525 9.21085C6.06612 9.22685 6.08616 9.27415 6.07012 9.31502C4.70775 12.7378 4.93453 16.5564 6.70804 20.0674C8.48394 23.5815 11.5974 26.3671 15.4737 27.9106C23.4733 31.0953 32.2718 27.9362 35.0863 20.8672C35.1023 20.8263 35.1496 20.8062 35.1905 20.8222C35.2313 20.8383 35.2514 20.8856 35.2353 20.9265C33.1405 26.1884 27.7711 29.3114 21.8608 29.3114H21.8616Z" fill="url(#paint7_linear_2_299)"/>
<path d="M26.9785 20.0631C24.5936 20.0631 21.9778 19.6664 19.3565 18.8931C15.533 17.7647 12.1543 15.9688 9.8423 13.8363C7.51582 11.6893 6.54455 9.45505 7.10873 7.54454C7.12156 7.50207 7.16563 7.478 7.2081 7.49004C7.25057 7.50287 7.2746 7.54694 7.26261 7.58941C6.71683 9.43825 7.6721 11.6148 9.95127 13.7177C12.2457 15.8342 15.6019 17.6173 19.4021 18.7392C23.2024 19.8604 26.9889 20.1849 30.0647 19.6528C33.1204 19.1239 35.1039 17.8144 35.6496 15.9656C35.6625 15.9231 35.7065 15.8991 35.749 15.9111C35.7915 15.9239 35.8155 15.968 35.8035 16.0105C35.2401 17.921 33.2118 19.2705 30.092 19.8099C29.1175 19.9782 28.0724 20.0615 26.9793 20.0615L26.9785 20.0631Z" fill="url(#paint8_linear_2_299)"/>
<path d="M31.0649 34.1678H8.81653C8.0656 34.1678 7.45816 33.5603 7.45816 32.8094V16.6933C7.45816 15.9424 8.0656 15.335 8.81653 15.335H31.0649C31.8158 15.335 32.4233 15.9424 32.4233 16.6933V32.8094C32.4233 33.5603 31.8158 34.1678 31.0649 34.1678Z" fill="url(#paint9_linear_2_299)"/>
<path d="M18.4629 31.8237H26.2741C26.5281 31.8237 26.7373 31.625 26.7373 31.3837C26.7373 31.1425 26.5281 30.9446 26.2741 30.9446H18.4629C18.2089 30.9446 17.9989 31.1433 17.9989 31.3837C17.9989 31.6242 18.2089 31.8237 18.4629 31.8237Z" fill="url(#paint10_linear_2_299)"/>
<path d="M13.7515 32.0675C14.1289 32.0675 14.4351 31.7614 14.4351 31.3839C14.4351 31.0064 14.1289 30.7003 13.7515 30.7003C13.374 30.7003 13.0679 31.0064 13.0679 31.3839C13.0679 31.7614 13.374 32.0675 13.7515 32.0675Z" fill="url(#paint11_linear_2_299)"/>
<path d="M16.0948 32.0675C16.4722 32.0675 16.7783 31.7614 16.7783 31.3839C16.7783 31.0064 16.4722 30.7003 16.0948 30.7003C15.7173 30.7003 15.4112 31.0064 15.4112 31.3839C15.4112 31.7614 15.7173 32.0675 16.0948 32.0675Z" fill="url(#paint12_linear_2_299)"/>
<path d="M29.0959 20.7045H10.8241C10.3814 20.7045 10.0227 21.0633 10.0227 21.5059V28.2376C10.0227 28.6802 10.3814 29.039 10.8241 29.039H29.0959C29.5385 29.039 29.8973 28.6802 29.8973 28.2376V21.5059C29.8973 21.0633 29.5385 20.7045 29.0959 20.7045Z" fill="url(#paint13_linear_2_299)"/>
<path d="M13.7651 26.8755C13.7275 26.8755 13.6978 26.8642 13.6754 26.8418C13.653 26.8154 13.6417 26.7841 13.6417 26.7464V23.0833C13.6417 23.0424 13.653 23.0103 13.6754 22.9879C13.6978 22.9614 13.7275 22.9486 13.7651 22.9486H15.033C15.5979 22.9486 16.005 23.0761 16.2559 23.3301C16.5067 23.5809 16.6357 23.96 16.6429 24.4689C16.6469 24.5771 16.6485 24.7229 16.6485 24.9064C16.6485 25.0899 16.6469 25.2374 16.6429 25.3496C16.6357 25.7046 16.5772 25.9947 16.469 26.2191C16.3641 26.4395 16.1982 26.6046 15.9698 26.7128C15.7414 26.821 15.4385 26.8755 15.061 26.8755H13.7651ZM15.033 26.4098C15.295 26.4098 15.5026 26.3746 15.6556 26.3033C15.8127 26.2287 15.9249 26.1141 15.9922 25.9611C16.0635 25.804 16.1028 25.5924 16.11 25.3272C16.1172 25.1028 16.1212 24.9625 16.1212 24.9064C16.1212 24.8463 16.1172 24.7085 16.11 24.4913C16.1028 24.1171 16.0131 23.8446 15.8408 23.6723C15.6725 23.4968 15.3936 23.4086 15.0049 23.4086H14.169V26.4098H15.033Z" fill="url(#paint14_linear_2_299)"/>
<path d="M18.749 26.8755C18.7121 26.8755 18.6817 26.8642 18.6593 26.8418C18.6368 26.8154 18.6256 26.7841 18.6256 26.7464V23.0833C18.6256 23.0424 18.6368 23.0103 18.6593 22.9879C18.6817 22.9614 18.7121 22.9486 18.749 22.9486H18.9958C19.0335 22.9486 19.0616 22.9558 19.08 22.971C19.0992 22.9863 19.1176 23.0047 19.1361 23.0271L21.0153 25.9218V23.0833C21.0153 23.0424 21.0266 23.0103 21.049 22.9879C21.0754 22.9614 21.1075 22.9486 21.1444 22.9486H21.3968C21.4385 22.9486 21.4697 22.9614 21.4922 22.9879C21.5186 23.0103 21.5314 23.0424 21.5314 23.0833V26.7408C21.5314 26.7785 21.5186 26.8098 21.4922 26.8362C21.4697 26.8626 21.4401 26.8755 21.4024 26.8755H21.15C21.0867 26.8755 21.0418 26.849 21.0153 26.7969L19.1361 23.9303V26.7464C19.1361 26.7841 19.1233 26.8154 19.0968 26.8418C19.0744 26.8642 19.0447 26.8755 19.0071 26.8755H18.749Z" fill="url(#paint15_linear_2_299)"/>
<path d="M24.8885 26.9314C24.5815 26.9314 24.3147 26.8825 24.0863 26.7855C23.8619 26.6886 23.6896 26.5611 23.5702 26.4041C23.454 26.243 23.3923 26.0715 23.385 25.888C23.385 25.8583 23.3963 25.8319 23.4187 25.8094C23.4411 25.787 23.4692 25.7757 23.5028 25.7757H23.7777C23.845 25.7757 23.8915 25.8134 23.918 25.888C23.9517 26.045 24.047 26.1813 24.2041 26.2975C24.3651 26.4097 24.5928 26.4658 24.8885 26.4658C25.2066 26.4658 25.4438 26.4097 25.6009 26.2975C25.758 26.1853 25.8365 26.0298 25.8365 25.8319C25.8365 25.7044 25.7973 25.6003 25.7187 25.5177C25.6442 25.4352 25.5296 25.3647 25.3765 25.3045C25.2267 25.2412 25.0007 25.1643 24.6977 25.0745C24.4101 24.992 24.18 24.9047 24.0078 24.8109C23.8394 24.7171 23.712 24.6033 23.6263 24.4687C23.5405 24.33 23.4972 24.1561 23.4972 23.947C23.4972 23.7378 23.5518 23.5655 23.6599 23.4084C23.7681 23.2474 23.9252 23.1224 24.1312 23.0326C24.3371 22.9388 24.5799 22.8923 24.8604 22.8923C25.1409 22.8923 25.4006 22.9444 25.6065 23.0494C25.8157 23.1504 25.9752 23.2794 26.0833 23.4365C26.1916 23.5896 26.2501 23.745 26.2573 23.9021C26.2573 23.9357 26.2461 23.9638 26.2236 23.9863C26.2012 24.0087 26.1731 24.0199 26.1394 24.0199H25.859C25.8293 24.0199 25.8013 24.0103 25.7748 23.9918C25.7484 23.9734 25.73 23.9454 25.7187 23.9077C25.6963 23.7466 25.6065 23.6144 25.4495 23.5094C25.2924 23.4044 25.096 23.3523 24.8604 23.3523C24.6064 23.3523 24.4044 23.4028 24.2546 23.5038C24.1047 23.6008 24.0302 23.7466 24.0302 23.9414C24.0302 24.072 24.0638 24.1786 24.1312 24.2611C24.2025 24.3437 24.3091 24.4166 24.4509 24.4799C24.5968 24.5432 24.8084 24.6161 25.0848 24.6987C25.403 24.7884 25.6514 24.8782 25.8309 24.968C26.0144 25.0577 26.1507 25.1699 26.2404 25.3045C26.3302 25.4352 26.3751 25.6059 26.3751 25.815C26.3751 26.1668 26.2404 26.4417 25.9712 26.6397C25.7059 26.8344 25.3445 26.9314 24.8885 26.9314Z" fill="url(#paint16_linear_2_299)"/>
<path d="M32.4233 18.006V16.6933C32.4233 15.9424 31.8158 15.335 31.0649 15.335H8.81653C8.0656 15.335 7.45816 15.9424 7.45816 16.6933V18.006H32.4233Z" fill="url(#paint17_linear_2_299)"/>
<path d="M8.9423 17.1974C9.19556 17.1974 9.40071 16.9923 9.40071 16.739C9.40071 16.4858 9.19556 16.2806 8.9423 16.2806C8.68909 16.2806 8.4839 16.4858 8.4839 16.739C8.4839 16.9923 8.68909 17.1974 8.9423 17.1974Z" fill="url(#paint18_linear_2_299)"/>
<path d="M10.57 17.1974C10.8232 17.1974 11.0283 16.9923 11.0283 16.739C11.0283 16.4858 10.8232 16.2806 10.57 16.2806C10.3167 16.2806 10.1116 16.4858 10.1116 16.739C10.1116 16.9923 10.3167 17.1974 10.57 17.1974Z" fill="url(#paint19_linear_2_299)"/>
<path d="M12.1977 17.1974C12.4509 17.1974 12.6561 16.9923 12.6561 16.739C12.6561 16.4858 12.4509 16.2806 12.1977 16.2806C11.9444 16.2806 11.7393 16.4858 11.7393 16.739C11.7393 16.9923 11.9444 17.1974 12.1977 17.1974Z" fill="url(#paint20_linear_2_299)"/>
</g>
</g>
</g>
<defs>
<linearGradient id="paint0_linear_2_299" x1="19.8606" y1="43.1945" x2="20.3358" y2="23.7255" gradientUnits="userSpaceOnUse">
<stop stop-color="#0A1A2C"/>
<stop offset="0.5" stop-color="#203E6A"/>
<stop offset="1" stop-color="#4A7499"/>
</linearGradient>
<linearGradient id="paint1_linear_2_299" x1="19.9327" y1="41.4702" x2="20.097" y2="24.8708" gradientUnits="userSpaceOnUse">
<stop stop-color="#0A1A2C"/>
<stop offset="0.5" stop-color="#203E6A"/>
<stop offset="1" stop-color="#4A7499"/>
</linearGradient>
<linearGradient id="paint2_linear_2_299" x1="19.96" y1="45.3024" x2="19.96" y2="28.3169" gradientUnits="userSpaceOnUse">
<stop stop-color="#FF2A64"/>
<stop offset="1" stop-color="#FFAF48"/>
</linearGradient>
<linearGradient id="paint3_linear_2_299" x1="19.8558" y1="56.9402" x2="20.0193" y2="-6.30426" gradientUnits="userSpaceOnUse">
<stop stop-color="#0A1A2C"/>
<stop offset="0.5" stop-color="#203E6A"/>
<stop offset="1" stop-color="#4A7499"/>
</linearGradient>
<linearGradient id="paint4_linear_2_299" x1="20.2957" y1="34.1613" x2="17.0629" y2="-16.7097" gradientUnits="userSpaceOnUse">
<stop stop-color="#386E9C"/>
<stop offset="1" stop-color="white"/>
</linearGradient>
<linearGradient id="paint5_linear_2_299" x1="19.5192" y1="34.2111" x2="16.2863" y2="-16.6599" gradientUnits="userSpaceOnUse">
<stop stop-color="#386E9C"/>
<stop offset="1" stop-color="white"/>
</linearGradient>
<linearGradient id="paint6_linear_2_299" x1="21.1019" y1="34.1098" x2="17.8683" y2="-16.7612" gradientUnits="userSpaceOnUse">
<stop stop-color="#386E9C"/>
<stop offset="1" stop-color="white"/>
</linearGradient>
<linearGradient id="paint7_linear_2_299" x1="21.1852" y1="34.1046" x2="17.9516" y2="-16.7656" gradientUnits="userSpaceOnUse">
<stop stop-color="#386E9C"/>
<stop offset="1" stop-color="white"/>
</linearGradient>
<linearGradient id="paint8_linear_2_299" x1="22.7536" y1="34.005" x2="19.5208" y2="-16.866" gradientUnits="userSpaceOnUse">
<stop stop-color="#386E9C"/>
<stop offset="1" stop-color="white"/>
</linearGradient>
<linearGradient id="paint9_linear_2_299" x1="20.8992" y1="59.8975" x2="19.6506" y2="14.1152" gradientUnits="userSpaceOnUse">
<stop stop-color="#386E9C"/>
<stop offset="1" stop-color="white"/>
</linearGradient>
<linearGradient id="paint10_linear_2_299" x1="22.332" y1="34.6575" x2="22.4202" y2="26.6002" gradientUnits="userSpaceOnUse">
<stop stop-color="#0A1A2C"/>
<stop offset="0.5" stop-color="#203E6A"/>
<stop offset="1" stop-color="#4A7499"/>
</linearGradient>
<linearGradient id="paint11_linear_2_299" x1="13.8044" y1="34.2722" x2="13.7162" y2="29.4726" gradientUnits="userSpaceOnUse">
<stop stop-color="#0A1A2C"/>
<stop offset="0.5" stop-color="#203E6A"/>
<stop offset="1" stop-color="#4A7499"/>
</linearGradient>
<linearGradient id="paint12_linear_2_299" x1="16.1252" y1="35.0583" x2="16.0812" y2="29.8188" gradientUnits="userSpaceOnUse">
<stop stop-color="#FF2A64"/>
<stop offset="1" stop-color="#FFAF48"/>
</linearGradient>
<linearGradient id="paint13_linear_2_299" x1="19.96" y1="50.4763" x2="19.96" y2="20.5771" gradientUnits="userSpaceOnUse">
<stop stop-color="#FF2A64"/>
<stop offset="1" stop-color="#FFAF48"/>
</linearGradient>
<linearGradient id="paint14_linear_2_299" x1="15.1451" y1="35.8375" x2="15.1451" y2="16.9061" gradientUnits="userSpaceOnUse">
<stop stop-color="#0A1A2C"/>
<stop offset="0.5" stop-color="#203E6A"/>
<stop offset="1" stop-color="#4A7499"/>
</linearGradient>
<linearGradient id="paint15_linear_2_299" x1="20.0785" y1="35.8375" x2="20.0785" y2="16.9061" gradientUnits="userSpaceOnUse">
<stop stop-color="#0A1A2C"/>
<stop offset="0.5" stop-color="#203E6A"/>
<stop offset="1" stop-color="#4A7499"/>
</linearGradient>
<linearGradient id="paint16_linear_2_299" x1="24.8805" y1="35.8373" x2="24.8805" y2="16.9059" gradientUnits="userSpaceOnUse">
<stop stop-color="#0A1A2C"/>
<stop offset="0.5" stop-color="#203E6A"/>
<stop offset="1" stop-color="#4A7499"/>
</linearGradient>
<linearGradient id="paint17_linear_2_299" x1="-5.84368" y1="22.6635" x2="-5.23911" y2="11.2306" gradientUnits="userSpaceOnUse">
<stop stop-color="#FF2A64"/>
<stop offset="0.0745029" stop-color="#FF3562"/>
<stop offset="0.711" stop-color="#FF8C4F"/>
<stop offset="1" stop-color="#FFAE48"/>
</linearGradient>
<linearGradient id="paint18_linear_2_299" x1="9.05291" y1="25.423" x2="8.91027" y2="14.2211" gradientUnits="userSpaceOnUse">
<stop stop-color="#386E9C"/>
<stop offset="1" stop-color="white"/>
</linearGradient>
<linearGradient id="paint19_linear_2_299" x1="10.6805" y1="25.4021" x2="10.5379" y2="14.2002" gradientUnits="userSpaceOnUse">
<stop stop-color="#386E9C"/>
<stop offset="1" stop-color="white"/>
</linearGradient>
<linearGradient id="paint20_linear_2_299" x1="12.3074" y1="25.3813" x2="12.1656" y2="14.1794" gradientUnits="userSpaceOnUse">
<stop stop-color="#386E9C"/>
<stop offset="1" stop-color="white"/>
</linearGradient>
<clipPath id="clip0_2_299">
<rect width="40" height="38.63" fill="white" transform="translate(0 0.909912)"/>
</clipPath>
<clipPath id="clip1_2_299">
<rect width="39.9896" height="38.63" fill="white" transform="translate(0.00517273 0.909912)"/>
</clipPath>
</defs>
</svg>
