<svg width="300" height="241" viewBox="0 0 300 241" fill="none" xmlns="http://www.w3.org/2000/svg">
<g clip-path="url(#clip0_2_586)">
<path d="M101.25 202.371C102.826 191.963 107.496 177.822 120.58 167.389L127.947 180.52L134.057 164.445L143.224 173.867L147.314 150.588L122.896 119.658L115.824 105.973L115.036 126.137L89.792 112.588L101.903 135.523L74.4291 145.784L99.1182 152.177C99.1182 152.177 83.8045 167.043 80.0469 190.312C76.7576 210.635 89.8782 229.925 109.984 234.397C129.967 238.83 158.747 236.046 188.487 202.259C188.487 202.259 146.932 237.341 114.863 225.675C105.364 222.214 99.7466 212.36 101.25 202.371Z" fill="url(#paint0_linear_2_586)"/>
<path d="M143.272 149.577L140.525 165.16L137.026 161.563L132.48 156.882L130.164 162.979L127.22 170.739L124.201 165.357L121.811 161.094L117.992 164.137C103.738 175.494 98.7853 190.854 97.1467 201.742C95.3357 213.765 102.186 225.465 113.446 229.568C116.489 230.677 119.717 231.44 123.08 231.835C119.027 231.736 114.924 231.219 110.884 230.331C92.9579 226.353 81.2171 209.072 84.1493 190.977C87.6358 169.446 101.878 155.293 102.013 155.157L107.311 150.008L100.165 148.148L88.2395 145.069L103.381 139.415L107.804 137.765L105.598 133.589L99.8448 122.688L113.089 129.795L118.941 132.936L119.199 126.297L119.372 121.875L119.384 121.912L119.631 122.22L143.272 149.577Z" fill="url(#paint1_linear_2_586)"/>
<path d="M197.086 112.23L189.645 123.378L171.596 150.144L168.947 154.086C167.876 155.662 166.484 157.005 164.783 157.99C157.564 162.154 147.597 158.385 142.509 149.577C139.158 143.788 138.764 137.26 140.932 132.284L141.807 130.14L143.433 126.149L154.767 98.3608L155.814 95.7864L160.779 83.6167L161.309 82.3232L197.086 112.23Z" fill="url(#paint2_linear_2_586)"/>
<path d="M171.608 150.144L168.96 154.086C167.888 155.663 166.496 157.005 164.796 157.991C157.576 162.154 147.609 158.385 142.521 149.578C139.17 143.788 138.776 137.26 140.944 132.284L143.445 126.149C145.774 135.437 153.289 157.128 171.608 150.144Z" fill="url(#paint3_linear_2_586)"/>
<path d="M167.297 100.812L151.958 129.303C151.54 130.079 150.579 130.362 149.802 129.943C149.051 129.536 148.755 128.6 149.137 127.837L163.625 98.9025C164.13 97.8803 165.375 97.4737 166.397 97.9789C167.42 98.4838 167.826 99.7278 167.321 100.75C167.321 100.775 167.309 100.8 167.297 100.812Z" fill="url(#paint4_linear_2_586)"/>
<path d="M197.086 112.231L189.645 123.378C177.892 126.076 168.455 120.04 163.059 114.657C157.81 109.422 155.654 102.869 154.767 98.3486L155.814 95.7742L161.309 82.311L197.086 112.231Z" fill="url(#paint5_linear_2_586)"/>
<path opacity="0.3" d="M164.525 86.1291L141.807 130.128L143.445 126.137L154.78 98.3482L155.827 95.7738L160.792 83.604L164.525 86.1291Z" fill="white"/>
<path d="M198.059 84.6264C204.762 96.2296 202.494 110.087 192.984 115.568C183.485 121.05 170.339 116.086 163.637 104.483C156.935 92.8794 159.202 79.0219 168.713 73.5407C178.224 68.0592 191.357 73.0232 198.059 84.6264Z" fill="url(#paint6_linear_2_586)"/>
<path d="M190.901 88.753C194.819 95.54 193.488 103.633 187.932 106.835C182.376 110.038 174.701 107.143 170.783 100.356C166.865 93.5693 168.196 85.4765 173.752 82.2739C179.308 79.0714 186.996 81.9661 190.901 88.753Z" fill="url(#paint7_linear_2_586)"/>
<path d="M186.319 91.4013C188.45 95.0843 187.723 99.4939 184.705 101.231C181.686 102.968 177.51 101.391 175.378 97.708C173.247 94.025 173.974 89.6152 176.992 87.8786C180.011 86.1295 184.187 87.7184 186.319 91.4013Z" fill="url(#paint8_linear_2_586)"/>
<path d="M168.701 112.23L161.26 123.378L143.223 150.144L140.575 154.086C139.503 155.662 138.111 157.005 136.411 157.99C129.191 162.154 119.224 158.385 114.136 149.577C110.785 143.788 110.391 137.26 112.559 132.284L113.434 130.14L115.06 126.149L126.394 98.3608L127.442 95.7864L132.407 83.6167L132.936 82.3232L168.701 112.23Z" fill="url(#paint9_linear_2_586)"/>
<path d="M143.223 150.144L140.575 154.086C139.503 155.663 138.111 157.005 136.411 157.991C129.191 162.154 119.224 158.385 114.136 149.578C110.785 143.788 110.391 137.26 112.559 132.284L115.06 126.149C117.376 135.437 124.891 157.128 143.223 150.144Z" fill="url(#paint10_linear_2_586)"/>
<path d="M138.911 100.812L123.573 129.303C123.154 130.079 122.193 130.362 121.417 129.943C120.666 129.536 120.37 128.6 120.752 127.837L135.24 98.9025C135.745 97.8803 136.989 97.4737 138.012 97.9789C139.035 98.4838 139.441 99.7278 138.936 100.75C138.924 100.775 138.911 100.8 138.911 100.812Z" fill="url(#paint11_linear_2_586)"/>
<path d="M168.701 112.231L161.26 123.378C149.506 126.076 140.069 120.04 134.673 114.657C129.425 109.422 127.269 102.869 126.382 98.3486L127.429 95.7742L132.924 82.311L168.701 112.231Z" fill="url(#paint12_linear_2_586)"/>
<path opacity="0.3" d="M136.14 86.1291L113.422 130.128L115.048 126.137L126.382 98.3482L127.429 95.7738L132.394 83.604L136.14 86.1291Z" fill="white"/>
<path d="M169.662 84.6264C176.364 96.2296 174.097 110.087 164.586 115.568C155.087 121.05 141.942 116.086 135.24 104.483C128.538 92.8794 130.805 79.0219 140.316 73.5407C149.827 68.0592 162.96 73.0232 169.662 84.6264Z" fill="url(#paint13_linear_2_586)"/>
<path d="M162.516 88.753C166.434 95.54 165.104 103.633 159.548 106.835C153.991 110.038 146.316 107.143 142.398 100.356C138.48 93.5693 139.811 85.4765 145.367 82.2739C150.924 79.0714 158.599 81.9661 162.516 88.753Z" fill="url(#paint14_linear_2_586)"/>
<path d="M157.921 91.4013C160.052 95.0843 159.325 99.4939 156.307 101.231C153.289 102.968 149.112 101.391 146.981 97.708C144.85 94.025 145.576 89.6152 148.595 87.8786C151.626 86.1295 155.802 87.7184 157.921 91.4013Z" fill="url(#paint15_linear_2_586)"/>
<path d="M195.842 169.261C191.912 176.418 184.803 181.221 177.214 184.411C169.958 187.478 162.27 189.043 156.48 189.77C154.139 190.066 152.119 190.213 150.566 190.275C149.014 190.336 147.326 190.533 145.589 190.854C143.088 191.298 140.476 191.962 138.037 192.664C131.902 194.451 126.764 196.581 126.764 196.581C126.764 196.581 119.015 208.862 115.146 208.443C112.83 208.184 112.35 206.547 112.337 205.278C112.337 204.427 112.535 203.738 112.535 203.738L115.257 189.523L134.871 176.971L152.39 165.763L163.613 166.674L173.038 167.438L195.842 169.261Z" fill="url(#paint16_linear_2_586)"/>
<path d="M195.842 169.261C191.912 176.417 184.803 181.221 177.214 184.411C176.771 181.776 175.033 178.819 172.717 175.912C170.081 172.598 166.705 169.347 163.613 166.649C159.153 162.745 155.322 160.01 155.322 160.01L159.215 158.865L173.05 167.413L195.842 169.261Z" fill="url(#paint17_linear_2_586)"/>
<path d="M156.492 189.769C154.151 190.065 152.131 190.213 150.578 190.275C149.026 190.336 147.338 190.533 145.601 190.854C143.1 191.297 140.488 191.961 138.049 192.664C137.679 189.597 137.039 183.377 137.039 183.377L144.529 180.408C144.517 180.408 143.79 187.417 156.492 189.769Z" fill="url(#paint18_linear_2_586)"/>
<path d="M145.601 190.854C142.866 191.347 140.008 192.085 137.384 192.861C131.544 194.598 126.789 196.581 126.789 196.581C126.789 196.581 119.04 208.862 115.171 208.443C111.303 208.024 112.559 203.726 112.559 203.726L115.282 189.51L134.895 176.96L143.199 175.925L143.47 175.888L144.776 175.728L144.258 177.416L142.004 184.731C141.992 184.731 143.026 188.328 145.601 190.854Z" fill="url(#paint19_linear_2_586)"/>
<path d="M145.601 190.854C144.049 191.138 142.472 191.494 140.907 191.888C139.712 192.197 138.53 192.53 137.384 192.861C134.686 189.955 134.057 186.013 134.057 186.013L143.199 175.925L143.384 175.728L143.47 175.888L144.258 177.416L143.334 180.408L142.004 184.731C141.992 184.731 143.026 188.328 145.601 190.854Z" fill="url(#paint20_linear_2_586)"/>
<path d="M145.601 190.854C144.049 191.137 142.472 191.494 140.907 191.888C138.024 187.921 137.457 184.288 137.457 184.288C137.457 184.288 141.018 181.936 143.334 180.396L142.004 184.72C141.991 184.731 143.026 188.328 145.601 190.854Z" fill="url(#paint21_linear_2_586)"/>
<path d="M178.335 170.677C177.153 172.648 175.194 174.385 172.717 175.912C164.734 180.84 151.429 183.562 141.992 184.72C141.77 184.744 141.548 184.781 141.326 184.818C129.277 186.518 119.865 194.056 119.865 194.056C118.399 197.849 115.331 202.778 112.35 205.266C111.032 206.362 109.726 206.99 108.592 206.83C104.884 206.325 106.486 200.942 107.582 196.827C108.679 192.701 107.582 190.941 109.27 188.747C110.958 186.555 114.186 187.824 114.186 187.824C122.144 175.149 133.417 172.144 133.417 172.144L144.862 159.998C144.443 155.133 148.398 152.164 148.398 152.164L159.227 158.853L173.062 167.402L178.335 170.677Z" fill="url(#paint22_linear_2_586)"/>
<path d="M128.255 182.009C127.959 182.009 127.664 181.837 127.54 181.542C127.368 181.147 127.553 180.691 127.947 180.52C128.058 180.47 138.739 175.801 147.548 165.491C147.314 162.769 148.152 157.818 152.981 156.537C153.4 156.426 153.819 156.672 153.93 157.091C154.04 157.51 153.794 157.929 153.375 158.04C148.386 159.37 149.088 165.393 149.125 165.651C149.149 165.861 149.088 166.083 148.952 166.256C139.848 177.033 129.019 181.763 128.563 181.96C128.464 181.997 128.353 182.009 128.255 182.009Z" fill="url(#paint23_linear_2_586)"/>
<path d="M178.335 170.677C177.152 172.648 175.194 174.385 172.717 175.912C170.081 172.598 166.705 169.347 163.613 166.649C159.153 162.745 155.322 160.01 155.322 160.01L159.215 158.865L173.05 167.413L178.335 170.677Z" fill="url(#paint24_linear_2_586)"/>
<path d="M141.338 184.818C138.382 185.237 135.585 186 133.059 186.925C125.249 189.77 119.889 194.056 119.889 194.056C117.783 199.525 112.325 207.347 108.617 206.842C104.908 206.338 106.51 200.954 107.606 196.84C108.703 192.714 107.606 190.952 109.294 188.76C110.982 186.568 114.21 187.837 114.21 187.837C118.189 181.504 122.994 177.587 126.801 175.248C130.62 172.907 133.441 172.155 133.441 172.155C133.441 172.155 134.02 181.136 141.338 184.818Z" fill="url(#paint25_linear_2_586)"/>
<path d="M141.339 184.818C139.429 185.09 137.593 185.507 135.844 186.013C134.883 186.283 133.959 186.592 133.06 186.925C127.577 182.552 126.777 177.747 126.789 175.248C127.959 174.533 129.031 173.966 129.967 173.523C132.074 172.525 133.417 172.168 133.417 172.168C133.417 172.168 134.021 181.136 141.339 184.818Z" fill="url(#paint26_linear_2_586)"/>
<path d="M141.339 184.818C139.429 185.09 137.594 185.507 135.844 186.013C131.015 180.605 130.054 176.048 129.968 173.523C132.074 172.525 133.417 172.168 133.417 172.168C133.417 172.168 134.021 181.136 141.339 184.818Z" fill="url(#paint27_linear_2_586)"/>
<path d="M213.915 172.168C213.397 172.267 212.904 172.352 212.45 172.39C209.973 172.648 208.272 172.094 207.299 170.186C206.314 168.238 207.496 166.723 207.853 166.33C207.915 166.267 207.952 166.23 207.952 166.23L205.341 162.117L219.003 153.211L219.299 153.014C219.299 153.014 220.704 156.537 221.787 160.232C222.366 162.178 222.859 164.186 223.006 165.726C223.426 170.173 217.205 171.515 213.915 172.168Z" fill="url(#paint28_linear_2_586)"/>
<path d="M212.45 172.39C209.973 172.648 208.272 172.094 207.299 170.185C206.314 168.238 207.496 166.723 207.853 166.329C207.915 166.267 207.952 166.23 207.952 166.23L205.341 162.117L219.003 153.211C212.523 159.739 212.117 167.819 212.45 172.39Z" fill="url(#paint29_linear_2_586)"/>
<path d="M213.915 172.168C210.638 172.808 208.458 172.451 207.299 170.185C206.314 168.238 207.496 166.723 207.854 166.329C207.915 166.267 207.952 166.23 207.952 166.23C207.952 166.23 212.363 161.821 218.018 160.54C220.112 160.072 222.194 161.377 222.65 163.472C222.822 164.285 222.958 165.048 223.019 165.713C223.426 170.173 217.205 171.515 213.915 172.168Z" fill="url(#paint30_linear_2_586)"/>
<path d="M238.875 141.189L235.549 143.357L225.803 149.725L202.322 165.074C202.322 165.074 200.24 169.557 196.68 170.566C195.165 170.998 189.472 172.464 181.982 172.106C177.768 171.909 172.988 171.122 168.06 169.261H168.048C165.042 168.115 161.974 166.576 158.944 164.507C155.248 161.981 151.601 158.656 148.213 154.344C147.375 153.285 146.993 151.906 147.326 150.6C147.659 149.282 148.681 147.952 151.404 147.865L151.515 147.176L154.718 126.519L157.182 110.691C157.182 110.691 161.371 109.582 167.321 108.363C170.303 107.759 173.715 107.119 177.276 106.577C181.846 105.887 186.626 105.357 190.963 105.246C202.112 104.988 228.982 111.319 240.736 114.238C244.246 115.101 246.403 115.679 246.403 115.679C246.403 115.679 251.664 132.444 238.875 141.189Z" fill="url(#paint31_linear_2_586)"/>
<path d="M151.503 147.176L154.706 126.519L169.748 124.905C169.748 124.905 170.364 142.975 151.503 147.176Z" fill="url(#paint32_linear_2_586)"/>
<path d="M238.875 141.189L235.549 143.357C245.835 130.658 240.896 119.338 240.896 119.338L240.723 114.238C244.234 115.101 246.39 115.679 246.39 115.679C246.39 115.679 251.664 132.444 238.875 141.189Z" fill="url(#paint33_linear_2_586)"/>
<path d="M225.803 149.725L202.322 165.074C202.322 165.074 200.24 169.557 196.68 170.566C195.163 170.998 189.472 172.464 181.982 172.107C189.755 167.709 218.214 150.76 228.046 132.825L238.875 124.905C238.875 124.905 239.824 134.624 225.803 149.725Z" fill="url(#paint34_linear_2_586)"/>
<path d="M184.815 129.463C184.556 143.419 173.481 161.328 168.06 169.261H168.048L158.943 164.507C185.973 131.347 173.998 114.312 167.309 108.363C170.29 107.759 173.703 107.119 177.263 106.577C180.725 110.814 185.012 118.352 184.815 129.463Z" fill="url(#paint35_linear_2_586)"/>
<path d="M186.639 114.657C186.639 114.657 192.046 136.989 209.886 138.615C227.726 140.241 235.622 129.463 235.622 129.463L186.639 114.657Z" fill="url(#paint36_linear_2_586)"/>
<path d="M226.765 59.1417L214.272 65.7932C214.272 65.7932 211.155 65.5222 206.413 64.549C199.611 63.1572 189.497 60.3487 180.479 54.9044C176.352 52.4162 172.459 49.3737 169.218 45.6538C160.582 35.7505 159.498 24.2582 160.176 16.1531C160.237 15.4264 160.311 14.7366 160.397 14.0715C161.038 9.02124 162.258 5.73242 162.258 5.73242L175.452 16.6582L221.614 54.8921H221.627L226.765 59.1417Z" fill="url(#paint37_linear_2_586)"/>
<path d="M210.515 57.6879L206.413 64.5366C199.611 63.1447 189.497 60.3362 180.479 54.8919C176.352 52.4038 172.459 49.3612 169.218 45.6414C160.582 35.738 159.498 24.2457 160.176 16.1406C167.863 26.8199 189.041 53.697 210.515 57.6879Z" fill="url(#paint38_linear_2_586)"/>
<path d="M180.479 54.8917C176.352 52.4036 172.459 49.361 169.218 45.6412C153.966 28.1501 162.27 5.71973 162.27 5.71973L175.465 16.6455C173.555 21.2645 169.071 36.0826 180.479 54.8917Z" fill="url(#paint39_linear_2_586)"/>
<path opacity="0.6" d="M221.64 54.8917L160.41 14.0588C161.05 9.00853 162.27 5.71973 162.27 5.71973L175.465 16.6455L221.64 54.8917Z" fill="#FFCA83"/>
<path d="M247.35 83.6414C247.093 82.4342 246.81 81.2271 246.451 80.0446C243.36 69.4022 236.202 60.0038 220.974 57.9715C185.641 53.2537 180.429 84.4297 180.429 84.4297C180.429 84.4297 174.479 123.908 206.363 131.668C206.363 131.668 241.683 141.904 246.39 115.667C246.39 115.667 248.078 108.929 248.472 100.036C248.522 98.9767 248.546 97.8929 248.558 96.7719C248.582 92.5839 248.262 88.0756 247.35 83.6414Z" fill="url(#paint40_linear_2_586)"/>
<path d="M238.875 94.5302C238.813 108.646 235.08 122.688 231.84 132.222C226.938 133.712 221.59 133.836 217.082 133.491C218.621 129.759 219.989 126.162 220.826 123.243C224.202 111.516 225.754 101.835 226.062 93.8281C226.272 88.2974 225.902 83.5798 225.114 79.5397C222.427 65.7438 215.048 59.9792 210.526 57.6881C213.68 57.4417 217.155 57.5157 220.998 57.9715C223.082 58.2179 224.99 58.612 226.778 59.1293C232.702 65.3497 236.042 72.9374 237.656 80.9808C238.53 85.4029 238.899 89.9726 238.875 94.5302Z" fill="url(#paint41_linear_2_586)"/>
<path d="M248.558 96.7716C243.829 95.121 236.93 93.7415 227.147 93.8152C221.454 93.8522 214.778 94.382 206.992 95.6383C206.942 95.6383 206.906 95.6506 206.856 95.6629C204.995 95.9216 203.11 95.3797 201.682 94.1602C200.216 92.9162 199.378 91.0932 199.378 89.1716C199.378 86.4493 201.005 84.0597 203.53 83.0743C204.035 82.8773 204.552 82.6802 205.058 82.5077C211.894 80.0812 218.819 79.3791 225.053 79.5392C235.685 79.7978 244.346 82.5693 247.352 83.641C248.264 88.0752 248.584 92.5836 248.558 96.7716Z" fill="url(#paint42_linear_2_586)"/>
<path d="M248.558 96.7715C248.558 97.8925 248.522 98.9763 248.472 100.036C235.771 95.1826 217.438 97.0919 207.483 98.6931C204.675 99.1488 201.829 98.3482 199.661 96.5128C197.506 94.6775 196.274 92.0047 196.274 89.1715C196.274 85.1683 198.675 81.6331 202.395 80.1797C220.618 73.0355 239.158 77.6546 246.451 80.0442C246.797 81.2267 247.093 82.4338 247.35 83.641C242.461 81.8795 222.502 75.6221 203.53 83.0621C201.003 84.0474 199.378 86.4493 199.378 89.1592C199.378 91.0808 200.214 92.8915 201.682 94.1479C203.147 95.392 205.082 95.9339 206.99 95.6259C228.17 92.2263 241.08 94.1725 248.558 96.7715Z" fill="url(#paint43_linear_2_586)"/>
<path d="M248.558 96.7715C248.558 97.8925 248.522 98.9763 248.472 100.036C235.771 95.1826 217.438 97.0919 207.483 98.6931C204.675 99.1488 201.829 98.3482 199.661 96.5128C197.506 94.6775 196.274 92.0047 196.274 89.1715C196.274 85.1683 198.675 81.6331 202.395 80.1797C220.618 73.0355 239.158 77.6546 246.451 80.0442C246.797 81.2267 247.093 82.4338 247.35 83.641C242.461 81.8795 222.502 75.6221 203.53 83.0621C201.003 84.0474 199.378 86.4493 199.378 89.1592C199.378 91.0808 200.214 92.8915 201.682 94.1479C203.147 95.392 205.082 95.9339 206.99 95.6259C228.17 92.2263 241.08 94.1725 248.558 96.7715Z" fill="url(#paint44_linear_2_586)"/>
<path d="M211.155 80.7834C215.947 79.7488 220.666 79.4285 225.053 79.5394C225.717 83.8629 226.542 89.5659 227.147 93.8155C223.056 93.8402 218.448 94.1234 213.299 94.7517L211.155 80.7834ZM208.741 81.3624C207.509 81.6949 206.29 82.0645 205.058 82.4955L206.856 95.6507C206.906 95.6507 206.942 95.6384 206.99 95.6261C208.298 95.4168 209.566 95.232 210.822 95.0595L208.741 81.3624Z" fill="white"/>
<path d="M201.658 77.864C200.882 77.901 200.142 77.4452 199.858 76.6815C199.501 75.696 200.006 74.5752 201.005 74.1687C201.226 74.0701 206.573 71.89 213.57 70.8429C214.618 70.6828 215.566 71.4096 215.664 72.4565C215.776 73.5036 215.011 74.489 213.952 74.6492C207.459 75.6221 202.36 77.7039 202.31 77.7285C202.088 77.8024 201.867 77.8517 201.658 77.864Z" fill="url(#paint45_linear_2_586)"/>
<path d="M211.661 132.826C208.445 132.284 206.363 131.68 206.363 131.68C206.216 131.643 206.08 131.606 205.931 131.569C193.76 128.465 187.193 120.693 183.719 112.329C182.869 110.284 182.204 108.215 181.686 106.17C188.314 105.32 212.043 104.286 211.661 132.826Z" fill="url(#paint46_linear_2_586)"/>
<path d="M205.944 131.569C193.771 128.465 187.205 120.693 183.731 112.329C191.962 112.859 203.307 116.419 205.944 131.569Z" fill="url(#paint47_linear_2_586)"/>
<path d="M196.68 71.4712C196.68 78.985 191.32 89.652 180.011 90.7482C180.036 88.9375 180.134 87.4347 180.233 86.3509C180.344 85.1314 180.442 84.4416 180.442 84.4416C180.442 84.4416 181.576 75.4251 188.413 67.8375C189.029 67.1477 189.694 66.4826 190.41 65.8296C193.28 65.5834 196.68 66.3717 196.68 71.4712Z" fill="url(#paint48_linear_2_586)"/>
<path d="M193.44 72.0505C193.44 73.9721 192.922 76.1646 191.85 78.2587C189.879 82.1264 186.047 85.6123 180.232 86.339C160.052 90.9088 143.975 90.6872 131.199 87.6816C109.528 82.5821 97.3315 69.4269 90.6171 57.9592C89.496 56.0499 88.535 54.1901 87.6973 52.4286C83.8782 44.3237 82.8557 38.1401 82.8557 38.1401C89.5699 43.72 98.12 48.2653 107.434 51.9728C142.484 65.8917 188.413 67.8502 188.413 67.8502C190.754 67.7024 193.427 68.3553 193.44 72.0505Z" fill="url(#paint49_linear_2_586)"/>
<path d="M191.838 78.2707C189.866 82.1385 186.035 85.6243 180.22 86.351C160.04 90.9209 143.962 90.6991 131.187 87.6937C109.528 82.5819 97.3315 69.4267 90.6171 57.959C110.021 70.4737 149.334 90.071 191.838 78.2707Z" fill="url(#paint50_linear_2_586)"/>
<path d="M131.199 87.6812C89.4344 77.8394 82.8557 38.1274 82.8557 38.1274C89.5699 43.7073 98.12 48.2526 107.434 51.9601C108.58 58.2298 113.224 75.031 131.199 87.6812Z" fill="url(#paint51_linear_2_586)"/>
<path opacity="0.6" d="M188.413 67.8375C154.521 73.3804 116.957 65.7804 87.6973 52.4159C83.8782 44.3108 82.8557 38.1274 82.8557 38.1274C89.5699 43.7073 98.12 48.2526 107.434 51.9601C142.484 65.8913 188.413 67.8375 188.413 67.8375Z" fill="#FFCA83"/>
<path d="M142.595 117.884C142.595 117.884 152.747 105.517 163.908 112.317C175.07 119.116 172.323 134.698 157.662 138.602L142.595 117.884Z" fill="url(#paint52_linear_2_586)"/>
<path d="M124.14 134.575L142.595 117.884C144.665 116.012 147.289 114.891 150.073 114.682C154.471 114.362 158.722 116.369 161.26 119.991L161.642 120.533C164.561 124.708 164.66 130.239 161.888 134.526L161.839 134.612C160.533 136.632 158.66 138.233 156.455 139.231L136.127 148.37H127.86L122.304 138.135L124.14 134.575Z" fill="url(#paint53_linear_2_586)"/>
<path d="M149.199 135.523C154.064 135.523 158.008 131.58 158.008 126.716C158.008 121.852 154.064 117.909 149.199 117.909C144.334 117.909 140.39 121.852 140.39 126.716C140.39 131.58 144.334 135.523 149.199 135.523Z" fill="url(#paint54_linear_2_586)"/>
<path d="M149.198 132.85C152.587 132.85 155.334 130.104 155.334 126.716C155.334 123.328 152.587 120.582 149.198 120.582C145.81 120.582 143.063 123.328 143.063 126.716C143.063 130.104 145.81 132.85 149.198 132.85Z" fill="url(#paint55_linear_2_586)"/>
<path d="M148.151 127.405L146.599 126.186L148.866 122.713C149.309 122.047 150.221 121.9 150.837 122.392C151.465 122.885 151.527 123.809 150.985 124.388L148.151 127.405Z" fill="url(#paint56_linear_2_586)"/>
<path d="M148.533 127.825L149.642 129.45L153.264 127.443C153.954 127.049 154.176 126.149 153.732 125.497C153.289 124.831 152.365 124.708 151.749 125.201L148.533 127.825Z" fill="url(#paint57_linear_2_586)"/>
<path d="M143.999 125.46C143.605 125.829 143.297 126.248 143.063 126.691C143.063 128.231 143.63 129.771 144.776 130.966C145.921 132.16 147.449 132.789 148.989 132.838C149.408 132.641 149.79 132.382 150.147 132.062C151.97 130.362 152.069 127.517 150.381 125.694C148.681 123.871 145.823 123.76 143.999 125.46Z" fill="url(#paint58_linear_2_586)"/>
<path d="M146.451 127.159C146.205 127.381 145.872 127.418 145.7 127.233C145.527 127.048 145.589 126.716 145.835 126.494C146.082 126.272 146.414 126.235 146.587 126.42C146.759 126.605 146.698 126.937 146.451 127.159Z" fill="url(#paint59_linear_2_586)"/>
<path d="M149.211 130.128C148.965 130.349 148.632 130.386 148.46 130.202C148.287 130.017 148.349 129.684 148.595 129.463C148.841 129.241 149.174 129.204 149.347 129.389C149.507 129.573 149.457 129.894 149.211 130.128Z" fill="url(#paint60_linear_2_586)"/>
<path d="M136.139 148.358C136.139 148.358 133.922 150.785 129.696 153.186C127.405 154.48 124.534 155.773 121.109 156.66C119.273 157.14 117.844 157.732 116.736 158.397C115.577 159.087 114.752 159.85 114.185 160.614C112.189 163.312 113.249 166.07 113.249 166.07C113.249 166.07 118.239 169.939 116.44 174.089C115.898 175.334 115.06 176.368 114.148 177.217C113.384 177.933 112.571 178.512 111.844 178.955C110.489 179.792 108.851 180.075 107.274 179.768L106.3 179.571C104.945 179.312 103.713 178.622 102.789 177.613L101.434 176.147C98.5021 172.957 97.5658 168.398 99.0688 164.334C101.792 156.968 107.459 145.402 117.857 138.11C119.779 136.755 121.873 135.56 124.128 134.55C124.128 134.55 125.088 137.789 127.614 141.3C129.499 143.936 132.259 146.695 136.139 148.358Z" fill="url(#paint61_linear_2_586)"/>
<path d="M136.139 148.358C136.139 148.358 133.922 150.785 129.696 153.187C127.404 154.48 124.534 155.773 121.109 156.66C119.273 157.141 117.844 157.732 116.735 158.397C123.031 152.485 126.123 146.129 127.626 141.325C129.499 143.936 132.258 146.695 136.139 148.358Z" fill="url(#paint62_linear_2_586)"/>
<path d="M114.161 177.23C113.397 177.945 112.584 178.523 111.857 178.968C111.943 178.806 113.545 175.605 112.842 171.342C112.83 171.355 114.432 173.843 114.161 177.23Z" fill="url(#paint63_linear_2_586)"/>
<path d="M136.14 148.358C136.14 148.358 135.166 149.417 133.281 150.846C132.32 151.573 131.125 152.386 129.696 153.199C121.245 149.59 118.608 141.448 117.857 138.134C118.732 137.518 119.643 136.939 120.58 136.385C121.713 135.72 122.896 135.116 124.128 134.562C124.14 134.574 127.048 144.441 136.14 148.358Z" fill="url(#paint64_linear_2_586)"/>
<path d="M136.139 148.358C136.139 148.358 135.166 149.417 133.281 150.846C124.522 147.04 121.552 140.056 120.592 136.385C121.725 135.72 122.908 135.116 124.14 134.562C124.14 134.574 127.047 144.441 136.139 148.358Z" fill="url(#paint65_linear_2_586)"/>
<path d="M202.322 165.074C202.322 165.074 200.24 169.557 196.68 170.566C193.168 171.552 167.013 178.203 148.201 154.332C147.363 153.273 146.981 151.893 147.314 150.588C147.646 149.27 148.669 147.939 151.392 147.853C151.392 147.865 161.112 174.939 202.322 165.074Z" fill="url(#paint66_linear_2_586)"/>
<path d="M195.842 144.379C195.842 144.379 196.064 140.672 197.75 139.736C199.438 138.8 201.04 140.807 200.363 142.199C200.363 142.199 203.418 137.666 206.091 140.734C208.494 143.505 204.243 146.326 204.243 146.326C204.243 146.326 206.77 146.067 207.237 147.816C207.718 149.565 204.12 151.979 201.608 151.006L195.842 144.379Z" fill="url(#paint67_linear_2_586)"/>
<path d="M197.566 145.316C197.517 145.279 197.48 145.205 197.504 145.143L198.33 142.088C198.355 142.015 198.429 141.978 198.502 142.002C198.576 142.027 198.626 142.113 198.602 142.187L197.776 145.242C197.75 145.316 197.677 145.353 197.603 145.328C197.59 145.328 197.579 145.316 197.566 145.316Z" fill="white"/>
<path d="M199.574 146.584C199.562 146.572 199.562 146.572 199.55 146.56C199.488 146.498 199.488 146.412 199.55 146.35L203.776 142.335C203.824 142.286 203.923 142.286 203.973 142.347C204.034 142.409 204.034 142.495 203.973 142.557L199.747 146.572C199.698 146.621 199.624 146.621 199.574 146.584Z" fill="white"/>
<path d="M201.102 149.356C201.078 149.331 201.053 149.306 201.04 149.282C201.016 149.208 201.053 149.122 201.126 149.109L204.243 148.259C204.318 148.235 204.405 148.284 204.429 148.358C204.453 148.432 204.416 148.518 204.342 148.53L201.226 149.38C201.176 149.393 201.126 149.38 201.102 149.356Z" fill="white"/>
<path d="M197.32 156.783C197.011 156.956 196.717 157.128 196.408 157.288C192.712 159.222 188.511 160.097 186.774 158.089C185.715 156.87 185.838 154.911 186.639 152.792C186.774 152.435 186.922 152.09 187.082 151.746C188.043 149.701 189.546 147.619 191.184 146.006C191.43 145.759 191.677 145.525 191.936 145.303C192.146 145.119 192.355 144.946 192.565 144.774C196.717 141.497 200.659 146.03 200.659 146.03C200.659 146.03 204.602 150.563 200.77 154.209C199.821 155.133 198.613 156.02 197.32 156.783Z" fill="url(#paint68_linear_2_586)"/>
<path d="M195.669 150.316L195.595 150.39C195.411 150.55 195.09 150.513 194.906 150.304L191.184 146.03C191.43 145.783 191.677 145.549 191.936 145.328L195.682 149.639C195.866 149.836 195.866 150.144 195.669 150.316Z" fill="url(#paint69_linear_2_586)"/>
<path d="M197.32 156.783C197.011 156.955 196.717 157.128 196.408 157.288L193.427 153.864C193.242 153.642 193.242 153.334 193.438 153.174L193.514 153.112C193.71 152.94 194.018 152.989 194.203 153.199L197.32 156.783Z" fill="url(#paint70_linear_2_586)"/>
<path d="M190.2 156.044L190.125 156.105C189.928 156.278 189.62 156.229 189.436 156.019L186.627 152.792C186.762 152.435 186.91 152.09 187.07 151.745L190.2 155.342C190.397 155.576 190.397 155.884 190.2 156.044Z" fill="url(#paint71_linear_2_586)"/>
<path d="M98.465 98.9517L102.802 112.255L106.325 107.821L109.861 118.623L108.358 99.5922L105.315 103.694L103.652 92.522L98.465 98.9517Z" fill="url(#paint72_linear_2_586)"/>
<path d="M66.4085 163.805L80.219 161.55L76.3754 157.387L87.5987 155.551L68.5522 154.123L72.1496 157.756L60.8522 157.695L66.4085 163.805Z" fill="url(#paint73_linear_2_586)"/>
<path d="M53.0293 120.434L84.0016 134.094L82.8682 128.527L93.4139 132.776L77.8786 121.678L79.0613 126.655L51.44 112.329L53.0293 120.434Z" fill="url(#paint74_linear_2_586)"/>
</g>
<defs>
<linearGradient id="paint0_linear_2_586" x1="129.292" y1="60.3981" x2="133.188" y2="263.781" gradientUnits="userSpaceOnUse">
<stop stop-color="#1481B4"/>
<stop offset="0.5" stop-color="#1B9CC9" stop-opacity="0.5"/>
<stop offset="1" stop-color="#36C3C9" stop-opacity="0"/>
</linearGradient>
<linearGradient id="paint1_linear_2_586" x1="130.853" y1="106.743" x2="85.5002" y2="253.909" gradientUnits="userSpaceOnUse">
<stop stop-color="#1481B4"/>
<stop offset="0.5" stop-color="#1B9CC9" stop-opacity="0.5"/>
<stop offset="1" stop-color="#36C3C9" stop-opacity="0"/>
</linearGradient>
<linearGradient id="paint2_linear_2_586" x1="98.7725" y1="221.269" x2="176.143" y2="101.938" gradientUnits="userSpaceOnUse">
<stop stop-color="#03192E"/>
<stop offset="0.5" stop-color="#223C6A"/>
<stop offset="1" stop-color="#4A74A2"/>
</linearGradient>
<linearGradient id="paint3_linear_2_586" x1="121.717" y1="219.263" x2="160.513" y2="131.339" gradientUnits="userSpaceOnUse">
<stop stop-color="#03192E"/>
<stop offset="0.5" stop-color="#223C6A"/>
<stop offset="1" stop-color="#4A74A2"/>
</linearGradient>
<linearGradient id="paint4_linear_2_586" x1="135.924" y1="159.759" x2="165.526" y2="99.4227" gradientUnits="userSpaceOnUse">
<stop stop-color="#1481B4"/>
<stop offset="0.5" stop-color="#1B9CC9"/>
<stop offset="1" stop-color="#36C3C9"/>
</linearGradient>
<linearGradient id="paint5_linear_2_586" x1="159.941" y1="136.123" x2="178.947" y2="97.7682" gradientUnits="userSpaceOnUse">
<stop stop-color="#386E9F"/>
<stop offset="1" stop-color="white"/>
</linearGradient>
<linearGradient id="paint6_linear_2_586" x1="186.281" y1="115.95" x2="171.257" y2="56.7386" gradientUnits="userSpaceOnUse">
<stop stop-color="#03192E"/>
<stop offset="0.5" stop-color="#223C6A"/>
<stop offset="1" stop-color="#4A74A2"/>
</linearGradient>
<linearGradient id="paint7_linear_2_586" x1="202.832" y1="140.829" x2="162.466" y2="55.8205" gradientUnits="userSpaceOnUse">
<stop stop-color="#03192E"/>
<stop offset="0.5" stop-color="#223C6A"/>
<stop offset="1" stop-color="#4A74A2"/>
</linearGradient>
<linearGradient id="paint8_linear_2_586" x1="194.904" y1="129.897" x2="178.589" y2="88.8515" gradientUnits="userSpaceOnUse">
<stop stop-color="#03192E"/>
<stop offset="0.5" stop-color="#223C6A"/>
<stop offset="1" stop-color="#4A74A2"/>
</linearGradient>
<linearGradient id="paint9_linear_2_586" x1="70.381" y1="221.269" x2="147.752" y2="101.938" gradientUnits="userSpaceOnUse">
<stop stop-color="#03192E"/>
<stop offset="0.5" stop-color="#223C6A"/>
<stop offset="1" stop-color="#4A74A2"/>
</linearGradient>
<linearGradient id="paint10_linear_2_586" x1="93.3256" y1="219.263" x2="132.121" y2="131.339" gradientUnits="userSpaceOnUse">
<stop stop-color="#03192E"/>
<stop offset="0.5" stop-color="#223C6A"/>
<stop offset="1" stop-color="#4A74A2"/>
</linearGradient>
<linearGradient id="paint11_linear_2_586" x1="107.533" y1="159.759" x2="137.135" y2="99.4227" gradientUnits="userSpaceOnUse">
<stop stop-color="#1481B4"/>
<stop offset="0.5" stop-color="#1B9CC9"/>
<stop offset="1" stop-color="#36C3C9"/>
</linearGradient>
<linearGradient id="paint12_linear_2_586" x1="131.549" y1="136.123" x2="150.555" y2="97.7682" gradientUnits="userSpaceOnUse">
<stop stop-color="#386E9F"/>
<stop offset="1" stop-color="white"/>
</linearGradient>
<linearGradient id="paint13_linear_2_586" x1="157.89" y1="115.95" x2="142.866" y2="56.7386" gradientUnits="userSpaceOnUse">
<stop stop-color="#03192E"/>
<stop offset="0.5" stop-color="#223C6A"/>
<stop offset="1" stop-color="#4A74A2"/>
</linearGradient>
<linearGradient id="paint14_linear_2_586" x1="174.441" y1="140.829" x2="134.075" y2="55.8205" gradientUnits="userSpaceOnUse">
<stop stop-color="#03192E"/>
<stop offset="0.5" stop-color="#223C6A"/>
<stop offset="1" stop-color="#4A74A2"/>
</linearGradient>
<linearGradient id="paint15_linear_2_586" x1="166.512" y1="129.897" x2="150.198" y2="88.8515" gradientUnits="userSpaceOnUse">
<stop stop-color="#03192E"/>
<stop offset="0.5" stop-color="#223C6A"/>
<stop offset="1" stop-color="#4A74A2"/>
</linearGradient>
<linearGradient id="paint16_linear_2_586" x1="137.615" y1="202.085" x2="191.946" y2="134.287" gradientUnits="userSpaceOnUse">
<stop stop-color="#386E9F"/>
<stop offset="1" stop-color="white"/>
</linearGradient>
<linearGradient id="paint17_linear_2_586" x1="174.891" y1="193.825" x2="176.237" y2="137.306" gradientUnits="userSpaceOnUse">
<stop stop-color="#386E9F"/>
<stop offset="1" stop-color="white"/>
</linearGradient>
<linearGradient id="paint18_linear_2_586" x1="146.615" y1="192.045" x2="147.736" y2="150.553" gradientUnits="userSpaceOnUse">
<stop stop-color="#386E9F"/>
<stop offset="1" stop-color="white"/>
</linearGradient>
<linearGradient id="paint19_linear_2_586" x1="146.047" y1="175.123" x2="91.6583" y2="227.616" gradientUnits="userSpaceOnUse">
<stop stop-color="#03192E"/>
<stop offset="0.5" stop-color="#223C6A"/>
<stop offset="1" stop-color="#4A74A2"/>
</linearGradient>
<linearGradient id="paint20_linear_2_586" x1="148.754" y1="215.277" x2="138.326" y2="178.942" gradientUnits="userSpaceOnUse">
<stop stop-color="#03192E"/>
<stop offset="0.5" stop-color="#223C6A"/>
<stop offset="1" stop-color="#4A74A2"/>
</linearGradient>
<linearGradient id="paint21_linear_2_586" x1="134.214" y1="162.758" x2="145.538" y2="198.98" gradientUnits="userSpaceOnUse">
<stop stop-color="#FF2A64"/>
<stop offset="1" stop-color="#FFAF48"/>
</linearGradient>
<linearGradient id="paint22_linear_2_586" x1="91.9216" y1="221.448" x2="211.306" y2="121.843" gradientUnits="userSpaceOnUse">
<stop stop-color="#386E9F"/>
<stop offset="1" stop-color="white"/>
</linearGradient>
<linearGradient id="paint23_linear_2_586" x1="92.3683" y1="215.393" x2="160.831" y2="151.965" gradientUnits="userSpaceOnUse">
<stop stop-color="#386E9F"/>
<stop offset="1" stop-color="white"/>
</linearGradient>
<linearGradient id="paint24_linear_2_586" x1="163.276" y1="190.568" x2="168.826" y2="151.206" gradientUnits="userSpaceOnUse">
<stop stop-color="#386E9F"/>
<stop offset="1" stop-color="white"/>
</linearGradient>
<linearGradient id="paint25_linear_2_586" x1="131.538" y1="181.718" x2="65.5973" y2="234.773" gradientUnits="userSpaceOnUse">
<stop stop-color="#03192E"/>
<stop offset="0.5" stop-color="#223C6A"/>
<stop offset="1" stop-color="#4A74A2"/>
</linearGradient>
<linearGradient id="paint26_linear_2_586" x1="145.581" y1="209.373" x2="125.062" y2="159.356" gradientUnits="userSpaceOnUse">
<stop stop-color="#03192E"/>
<stop offset="0.5" stop-color="#223C6A"/>
<stop offset="1" stop-color="#4A74A2"/>
</linearGradient>
<linearGradient id="paint27_linear_2_586" x1="140.46" y1="212.683" x2="134.293" y2="170.07" gradientUnits="userSpaceOnUse">
<stop stop-color="#FF2A64"/>
<stop offset="1" stop-color="#FFAF48"/>
</linearGradient>
<linearGradient id="paint28_linear_2_586" x1="211.976" y1="155.435" x2="222.179" y2="194.685" gradientUnits="userSpaceOnUse">
<stop stop-color="#03192E"/>
<stop offset="0.5" stop-color="#223C6A"/>
<stop offset="1" stop-color="#4A74A2"/>
</linearGradient>
<linearGradient id="paint29_linear_2_586" x1="216.307" y1="177.446" x2="207.899" y2="137.187" gradientUnits="userSpaceOnUse">
<stop stop-color="#03192E"/>
<stop offset="0.5" stop-color="#223C6A"/>
<stop offset="1" stop-color="#4A74A2"/>
</linearGradient>
<linearGradient id="paint30_linear_2_586" x1="218.094" y1="198.347" x2="214.17" y2="159.434" gradientUnits="userSpaceOnUse">
<stop stop-color="#03192E"/>
<stop offset="0.5" stop-color="#223C6A"/>
<stop offset="1" stop-color="#4A74A2"/>
</linearGradient>
<linearGradient id="paint31_linear_2_586" x1="142.467" y1="216.626" x2="259.869" y2="28.2105" gradientUnits="userSpaceOnUse">
<stop stop-color="#386E9F"/>
<stop offset="1" stop-color="white"/>
</linearGradient>
<linearGradient id="paint32_linear_2_586" x1="160.825" y1="159.183" x2="160.152" y2="80.6846" gradientUnits="userSpaceOnUse">
<stop stop-color="#386E9F"/>
<stop offset="1" stop-color="white"/>
</linearGradient>
<linearGradient id="paint33_linear_2_586" x1="244.021" y1="183.154" x2="239.536" y2="93.8904" gradientUnits="userSpaceOnUse">
<stop stop-color="#FF2A64"/>
<stop offset="1" stop-color="#FFAF48"/>
</linearGradient>
<linearGradient id="paint34_linear_2_586" x1="165.865" y1="266.08" x2="226.413" y2="108.627" gradientUnits="userSpaceOnUse">
<stop stop-color="#03192E"/>
<stop offset="0.5" stop-color="#223C6A"/>
<stop offset="1" stop-color="#4A74A2"/>
</linearGradient>
<linearGradient id="paint35_linear_2_586" x1="126.484" y1="250.936" x2="187.031" y2="93.4834" gradientUnits="userSpaceOnUse">
<stop stop-color="#03192E"/>
<stop offset="0.5" stop-color="#223C6A"/>
<stop offset="1" stop-color="#4A74A2"/>
</linearGradient>
<linearGradient id="paint36_linear_2_586" x1="204.754" y1="187.43" x2="211.706" y2="116.108" gradientUnits="userSpaceOnUse">
<stop stop-color="#FF2A64"/>
<stop offset="1" stop-color="#FFAF48"/>
</linearGradient>
<linearGradient id="paint37_linear_2_586" x1="251.805" y1="130.554" x2="169.386" y2="11.11" gradientUnits="userSpaceOnUse">
<stop stop-color="#FF2A64"/>
<stop offset="1" stop-color="#FFAF48"/>
</linearGradient>
<linearGradient id="paint38_linear_2_586" x1="261.95" y1="136.839" x2="147.234" y2="1.24033" gradientUnits="userSpaceOnUse">
<stop stop-color="#FF2A64"/>
<stop offset="1" stop-color="#FFAF48"/>
</linearGradient>
<linearGradient id="paint39_linear_2_586" x1="181.812" y1="98.4993" x2="160.621" y2="-19.2496" gradientUnits="userSpaceOnUse">
<stop stop-color="#FF2A64"/>
<stop offset="1" stop-color="#FFAF48"/>
</linearGradient>
<linearGradient id="paint40_linear_2_586" x1="208.904" y1="154.991" x2="219.331" y2="37.5799" gradientUnits="userSpaceOnUse">
<stop stop-color="#03192E"/>
<stop offset="0.5" stop-color="#223C6A"/>
<stop offset="1" stop-color="#4A74A2"/>
</linearGradient>
<linearGradient id="paint41_linear_2_586" x1="212.818" y1="188.867" x2="227.954" y2="47.9064" gradientUnits="userSpaceOnUse">
<stop stop-color="#03192E"/>
<stop offset="0.5" stop-color="#223C6A"/>
<stop offset="1" stop-color="#4A74A2"/>
</linearGradient>
<linearGradient id="paint42_linear_2_586" x1="270.61" y1="52.0892" x2="175.735" y2="132.175" gradientUnits="userSpaceOnUse">
<stop stop-color="white"/>
<stop offset="1" stop-color="#B5E0F7"/>
</linearGradient>
<linearGradient id="paint43_linear_2_586" x1="223.541" y1="104.154" x2="218.158" y2="49.5413" gradientUnits="userSpaceOnUse">
<stop/>
<stop offset="1" stop-color="white"/>
</linearGradient>
<linearGradient id="paint44_linear_2_586" x1="184.246" y1="184.128" x2="236.384" y2="60.3184" gradientUnits="userSpaceOnUse">
<stop stop-color="#FF2A64"/>
<stop offset="1" stop-color="#FFAF48"/>
</linearGradient>
<linearGradient id="paint45_linear_2_586" x1="207.702" y1="79.8461" x2="207.702" y2="60.5128" gradientUnits="userSpaceOnUse">
<stop stop-color="#03192E"/>
<stop offset="0.5" stop-color="#223C6A"/>
<stop offset="1" stop-color="#4A74A2"/>
</linearGradient>
<linearGradient id="paint46_linear_2_586" x1="202.253" y1="195.863" x2="192.586" y2="61.3086" gradientUnits="userSpaceOnUse">
<stop stop-color="#03192E"/>
<stop offset="0.5" stop-color="#223C6A"/>
<stop offset="1" stop-color="#4A74A2"/>
</linearGradient>
<linearGradient id="paint47_linear_2_586" x1="201.814" y1="115.107" x2="163.126" y2="153.017" gradientUnits="userSpaceOnUse">
<stop stop-color="#03192E"/>
<stop offset="0.5" stop-color="#223C6A"/>
<stop offset="1" stop-color="#4A74A2"/>
</linearGradient>
<linearGradient id="paint48_linear_2_586" x1="208.501" y1="133.828" x2="160.736" y2="6.99178" gradientUnits="userSpaceOnUse">
<stop stop-color="#386E9F"/>
<stop offset="1" stop-color="white"/>
</linearGradient>
<linearGradient id="paint49_linear_2_586" x1="284.378" y1="169.557" x2="89.2421" y2="29.2349" gradientUnits="userSpaceOnUse">
<stop stop-color="#FF2A64"/>
<stop offset="1" stop-color="#FFAF48"/>
</linearGradient>
<linearGradient id="paint50_linear_2_586" x1="177.565" y1="135.978" x2="132.137" y2="51.1035" gradientUnits="userSpaceOnUse">
<stop stop-color="#FF2A64"/>
<stop offset="1" stop-color="#FFAF48"/>
</linearGradient>
<linearGradient id="paint51_linear_2_586" x1="144.368" y1="163.011" x2="76.4202" y2="-17.3186" gradientUnits="userSpaceOnUse">
<stop stop-color="#FF2A64"/>
<stop offset="1" stop-color="#FFAF48"/>
</linearGradient>
<linearGradient id="paint52_linear_2_586" x1="160.022" y1="187.374" x2="155.538" y2="98.1106" gradientUnits="userSpaceOnUse">
<stop stop-color="#FF2A64"/>
<stop offset="1" stop-color="#FFAF48"/>
</linearGradient>
<linearGradient id="paint53_linear_2_586" x1="117.998" y1="157.873" x2="180.573" y2="100.221" gradientUnits="userSpaceOnUse">
<stop stop-color="#03192E"/>
<stop offset="0.5" stop-color="#223C6A"/>
<stop offset="1" stop-color="#4A74A2"/>
</linearGradient>
<linearGradient id="paint54_linear_2_586" x1="120.535" y1="154.302" x2="151.888" y2="124.119" gradientUnits="userSpaceOnUse">
<stop stop-color="#03192E"/>
<stop offset="0.5" stop-color="#223C6A"/>
<stop offset="1" stop-color="#4A74A2"/>
</linearGradient>
<linearGradient id="paint55_linear_2_586" x1="143.157" y1="132.553" x2="163.006" y2="113.373" gradientUnits="userSpaceOnUse">
<stop stop-color="#03192E"/>
<stop offset="0.5" stop-color="#223C6A"/>
<stop offset="1" stop-color="#4A74A2"/>
</linearGradient>
<linearGradient id="paint56_linear_2_586" x1="156.228" y1="118.253" x2="138.565" y2="133.774" gradientUnits="userSpaceOnUse">
<stop stop-color="white"/>
<stop offset="1" stop-color="#B5E0F7"/>
</linearGradient>
<linearGradient id="paint57_linear_2_586" x1="158.57" y1="120.92" x2="140.908" y2="136.44" gradientUnits="userSpaceOnUse">
<stop stop-color="white"/>
<stop offset="1" stop-color="#B5E0F7"/>
</linearGradient>
<linearGradient id="paint58_linear_2_586" x1="157.451" y1="119.646" x2="139.789" y2="135.167" gradientUnits="userSpaceOnUse">
<stop stop-color="white"/>
<stop offset="1" stop-color="#B5E0F7"/>
</linearGradient>
<linearGradient id="paint59_linear_2_586" x1="141.924" y1="131.274" x2="149.27" y2="123.535" gradientUnits="userSpaceOnUse">
<stop stop-color="#03192E"/>
<stop offset="0.5" stop-color="#223C6A"/>
<stop offset="1" stop-color="#4A74A2"/>
</linearGradient>
<linearGradient id="paint60_linear_2_586" x1="144.855" y1="134.056" x2="152.2" y2="126.317" gradientUnits="userSpaceOnUse">
<stop stop-color="#03192E"/>
<stop offset="0.5" stop-color="#223C6A"/>
<stop offset="1" stop-color="#4A74A2"/>
</linearGradient>
<linearGradient id="paint61_linear_2_586" x1="117.248" y1="202.173" x2="117.248" y2="77.7743" gradientUnits="userSpaceOnUse">
<stop stop-color="#03192E"/>
<stop offset="0.5" stop-color="#223C6A"/>
<stop offset="1" stop-color="#4A74A2"/>
</linearGradient>
<linearGradient id="paint62_linear_2_586" x1="126.16" y1="163.728" x2="127.337" y2="119.321" gradientUnits="userSpaceOnUse">
<stop stop-color="#03192E"/>
<stop offset="0.5" stop-color="#223C6A"/>
<stop offset="1" stop-color="#4A74A2"/>
</linearGradient>
<linearGradient id="paint63_linear_2_586" x1="113.919" y1="181.953" x2="107.36" y2="147.47" gradientUnits="userSpaceOnUse">
<stop stop-color="#03192E"/>
<stop offset="0.5" stop-color="#223C6A"/>
<stop offset="1" stop-color="#4A74A2"/>
</linearGradient>
<linearGradient id="paint64_linear_2_586" x1="135.103" y1="157.41" x2="111.779" y2="120.4" gradientUnits="userSpaceOnUse">
<stop stop-color="#386E9F"/>
<stop offset="1" stop-color="white"/>
</linearGradient>
<linearGradient id="paint65_linear_2_586" x1="144.803" y1="169.093" x2="122.489" y2="134.102" gradientUnits="userSpaceOnUse">
<stop stop-color="#FF2A64"/>
<stop offset="1" stop-color="#FFAF48"/>
</linearGradient>
<linearGradient id="paint66_linear_2_586" x1="175.001" y1="210.056" x2="174.665" y2="138.904" gradientUnits="userSpaceOnUse">
<stop stop-color="#FF2A64"/>
<stop offset="1" stop-color="#FFAF48"/>
</linearGradient>
<linearGradient id="paint67_linear_2_586" x1="189.748" y1="156.692" x2="206.738" y2="140.205" gradientUnits="userSpaceOnUse">
<stop stop-color="#03192E"/>
<stop offset="0.5" stop-color="#223C6A"/>
<stop offset="1" stop-color="#4A74A2"/>
</linearGradient>
<linearGradient id="paint68_linear_2_586" x1="157.136" y1="195.354" x2="201.878" y2="143.2" gradientUnits="userSpaceOnUse">
<stop stop-color="#FF2A64"/>
<stop offset="1" stop-color="#FFAF48"/>
</linearGradient>
<linearGradient id="paint69_linear_2_586" x1="162.958" y1="177.216" x2="213.926" y2="128.594" gradientUnits="userSpaceOnUse">
<stop stop-color="#FF2A64"/>
<stop offset="1" stop-color="#FFAF48"/>
</linearGradient>
<linearGradient id="paint70_linear_2_586" x1="167.294" y1="181.761" x2="218.262" y2="133.139" gradientUnits="userSpaceOnUse">
<stop stop-color="#FF2A64"/>
<stop offset="1" stop-color="#FFAF48"/>
</linearGradient>
<linearGradient id="paint71_linear_2_586" x1="163.548" y1="177.835" x2="214.517" y2="129.212" gradientUnits="userSpaceOnUse">
<stop stop-color="#FF2A64"/>
<stop offset="1" stop-color="#FFAF48"/>
</linearGradient>
<linearGradient id="paint72_linear_2_586" x1="112.656" y1="129.155" x2="95.9179" y2="75.0025" gradientUnits="userSpaceOnUse">
<stop stop-color="#1481B4"/>
<stop offset="0.5" stop-color="#1B9CC9" stop-opacity="0.5"/>
<stop offset="1" stop-color="#36C3C9" stop-opacity="0"/>
</linearGradient>
<linearGradient id="paint73_linear_2_586" x1="98.4496" y1="154.399" x2="42.3663" y2="162.678" gradientUnits="userSpaceOnUse">
<stop stop-color="#1481B4"/>
<stop offset="0.5" stop-color="#1B9CC9" stop-opacity="0.5"/>
<stop offset="1" stop-color="#36C3C9" stop-opacity="0"/>
</linearGradient>
<linearGradient id="paint74_linear_2_586" x1="110.756" y1="140.455" x2="19.7972" y2="102.085" gradientUnits="userSpaceOnUse">
<stop stop-color="#1481B4"/>
<stop offset="0.5" stop-color="#1B9CC9" stop-opacity="0.5"/>
<stop offset="1" stop-color="#36C3C9" stop-opacity="0"/>
</linearGradient>
<clipPath id="clip0_2_586">
<rect width="300" height="240" fill="white" transform="translate(0 0.919922)"/>
</clipPath>
</defs>
</svg>
