<svg width="158" height="46" viewBox="0 0 158 46" fill="none" xmlns="http://www.w3.org/2000/svg">
<g clip-path="url(#clip0_2_1241)">
<g clip-path="url(#clip1_2_1241)">
<path fill-rule="evenodd" clip-rule="evenodd" d="M130.866 32.3972C130.31 32.4459 129.868 32.8872 129.82 33.4437C129.736 34.0612 130.071 34.4903 130.605 34.4903C131.157 34.4336 131.595 33.9966 131.651 33.4437C131.724 33.1949 131.675 32.926 131.518 32.7195C131.361 32.513 131.115 32.3933 130.856 32.3972H130.866ZM138.569 26.4216C137.409 26.3958 136.323 26.9849 135.712 27.9705L135.921 26.5054H134.131L132.991 34.3856H134.78L135.345 30.5135C135.402 29.2917 136.374 28.311 137.595 28.2426C138.642 28.2426 139.134 28.9228 138.977 30.0216L138.349 34.3856H140.149L140.86 29.467C141.133 27.5937 140.264 26.4216 138.569 26.4216ZM146.114 26.4216C143.855 26.4612 141.99 28.1997 141.792 30.4507C141.457 32.8158 142.713 34.4379 145.005 34.4379C146.238 34.4515 147.423 33.9644 148.291 33.0879L147.485 32.0414C146.925 32.5914 146.176 32.906 145.392 32.9205C144.905 32.9469 144.429 32.7687 144.079 32.4289C143.729 32.089 143.538 31.6185 143.55 31.131H148.981C149.578 28.2635 148.72 26.453 146.135 26.453L146.114 26.4216ZM143.676 29.8123C143.892 28.7363 144.818 27.9489 145.915 27.9077C146.418 27.8564 146.914 28.0552 147.242 28.4396C147.57 28.824 147.688 29.3449 147.558 29.8333L143.676 29.8123ZM153.963 32.4914C153.641 32.6725 153.284 32.7831 152.916 32.8158C152.435 32.8158 152.184 32.5647 152.288 31.7693L152.801 28.2112H154.894L155.093 26.8193H153L153.314 24.6426H151.545L151.231 26.8193H150.185L149.997 28.2112H151.043L150.488 32.1042C150.248 33.7263 151.106 34.4693 152.309 34.4693C152.991 34.4523 153.656 34.2536 154.235 33.8937L153.963 32.4914Z" fill="url(#paint0_linear_2_1241)"/>
<path fill-rule="evenodd" clip-rule="evenodd" d="M46.6953 23.9422C47.2592 23.9379 47.77 24.2743 47.9887 24.7941C48.2074 25.3138 48.0909 25.9142 47.6937 26.3144C47.2965 26.7147 46.697 26.8357 46.1756 26.6209C45.6542 26.4061 45.3139 25.8979 45.3139 25.334C45.3139 24.5694 45.9307 23.9479 46.6953 23.9422ZM60.5198 20.0805C61.6972 19.1822 63.1309 18.6835 64.6116 18.6573C66.3658 18.632 68.0436 19.3734 69.2058 20.6875C70.5508 22.4025 71.075 24.6217 70.6395 26.7573C70.2861 30.3981 67.8275 33.492 64.3605 34.6584C63.6555 34.8573 62.9267 34.9594 62.1942 34.9619C60.5738 35.0366 59.0286 34.2738 58.1023 32.9422L57.914 34.2817C57.8893 34.4074 57.7804 34.4989 57.6523 34.5015H54.4186C54.3512 34.5057 54.2856 34.4787 54.2407 34.4282C54.2151 34.368 54.2151 34.3 54.2407 34.2398L55.3605 26.5166H51.1744C50.5237 26.5109 49.9975 25.9848 49.9919 25.334C49.9788 24.7022 50.4607 24.1698 51.0907 24.1201H60.1116C59.4838 24.8894 59.0785 25.8159 58.9395 26.7991C58.6151 29.0491 59.7349 31.1526 62.1733 31.1526C64.5995 31.0377 66.5804 29.1723 66.8407 26.7573C67.1546 24.5491 65.8884 22.4561 63.5442 22.4561H53.257C52.6022 22.4504 52.0744 21.9179 52.0744 21.2631C52.0801 20.6123 52.6062 20.0862 53.257 20.0805H56.2395L57.0872 14.1573C57.1118 14.0316 57.2208 13.94 57.3488 13.9375H60.6977C60.7607 13.94 60.8205 13.9662 60.8651 14.0108C60.8907 14.0709 60.8907 14.1389 60.8651 14.1991L60.0174 20.0805H60.5198ZM80.9895 33.141C79.8874 34.3613 78.2999 35.0285 76.657 34.9619C72.5337 34.9619 71.4244 31.9375 71.9372 28.3584L73.2558 19.348C73.2797 19.2202 73.3877 19.1252 73.5174 19.1177H76.814C76.8795 19.1193 76.9408 19.15 76.9814 19.2015C77.0065 19.2581 77.0065 19.3227 76.9814 19.3794L75.8093 27.4898C75.5372 29.4154 75.8093 31.1526 78.0593 31.1422C80.3093 31.1317 81.1988 29.5933 81.5442 27.5631L82.7267 19.348C82.7506 19.2202 82.8586 19.1252 82.9884 19.1177H86.3058C86.3713 19.1193 86.4327 19.15 86.4733 19.2015C86.4983 19.2581 86.4983 19.3227 86.4733 19.3794L84.3802 34.2817C84.3556 34.4074 84.2467 34.4989 84.1186 34.5015H80.9791C80.9117 34.5057 80.8461 34.4787 80.8012 34.4282C80.7579 34.3756 80.7388 34.3072 80.7488 34.2398L80.9058 33.141H80.9895ZM92.3546 20.4677C93.4598 19.2654 95.034 18.6043 96.6663 18.6573C100.758 18.6573 101.899 21.6712 101.355 25.2922L100.057 34.2817C100.041 34.408 99.9331 34.5024 99.8058 34.5015H96.4884C96.424 34.5057 96.3615 34.4783 96.3209 34.4282C96.2734 34.3779 96.2538 34.3074 96.2686 34.2398L97.4302 26.2131C97.7023 24.3189 97.5035 22.5189 95.2116 22.5294C92.9198 22.5398 92.0721 24.1096 91.7581 26.1084L90.5651 34.334C90.5451 34.4581 90.4396 34.5504 90.314 34.5538H86.9965C86.9294 34.5565 86.8644 34.5297 86.8186 34.4805C86.7917 34.4206 86.7917 34.3521 86.8186 34.2922L88.9116 19.4003C88.9318 19.2704 89.0419 19.1736 89.1733 19.1701H92.3128C92.3791 19.1683 92.4419 19.1997 92.4802 19.2538C92.5277 19.2998 92.5475 19.3673 92.5326 19.4317L92.3756 20.4782L92.3546 20.4677ZM107.937 20.4677C109.042 19.2654 110.617 18.6043 112.249 18.6573C116.341 18.6573 117.481 21.6712 116.937 25.2922L115.64 34.2817C115.619 34.4058 115.514 34.498 115.388 34.5015H112.071C112.007 34.5057 111.944 34.4783 111.903 34.4282C111.856 34.3779 111.836 34.3074 111.851 34.2398L113.023 26.2131C113.295 24.3189 113.097 22.5189 110.805 22.5294C108.513 22.5398 107.665 24.1096 107.341 26.1084L106.158 34.334C106.138 34.4581 106.033 34.5504 105.907 34.5538H102.558C102.491 34.5565 102.426 34.5297 102.38 34.4805C102.353 34.4206 102.353 34.3521 102.38 34.2922L104.473 19.4003C104.493 19.2741 104.597 19.1784 104.724 19.1701H107.864C107.93 19.1683 107.993 19.1997 108.031 19.2538C108.074 19.3025 108.093 19.3676 108.084 19.4317L107.927 20.4782L107.937 20.4677ZM120.914 33.6747L117.774 19.4317C117.739 19.3664 117.739 19.2877 117.774 19.2224C117.821 19.1581 117.894 19.1194 117.973 19.1177H121.51C121.617 19.1158 121.71 19.1908 121.73 19.2956L123.562 28.5154L128.02 19.2747C128.058 19.1807 128.149 19.1188 128.25 19.1177H131.86C131.94 19.1172 132.013 19.1618 132.049 19.2328C132.09 19.3041 132.09 19.3918 132.049 19.4631L121.814 39.5666C121.773 39.6565 121.683 39.7138 121.584 39.7132H118.036C117.956 39.7163 117.881 39.6709 117.848 39.598C117.807 39.5267 117.807 39.439 117.848 39.3677L120.914 33.6747Z" fill="#183D6D"/>
<path fill-rule="evenodd" clip-rule="evenodd" d="M21.9768 7.21841L32.3058 12.8277L22.7616 0.0498047C21.219 2.12004 20.9186 4.86341 21.9768 7.21841Z" fill="url(#paint1_linear_2_1241)"/>
<path fill-rule="evenodd" clip-rule="evenodd" d="M17.3093 28.0234C18.607 28.0235 19.66 29.0735 19.6639 30.3712C19.6677 31.6689 18.6208 32.725 17.3231 32.7327C16.0255 32.7404 14.9662 31.6967 14.9547 30.399C14.9491 29.7709 15.1947 29.1666 15.6369 28.7205C16.0791 28.2744 16.6812 28.0234 17.3093 28.0234Z" fill="url(#paint2_linear_2_1241)"/>
<path fill-rule="evenodd" clip-rule="evenodd" d="M10.1198 1.92285L39.0454 17.6205C39.528 17.8553 39.8343 18.3449 39.8343 18.8816C39.8343 19.4183 39.528 19.9079 39.0454 20.1426C36.8577 21.459 34.4618 22.3933 31.9605 22.9054L25.943 35.2542C25.943 35.2542 24.0384 39.5868 18.7954 37.9229C20.993 35.7252 23.6512 33.7368 23.6512 30.3566C23.6512 26.8483 20.8071 24.0042 17.2988 24.0042C13.7906 24.0042 10.9465 26.8483 10.9465 30.3566C10.9465 34.7729 15.3 36.6356 17.7174 39.7019C18.8062 41.2432 18.662 43.3373 17.3721 44.7147C14.3686 41.7426 8.56047 36.7298 6.17443 33.4438C4.86993 31.7871 4.15217 29.7442 4.13373 27.6356C4.36849 23.0393 7.45586 19.0817 11.857 17.7356C13.1747 17.3518 14.5462 17.1857 15.9174 17.2438C17.8294 17.3886 19.6866 17.9494 21.3593 18.8868C23.9233 20.3938 25.1686 19.9961 26.9372 18.5101C27.9837 17.6519 29.1244 14.8577 27.3558 14.2089C26.7776 14.0202 26.1865 13.8733 25.5872 13.7694C22.3012 13.131 16.5558 12.524 14.4419 11.3205C11.0826 9.4682 8.8221 5.64843 10.1198 1.92285Z" fill="url(#paint3_linear_2_1241)"/>
<path fill-rule="evenodd" clip-rule="evenodd" d="M23.5988 30.3884C24.9384 23.3454 17.7907 16.6268 12.307 17.6314L12.6733 17.5477C12.3802 17.6105 12.0977 17.6837 11.8256 17.7674C7.42446 19.1135 4.33709 23.0711 4.10233 27.6674C4.13568 29.7822 4.87207 31.8257 6.19535 33.4756C8.5814 36.7616 14.3895 41.7744 17.393 44.7465C18.6829 43.3692 18.8272 41.275 17.7384 39.7337C15.2686 36.6779 10.9151 34.8047 10.9151 30.3988C10.9151 26.8906 13.7591 24.0465 17.2674 24.0465C20.7757 24.0465 23.6198 26.8906 23.6198 30.3988L23.5988 30.3884Z" fill="url(#paint4_linear_2_1241)"/>
<path fill-rule="evenodd" clip-rule="evenodd" d="M10.1198 1.92285L32.0965 13.8949L32.7244 14.2403C33.2477 14.6484 33.7709 15.4647 33.0907 16.9717C32.0442 19.2217 27.8581 21.3984 23.0337 19.6926C24.5407 20.1322 25.5663 19.6298 26.8849 18.5205C27.9314 17.6624 29.0721 14.8682 27.3035 14.2194C26.7252 14.0307 26.1342 13.8838 25.5349 13.7798C22.2488 13.1415 16.5035 12.5345 14.3895 11.331C11.0826 9.4682 8.8221 5.64843 10.1198 1.92285Z" fill="url(#paint5_linear_2_1241)"/>
<path fill-rule="evenodd" clip-rule="evenodd" d="M10.1198 1.92285C12.3907 10.2949 26.2151 10.9856 33.143 14.481L10.1198 1.92285Z" fill="url(#paint6_linear_2_1241)"/>
<path fill-rule="evenodd" clip-rule="evenodd" d="M17.686 39.7331C15.2686 36.6773 10.9151 34.804 10.9151 30.3982C10.9275 27.2028 13.3116 24.5139 16.4826 24.1191C11.4324 24.1364 7.3428 28.226 7.32556 33.2761C7.32443 33.8949 7.38756 34.5122 7.51395 35.118C9.51279 37.3784 12.4012 40.047 14.8395 42.3075C15.7919 43.1971 16.6709 44.0343 17.393 44.7459C17.9939 44.0497 18.3601 43.1818 18.4395 42.2657C18.4967 41.3588 18.2296 40.4612 17.686 39.7331Z" fill="url(#paint7_linear_2_1241)"/>
<path fill-rule="evenodd" clip-rule="evenodd" d="M23.5674 31.1418C23.6005 30.892 23.618 30.6403 23.6198 30.3883C24.9384 23.3453 17.7907 16.6267 12.307 17.6313C13.4779 17.3484 14.6823 17.2286 15.886 17.2755C23.0756 17.5686 25.0849 25.2499 23.5674 31.1418Z" fill="url(#paint8_linear_2_1241)"/>
<path fill-rule="evenodd" clip-rule="evenodd" d="M2.36512 15.5801C3.67302 15.5858 4.73023 16.6477 4.73023 17.9557V20.3208H2.36512C1.0589 20.3208 0 19.2619 0 17.9557C0 16.6477 1.05721 15.5858 2.36512 15.5801Z" fill="url(#paint9_linear_2_1241)"/>
</g>
</g>
<defs>
<linearGradient id="paint0_linear_2_1241" x1="874.109" y1="470.916" x2="1825.45" y2="1112.32" gradientUnits="userSpaceOnUse">
<stop stop-color="#FEBE2D"/>
<stop offset="1" stop-color="#F85E23"/>
</linearGradient>
<linearGradient id="paint1_linear_2_1241" x1="-350.434" y1="639.468" x2="1704.92" y2="639.468" gradientUnits="userSpaceOnUse">
<stop stop-color="#FBAA19"/>
<stop offset="1" stop-color="#EF3E23"/>
</linearGradient>
<linearGradient id="paint2_linear_2_1241" x1="169.848" y1="483.26" x2="331.013" y2="42.6754" gradientUnits="userSpaceOnUse">
<stop stop-color="#F78D1E"/>
<stop offset="1" stop-color="#F37121"/>
</linearGradient>
<linearGradient id="paint3_linear_2_1241" x1="518.323" y1="3218.9" x2="2668.38" y2="914.3" gradientUnits="userSpaceOnUse">
<stop stop-color="#FEBE2D"/>
<stop offset="1" stop-color="#F04E23"/>
</linearGradient>
<linearGradient id="paint4_linear_2_1241" x1="1377.98" y1="104.988" x2="189.021" y2="1935.12" gradientUnits="userSpaceOnUse">
<stop stop-color="#EA4425"/>
<stop offset="1" stop-color="#FDBB27"/>
</linearGradient>
<linearGradient id="paint5_linear_2_1241" x1="-939.925" y1="920.76" x2="3434.49" y2="920.76" gradientUnits="userSpaceOnUse">
<stop stop-color="#F47920"/>
<stop offset="1" stop-color="#E93825"/>
</linearGradient>
<linearGradient id="paint6_linear_2_1241" x1="-3287.44" y1="628.783" x2="5613.14" y2="628.783" gradientUnits="userSpaceOnUse">
<stop stop-color="#FDCA0B"/>
<stop offset="1" stop-color="#F5841F"/>
</linearGradient>
<linearGradient id="paint7_linear_2_1241" x1="448.596" y1="-491.811" x2="1324.87" y2="2564.75" gradientUnits="userSpaceOnUse">
<stop stop-color="#E73C25"/>
<stop offset="1" stop-color="#FAA21B"/>
</linearGradient>
<linearGradient id="paint8_linear_2_1241" x1="-6594.32" y1="711.047" x2="6617.89" y2="711.047" gradientUnits="userSpaceOnUse">
<stop stop-color="#FDBA12"/>
<stop offset="1" stop-color="#F7921E"/>
</linearGradient>
<linearGradient id="paint9_linear_2_1241" x1="9.37822" y1="212.324" x2="502.262" y2="299.855" gradientUnits="userSpaceOnUse">
<stop stop-color="#FEBE2D"/>
<stop offset="1" stop-color="#F04E23"/>
</linearGradient>
<clipPath id="clip0_2_1241">
<rect width="158" height="45" fill="white" transform="translate(0 0.0498047)"/>
</clipPath>
<clipPath id="clip1_2_1241">
<rect width="155.93" height="45" fill="white" transform="translate(0 0.0498047)"/>
</clipPath>
</defs>
</svg>
