<svg width="300" height="241" viewBox="0 0 300 241" fill="none" xmlns="http://www.w3.org/2000/svg">
<g clip-path="url(#clip0_2_1017)">
<g clip-path="url(#clip1_2_1017)">
<path d="M212.039 106.058C212.039 106.058 228.198 106.586 232.258 117.311V127.939H208.395L212.039 106.058Z" fill="url(#paint0_linear_2_1017)"/>
<path d="M229.957 240.67H147.163L147.626 231.24L147.914 225.326L148.905 205.203L149.337 196.444L163.194 130.832L162.731 116.671L162.555 111.428V111.349L185.411 101.135L212.023 106.026C217.586 106.41 221.07 109.383 223.132 112.164C224.794 114.401 225.721 117.103 225.817 119.9L228.262 191.409L229.621 231.224L229.957 240.67Z" fill="url(#paint1_linear_2_1017)"/>
<path d="M229.957 240.67H147.163L147.626 231.24L147.914 225.326C196.983 223.728 218.784 205.283 228.262 191.425L229.621 231.24L229.957 240.67Z" fill="url(#paint2_linear_2_1017)"/>
<path d="M253.452 194.287L250.479 202.95C249.76 205.043 248.29 206.721 246.436 207.745C245.54 208.24 244.566 208.576 243.526 208.72C243.111 208.783 242.696 208.815 242.264 208.815H205.007C204.048 208.815 203.105 208.656 202.225 208.352C199.732 207.505 197.686 205.539 196.791 202.95L193.818 194.287H253.452Z" fill="url(#paint3_linear_2_1017)"/>
<path d="M205.134 195.613V208.815H205.007C204.048 208.815 203.105 208.655 202.225 208.351V195.613H205.134ZM210.489 195.613V208.815H213.398V195.613H210.489ZM218.752 195.613V208.815H221.661V195.613H218.752ZM227.016 195.613V208.815H229.925V195.613H227.016ZM235.263 195.613V208.815H238.172V195.613H235.263ZM243.526 195.613V208.719C244.565 208.575 245.54 208.24 246.435 207.744V195.613H243.526Z" fill="url(#paint4_linear_2_1017)"/>
<path d="M262.211 125.111V187.382C262.211 192.848 257.784 197.275 252.317 197.275H194.953C189.487 197.275 185.059 192.848 185.059 187.382V125.111C185.059 119.644 189.487 115.217 194.953 115.217H252.317C257.784 115.217 262.211 119.644 262.211 125.111Z" fill="url(#paint5_linear_2_1017)"/>
<path d="M262.211 139.847H208.395V165.293H262.211V139.847Z" fill="url(#paint6_linear_2_1017)"/>
<path d="M208.395 197.291H194.969C189.503 197.291 185.075 192.864 185.075 187.398V125.111C185.075 119.644 189.503 115.217 194.969 115.217H198.501C203.968 115.217 208.395 119.644 208.395 125.111V197.291Z" fill="url(#paint7_linear_2_1017)"/>
<path d="M195.145 169.528H171.17C169.795 169.528 168.693 168.425 168.693 167.051V154.935C168.693 153.561 169.795 152.458 171.17 152.458H195.145C196.519 152.458 197.622 153.561 197.622 154.935V167.051C197.622 168.425 196.519 169.528 195.145 169.528Z" fill="url(#paint8_linear_2_1017)"/>
<path d="M191.597 165.293H170.323C169.428 165.293 168.708 164.573 168.708 163.678V158.324C168.708 157.429 169.428 156.709 170.323 156.709H191.597C192.492 156.709 193.211 157.429 193.211 158.324V163.678C193.211 164.557 192.492 165.293 191.597 165.293Z" fill="url(#paint9_linear_2_1017)"/>
<path d="M196.727 131.759C199.755 131.759 202.209 129.305 202.209 126.277C202.209 123.249 199.755 120.795 196.727 120.795C193.699 120.795 191.245 123.249 191.245 126.277C191.245 129.305 193.699 131.759 196.727 131.759Z" fill="url(#paint10_linear_2_1017)"/>
<path d="M235.295 172.933C247.394 172.933 257.192 163.135 257.192 151.035C257.192 138.936 247.394 129.138 235.295 129.138C223.196 129.138 213.398 138.952 213.398 151.035C213.398 163.119 223.212 172.933 235.295 172.933Z" fill="url(#paint11_linear_2_1017)"/>
<path d="M235.295 166.667C243.942 166.667 250.943 159.666 250.943 151.019C250.943 142.372 243.942 135.372 235.295 135.372C226.648 135.372 219.647 142.372 219.647 151.019C219.663 159.666 226.664 166.667 235.295 166.667Z" fill="url(#paint12_linear_2_1017)"/>
<path d="M242.839 137.306C242.184 138.888 241.64 140.726 241.832 142.181C242.248 145.521 240.378 146.256 240.825 147.519C241.273 148.782 244.214 152.554 244.214 154.136C244.214 155.718 243.207 156.438 244.214 157.365C245.221 158.244 244.709 160.13 244.709 160.13C244.709 160.13 247.97 158.979 247.97 156.438C247.97 153.944 246.707 151.675 247.97 151.595C248.577 151.563 249.776 152.17 250.815 152.794C250.895 152.186 250.927 151.563 250.927 150.955C250.943 145.105 247.682 139.991 242.839 137.306Z" fill="url(#paint13_linear_2_1017)"/>
<path d="M232.642 151.019C232.53 149.948 228.406 147.791 228.342 146.784C228.23 145.777 225.002 146.208 225.114 145.201C225.146 144.546 223.084 143.859 221.613 143.475C220.382 145.713 219.695 148.286 219.695 151.003C219.695 158.851 225.465 165.34 232.993 166.459C232.258 165.037 231.379 163.262 231.379 163.039C231.379 162.655 233.153 162.463 231.763 159.426C230.388 156.406 232.77 152.106 232.642 151.019Z" fill="url(#paint14_linear_2_1017)"/>
<path d="M234.959 143.795C234.959 141.366 232.993 139.368 230.532 139.368C228.102 139.368 226.105 141.334 226.105 143.795C226.105 144.914 226.52 145.905 227.176 146.672L230.244 150.204C230.404 150.364 230.628 150.364 230.74 150.204L233.808 146.672C234.576 145.905 234.959 144.914 234.959 143.795ZM230.58 141.877C231.651 141.877 232.498 142.756 232.498 143.795C232.498 144.866 231.619 145.713 230.58 145.713C229.509 145.713 228.662 144.834 228.662 143.795C228.614 142.724 229.493 141.877 230.58 141.877Z" fill="#FDFEFF"/>
<path d="M250.943 188.261H219.424C218.465 188.261 217.681 187.477 217.681 186.518C217.681 185.559 218.465 184.776 219.424 184.776H250.943C251.902 184.776 252.685 185.559 252.685 186.518C252.685 187.477 251.902 188.261 250.943 188.261Z" fill="url(#paint15_linear_2_1017)"/>
<path d="M250.943 181.18H219.423C218.464 181.18 217.681 180.397 217.681 179.438C217.681 178.479 218.464 177.695 219.423 177.695H250.943C251.902 177.695 252.685 178.479 252.685 179.438C252.685 180.397 251.902 181.18 250.943 181.18Z" fill="url(#paint16_linear_2_1017)"/>
<path d="M171.809 168.729C168.677 176.177 163.21 187.749 156.146 197.115C154.196 199.705 152.118 202.134 149.928 204.244C149.592 204.564 149.257 204.883 148.905 205.203C143.407 210.222 137.285 213.243 130.748 212.236C128.878 211.948 127.056 211.485 125.298 210.893C107.109 204.739 95.2811 183.961 95.2811 183.961C95.2811 183.961 101.483 172.581 109.091 164.27C111.28 161.872 113.598 159.73 115.9 158.18L127.456 169.896C127.456 169.896 133.961 154.184 140.961 139.847C141.841 138.025 142.736 136.235 143.631 134.509C147.227 127.492 150.743 121.387 153.38 118.51C157.185 114.354 159.95 112.1 162.555 111.461C164.857 110.885 167.03 111.557 169.652 113.283C170.659 113.938 171.729 114.753 172.912 115.712C191.421 130.689 173.743 164.158 171.809 168.729Z" fill="url(#paint17_linear_2_1017)"/>
<path opacity="0.2" d="M149.928 204.244C144.174 209.822 137.701 213.291 130.764 212.22C109.522 208.943 95.297 183.945 95.297 183.945C95.297 183.945 101.515 172.565 109.107 164.254C113.902 169.145 119.128 175.97 122.788 184.888C129.486 201.223 141.936 204.34 149.928 204.244Z" fill="url(#paint18_linear_2_1017)"/>
<path d="M103.608 187.174C104.862 187.174 105.878 186.158 105.878 184.904C105.878 183.651 104.862 182.635 103.608 182.635C102.355 182.635 101.339 183.651 101.339 184.904C101.339 186.158 102.355 187.174 103.608 187.174Z" fill="url(#paint19_linear_2_1017)"/>
<path d="M108.275 192.56C109.423 192.56 110.353 191.63 110.353 190.482C110.353 189.335 109.423 188.404 108.275 188.404C107.128 188.404 106.198 189.335 106.198 190.482C106.198 191.63 107.128 192.56 108.275 192.56Z" fill="url(#paint20_linear_2_1017)"/>
<path d="M232.546 38.992C229.637 40.4466 178.394 53.361 178.394 53.361L172.624 46.552L198.629 33.0623L247.442 7.74463C247.442 7.74463 248.066 9.95033 248.194 13.2749C248.481 20.1956 246.611 31.9594 232.546 38.992Z" fill="url(#paint21_linear_2_1017)"/>
<path opacity="0.5" d="M225.002 41.2617C229.094 40.1428 231.939 39.2958 232.562 38.992C253.388 28.5869 247.458 7.74463 247.458 7.74463L237.373 12.9712C238.556 18.0379 239.643 30.6648 225.002 41.2617Z" fill="#F15A24"/>
<path d="M269.786 23.8398C269.786 23.8398 269.196 26.8607 266.766 31.1922C262.195 39.3277 251.103 52.0824 225.114 58.2039C225.114 58.2039 212.295 61.1768 202.306 55.7105C202.306 55.7105 206.061 64.1497 217.777 64.4535C217.777 64.4535 215.284 74.2993 204.335 76.7927C204.335 76.7927 209.434 76.377 213.398 74.9226C213.398 74.9226 211 83.4577 203.089 85.2319L204.255 90.8099L206.525 101.679L186.722 104.332L167.174 106.953L168.261 100.336L169.236 94.3743C169.236 94.3743 150.28 96.0365 141.537 83.2338C141.537 83.2338 141.345 82.8823 141.105 82.259C140.61 80.9164 139.971 78.375 140.993 75.7697C141.265 75.0984 141.633 74.411 142.16 73.7558C145.597 69.3763 150.695 68.7529 155.075 61.3686C158.239 56.0143 163.034 50.564 172.624 46.5362C176.285 45.0018 180.648 43.6592 185.891 42.6202C199.237 39.9829 235.359 31.7355 255.578 27.1004C264.097 25.1505 269.786 23.8398 269.786 23.8398Z" fill="url(#paint22_linear_2_1017)"/>
<path opacity="0.5" d="M206.509 101.679L186.722 104.332C181.303 102.318 176.301 100.416 176.301 100.416C191.964 99.0737 200.611 93.7033 204.24 90.7944L206.509 101.679Z" fill="#F15A24"/>
<path opacity="0.5" d="M269.786 23.8398C269.786 23.8398 264.944 48.8378 225.114 58.2039C245.524 51.1553 253.34 33.6216 255.594 27.1165C264.097 25.1505 269.786 23.8398 269.786 23.8398Z" fill="#F15A24"/>
<path d="M162.571 111.365C162.571 111.365 188.496 102.83 212.039 106.058C212.039 106.058 213.462 97.9391 197.287 97.4915C181.959 97.0599 169.891 101.311 167.11 103.501C162.219 107.305 162.571 111.365 162.571 111.365Z" fill="url(#paint23_linear_2_1017)"/>
<path opacity="0.5" d="M181.319 92.3765C181.319 92.3765 177.739 98.6258 168.261 100.352L169.236 94.3904C169.236 94.3904 176.732 93.5592 181.319 92.3765Z" fill="#F15A24"/>
<path d="M169.124 68.9768C171.41 68.9768 173.264 67.1233 173.264 64.837C173.264 62.5508 171.41 60.6973 169.124 60.6973C166.838 60.6973 164.984 62.5508 164.984 64.837C164.984 67.1233 166.838 68.9768 169.124 68.9768Z" fill="url(#paint24_linear_2_1017)"/>
<path d="M167.414 64.5977C168.005 64.5977 168.485 64.1182 168.485 63.5268C168.485 62.9356 168.005 62.4561 167.414 62.4561C166.823 62.4561 166.343 62.9356 166.343 63.5268C166.343 64.1182 166.823 64.5977 167.414 64.5977Z" fill="white"/>
<path d="M165.672 60.0425C165.304 60.0425 164.952 59.8826 164.713 59.579C164.313 59.0516 164.409 58.3002 164.936 57.9008C165.176 57.7248 170.85 53.4414 177.308 56.7179C177.899 57.0216 178.139 57.7409 177.835 58.3323C177.531 58.9236 176.812 59.1633 176.221 58.8598C171.138 56.2863 166.599 59.6589 166.407 59.8027C166.183 59.9626 165.927 60.0425 165.672 60.0425Z" fill="#F87C38"/>
<path d="M149.672 80.517L147.323 82.8666C146.811 83.378 146.124 83.6657 145.405 83.6657H143.631C142.911 83.6657 142.224 83.378 141.713 82.8666L141.121 82.2751C140.626 80.9325 139.986 78.3912 141.009 75.786C141.137 75.77 141.265 75.7539 141.393 75.7539H147.642C148.409 75.7539 149.161 76.0416 149.704 76.5851C150.759 77.704 150.743 79.4461 149.672 80.517Z" fill="#F87C38"/>
<path d="M153.972 88.0452C153.812 88.0452 153.716 88.0452 153.7 88.0452C153.524 88.0292 153.38 87.8853 153.397 87.7096C153.412 87.5339 153.556 87.4058 153.732 87.4058C153.78 87.4058 159.151 87.6298 162.651 83.7137C162.763 83.5859 162.97 83.5698 163.098 83.6818C163.226 83.7938 163.242 84.0014 163.13 84.1294C159.838 87.8055 155.171 88.0452 153.972 88.0452Z" fill="#F87C38"/>
<path opacity="0.5" d="M269.786 23.8398C269.786 23.8398 269.196 26.8607 266.766 31.1922L172.624 46.5521C176.285 45.0177 180.648 43.6751 185.891 42.6362C199.237 39.999 235.359 31.7516 255.578 27.1165C264.097 25.1505 269.786 23.8398 269.786 23.8398Z" fill="#FFCA83"/>
<path opacity="0.5" d="M248.21 13.2749L198.629 33.0623L247.442 7.74463C247.442 7.74463 248.082 9.95033 248.21 13.2749Z" fill="#FFCA83"/>
<path d="M152.262 95.3174C152.198 95.9407 152.661 96.4843 153.269 96.5483C154.275 96.6442 155.234 96.7079 156.178 96.7401C162.043 96.9638 166.695 96.1486 169.731 95.3495C172.976 94.5022 175.501 92.0729 176.476 88.8763L177.004 87.1501L178.474 82.3709C178.666 81.7797 178.331 81.1563 177.723 80.9645C177.276 80.8365 176.828 80.9803 176.54 81.3002L174.75 86.8302L174.686 87.0381L174.335 88.205C173.583 90.6504 171.649 92.5044 169.156 93.1596C165.816 94.0388 160.381 94.9499 153.476 94.2946C152.869 94.2467 152.326 94.694 152.262 95.3174Z" fill="url(#paint25_linear_2_1017)"/>
<path d="M156.273 97.5391C157.76 97.6031 159.246 97.6189 160.701 97.6031C161.74 97.587 162.571 96.74 162.555 95.7009C162.539 94.6621 161.692 93.8309 160.653 93.8469C157.712 93.8788 154.707 93.751 151.718 93.4633C150.679 93.3674 149.768 94.1186 149.672 95.1576C149.576 96.1965 150.327 97.1075 151.367 97.2034C152.997 97.3633 154.643 97.4751 156.273 97.5391Z" fill="url(#paint26_linear_2_1017)"/>
<path d="M174.702 87.0381L179.817 87.246C181.223 87.2939 182.502 86.4788 183.045 85.1841L184.532 81.6516L176.796 80.6128L176.572 81.3002L174.782 86.8302L174.702 87.0381Z" fill="url(#paint27_linear_2_1017)"/>
<path d="M188.416 72.0296L197.782 46.9199L196.184 46.8559C195.145 46.8079 194.17 47.3673 193.675 48.2783L180.776 72.2054L188.416 72.0296Z" fill="url(#paint28_linear_2_1017)"/>
<path d="M174.495 81.62L184.068 82.0036C185.603 82.0676 186.993 81.1244 187.505 79.6859L189.758 73.4524L190.686 70.8953L182.806 70.5915C180.201 70.4956 177.835 72.094 176.972 74.5553L174.495 81.62Z" fill="url(#paint29_linear_2_1017)"/>
<path d="M177.355 81.7315L184.052 82.0032C185.587 82.0672 186.977 81.124 187.489 79.6855L187.745 78.9823L188.176 77.7836L188.464 76.9684L188.895 75.7697L189.727 73.4681L184.916 73.2763C182.214 73.1643 179.753 74.8426 178.858 77.4L177.355 81.7315Z" fill="url(#paint30_linear_2_1017)"/>
<path d="M182.326 76.1054C182.31 76.4411 182.582 76.7288 182.918 76.7448L188.496 76.9685L188.927 75.7698L182.966 75.53C182.63 75.514 182.342 75.7698 182.326 76.1054Z" fill="#5BA8D3"/>
<path d="M182.246 78.1513C182.23 78.4869 182.502 78.7746 182.838 78.7907L187.761 78.9825L188.192 77.7838L182.886 77.5759C182.55 77.5601 182.262 77.8156 182.246 78.1513Z" fill="#5BA8D3"/>
<path d="M103.928 149.485L98.5736 155.447L90.1824 164.797C90.1824 164.797 84.2524 158.548 75.4936 157.189C73.4478 156.87 71.7056 156.214 70.2352 155.399C66.9106 153.545 64.9765 150.844 64.0976 149.341C63.9058 149.022 63.7619 148.67 63.666 148.318C63.5701 147.967 63.5222 147.583 63.5222 147.216C63.5222 144.898 65.3922 143.028 67.7097 143.028H89.479C94.6096 143.028 99.5166 145.058 103.145 148.686L103.928 149.485Z" fill="url(#paint31_linear_2_1017)"/>
<path opacity="0.5" d="M98.5897 155.447L90.1984 164.797C90.1984 164.797 84.2685 158.548 75.5097 157.189C73.4639 156.87 71.7216 156.214 70.2512 155.399C73.4318 153.273 83.9808 147.12 98.5897 155.447Z" fill="#F15A24"/>
<path d="M155.394 164.062C162.748 164.062 168.708 158.101 168.708 150.748C168.708 143.394 162.748 137.434 155.394 137.434C148.041 137.434 142.08 143.394 142.08 150.748C142.08 158.101 148.041 164.062 155.394 164.062Z" fill="url(#paint32_linear_2_1017)"/>
<path d="M229.957 240.67H147.147L147.626 231.24H229.621L229.957 240.67Z" fill="url(#paint33_linear_2_1017)"/>
<path opacity="0.4" d="M127.471 169.896L133.993 177.2L130.908 161.84L127.471 169.896Z" fill="url(#paint34_linear_2_1017)"/>
<path d="M156.401 147.264L151.574 145.569L154.211 135.1C154.723 133.086 156.849 131.951 158.799 132.639C160.749 133.326 161.708 135.532 160.861 137.418L156.401 147.264Z" fill="url(#paint35_linear_2_1017)"/>
<path d="M157.712 147.951L161.819 151.02L169.028 142.996C170.402 141.445 170.163 139.048 168.517 137.817C166.854 136.571 164.489 137.018 163.402 138.776L157.712 147.951Z" fill="url(#paint36_linear_2_1017)"/>
<path d="M155.394 159.57C160.267 159.57 164.217 155.62 164.217 150.748C164.217 145.875 160.267 141.925 155.394 141.925C150.522 141.925 146.572 145.875 146.572 150.748C146.572 155.62 150.522 159.57 155.394 159.57Z" fill="url(#paint37_linear_2_1017)"/>
<path d="M151.984 150.589C152.292 150.012 152.193 149.36 151.765 149.132C151.336 148.904 150.74 149.186 150.433 149.762C150.126 150.339 150.224 150.991 150.653 151.22C151.081 151.448 151.677 151.166 151.984 150.589Z" fill="#223C6A"/>
<path d="M158.981 154.313C159.288 153.736 159.19 153.084 158.761 152.855C158.333 152.627 157.737 152.91 157.43 153.486C157.122 154.063 157.221 154.715 157.649 154.943C158.078 155.172 158.674 154.889 158.981 154.313Z" fill="#223C6A"/>
<path d="M115.915 158.18L110.289 165.5L96.6235 183.258C94.9774 185.384 91.7806 185.448 90.0704 183.37L83.7571 175.73C82.4624 174.163 82.4785 171.878 83.805 170.327L97.1831 154.68L101.882 149.181C103.592 147.184 106.693 147.199 108.387 149.213L115.915 158.18Z" fill="url(#paint38_linear_2_1017)"/>
<path opacity="0.3" d="M110.273 165.501L96.6077 183.258C94.9613 185.384 91.7647 185.448 90.0546 183.37L83.741 175.73C82.4464 174.163 82.4624 171.878 83.789 170.327L97.167 154.68C98.3178 155.351 104.088 158.836 110.273 165.501Z" fill="url(#paint39_linear_2_1017)"/>
<path d="M156.146 197.116C154.196 199.705 152.118 202.134 149.928 204.244C144.174 209.822 137.701 213.291 130.764 212.22C128.894 211.932 127.072 211.469 125.314 210.877C127.583 205.97 136.246 191.266 156.146 197.116Z" fill="url(#paint40_linear_2_1017)"/>
<path d="M123.092 61.2731V128.131C123.092 130.401 121.238 132.255 118.968 132.255H34.1288C31.8592 132.255 30.0051 130.401 30.0051 128.131V61.2731C30.0051 59.0036 31.8592 57.1494 34.1288 57.1494H118.952C121.238 57.1494 123.092 58.9876 123.092 61.2731Z" fill="url(#paint41_linear_2_1017)"/>
<path d="M54.7473 115.52C65.3313 115.52 73.9113 106.941 73.9113 96.3566C73.9113 85.7726 65.3313 77.1924 54.7473 77.1924C44.1633 77.1924 35.5833 85.7726 35.5833 96.3566C35.5833 106.941 44.1633 115.52 54.7473 115.52Z" fill="url(#paint42_linear_2_1017)"/>
<path d="M54.7473 110.326C62.4625 110.326 68.7168 104.072 68.7168 96.3567C68.7168 88.6416 62.4625 82.3872 54.7473 82.3872C47.0323 82.3872 40.778 88.6416 40.778 96.3567C40.778 104.072 47.0323 110.326 54.7473 110.326Z" fill="url(#paint43_linear_2_1017)"/>
<path d="M62.4352 101.583H47.0913C46.6118 101.583 46.2282 101.2 46.2282 100.72C46.2282 100.241 46.6118 99.8569 47.0913 99.8569H62.4352C62.9147 99.8569 63.2985 100.241 63.2985 100.72C63.2985 101.183 62.9147 101.583 62.4352 101.583Z" fill="url(#paint44_linear_2_1017)"/>
<path d="M60.6294 104.46H48.8975C48.418 104.46 48.0344 104.076 48.0344 103.597C48.0344 103.117 48.418 102.734 48.8975 102.734H60.6294C61.1089 102.734 61.4925 103.117 61.4925 103.597C61.5083 104.076 61.1089 104.46 60.6294 104.46Z" fill="url(#paint45_linear_2_1017)"/>
<path d="M54.7473 85.2002C48.5937 85.2002 43.5909 90.187 43.5909 96.3567H65.9036C65.9036 90.187 60.901 85.2002 54.7473 85.2002Z" fill="url(#paint46_linear_2_1017)"/>
<path d="M56.9051 97.1876C55.6744 98.1466 54.2997 97.9709 53.5486 96.9958C52.7974 96.0368 52.9572 94.6463 54.188 93.6873C55.083 92.9841 57.2887 92.3926 58.7912 92.0411C59.4145 91.8973 59.9099 92.5525 59.6222 93.1118C58.935 94.4866 57.8161 96.4844 56.9051 97.1876Z" fill="url(#paint47_linear_2_1017)"/>
<path d="M55.2908 96.6443C55.8468 96.6443 56.2978 96.1933 56.2978 95.6373C56.2978 95.0811 55.8468 94.6304 55.2908 94.6304C54.7346 94.6304 54.2839 95.0811 54.2839 95.6373C54.2839 96.1933 54.7346 96.6443 55.2908 96.6443Z" fill="url(#paint48_linear_2_1017)"/>
<path d="M65.9036 96.3567H63.2664C63.2664 91.8334 59.7499 88.1412 55.2906 87.8535C55.1149 87.8374 54.9231 87.8374 54.7473 87.8374C50.0482 87.8374 46.2282 91.6576 46.2282 96.3567H43.5909C43.5909 90.2031 48.5777 85.2002 54.7473 85.2002C54.9231 85.2002 55.1149 85.2002 55.2906 85.2163C61.2045 85.4879 65.9036 90.3788 65.9036 96.3567Z" fill="url(#paint49_linear_2_1017)"/>
<path d="M65.9036 96.3563H63.2664C63.2664 94.2944 62.5313 92.3923 61.3004 90.9058C59.8461 89.1638 57.7202 87.9969 55.3067 87.8531V85.2158C58.5514 85.3757 61.4443 86.926 63.3783 89.2755C64.9607 91.1935 65.9036 93.655 65.9036 96.3563Z" fill="url(#paint50_linear_2_1017)"/>
<path d="M37.2136 65.1888C38.114 65.1888 38.8439 64.4588 38.8439 63.5585C38.8439 62.658 38.114 61.9282 37.2136 61.9282C36.3132 61.9282 35.5833 62.658 35.5833 63.5585C35.5833 64.4588 36.3132 65.1888 37.2136 65.1888Z" fill="url(#paint51_linear_2_1017)"/>
<path d="M42.4083 65.1888C43.3086 65.1888 44.0386 64.4588 44.0386 63.5585C44.0386 62.658 43.3086 61.9282 42.4083 61.9282C41.5079 61.9282 40.778 62.658 40.778 63.5585C40.778 64.4588 41.5079 65.1888 42.4083 65.1888Z" fill="url(#paint52_linear_2_1017)"/>
<path d="M47.6028 65.1888C48.5032 65.1888 49.2331 64.4588 49.2331 63.5585C49.2331 62.658 48.5032 61.9282 47.6028 61.9282C46.7024 61.9282 45.9725 62.658 45.9725 63.5585C45.9725 64.4588 46.7024 65.1888 47.6028 65.1888Z" fill="url(#paint53_linear_2_1017)"/>
<path d="M126.481 122.873H85.0198C82.6542 122.873 80.7362 120.955 80.7362 118.589V70.7992C80.7362 68.4336 82.6542 66.5156 85.0198 66.5156H126.481C128.846 66.5156 130.764 68.4336 130.764 70.7992V118.589C130.764 120.955 128.846 122.873 126.481 122.873Z" fill="url(#paint54_linear_2_1017)"/>
<path d="M122.389 111.317H89.0956C87.3214 111.317 85.8988 109.879 85.8988 108.12V74.8751C85.8988 73.1009 87.3373 71.6782 89.0956 71.6782H122.389C124.163 71.6782 125.586 73.1167 125.586 74.8751V108.104C125.601 109.879 124.163 111.317 122.389 111.317Z" fill="url(#paint55_linear_2_1017)"/>
<path d="M114.941 80.3569H96.5597C95.0733 80.3569 93.8745 81.5557 93.8745 83.0421V99.9527C93.8745 101.439 95.0733 102.638 96.5597 102.638H114.956C116.443 102.638 117.642 101.439 117.642 99.9527V83.0421C117.626 81.5557 116.427 80.3569 114.941 80.3569ZM109.235 84.3528C110.673 84.3528 111.824 85.5197 111.824 86.9421C111.824 88.3648 110.657 89.5314 109.235 89.5314C107.796 89.5314 106.645 88.3648 106.645 86.9421C106.645 85.5197 107.796 84.3528 109.235 84.3528ZM114.109 100.144H105.75H97.7745C97.0553 100.144 96.7355 99.6328 97.0553 98.9776L101.515 90.1548C101.834 89.5154 102.458 89.4516 102.889 90.027L107.365 95.8769C107.796 96.4523 108.563 96.5003 109.059 95.9886L110.161 94.886C110.673 94.3744 111.408 94.4384 111.824 95.0296L114.669 99.0896C115.068 99.681 114.813 100.144 114.109 100.144Z" fill="url(#paint56_linear_2_1017)"/>
<path d="M106.645 86.9584C106.645 85.5199 107.812 84.3691 109.235 84.3691C110.673 84.3691 111.824 85.5358 111.824 86.9584C111.824 88.3969 110.657 89.5477 109.235 89.5477C107.796 89.5477 106.645 88.3809 106.645 86.9584ZM111.824 95.0299C111.408 94.4386 110.673 94.3746 110.161 94.886L109.059 95.9889C108.547 96.5005 107.796 96.4525 107.365 95.8771L102.889 90.0272C102.458 89.4518 101.834 89.5156 101.515 90.155L97.0553 98.9778C96.7355 99.6172 97.0553 100.145 97.7745 100.145H105.75H114.109C114.829 100.145 115.068 99.6652 114.669 99.0737L111.824 95.0299Z" fill="url(#paint57_linear_2_1017)"/>
<path d="M119.576 117.902H91.9086C90.9817 117.902 90.2303 117.151 90.2303 116.224C90.2303 115.297 90.9817 114.545 91.9086 114.545H119.576C120.503 114.545 121.254 115.297 121.254 116.224C121.254 117.151 120.503 117.902 119.576 117.902Z" fill="url(#paint58_linear_2_1017)"/>
<path d="M105.75 52.3226C116.387 52.3226 125.01 43.6997 125.01 33.0627C125.01 22.4257 116.387 13.8027 105.75 13.8027C95.1133 13.8027 86.4902 22.4257 86.4902 33.0627C86.4902 43.6997 95.1133 52.3226 105.75 52.3226Z" fill="url(#paint59_linear_2_1017)"/>
<path d="M105.75 52.3226C116.387 52.3226 125.01 43.6997 125.01 33.0627C125.01 22.4257 116.387 13.8027 105.75 13.8027C95.1133 13.8027 86.4902 22.4257 86.4902 33.0627C86.4902 43.6997 95.1133 52.3226 105.75 52.3226Z" fill="url(#paint60_linear_2_1017)"/>
<path d="M105.75 46.2807C113.05 46.2807 118.968 40.3627 118.968 33.0625C118.968 25.7622 113.05 19.8442 105.75 19.8442C98.4499 19.8442 92.5319 25.7622 92.5319 33.0625C92.5319 40.3627 98.4499 46.2807 105.75 46.2807Z" fill="url(#paint61_linear_2_1017)"/>
<path d="M111.744 34.8687H107.444V37.2662H111.744V34.8687Z" fill="url(#paint62_linear_2_1017)"/>
<path d="M104.04 31.2403H99.7405V28.8428H104.04V31.2403ZM104.951 28.8428V31.2403H107.444V39.1839H109.842V28.8428H104.951Z" fill="url(#paint63_linear_2_1017)"/>
<path d="M106.549 34.8687H104.04V26.9409H101.642V37.2662H106.549V34.8687Z" fill="url(#paint64_linear_2_1017)"/>
<path d="M80.7362 96.836H73.9113C73.6396 96.836 73.4318 96.6281 73.4318 96.3565C73.4318 96.0846 73.6396 95.877 73.9113 95.877H80.7362C81.0079 95.877 81.2157 96.0846 81.2157 96.3565C81.2157 96.6281 80.992 96.836 80.7362 96.836Z" fill="#FFBA00"/>
<path d="M105.75 66.995C105.478 66.995 105.271 66.7871 105.271 66.5155V52.3223C105.271 52.0506 105.478 51.8428 105.75 51.8428C106.022 51.8428 106.23 52.0506 106.23 52.3223V66.5155C106.23 66.7871 106.006 66.995 105.75 66.995Z" fill="#FFBA00"/>
</g>
</g>
<defs>
<linearGradient id="paint0_linear_2_1017" x1="220.32" y1="127.618" x2="220.32" y2="75.2318" gradientUnits="userSpaceOnUse">
<stop stop-color="#386E9F"/>
<stop offset="1" stop-color="white"/>
</linearGradient>
<linearGradient id="paint1_linear_2_1017" x1="188.552" y1="472.225" x2="188.552" y2="-12.92" gradientUnits="userSpaceOnUse">
<stop stop-color="#03192E"/>
<stop offset="0.5" stop-color="#223C6A"/>
<stop offset="1" stop-color="#4A74A2"/>
</linearGradient>
<linearGradient id="paint2_linear_2_1017" x1="171.482" y1="157.696" x2="212.411" y2="304.851" gradientUnits="userSpaceOnUse">
<stop stop-color="#03192E"/>
<stop offset="0.5" stop-color="#223C6A"/>
<stop offset="1" stop-color="#4A74A2"/>
</linearGradient>
<linearGradient id="paint3_linear_2_1017" x1="223.638" y1="136.873" x2="223.638" y2="210.297" gradientUnits="userSpaceOnUse">
<stop stop-color="#223C6A"/>
<stop offset="1" stop-color="#5A8AB7"/>
</linearGradient>
<linearGradient id="paint4_linear_2_1017" x1="224.333" y1="154.163" x2="224.333" y2="207.165" gradientUnits="userSpaceOnUse">
<stop stop-color="#03192E"/>
<stop offset="0.5" stop-color="#223C6A"/>
<stop offset="1" stop-color="#4A74A2"/>
</linearGradient>
<linearGradient id="paint5_linear_2_1017" x1="223.638" y1="282.602" x2="223.638" y2="94.6352" gradientUnits="userSpaceOnUse">
<stop stop-color="#03192E"/>
<stop offset="0.5" stop-color="#223C6A"/>
<stop offset="1" stop-color="#4A74A2"/>
</linearGradient>
<linearGradient id="paint6_linear_2_1017" x1="235.302" y1="229.661" x2="235.302" y2="111.335" gradientUnits="userSpaceOnUse">
<stop stop-color="#223C6A"/>
<stop offset="1" stop-color="#5A8AB7"/>
</linearGradient>
<linearGradient id="paint7_linear_2_1017" x1="196.727" y1="165.612" x2="196.727" y2="29.9921" gradientUnits="userSpaceOnUse">
<stop stop-color="#002649"/>
<stop offset="0.3213" stop-color="#042A4F"/>
<stop offset="0.7475" stop-color="#0F3460"/>
<stop offset="1" stop-color="#183D6D"/>
</linearGradient>
<linearGradient id="paint8_linear_2_1017" x1="183.164" y1="207.115" x2="183.164" y2="102.448" gradientUnits="userSpaceOnUse">
<stop stop-color="#FF2A64"/>
<stop offset="0.0308184" stop-color="#FF3462"/>
<stop offset="0.1688" stop-color="#FF595A"/>
<stop offset="0.3129" stop-color="#FF7854"/>
<stop offset="0.4626" stop-color="#FF904E"/>
<stop offset="0.6203" stop-color="#FFA24B"/>
<stop offset="0.7913" stop-color="#FFAC49"/>
<stop offset="1" stop-color="#FFAF48"/>
</linearGradient>
<linearGradient id="paint9_linear_2_1017" x1="200.719" y1="160.991" x2="118.424" y2="160.991" gradientUnits="userSpaceOnUse">
<stop stop-color="#FF2A64"/>
<stop offset="0.0308184" stop-color="#FF3462"/>
<stop offset="0.1688" stop-color="#FF595A"/>
<stop offset="0.3129" stop-color="#FF7854"/>
<stop offset="0.4626" stop-color="#FF904E"/>
<stop offset="0.6203" stop-color="#FFA24B"/>
<stop offset="0.7913" stop-color="#FFAC49"/>
<stop offset="1" stop-color="#FFAF48"/>
</linearGradient>
<linearGradient id="paint10_linear_2_1017" x1="196.727" y1="144.532" x2="196.727" y2="110" gradientUnits="userSpaceOnUse">
<stop stop-color="#FF2A64"/>
<stop offset="0.0308184" stop-color="#FF3462"/>
<stop offset="0.1688" stop-color="#FF595A"/>
<stop offset="0.3129" stop-color="#FF7854"/>
<stop offset="0.4626" stop-color="#FF904E"/>
<stop offset="0.6203" stop-color="#FFA24B"/>
<stop offset="0.7913" stop-color="#FFAC49"/>
<stop offset="1" stop-color="#FFAF48"/>
</linearGradient>
<linearGradient id="paint11_linear_2_1017" x1="235.302" y1="193.224" x2="235.302" y2="110.417" gradientUnits="userSpaceOnUse">
<stop stop-color="#002649"/>
<stop offset="0.3213" stop-color="#042A4F"/>
<stop offset="0.7475" stop-color="#0F3460"/>
<stop offset="1" stop-color="#183D6D"/>
</linearGradient>
<linearGradient id="paint12_linear_2_1017" x1="235.302" y1="181.17" x2="235.302" y2="122.016" gradientUnits="userSpaceOnUse">
<stop stop-color="#E94367"/>
<stop offset="0.08" stop-color="#EA5662"/>
<stop offset="0.18" stop-color="#EC705F"/>
<stop offset="0.29" stop-color="#EE875D"/>
<stop offset="0.42" stop-color="#F0995C"/>
<stop offset="0.56" stop-color="#F1A75C"/>
<stop offset="0.73" stop-color="#F2AF5C"/>
<stop offset="1" stop-color="#F2B15C"/>
</linearGradient>
<linearGradient id="paint13_linear_2_1017" x1="245.856" y1="163.145" x2="245.856" y2="89.167" gradientUnits="userSpaceOnUse">
<stop stop-color="#E94367"/>
<stop offset="0.08" stop-color="#EA5662"/>
<stop offset="0.18" stop-color="#EC705F"/>
<stop offset="0.29" stop-color="#EE875D"/>
<stop offset="0.42" stop-color="#F0995C"/>
<stop offset="0.56" stop-color="#F1A75C"/>
<stop offset="0.73" stop-color="#F2AF5C"/>
<stop offset="1" stop-color="#F2B15C"/>
</linearGradient>
<linearGradient id="paint14_linear_2_1017" x1="226.344" y1="169.454" x2="226.344" y2="95.1187" gradientUnits="userSpaceOnUse">
<stop stop-color="#E94367"/>
<stop offset="0.08" stop-color="#EA5662"/>
<stop offset="0.18" stop-color="#EC705F"/>
<stop offset="0.29" stop-color="#EE875D"/>
<stop offset="0.42" stop-color="#F0995C"/>
<stop offset="0.56" stop-color="#F1A75C"/>
<stop offset="0.73" stop-color="#F2AF5C"/>
<stop offset="1" stop-color="#F2B15C"/>
</linearGradient>
<linearGradient id="paint15_linear_2_1017" x1="235.181" y1="205.074" x2="235.181" y2="173.01" gradientUnits="userSpaceOnUse">
<stop stop-color="#223C6A"/>
<stop offset="1" stop-color="#5A8AB7"/>
</linearGradient>
<linearGradient id="paint16_linear_2_1017" x1="235.181" y1="205.074" x2="235.181" y2="173.01" gradientUnits="userSpaceOnUse">
<stop stop-color="#223C6A"/>
<stop offset="1" stop-color="#5A8AB7"/>
</linearGradient>
<linearGradient id="paint17_linear_2_1017" x1="138.288" y1="211.005" x2="138.288" y2="-31.3474" gradientUnits="userSpaceOnUse">
<stop stop-color="#386E9F"/>
<stop offset="1" stop-color="white"/>
</linearGradient>
<linearGradient id="paint18_linear_2_1017" x1="95.29" y1="188.342" x2="149.923" y2="188.342" gradientUnits="userSpaceOnUse">
<stop stop-color="#002649"/>
<stop offset="0.3213" stop-color="#042A4F"/>
<stop offset="0.7475" stop-color="#0F3460"/>
<stop offset="1" stop-color="#183D6D"/>
</linearGradient>
<linearGradient id="paint19_linear_2_1017" x1="98.6741" y1="179.181" x2="109.609" y2="191.886" gradientUnits="userSpaceOnUse">
<stop stop-color="white"/>
<stop offset="1" stop-color="#F9E4CE"/>
</linearGradient>
<linearGradient id="paint20_linear_2_1017" x1="98.6014" y1="179.243" x2="109.537" y2="191.949" gradientUnits="userSpaceOnUse">
<stop stop-color="white"/>
<stop offset="1" stop-color="#F9E4CE"/>
</linearGradient>
<linearGradient id="paint21_linear_2_1017" x1="164.051" y1="76.1415" x2="271.946" y2="-15.5065" gradientUnits="userSpaceOnUse">
<stop stop-color="#FF2A64"/>
<stop offset="0.0308184" stop-color="#FF3462"/>
<stop offset="0.1688" stop-color="#FF595A"/>
<stop offset="0.3129" stop-color="#FF7854"/>
<stop offset="0.4626" stop-color="#FF904E"/>
<stop offset="0.6203" stop-color="#FFA24B"/>
<stop offset="0.7913" stop-color="#FFAC49"/>
<stop offset="1" stop-color="#FFAF48"/>
</linearGradient>
<linearGradient id="paint22_linear_2_1017" x1="104.767" y1="177.592" x2="245.988" y2="0.962871" gradientUnits="userSpaceOnUse">
<stop stop-color="#FF2A64"/>
<stop offset="0.0308184" stop-color="#FF3462"/>
<stop offset="0.1688" stop-color="#FF595A"/>
<stop offset="0.3129" stop-color="#FF7854"/>
<stop offset="0.4626" stop-color="#FF904E"/>
<stop offset="0.6203" stop-color="#FFA24B"/>
<stop offset="0.7913" stop-color="#FFAC49"/>
<stop offset="1" stop-color="#FFAF48"/>
</linearGradient>
<linearGradient id="paint23_linear_2_1017" x1="187.315" y1="127.795" x2="187.315" y2="69.9101" gradientUnits="userSpaceOnUse">
<stop stop-color="#386E9F"/>
<stop offset="1" stop-color="white"/>
</linearGradient>
<linearGradient id="paint24_linear_2_1017" x1="170.293" y1="70.5143" x2="166.891" y2="54.0593" gradientUnits="userSpaceOnUse">
<stop stop-color="#002649"/>
<stop offset="0.3213" stop-color="#042A4F"/>
<stop offset="0.7475" stop-color="#0F3460"/>
<stop offset="1" stop-color="#183D6D"/>
</linearGradient>
<linearGradient id="paint25_linear_2_1017" x1="178.586" y1="88.7171" x2="152.159" y2="89.0096" gradientUnits="userSpaceOnUse">
<stop stop-color="#002649"/>
<stop offset="0.3213" stop-color="#042A4F"/>
<stop offset="0.7475" stop-color="#0F3460"/>
<stop offset="1" stop-color="#183D6D"/>
</linearGradient>
<linearGradient id="paint26_linear_2_1017" x1="183.247" y1="95.2193" x2="143.287" y2="95.6616" gradientUnits="userSpaceOnUse">
<stop stop-color="#223C6A"/>
<stop offset="1" stop-color="#5A8AB7"/>
</linearGradient>
<linearGradient id="paint27_linear_2_1017" x1="190.282" y1="83.796" x2="158.193" y2="84.1515" gradientUnits="userSpaceOnUse">
<stop stop-color="#223C6A"/>
<stop offset="1" stop-color="#5A8AB7"/>
</linearGradient>
<linearGradient id="paint28_linear_2_1017" x1="178.293" y1="84.8503" x2="214.272" y2="11.8539" gradientUnits="userSpaceOnUse">
<stop stop-color="#386E9F"/>
<stop offset="1" stop-color="white"/>
</linearGradient>
<linearGradient id="paint29_linear_2_1017" x1="178.809" y1="86.5421" x2="190.297" y2="54.6735" gradientUnits="userSpaceOnUse">
<stop stop-color="#223C6A"/>
<stop offset="1" stop-color="#5A8AB7"/>
</linearGradient>
<linearGradient id="paint30_linear_2_1017" x1="174.097" y1="104.025" x2="187.832" y2="65.4578" gradientUnits="userSpaceOnUse">
<stop stop-color="#223C6A"/>
<stop offset="1" stop-color="#5A8AB7"/>
</linearGradient>
<linearGradient id="paint31_linear_2_1017" x1="102.486" y1="169.126" x2="71.555" y2="136.633" gradientUnits="userSpaceOnUse">
<stop stop-color="#FF2A64"/>
<stop offset="0.0308184" stop-color="#FF3462"/>
<stop offset="0.1688" stop-color="#FF595A"/>
<stop offset="0.3129" stop-color="#FF7854"/>
<stop offset="0.4626" stop-color="#FF904E"/>
<stop offset="0.6203" stop-color="#FFA24B"/>
<stop offset="0.7913" stop-color="#FFAC49"/>
<stop offset="1" stop-color="#FFAF48"/>
</linearGradient>
<linearGradient id="paint32_linear_2_1017" x1="172.77" y1="118.611" x2="141.11" y2="177.141" gradientUnits="userSpaceOnUse">
<stop stop-color="#03192E"/>
<stop offset="0.5" stop-color="#223C6A"/>
<stop offset="1" stop-color="#4A74A2"/>
</linearGradient>
<linearGradient id="paint33_linear_2_1017" x1="278.065" y1="235.953" x2="-93.4834" y2="235.953" gradientUnits="userSpaceOnUse">
<stop stop-color="#386E9F"/>
<stop offset="1" stop-color="white"/>
</linearGradient>
<linearGradient id="paint34_linear_2_1017" x1="127.471" y1="169.52" x2="133.996" y2="169.52" gradientUnits="userSpaceOnUse">
<stop stop-color="#002649"/>
<stop offset="0.3213" stop-color="#042A4F"/>
<stop offset="0.7475" stop-color="#0F3460"/>
<stop offset="1" stop-color="#183D6D"/>
</linearGradient>
<linearGradient id="paint35_linear_2_1017" x1="161.154" y1="130.229" x2="155.067" y2="141.531" gradientUnits="userSpaceOnUse">
<stop stop-color="white"/>
<stop offset="1" stop-color="#F9E4CE"/>
</linearGradient>
<linearGradient id="paint36_linear_2_1017" x1="169.287" y1="134.609" x2="163.201" y2="145.911" gradientUnits="userSpaceOnUse">
<stop stop-color="white"/>
<stop offset="1" stop-color="#F9E4CE"/>
</linearGradient>
<linearGradient id="paint37_linear_2_1017" x1="161.498" y1="137.771" x2="151.249" y2="159.567" gradientUnits="userSpaceOnUse">
<stop stop-color="white"/>
<stop offset="1" stop-color="#F9E4CE"/>
</linearGradient>
<linearGradient id="paint38_linear_2_1017" x1="82.7825" y1="166.298" x2="115.91" y2="166.298" gradientUnits="userSpaceOnUse">
<stop stop-color="#002649"/>
<stop offset="0.3213" stop-color="#042A4F"/>
<stop offset="0.7475" stop-color="#0F3460"/>
<stop offset="1" stop-color="#183D6D"/>
</linearGradient>
<linearGradient id="paint39_linear_2_1017" x1="58.9748" y1="219.403" x2="106.777" y2="154.729" gradientUnits="userSpaceOnUse">
<stop stop-color="#03192E"/>
<stop offset="0.5" stop-color="#223C6A"/>
<stop offset="1" stop-color="#4A74A2"/>
</linearGradient>
<linearGradient id="paint40_linear_2_1017" x1="132.876" y1="190.614" x2="157.662" y2="232.897" gradientUnits="userSpaceOnUse">
<stop stop-color="#223C6A"/>
<stop offset="1" stop-color="#5A8AB7"/>
</linearGradient>
<linearGradient id="paint41_linear_2_1017" x1="76.5454" y1="188.664" x2="76.5454" y2="31.4796" gradientUnits="userSpaceOnUse">
<stop stop-color="#002649"/>
<stop offset="0.2331" stop-color="#082E55"/>
<stop offset="0.6765" stop-color="#143967"/>
<stop offset="1" stop-color="#183D6D"/>
</linearGradient>
<linearGradient id="paint42_linear_2_1017" x1="54.7473" y1="137.938" x2="54.7473" y2="68.6364" gradientUnits="userSpaceOnUse">
<stop stop-color="#223C6A"/>
<stop offset="1" stop-color="#5A8AB7"/>
</linearGradient>
<linearGradient id="paint43_linear_2_1017" x1="54.7473" y1="123.941" x2="54.7473" y2="73.6169" gradientUnits="userSpaceOnUse">
<stop stop-color="#002649"/>
<stop offset="0.2331" stop-color="#082E55"/>
<stop offset="0.6765" stop-color="#143967"/>
<stop offset="1" stop-color="#183D6D"/>
</linearGradient>
<linearGradient id="paint44_linear_2_1017" x1="54.7663" y1="115.147" x2="54.7663" y2="99.3266" gradientUnits="userSpaceOnUse">
<stop stop-color="#223C6A"/>
<stop offset="1" stop-color="#5A8AB7"/>
</linearGradient>
<linearGradient id="paint45_linear_2_1017" x1="54.7663" y1="115.147" x2="54.7663" y2="99.3266" gradientUnits="userSpaceOnUse">
<stop stop-color="#223C6A"/>
<stop offset="1" stop-color="#5A8AB7"/>
</linearGradient>
<linearGradient id="paint46_linear_2_1017" x1="54.7473" y1="86.3599" x2="54.7473" y2="110.694" gradientUnits="userSpaceOnUse">
<stop stop-color="#223C6A"/>
<stop offset="1" stop-color="#5A8AB7"/>
</linearGradient>
<linearGradient id="paint47_linear_2_1017" x1="42.3233" y1="108.952" x2="63.9334" y2="86.8647" gradientUnits="userSpaceOnUse">
<stop stop-color="#FF2A64"/>
<stop offset="1" stop-color="#FFAF48"/>
</linearGradient>
<linearGradient id="paint48_linear_2_1017" x1="54.2858" y1="95.6388" x2="56.2978" y2="95.6388" gradientUnits="userSpaceOnUse">
<stop stop-color="#002649"/>
<stop offset="0.3213" stop-color="#042A4F"/>
<stop offset="0.7475" stop-color="#0F3460"/>
<stop offset="1" stop-color="#183D6D"/>
</linearGradient>
<linearGradient id="paint49_linear_2_1017" x1="54.7476" y1="111.057" x2="54.7476" y2="85.4244" gradientUnits="userSpaceOnUse">
<stop stop-color="#386E9F"/>
<stop offset="1" stop-color="white"/>
</linearGradient>
<linearGradient id="paint50_linear_2_1017" x1="42.5776" y1="109.2" x2="64.1875" y2="87.1134" gradientUnits="userSpaceOnUse">
<stop stop-color="#FF2A64"/>
<stop offset="1" stop-color="#FFAF48"/>
</linearGradient>
<linearGradient id="paint51_linear_2_1017" x1="37.2166" y1="76.1185" x2="37.2166" y2="59.8911" gradientUnits="userSpaceOnUse">
<stop stop-color="#FF2A64"/>
<stop offset="1" stop-color="#FFAF48"/>
</linearGradient>
<linearGradient id="paint52_linear_2_1017" x1="42.4073" y1="67.6343" x2="42.4073" y2="60.8177" gradientUnits="userSpaceOnUse">
<stop stop-color="#223C6A"/>
<stop offset="1" stop-color="#5A8AB7"/>
</linearGradient>
<linearGradient id="paint53_linear_2_1017" x1="47.5979" y1="67.6343" x2="47.5979" y2="60.8177" gradientUnits="userSpaceOnUse">
<stop stop-color="#223C6A"/>
<stop offset="1" stop-color="#5A8AB7"/>
</linearGradient>
<linearGradient id="paint54_linear_2_1017" x1="105.748" y1="136.625" x2="105.748" y2="21.0161" gradientUnits="userSpaceOnUse">
<stop stop-color="#223C6A"/>
<stop offset="1" stop-color="#5A8AB7"/>
</linearGradient>
<linearGradient id="paint55_linear_2_1017" x1="105.748" y1="152.489" x2="105.748" y2="-6.67725" gradientUnits="userSpaceOnUse">
<stop stop-color="#386E9F"/>
<stop offset="0.9137" stop-color="white"/>
</linearGradient>
<linearGradient id="paint56_linear_2_1017" x1="105.748" y1="123.485" x2="105.748" y2="81.4197" gradientUnits="userSpaceOnUse">
<stop stop-color="#002649"/>
<stop offset="0.2331" stop-color="#082E55"/>
<stop offset="0.6765" stop-color="#143967"/>
<stop offset="1" stop-color="#183D6D"/>
</linearGradient>
<linearGradient id="paint57_linear_2_1017" x1="105.891" y1="114.347" x2="105.891" y2="86.0275" gradientUnits="userSpaceOnUse">
<stop stop-color="#FF2A64"/>
<stop offset="1" stop-color="#FFAF48"/>
</linearGradient>
<linearGradient id="paint58_linear_2_1017" x1="105.748" y1="137.458" x2="105.748" y2="97.8873" gradientUnits="userSpaceOnUse">
<stop stop-color="#386E9F"/>
<stop offset="0.9137" stop-color="white"/>
</linearGradient>
<linearGradient id="paint59_linear_2_1017" x1="105.748" y1="68.8629" x2="105.748" y2="-9.26436" gradientUnits="userSpaceOnUse">
<stop stop-color="#223C6A"/>
<stop offset="1" stop-color="#5A8AB7"/>
</linearGradient>
<linearGradient id="paint60_linear_2_1017" x1="105.748" y1="68.8629" x2="105.748" y2="-9.26436" gradientUnits="userSpaceOnUse">
<stop stop-color="#223C6A"/>
<stop offset="1" stop-color="#5A8AB7"/>
</linearGradient>
<linearGradient id="paint61_linear_2_1017" x1="105.748" y1="58.7961" x2="105.748" y2="-42.9826" gradientUnits="userSpaceOnUse">
<stop stop-color="#002649"/>
<stop offset="0.2331" stop-color="#082E55"/>
<stop offset="0.6765" stop-color="#143967"/>
<stop offset="1" stop-color="#183D6D"/>
</linearGradient>
<linearGradient id="paint62_linear_2_1017" x1="109.6" y1="39.1153" x2="109.6" y2="32.9857" gradientUnits="userSpaceOnUse">
<stop stop-color="#FF2A64"/>
<stop offset="0.0308184" stop-color="#FF3462"/>
<stop offset="0.1688" stop-color="#FF595A"/>
<stop offset="0.3129" stop-color="#FF7854"/>
<stop offset="0.4626" stop-color="#FF904E"/>
<stop offset="0.6203" stop-color="#FFA24B"/>
<stop offset="0.7913" stop-color="#FFAC49"/>
<stop offset="1" stop-color="#FFAF48"/>
</linearGradient>
<linearGradient id="paint63_linear_2_1017" x1="104.796" y1="55.2318" x2="104.796" y2="22.2331" gradientUnits="userSpaceOnUse">
<stop stop-color="#386E9F"/>
<stop offset="1" stop-color="white"/>
</linearGradient>
<linearGradient id="paint64_linear_2_1017" x1="104.097" y1="45.2166" x2="104.097" y2="18.7864" gradientUnits="userSpaceOnUse">
<stop stop-color="#FF2A64"/>
<stop offset="0.0308184" stop-color="#FF3462"/>
<stop offset="0.1688" stop-color="#FF595A"/>
<stop offset="0.3129" stop-color="#FF7854"/>
<stop offset="0.4626" stop-color="#FF904E"/>
<stop offset="0.6203" stop-color="#FFA24B"/>
<stop offset="0.7913" stop-color="#FFAC49"/>
<stop offset="1" stop-color="#FFAF48"/>
</linearGradient>
<clipPath id="clip0_2_1017">
<rect width="300" height="239.75" fill="white" transform="translate(0 0.919922)"/>
</clipPath>
<clipPath id="clip1_2_1017">
<rect width="239.99" height="239.75" fill="white" transform="translate(30.0051 0.919922)"/>
</clipPath>
</defs>
</svg>
