<svg width="136" height="40" viewBox="0 0 136 40" fill="none" xmlns="http://www.w3.org/2000/svg">
<g clip-path="url(#clip0_2_1325)">
<g clip-path="url(#clip1_2_1325)">
<path fill-rule="evenodd" clip-rule="evenodd" d="M114.765 28.3625C114.528 28.3832 114.307 28.4865 114.139 28.6543C113.971 28.8221 113.868 29.0437 113.847 29.2801C113.774 29.8215 114.067 30.1977 114.535 30.1977C114.77 30.1736 114.99 30.0692 115.157 29.902C115.324 29.7349 115.429 29.5152 115.453 29.2801C115.484 29.1725 115.49 29.059 115.47 28.9487C115.45 28.8384 115.404 28.7344 115.336 28.6451C115.268 28.5558 115.18 28.4837 115.079 28.4346C114.979 28.3855 114.868 28.3608 114.755 28.3625H114.765ZM121.518 23.1231C121.018 23.112 120.525 23.2314 120.085 23.4696C119.646 23.7077 119.276 24.0564 119.013 24.4811L119.197 23.1965H117.628L116.627 30.1059H118.196L118.692 26.7109C118.716 26.1937 118.931 25.7038 119.296 25.3361C119.66 24.9683 120.148 24.7487 120.665 24.7197C121.582 24.7197 122.014 25.3161 121.876 26.2796L121.325 30.1059H122.904L123.528 25.7933C123.766 24.1508 123.005 23.1231 121.518 23.1231ZM128.134 23.1231C127.177 23.1398 126.261 23.51 125.561 24.1623C124.861 24.8146 124.428 25.7029 124.344 26.6558C124.051 28.7295 125.152 30.1518 127.161 30.1518C127.696 30.1577 128.227 30.056 128.722 29.8526C129.217 29.6493 129.666 29.3485 130.042 28.9681L129.336 28.0505C128.845 28.5328 128.189 28.8086 127.501 28.8213C127.29 28.8328 127.078 28.8004 126.88 28.7262C126.682 28.652 126.502 28.5376 126.35 28.3902C126.198 28.2428 126.079 28.0656 125.999 27.8698C125.919 27.6739 125.88 27.4637 125.886 27.2522H130.648C131.171 24.7381 130.419 23.1506 128.152 23.1506L128.134 23.1231ZM125.996 26.0961C126.088 25.6377 126.332 25.2238 126.688 24.9208C127.045 24.6179 127.492 24.4436 127.96 24.4261C128.177 24.4039 128.396 24.4348 128.599 24.516C128.801 24.5972 128.981 24.7264 129.123 24.8924C129.264 25.0585 129.364 25.2564 129.412 25.4692C129.46 25.6821 129.456 25.9035 129.4 26.1144L125.996 26.0961ZM135.016 28.4451C134.733 28.6039 134.421 28.7008 134.098 28.7295C133.676 28.7295 133.456 28.5093 133.548 27.812L133.997 24.6922H135.832L136.007 23.4718H134.172L134.447 21.5632H132.896L132.621 23.4718H131.703L131.538 24.6922H132.456L131.969 28.1056C131.758 29.5278 132.511 30.1793 133.566 30.1793C134.164 30.1644 134.746 29.9902 135.254 29.6747L135.016 28.4451Z" fill="url(#paint0_linear_2_1325)"/>
<path fill-rule="evenodd" clip-rule="evenodd" d="M40.9634 20.9484C41.2052 20.9466 41.442 21.0166 41.6439 21.1496C41.8458 21.2826 42.0036 21.4726 42.0974 21.6954C42.1912 21.9182 42.2167 22.1639 42.1706 22.4012C42.1246 22.6386 42.0091 22.8569 41.8388 23.0285C41.6685 23.2001 41.451 23.3172 41.2141 23.365C40.9771 23.4129 40.7312 23.3893 40.5077 23.2972C40.2842 23.2051 40.093 23.0487 39.9585 22.8478C39.824 22.6469 39.7522 22.4106 39.7522 22.1688C39.7522 21.8467 39.8795 21.5377 40.1064 21.3091C40.3333 21.0805 40.6413 20.9509 40.9634 20.9484ZM53.0847 17.5626C54.1171 16.7749 55.3741 16.3377 56.6724 16.3146C57.4325 16.3037 58.1859 16.4571 58.8812 16.7643C59.5764 17.0715 60.1971 17.5254 60.7006 18.0948C61.2833 18.8377 61.6975 19.6985 61.9146 20.6175C62.1317 21.5364 62.1464 22.4915 61.9577 23.4167C61.806 24.9795 61.2056 26.465 60.2287 27.6942C59.2519 28.9234 57.9403 29.8438 56.4522 30.3445C55.8341 30.5189 55.1951 30.6084 54.5528 30.6106C53.8539 30.6428 53.1581 30.4972 52.5307 30.1875C51.9033 29.8778 51.3646 29.4141 50.9651 28.8397L50.7999 30.0142C50.7894 30.0677 50.761 30.1159 50.7192 30.151C50.6775 30.1861 50.625 30.2058 50.5705 30.2069H47.7352C47.706 30.2087 47.6768 30.2038 47.6498 30.1927C47.6228 30.1816 47.5986 30.1645 47.5792 30.1426C47.5681 30.1165 47.5624 30.0884 47.5624 30.06C47.5624 30.0317 47.5681 30.0036 47.5792 29.9775L48.561 23.2057H44.8907C44.6164 23.2033 44.3541 23.0933 44.1601 22.8994C43.9662 22.7054 43.8562 22.4431 43.8538 22.1688C43.8483 21.902 43.945 21.6431 44.1241 21.4452C44.3032 21.2474 44.5512 21.1254 44.8173 21.1044H52.7268C52.1764 21.779 51.821 22.5913 51.6991 23.4534C51.4147 25.4262 52.3965 27.2706 54.5345 27.2706C55.5641 27.2218 56.5424 26.8066 57.2929 26.0999C58.0433 25.3932 58.5164 24.4416 58.6269 23.4167C58.9022 21.4806 57.7919 19.6455 55.7365 19.6455H46.7167C46.4408 19.643 46.1771 19.5318 45.9829 19.3359C45.7887 19.14 45.6798 18.8753 45.6798 18.5994C45.6822 18.3252 45.7922 18.0628 45.9861 17.8689C46.1801 17.675 46.4424 17.5649 46.7167 17.5626H49.3318L50.075 12.369C50.0855 12.3155 50.114 12.2672 50.1557 12.2322C50.1974 12.1971 50.2499 12.1774 50.3044 12.1763H53.2407C53.2959 12.1786 53.3484 12.2015 53.3875 12.2406C53.3986 12.2667 53.4043 12.2948 53.4043 12.3232C53.4043 12.3515 53.3986 12.3796 53.3875 12.4057L52.6442 17.5626H53.0847ZM71.0326 29.014C70.5553 29.5425 69.9676 29.9595 69.3111 30.2354C68.6546 30.5113 67.9454 30.6394 67.2338 30.6106C63.6185 30.6106 62.6459 27.9588 63.0955 24.8206L64.2517 16.9202C64.2619 16.8658 64.29 16.8163 64.3316 16.7797C64.3731 16.7431 64.4258 16.7215 64.4811 16.7184H67.3715C67.3998 16.719 67.4277 16.726 67.4531 16.7387C67.4785 16.7514 67.5007 16.7695 67.5183 16.7918C67.5292 16.8163 67.5348 16.8429 67.5348 16.8698C67.5348 16.8966 67.5292 16.9232 67.5183 16.9478L66.4906 24.059C66.252 25.7474 66.4906 27.2706 68.4634 27.2614C70.4362 27.2522 71.2161 25.9034 71.5189 24.1233L72.5558 16.9202C72.566 16.8658 72.5941 16.8163 72.6357 16.7797C72.6773 16.7431 72.7299 16.7215 72.7852 16.7184H75.694C75.7223 16.719 75.7502 16.726 75.7756 16.7387C75.8009 16.7514 75.8232 16.7695 75.8408 16.7918C75.8516 16.8163 75.8573 16.8429 75.8573 16.8698C75.8573 16.8966 75.8516 16.9232 75.8408 16.9478L74.0056 30.0142C73.9951 30.0677 73.9667 30.1159 73.9249 30.151C73.8832 30.1861 73.8307 30.2058 73.7762 30.2069H71.0234C70.9943 30.2087 70.9651 30.2038 70.9381 30.1927C70.911 30.1816 70.8869 30.1645 70.8675 30.1426C70.8487 30.1198 70.8349 30.0934 70.827 30.0649C70.8191 30.0365 70.8173 30.0067 70.8216 29.9775L70.9592 29.014H71.0326ZM80.9976 17.9021C81.4764 17.3811 82.0621 16.9696 82.7145 16.6956C83.3669 16.4217 84.0708 16.2917 84.778 16.3146C88.3658 16.3146 89.3659 18.9573 88.8888 22.1321L87.751 30.0142C87.7443 30.0677 87.7181 30.1169 87.6775 30.1524C87.6369 30.1879 87.5847 30.2073 87.5308 30.2069H84.622C84.5942 30.2087 84.5664 30.2038 84.5408 30.1926C84.5153 30.1814 84.4928 30.1643 84.4752 30.1426C84.4547 30.1209 84.4398 30.0945 84.4318 30.0657C84.4238 30.0369 84.423 30.0066 84.4293 29.9775L85.4479 22.9396C85.6864 21.2788 85.5121 19.7005 83.5026 19.7097C81.4931 19.7189 80.7498 21.0953 80.4746 22.8478L79.4285 30.06C79.42 30.1128 79.3933 30.1609 79.3531 30.1961C79.3129 30.2312 79.2617 30.2513 79.2083 30.2527H76.2996C76.2705 30.2539 76.2415 30.2488 76.2145 30.2377C76.1876 30.2266 76.1634 30.2098 76.1436 30.1885C76.1319 30.1625 76.1259 30.1344 76.1259 30.1059C76.1259 30.0775 76.1319 30.0493 76.1436 30.0233L77.9787 16.9661C77.9873 16.911 78.015 16.8605 78.0569 16.8236C78.0988 16.7868 78.1523 16.7657 78.2081 16.7643H80.9609C80.9895 16.7635 81.0179 16.7698 81.0435 16.7826C81.0691 16.7954 81.0911 16.8143 81.1077 16.8377C81.1282 16.8575 81.1431 16.8823 81.1512 16.9096C81.1592 16.937 81.16 16.9659 81.1536 16.9937L81.0159 17.9112L80.9976 17.9021ZM94.6604 17.9021C95.1393 17.3811 95.7249 16.9696 96.3773 16.6956C97.0297 16.4217 97.7336 16.2917 98.4409 16.3146C102.029 16.3146 103.029 18.9573 102.552 22.1321L101.414 30.0142C101.405 30.0669 101.379 30.115 101.338 30.1502C101.298 30.1854 101.247 30.2054 101.194 30.2069H98.2849C98.257 30.2087 98.2292 30.2038 98.2036 30.1926C98.1781 30.1814 98.1556 30.1643 98.1381 30.1426C98.1175 30.1209 98.1026 30.0945 98.0946 30.0657C98.0866 30.0369 98.0858 30.0066 98.0922 29.9775L99.1199 22.9396C99.3584 21.2788 99.1841 19.7005 97.1746 19.7097C95.1651 19.7189 94.4218 21.0953 94.1374 22.8478L93.1005 30.06C93.092 30.1128 93.0653 30.1609 93.0251 30.1961C92.9849 30.2312 92.9337 30.2513 92.8803 30.2527H89.944C89.9149 30.2539 89.8859 30.2488 89.859 30.2377C89.8321 30.2266 89.8079 30.2098 89.788 30.1885C89.7764 30.1625 89.7704 30.1344 89.7704 30.1059C89.7704 30.0775 89.7764 30.0493 89.788 30.0233L91.6232 16.9661C91.6314 16.9124 91.6578 16.8632 91.6978 16.8265C91.7378 16.7897 91.7892 16.7678 91.8434 16.7643H94.5962C94.6248 16.7635 94.6532 16.7698 94.6788 16.7826C94.7044 16.7954 94.7264 16.8143 94.743 16.8377C94.7615 16.8587 94.7753 16.8836 94.7832 16.9106C94.7911 16.9375 94.793 16.9659 94.7889 16.9937L94.6512 17.9112L94.6604 17.9021ZM106.038 29.482L103.286 16.9937C103.27 16.9655 103.262 16.9339 103.262 16.9019C103.262 16.8699 103.27 16.8383 103.286 16.8101C103.306 16.7824 103.332 16.7596 103.362 16.7437C103.392 16.7277 103.426 16.7191 103.46 16.7184H106.561C106.607 16.7175 106.651 16.7327 106.686 16.7613C106.721 16.7898 106.746 16.8298 106.754 16.8744L108.36 24.9583L112.269 16.856C112.285 16.8157 112.313 16.7811 112.349 16.7566C112.385 16.7321 112.427 16.7188 112.471 16.7184H115.636C115.671 16.7181 115.704 16.7275 115.733 16.7453C115.763 16.7631 115.786 16.7888 115.802 16.8193C115.819 16.85 115.829 16.8848 115.829 16.9202C115.829 16.9557 115.819 16.9905 115.802 17.0212L106.828 34.648C106.81 34.6866 106.781 34.7192 106.746 34.742C106.71 34.7648 106.668 34.7767 106.626 34.7764H103.515C103.481 34.7778 103.447 34.7689 103.417 34.751C103.388 34.733 103.364 34.7068 103.35 34.6755C103.332 34.6448 103.323 34.61 103.323 34.5746C103.323 34.5391 103.332 34.5043 103.35 34.4736L106.038 29.482Z" fill="white"/>
<path fill-rule="evenodd" clip-rule="evenodd" d="M19.2901 6.28545L28.3466 11.2037L19.9783 0C19.314 0.89139 18.9 1.94405 18.779 3.0491C18.658 4.15414 18.8345 5.27145 19.2901 6.28545Z" fill="url(#paint1_linear_2_1325)"/>
<path fill-rule="evenodd" clip-rule="evenodd" d="M15.1976 24.527C15.6052 24.527 16.0036 24.6477 16.3427 24.8737C16.6818 25.0998 16.9464 25.4211 17.1032 25.7973C17.26 26.1735 17.302 26.5877 17.2238 26.9876C17.1456 27.3876 16.9508 27.7555 16.6639 28.045C16.377 28.3344 16.0108 28.5325 15.6115 28.6142C15.2123 28.6959 14.7978 28.6576 14.4202 28.5042C14.0426 28.3507 13.719 28.089 13.4899 27.7519C13.2609 27.4148 13.1367 27.0175 13.1331 26.6099C13.1307 26.3373 13.1823 26.0668 13.2849 25.8142C13.3876 25.5616 13.5393 25.3318 13.7312 25.1382C13.9232 24.9445 14.1516 24.7908 14.4033 24.6859C14.655 24.581 14.925 24.527 15.1976 24.527Z" fill="url(#paint2_linear_2_1325)"/>
<path fill-rule="evenodd" clip-rule="evenodd" d="M8.89384 1.64248L34.2559 15.4062C34.4632 15.5071 34.6381 15.6643 34.7604 15.8598C34.8827 16.0553 34.9476 16.2813 34.9476 16.5119C34.9476 16.7425 34.8827 16.9685 34.7604 17.164C34.6381 17.3596 34.4632 17.5167 34.2559 17.6176C32.3377 18.7719 30.237 19.591 28.0438 20.04L22.7677 30.8675C22.7677 30.8675 21.0977 34.6663 16.5006 33.2074C18.4275 31.2804 20.7582 29.537 20.7582 26.5732C20.7582 25.096 20.1714 23.6794 19.1269 22.6348C18.0823 21.5903 16.6657 21.0035 15.1885 21.0035C13.7113 21.0035 12.2946 21.5903 11.2501 22.6348C10.2055 23.6794 9.61873 25.096 9.61873 26.5732C9.61873 30.4454 13.4359 32.0787 15.5555 34.7672C16.0186 35.4228 16.2414 36.218 16.1862 37.0187C16.131 37.8195 15.8013 38.5766 15.2527 39.1625C12.6192 36.5565 7.52664 32.1613 5.43455 29.2801C4.29076 27.8275 3.66144 26.0363 3.64526 24.1875C3.74574 22.2203 4.44964 20.3317 5.66124 18.7786C6.87285 17.2255 8.53337 16.0833 10.417 15.5072C11.5724 15.1706 12.775 15.025 13.9773 15.0759C15.6537 15.2029 17.2821 15.6946 18.7487 16.5165C20.9968 17.8378 22.0887 17.4891 23.6394 16.1862C24.557 15.4338 25.5572 12.9838 24.0064 12.4149C23.4994 12.2495 22.9812 12.1207 22.4557 12.0295C19.5745 11.4698 14.537 10.9376 12.6835 9.88238C9.73802 8.25825 7.75604 4.90907 8.89384 1.64248Z" fill="url(#paint3_linear_2_1325)"/>
<path fill-rule="evenodd" clip-rule="evenodd" d="M20.7123 26.6008C21.8868 20.4254 15.6197 14.5345 10.8116 15.4154L11.1327 15.342C10.8758 15.3971 10.6281 15.4613 10.3895 15.5347C8.50585 16.1108 6.84532 17.2531 5.63372 18.8062C4.42211 20.3593 3.71821 22.2478 3.61774 24.215C3.64698 26.0693 4.29265 27.861 5.4529 29.3076C7.545 32.1888 12.6376 36.5841 15.2711 39.19C15.8197 38.6042 16.1494 37.847 16.2046 37.0463C16.2597 36.2456 16.037 35.4503 15.5739 34.7948C13.4084 32.1154 9.59121 30.473 9.59121 26.6099C9.59121 25.1327 10.178 23.7161 11.2225 22.6715C12.2671 21.627 13.6838 21.0402 15.1609 21.0402C16.6381 21.0402 18.0548 21.627 19.0993 22.6715C20.1439 23.7161 20.7307 25.1327 20.7307 26.6099L20.7123 26.6008Z" fill="url(#paint4_linear_2_1325)"/>
<path fill-rule="evenodd" clip-rule="evenodd" d="M8.89384 1.64248L28.1631 12.1396L28.7137 12.4424C29.1724 12.8003 29.6312 13.516 29.0348 14.8373C28.1172 16.8101 24.4469 18.7187 20.2168 17.223C21.5381 17.6084 22.4374 17.168 23.5935 16.1954C24.5111 15.4429 25.5113 12.993 23.9606 12.4241C23.4536 12.2587 22.9353 12.1299 22.4098 12.0387C19.5286 11.479 14.4911 10.9468 12.6376 9.89155C9.73802 8.25825 7.75604 4.90907 8.89384 1.64248Z" fill="url(#paint5_linear_2_1325)"/>
<path fill-rule="evenodd" clip-rule="evenodd" d="M8.89384 1.64248C10.885 8.98314 23.0063 9.58875 29.0807 12.6535L8.89384 1.64248Z" fill="url(#paint6_linear_2_1325)"/>
<path fill-rule="evenodd" clip-rule="evenodd" d="M15.528 34.7948C13.4084 32.1154 9.5912 30.473 9.5912 26.6099C9.59645 25.2556 10.0949 23.9497 10.9934 22.9363C11.8919 21.923 13.1288 21.2717 14.4727 21.1044C12.3456 21.1117 10.3076 21.9599 8.80351 23.464C7.29937 24.9682 6.45115 27.0061 6.44389 29.1333C6.44289 29.6759 6.49824 30.2171 6.60906 30.7482C8.36164 32.7302 10.8942 35.07 13.0321 37.052C13.8671 37.832 14.6379 38.566 15.271 39.19C15.7979 38.5796 16.119 37.8186 16.1886 37.0153C16.2388 36.2202 16.0046 35.4332 15.528 34.7948Z" fill="url(#paint7_linear_2_1325)"/>
<path fill-rule="evenodd" clip-rule="evenodd" d="M20.6848 27.2614C20.7138 27.0424 20.7291 26.8217 20.7307 26.6008C21.8868 20.4254 15.6197 14.5345 10.8116 15.4154C11.8383 15.1673 12.8943 15.0623 13.9497 15.1034C20.2535 15.3603 22.0153 22.0954 20.6848 27.2614Z" fill="url(#paint8_linear_2_1325)"/>
<path fill-rule="evenodd" clip-rule="evenodd" d="M2.09455 13.6169C2.64538 13.6194 3.17283 13.8399 3.56147 14.2303C3.95011 14.6206 4.1683 15.149 4.16829 15.6999V17.7736H2.09455C1.54456 17.7736 1.0171 17.5551 0.628197 17.1662C0.239296 16.7773 0.020813 16.2498 0.020813 15.6999C0.0208076 15.149 0.238997 14.6206 0.627637 14.2303C1.01628 13.8399 1.54372 13.6194 2.09455 13.6169Z" fill="url(#paint9_linear_2_1325)"/>
</g>
</g>
<defs>
<linearGradient id="paint0_linear_2_1325" x1="120.362" y1="23.2149" x2="131.712" y2="30.8675" gradientUnits="userSpaceOnUse">
<stop stop-color="#FEBE2D"/>
<stop offset="1" stop-color="#F85E23"/>
</linearGradient>
<linearGradient id="paint1_linear_2_1325" x1="15.4821" y1="5.60644" x2="33.5034" y2="5.60644" gradientUnits="userSpaceOnUse">
<stop stop-color="#FBAA19"/>
<stop offset="1" stop-color="#EF3E23"/>
</linearGradient>
<linearGradient id="paint2_linear_2_1325" x1="14.4911" y1="28.5185" x2="15.9042" y2="24.6555" gradientUnits="userSpaceOnUse">
<stop stop-color="#F78D1E"/>
<stop offset="1" stop-color="#F37121"/>
</linearGradient>
<linearGradient id="paint3_linear_2_1325" x1="3.28741" y1="29.849" x2="25.2452" y2="6.31298" gradientUnits="userSpaceOnUse">
<stop stop-color="#FEBE2D"/>
<stop offset="1" stop-color="#F04E23"/>
</linearGradient>
<linearGradient id="paint4_linear_2_1325" x1="18.8037" y1="16.0944" x2="6.65494" y2="34.7948" gradientUnits="userSpaceOnUse">
<stop stop-color="#EA4425"/>
<stop offset="1" stop-color="#FDBB27"/>
</linearGradient>
<linearGradient id="paint5_linear_2_1325" x1="0.241026" y1="9.69886" x2="38.596" y2="9.69886" gradientUnits="userSpaceOnUse">
<stop stop-color="#F47920"/>
<stop offset="1" stop-color="#E93825"/>
</linearGradient>
<linearGradient id="paint6_linear_2_1325" x1="-20.0192" y1="7.1388" x2="58.0213" y2="7.1388" gradientUnits="userSpaceOnUse">
<stop stop-color="#FDCA0B"/>
<stop offset="1" stop-color="#F5841F"/>
</linearGradient>
<linearGradient id="paint7_linear_2_1325" x1="7.85697" y1="16.5807" x2="15.9776" y2="44.9065" gradientUnits="userSpaceOnUse">
<stop stop-color="#E73C25"/>
<stop offset="1" stop-color="#FAA21B"/>
</linearGradient>
<linearGradient id="paint8_linear_2_1325" x1="-47.1155" y1="21.1778" x2="68.7295" y2="21.1778" gradientUnits="userSpaceOnUse">
<stop stop-color="#FDBA12"/>
<stop offset="1" stop-color="#F7921E"/>
</linearGradient>
<linearGradient id="paint9_linear_2_1325" x1="0.0942197" y1="15.342" x2="4.43439" y2="16.1128" gradientUnits="userSpaceOnUse">
<stop stop-color="#FEBE2D"/>
<stop offset="1" stop-color="#F04E23"/>
</linearGradient>
<clipPath id="clip0_2_1325">
<rect width="136" height="39.19" fill="white"/>
</clipPath>
<clipPath id="clip1_2_1325">
<rect width="135.958" height="39.19" fill="white" transform="translate(0.020813)"/>
</clipPath>
</defs>
</svg>
