<svg width="123" height="57" viewBox="0 0 123 57" fill="none" xmlns="http://www.w3.org/2000/svg">
<g clip-path="url(#clip0_2_170)">
<g clip-path="url(#clip1_2_170)">
<path d="M46.7385 23.1781H53.4569V55.1877H46.7385V52.9364C43.8991 55.1427 40.4002 56.3301 36.8118 56.3301C27.6341 56.3301 20.1667 48.6467 20.1667 39.1827C20.1667 29.7301 27.6341 22.0469 36.8118 22.0469C40.5343 22.0469 43.9662 23.3013 46.7497 25.4405V23.1781H46.7385ZM46.5708 39.1827C46.5708 33.5045 42.1888 28.9013 36.8118 28.9013C31.4348 28.9013 27.0528 33.5157 27.0528 39.1827C27.0528 44.8501 31.4348 49.4644 36.8118 49.4644C42.1888 49.4757 46.5708 44.8614 46.5708 39.1827ZM66.0777 55.1877H59.2027V0.330078H66.0777V55.1877ZM69.532 39.1827C69.532 29.7301 76.9993 22.0469 86.1883 22.0469C95.366 22.0469 102.833 29.7301 102.833 39.1827C102.833 48.6357 95.366 56.3301 86.1883 56.3301C76.9993 56.3301 69.532 48.6467 69.532 39.1827ZM76.418 39.1827C76.418 44.8501 80.8 49.4644 86.177 49.4644C91.554 49.4644 95.936 44.8501 95.936 39.1827C95.936 33.5045 91.554 28.9013 86.177 28.9013C80.8 28.9013 76.418 33.5157 76.418 39.1827Z" fill="black"/>
</g>
</g>
<defs>
<clipPath id="clip0_2_170">
<rect width="122.66" height="56" fill="white" transform="translate(0.169998 0.330078)"/>
</clipPath>
<clipPath id="clip1_2_170">
<rect width="82.6667" height="56" fill="white" transform="translate(20.1667 0.330078)"/>
</clipPath>
</defs>
</svg>
