<svg width="165" height="49" viewBox="0 0 165 49" fill="none" xmlns="http://www.w3.org/2000/svg">
<g clip-path="url(#clip0_2_156)">
<g clip-path="url(#clip1_2_156)">
<path fill-rule="evenodd" clip-rule="evenodd" d="M37.1585 47.4207H33.7331L24.1277 35.1046V47.371H20.0069V29.5585H24.7986L33.1386 40.4715V29.5585H37.1585V47.4207Z" fill="black"/>
<path fill-rule="evenodd" clip-rule="evenodd" d="M38.7948 29.553H42.8857V32.6954H38.7948V29.553ZM38.7948 34.3741H42.8857V47.3684H38.7948V34.3741Z" fill="black"/>
<path fill-rule="evenodd" clip-rule="evenodd" d="M55.7147 47.371H51.6947C48.6948 47.371 47.3011 45.9405 47.3011 43.2363V37.7619H43.9767V34.3769H47.3011V29.5585H51.3484V34.3769H55.712V37.7619H51.3484V41.8002C51.3484 43.206 51.7684 43.7821 53.282 43.7821H55.7147V47.371Z" fill="black"/>
<path fill-rule="evenodd" clip-rule="evenodd" d="M61.1011 47.371H57.0784V34.3769H61.1011V36.4084C61.3739 35.8047 62.2902 34.3521 64.9957 34.3521H67.7501V38.3655H64.2266C61.9438 38.3655 61.1011 39.2173 61.1011 41.0228V47.371Z" fill="black"/>
<path fill-rule="evenodd" clip-rule="evenodd" d="M82.1581 40.874C82.1581 44.8874 79.1581 47.6964 75.1082 47.6964C71.0582 47.6964 68.061 44.8874 68.061 40.874C68.061 36.8605 71.0609 34.0488 75.1082 34.0488C79.1554 34.0488 82.1581 36.8605 82.1581 40.874ZM78.1109 40.874C78.1109 38.9912 76.9218 37.5882 75.1109 37.5882C73.3 37.5882 72.0836 38.9912 72.0836 40.874C72.0836 42.7567 73.3246 44.1597 75.1109 44.1597C76.8973 44.1597 78.1109 42.7539 78.1109 40.874Z" fill="black"/>
<path fill-rule="evenodd" clip-rule="evenodd" d="M83.7945 29.5585H94.0926C98.0907 29.5585 100.423 31.5652 100.423 35.303C100.423 39.0409 98.0907 41.0917 94.0926 41.0917H87.989V47.3628H83.7945V29.5585ZM87.989 33.2714V37.3869H93.6971C95.309 37.3869 96.1053 36.6096 96.1053 35.3278C96.1053 33.9496 95.309 33.2714 93.6971 33.2714H87.989Z" fill="black"/>
<path fill-rule="evenodd" clip-rule="evenodd" d="M110.369 45.4636C110.146 45.8908 108.929 47.6467 106.224 47.6467C102.997 47.6467 100.39 45.0886 100.39 40.8739C100.39 36.6592 102.997 34.126 106.248 34.126C108.855 34.126 110.096 35.7551 110.32 36.1824V34.3768H114.34V47.371H110.369V45.4636ZM107.44 37.6019C105.654 37.6019 104.462 39.005 104.462 40.8877C104.462 42.7704 105.654 44.1735 107.44 44.1735C109.226 44.1735 110.369 42.7676 110.369 40.8877C110.369 39.0077 109.226 37.6019 107.44 37.6019Z" fill="black"/>
<path fill-rule="evenodd" clip-rule="evenodd" d="M124.911 38.9169C124.413 38.0538 123.478 37.5459 122.491 37.6019C120.803 37.6019 119.737 39.005 119.737 40.8878C119.737 42.7704 120.828 44.1956 122.516 44.1956C124.106 44.1956 124.826 43.1674 124.949 42.8669H128.822C128.696 44.6725 126.959 47.7074 122.418 47.7074C118.646 47.7074 115.693 44.9977 115.693 40.8849C115.693 36.7723 118.621 34.0598 122.369 34.0598C126.91 34.0598 128.623 37.0451 128.822 38.9279L124.911 38.9169Z" fill="black"/>
<path fill-rule="evenodd" clip-rule="evenodd" d="M134.177 41.5769V47.3656H130.158V28.897H134.177V39.4572L139.316 34.3659H144.378L138.223 40.3613L144.703 47.3601H139.49L134.177 41.5769Z" fill="black"/>
<path fill-rule="evenodd" clip-rule="evenodd" d="M63.2754 4.65307C74.5707 4.65307 83.7272 13.8156 83.7272 25.1181H87.8176C87.8176 11.5551 76.8297 0.560059 63.2754 0.560059C49.7212 0.560059 38.7333 11.5551 38.7333 25.1181H42.8237C42.8237 13.8156 51.9803 4.65307 63.2754 4.65307Z" fill="black"/>
<path fill-rule="evenodd" clip-rule="evenodd" d="M59.485 23.2626C59.0699 22.3709 59.0886 21.3375 59.5354 20.4613C59.9823 19.585 60.8077 18.9637 61.7729 18.7768L76.1627 15.4805L64.3906 24.4033C63.6257 25.0226 62.618 25.2544 61.6595 25.0315C60.701 24.8087 59.8987 24.1561 59.485 23.2626Z" fill="black"/>
</g>
</g>
<defs>
<clipPath id="clip0_2_156">
<rect width="165" height="47.53" fill="white" transform="translate(0 0.560059)"/>
</clipPath>
<clipPath id="clip1_2_156">
<rect width="124.986" height="47.53" fill="white" transform="translate(20.0069 0.560059)"/>
</clipPath>
</defs>
</svg>
