<svg width="165" height="25" viewBox="0 0 165 25" fill="none" xmlns="http://www.w3.org/2000/svg">
<g clip-path="url(#clip0_2_138)">
<g clip-path="url(#clip1_2_138)">
<path fill-rule="evenodd" clip-rule="evenodd" d="M37.0284 16.3402L33.7012 18.335L30.3741 16.3402V5.54309L33.7012 3.54752L37.0284 5.54309V16.3402ZM46.6107 7.62517V17.0663C46.7953 17.1175 46.955 17.234 47.0602 17.3941C47.1655 17.5541 47.209 17.747 47.1828 17.9367C47.1566 18.1265 47.0625 18.3003 46.9178 18.4259C46.7732 18.5515 46.5879 18.6204 46.3963 18.6197C46.1804 18.6197 45.986 18.5332 45.8418 18.3942L37.6687 23.1129C37.685 23.1757 37.6961 23.24 37.6961 23.3073C37.6974 23.4205 37.6744 23.5327 37.6288 23.6364C37.5831 23.74 37.5158 23.8326 37.4314 23.9081C37.3469 23.9835 37.2473 24.04 37.1392 24.0738C37.0311 24.1075 36.917 24.1177 36.8047 24.1037C36.6923 24.0897 36.5842 24.0518 36.4877 23.9925C36.3912 23.9333 36.3085 23.8541 36.2452 23.7602C36.1818 23.6664 36.1393 23.56 36.1205 23.4484C36.1017 23.3367 36.107 23.2223 36.136 23.1129L33.6059 21.6519L31.0757 23.1129C31.092 23.1757 31.1023 23.24 31.1023 23.3073C31.1023 23.5176 31.0188 23.7193 30.8701 23.868C30.7214 24.0168 30.5197 24.1003 30.3094 24.1003C30.0991 24.1003 29.8974 24.0168 29.7486 23.868C29.5999 23.7193 29.5164 23.5176 29.5164 23.3073C29.5164 23.24 29.5275 23.1757 29.5437 23.1129L21.37 18.3942C21.2219 18.5392 21.0227 18.6202 20.8154 18.6197C20.3785 18.6197 20.1707 18.2648 20.1707 17.8263C20.1707 17.4633 20.4295 17.1609 20.7622 17.0663V7.62443C20.4295 7.53201 20.1707 7.22813 20.1707 6.8651C20.1707 6.42665 20.3777 6.07175 20.8162 6.07175C21.0321 6.07175 21.2265 6.15899 21.37 6.29799L29.5437 1.5793C29.5264 1.51566 29.5172 1.45007 29.5164 1.38411C29.5227 1.17799 29.609 0.982419 29.757 0.838845C29.905 0.695271 30.1032 0.614976 30.3094 0.614976C30.5156 0.614976 30.7137 0.695271 30.8617 0.838845C31.0097 0.982419 31.0961 1.17799 31.1023 1.38411C31.1023 1.45213 31.092 1.5172 31.0757 1.5793L33.6059 3.04031L36.136 1.5793C36.1193 1.51555 36.1103 1.45001 36.1094 1.38411C36.1094 1.1737 36.193 0.971908 36.3418 0.823126C36.4905 0.674344 36.6923 0.590759 36.9027 0.590759C37.1132 0.590759 37.3149 0.674344 37.4637 0.823126C37.6125 0.971908 37.6961 1.1737 37.6961 1.38411C37.6961 1.45213 37.685 1.5172 37.6687 1.5793L45.8425 6.29799C45.9542 6.18912 46.0955 6.11559 46.2487 6.08657C46.402 6.05756 46.5604 6.07436 46.7041 6.13488C46.8479 6.19539 46.9706 6.29693 47.057 6.42681C47.1433 6.55668 47.1895 6.70913 47.1897 6.8651C47.1897 7.22887 46.9435 7.53201 46.61 7.62591L46.6107 7.62517ZM39.9859 17.9505L34.0347 21.4034L36.349 22.7402C36.4966 22.5947 36.6955 22.5132 36.9027 22.5132C37.11 22.5132 37.3089 22.5947 37.4565 22.7402L45.6296 18.0215C45.6126 17.9578 45.6037 17.8923 45.603 17.8263C45.603 17.4633 45.8484 17.1609 46.1812 17.0663V7.62443C46.0151 7.57803 45.8688 7.47868 45.7644 7.34148C45.6601 7.20428 45.6034 7.03674 45.603 6.86436C45.603 6.79707 45.6133 6.73201 45.6296 6.6699L37.4565 1.95047C37.3087 2.09543 37.1098 2.17662 36.9027 2.17662C36.6957 2.17662 36.4968 2.09543 36.349 1.95047L34.0347 3.28726L39.9859 6.74014V17.9505ZM27.4166 17.9505V6.74088L33.3523 3.28726L31.038 1.95047C30.8902 2.0952 30.6915 2.17626 30.4846 2.17626C30.2777 2.17626 30.079 2.0952 29.9312 1.95047L21.7581 6.6699C21.7737 6.73201 21.7847 6.79707 21.7847 6.86436C21.7847 7.22739 21.5393 7.53127 21.2058 7.62517V17.0663C21.5385 17.1609 21.7847 17.4633 21.7847 17.8263C21.7847 17.8944 21.7737 17.9594 21.7581 18.0215L29.9304 22.7402C30.0782 22.5953 30.2769 22.5141 30.4839 22.5141C30.6908 22.5141 30.8895 22.5953 31.0373 22.7402L33.3515 21.4042L27.4166 17.9505ZM61.7679 13.6437C61.7679 14.4925 61.6984 14.7417 61.5239 15.0906C61.1749 15.7568 60.6175 16.0149 59.572 16.0149C58.5783 16.0149 58.0563 15.8027 57.6895 15.2274C57.4455 14.8481 57.3583 14.5982 57.3583 13.6437V6.85253H55.0766V13.6429C55.0766 15.1128 55.2333 15.6415 55.6866 16.233C56.4356 17.2326 57.6385 17.8256 59.5727 17.8256C61.3679 17.8256 62.4829 17.294 63.2844 16.4304C63.8604 15.793 64.0519 15.2341 64.0519 13.6429V6.85253H61.7679V13.6429V13.6437ZM84.6686 17.6748H86.9518V6.854H84.6686V17.6748ZM76.602 13.8012L71.9927 6.854H69.626V17.6748H71.9099V10.6344L76.5806 17.6748H78.8852V6.854H76.602V13.8012ZM142.54 6.854V13.8012L137.931 6.854H135.564V17.6748H137.847V10.6344L142.518 17.6748H144.823V6.854H142.54ZM111.316 6.68986C112.942 6.68986 114.003 7.03811 114.799 7.82554C115.523 8.53904 115.79 9.41742 115.79 11.0995V13.4034C115.79 14.9339 115.559 15.7827 114.976 16.4799C114.215 17.3894 113.066 17.8138 111.316 17.8138C109.566 17.8138 108.416 17.3894 107.656 16.4799C107.072 15.7827 106.842 14.9346 106.842 13.4034V11.0995C106.842 9.41742 107.108 8.53904 107.832 7.82554C108.628 7.03811 109.689 6.68912 111.316 6.68912V6.68986ZM113.473 13.2947V11.2644C113.473 9.3871 112.915 8.47324 111.316 8.45993C109.716 8.47324 109.158 9.3871 109.158 11.2644V13.2947C109.158 15.0766 109.708 16.0156 111.316 16.026C112.923 16.0163 113.473 15.0773 113.473 13.2947ZM129.977 9.99117C129.977 11.3213 129.26 12.6012 127.74 13.0248L130.494 17.6755H127.781L125.376 13.2496H123.58V17.6748H121.296V6.854H125.881C127.484 6.854 128.328 7.10983 128.99 7.67101C129.6 8.21593 129.977 8.89912 129.977 9.99117ZM125.723 11.6296C127.083 11.6296 127.64 10.9612 127.64 10.0821C127.64 9.25697 127.065 8.58784 125.654 8.58784H123.545V11.6296H125.723ZM97.0738 8.45993C98.4003 8.47028 99.0036 9.11206 99.1729 10.3971H101.526C101.455 9.16233 101.173 8.43109 100.557 7.82554C99.7614 7.03811 98.7012 6.68912 97.0738 6.68912C95.4472 6.68912 94.3862 7.03811 93.5914 7.82554C92.866 8.5383 92.6006 9.41742 92.6006 11.0995V13.4026C92.6006 14.9332 92.8298 15.7834 93.4139 16.4799C94.174 17.3894 95.3237 17.8138 97.0738 17.8138C98.8247 17.8138 99.9737 17.3886 100.734 16.4799C101.223 15.8958 101.461 15.1986 101.526 14.0895H99.1788C99.0176 15.3502 98.4195 16.0178 97.0738 16.026C95.4664 16.0163 94.9163 15.0781 94.9163 13.2947V11.2636C94.9163 9.3871 95.4746 8.47324 97.0738 8.45993Z" fill="black"/>
</g>
</g>
<defs>
<clipPath id="clip0_2_138">
<rect width="165" height="23.66" fill="white" transform="translate(0 0.590027)"/>
</clipPath>
<clipPath id="clip1_2_138">
<rect width="124.954" height="23.66" fill="white" transform="translate(20.0228 0.590027)"/>
</clipPath>
</defs>
</svg>
