<svg width="165" height="37" viewBox="0 0 165 37" fill="none" xmlns="http://www.w3.org/2000/svg">
<g clip-path="url(#clip0_2_143)">
<g clip-path="url(#clip1_2_143)">
<path d="M72.0499 24.0814H64.2626L62.4905 27.5724H58.2747L67.8607 8.74707H68.962L77.8499 27.5724H73.6881L72.0499 24.0814ZM70.2778 20.322L68.3178 16.1337L66.1967 20.322H70.2778Z" fill="black"/>
<path d="M84.644 19.5971C84.0256 19.4367 82.8719 19.1408 81.798 18.416C80.2944 17.4227 79.4616 15.9723 79.381 14.172C79.3003 12.6692 79.7841 11.3535 80.7507 10.3328C82.1463 8.88242 84.1611 8.47931 85.1269 8.47931C87.8648 8.47931 89.3975 9.47258 90.7664 10.3586L91.3848 10.7617L89.4233 13.9576L88.7525 13.5279C87.5432 12.7499 86.7652 12.2387 85.1269 12.2387C84.885 12.2387 83.945 12.4266 83.4629 12.9369C83.3032 13.0974 83.1146 13.3916 83.1428 14.0108C83.1694 14.9775 83.8402 15.5144 85.559 15.9425C85.7751 15.9965 85.9347 16.0513 86.096 16.1038C87.8939 16.7221 89.2919 17.5533 90.2585 18.6006C91.2244 19.6753 91.7347 20.9371 91.7347 22.2794C91.7347 23.5952 91.1712 24.9649 90.2319 26.0122C89.1322 27.2465 87.5996 27.9439 85.9089 27.9439C85.0777 27.9439 83.9474 27.8915 82.6059 27.4884C80.9144 26.9515 79.4108 26.0122 78.1216 24.6425L80.8604 22.065C82.8477 24.1877 85.0761 24.1877 85.9089 24.1877C87.4674 24.1877 87.9753 22.764 87.9753 22.2818C87.9753 21.2604 86.82 20.3203 84.8617 19.6479L84.7802 19.6229L84.644 19.5971Z" fill="black"/>
<path d="M107.951 8.74939V12.5088H102.742V27.5731H98.9834V12.5088H93.7478V8.74939H107.951Z" fill="black"/>
<path d="M119.929 27.5723L116.412 20.0268H114.532V27.5456H110.773V8.72278H117.863C120.977 8.72278 123.501 11.2737 123.501 14.3881C123.501 16.6705 122.158 18.6321 120.197 19.5165L123.929 27.5723H119.929ZM114.531 12.483V16.2682H117.86C118.908 16.2682 119.74 15.4354 119.74 14.3881C119.74 13.3408 118.908 12.483 117.86 12.483H114.531Z" fill="black"/>
<path d="M139.183 24.0814H131.395L129.625 27.5723H125.41L134.995 8.74786H136.095L144.982 27.5723H140.82L139.183 24.0814ZM137.409 20.322L135.448 16.1337L133.326 20.322H137.409Z" fill="black"/>
<path d="M37.9522 2.09C42.2582 2.09 46.3079 3.76694 49.3546 6.81124C52.3997 9.85714 54.0766 13.9076 54.0766 18.2144C54.0766 22.5205 52.3989 26.5717 49.3546 29.6168C46.3087 32.6603 42.2598 34.3389 37.9522 34.3389C33.6462 34.3389 29.5965 32.6619 26.5506 29.6168C23.5063 26.5725 21.8277 22.5221 21.8277 18.2144C21.8277 13.9076 23.5055 9.85795 26.5498 6.81204C29.5965 3.76694 33.6462 2.09 37.9522 2.09ZM37.9522 0.280029C28.0469 0.280029 20.0178 8.31 20.0178 18.2144C20.0178 28.1189 28.0469 36.1489 37.9522 36.1489C47.8574 36.1489 55.8874 28.1189 55.8874 18.2144C55.8874 8.31 47.8574 0.280029 37.9522 0.280029Z" fill="black"/>
<path d="M37.7368 8.2359C37.736 8.23509 37.7368 8.23509 37.7368 8.2359C34.6989 14.6462 31.6611 21.0597 28.624 27.47C29.9253 27.47 31.2273 27.47 32.5294 27.47C34.9867 22.5069 37.4457 17.5421 39.9039 12.5758L37.7368 8.2359Z" fill="black"/>
<path d="M41.7859 16.1892C40.5322 18.7925 39.2785 21.3966 38.0248 23.9999L37.9523 24.145H38.0248C39.2301 24.145 40.4354 24.145 41.6407 24.145C42.1229 25.2536 42.605 26.3637 43.0871 27.4723C44.4851 27.4723 45.8831 27.4723 47.2811 27.4723C45.4493 23.7097 43.6168 19.9494 41.7859 16.1892Z" fill="black"/>
</g>
</g>
<defs>
<clipPath id="clip0_2_143">
<rect width="165" height="36.28" fill="white" transform="translate(0 0.280029)"/>
</clipPath>
<clipPath id="clip1_2_143">
<rect width="124.964" height="36.28" fill="white" transform="translate(20.0178 0.280029)"/>
</clipPath>
</defs>
</svg>
